<?xml version="1.0" encoding="utf-8" standalone="no"?>
<!DOCTYPE svg PUBLIC "-//W3C//DTD SVG 1.1//EN"
  "http://www.w3.org/Graphics/SVG/1.1/DTD/svg11.dtd">
<!-- Created with matplotlib (http://matplotlib.org/) -->
<svg height="345.6pt" version="1.1" viewBox="0 0 460.8 345.6" width="460.8pt" xmlns="http://www.w3.org/2000/svg" xmlns:xlink="http://www.w3.org/1999/xlink">
 <defs>
  <style type="text/css">
*{stroke-linecap:butt;stroke-linejoin:round;}
  </style>
 </defs>
 <g id="figure_1">
  <g id="patch_1">
   <path d="M 0 345.6 
L 460.8 345.6 
L 460.8 0 
L 0 0 
z
" style="fill:#ffffff;"/>
  </g>
  <g id="axes_1">
   <g id="patch_2">
    <path d="M 57.6 307.584 
L 414.72 307.584 
L 414.72 41.472 
L 57.6 41.472 
z
" style="fill:#ffffff;"/>
   </g>
   <g id="PolyCollection_1">
    <path clip-path="url(#p4d6526a411)" d="M 73.832727 158.259919 
L 73.832727 101.765167 
L 78.161455 78.163027 
L 82.490182 74.421159 
L 86.818909 67.345923 
L 91.147636 67.345853 
L 95.476364 65.637742 
L 99.805091 66.193836 
L 104.133818 67.768658 
L 108.462545 68.761613 
L 112.791273 70.442213 
L 117.12 71.180646 
L 121.448727 71.838518 
L 125.777455 71.26142 
L 130.106182 70.487843 
L 134.434909 70.841743 
L 138.763636 70.967662 
L 143.092364 70.8847 
L 147.421091 69.706706 
L 151.749818 70.032633 
L 156.078545 69.285728 
L 160.407273 68.553259 
L 164.736 67.924169 
L 169.064727 67.208431 
L 173.393455 66.984252 
L 177.722182 66.237151 
L 182.050909 65.930835 
L 186.379636 65.423558 
L 190.708364 65.227862 
L 195.037091 65.066207 
L 199.365818 65.175957 
L 203.694545 64.849184 
L 208.023273 64.666157 
L 212.352 65.221528 
L 216.680727 65.276807 
L 221.009455 65.340208 
L 225.338182 65.408103 
L 229.666909 65.41071 
L 233.995636 65.631789 
L 238.324364 65.591539 
L 242.653091 65.476754 
L 246.981818 65.539653 
L 251.310545 65.566385 
L 255.639273 65.561305 
L 259.968 65.626744 
L 264.296727 65.582957 
L 268.625455 65.635816 
L 272.954182 65.599891 
L 277.282909 65.631438 
L 281.611636 65.604972 
L 285.940364 65.615737 
L 290.269091 65.664 
L 294.597818 65.664 
L 298.926545 65.662445 
L 303.255273 65.664 
L 307.584 65.527315 
L 311.912727 65.664 
L 316.241455 65.630252 
L 320.570182 65.520904 
L 324.898909 65.611987 
L 329.227636 65.616463 
L 333.556364 65.664 
L 337.885091 65.639715 
L 342.213818 65.657621 
L 346.542545 65.664 
L 350.871273 65.664 
L 355.2 65.664 
L 359.528727 65.661823 
L 363.857455 65.621664 
L 368.186182 65.253099 
L 372.514909 64.612011 
L 376.843636 63.286649 
L 381.172364 63.243579 
L 385.501091 65.857634 
L 389.829818 71.025861 
L 394.158545 79.555764 
L 398.487273 85.630474 
L 398.487273 141.308181 
L 398.487273 141.308181 
L 394.158545 123.364105 
L 389.829818 100.148782 
L 385.501091 89.364321 
L 381.172364 82.424955 
L 376.843636 77.857497 
L 372.514909 70.923946 
L 368.186182 67.718506 
L 363.857455 65.87568 
L 359.528727 65.674886 
L 355.2 65.664 
L 350.871273 65.664 
L 346.542545 65.664 
L 342.213818 65.980036 
L 337.885091 65.929721 
L 333.556364 65.664 
L 329.227636 65.901686 
L 324.898909 65.924064 
L 320.570182 66.379478 
L 316.241455 65.832739 
L 311.912727 65.664 
L 307.584 66.347424 
L 303.255273 65.664 
L 298.926545 66.011984 
L 294.597818 65.664 
L 290.269091 65.664 
L 285.940364 65.905315 
L 281.611636 65.959142 
L 277.282909 65.928321 
L 272.954182 65.984544 
L 268.625455 65.804918 
L 264.296727 66.069216 
L 259.968 65.850278 
L 255.639273 66.177475 
L 251.310545 66.152074 
L 246.981818 66.285734 
L 242.653091 66.60023 
L 238.324364 66.556086 
L 233.995636 66.314074 
L 229.666909 66.930451 
L 225.338182 67.314807 
L 221.009455 67.772678 
L 216.680727 67.599965 
L 212.352 67.876358 
L 208.023273 70.725615 
L 203.694545 70.312281 
L 199.365818 69.251038 
L 195.037091 71.684672 
L 190.708364 70.807901 
L 186.379636 71.699878 
L 182.050909 71.110831 
L 177.722182 73.980925 
L 173.393455 72.974486 
L 169.064727 74.90146 
L 164.736 75.572407 
L 160.407273 78.948545 
L 156.078545 80.082247 
L 151.749818 81.815505 
L 147.421091 80.199298 
L 143.092364 81.884186 
L 138.763636 81.380282 
L 134.434909 81.346534 
L 130.106182 81.802525 
L 125.777455 79.691614 
L 121.448727 78.124096 
L 117.12 83.967765 
L 112.791273 84.591528 
L 108.462545 85.561367 
L 104.133818 85.33698 
L 99.805091 83.184299 
L 95.476364 81.911962 
L 91.147636 83.2114 
L 86.818909 84.685591 
L 82.490182 90.056171 
L 78.161455 115.961599 
L 73.832727 158.259919 
z
" style="fill:#ff6347;fill-opacity:0.2;"/>
   </g>
   <g id="PolyCollection_2">
    <path clip-path="url(#p4d6526a411)" d="M 73.832727 221.827723 
L 73.832727 141.072874 
L 78.161455 106.433795 
L 82.490182 83.914241 
L 86.818909 71.623899 
L 91.147636 70.733582 
L 95.476364 69.301196 
L 99.805091 69.504862 
L 104.133818 73.571062 
L 108.462545 73.782484 
L 112.791273 73.779038 
L 117.12 73.556065 
L 121.448727 73.267343 
L 125.777455 70.759226 
L 130.106182 73.281703 
L 134.434909 68.377276 
L 138.763636 68.096436 
L 143.092364 66.870355 
L 147.421091 65.579403 
L 151.749818 64.881221 
L 156.078545 64.950234 
L 160.407273 64.400266 
L 164.736 64.405837 
L 169.064727 64.530586 
L 173.393455 65.134195 
L 177.722182 65.111639 
L 182.050909 65.704505 
L 186.379636 65.663978 
L 190.708364 65.65306 
L 195.037091 65.573675 
L 199.365818 65.617188 
L 203.694545 65.617672 
L 208.023273 65.567595 
L 212.352 65.620092 
L 216.680727 65.664 
L 221.009455 65.664 
L 225.338182 65.620092 
L 229.666909 65.664 
L 233.995636 65.664 
L 238.324364 65.664 
L 242.653091 65.664 
L 246.981818 65.664 
L 251.310545 65.664 
L 255.639273 65.664 
L 259.968 65.664 
L 264.296727 65.664 
L 268.625455 65.664 
L 272.954182 65.664 
L 277.282909 65.664 
L 281.611636 65.664 
L 285.940364 65.664 
L 290.269091 65.664 
L 294.597818 65.664 
L 298.926545 65.664 
L 303.255273 65.664 
L 307.584 65.664 
L 311.912727 65.664 
L 316.241455 65.664 
L 320.570182 65.664 
L 324.898909 65.664 
L 329.227636 65.664 
L 333.556364 65.664 
L 337.885091 65.664 
L 342.213818 65.664 
L 346.542545 65.52538 
L 350.871273 65.664 
L 355.2 65.664 
L 359.528727 65.664 
L 363.857455 65.660734 
L 368.186182 65.581021 
L 372.514909 65.664 
L 376.843636 65.664 
L 381.172364 65.664 
L 385.501091 65.664 
L 389.829818 65.664 
L 394.158545 65.497438 
L 398.487273 58.684084 
L 398.487273 100.576483 
L 398.487273 100.576483 
L 394.158545 66.49681 
L 389.829818 65.664 
L 385.501091 65.664 
L 381.172364 65.664 
L 376.843636 65.664 
L 372.514909 65.664 
L 368.186182 66.078893 
L 363.857455 65.68033 
L 359.528727 65.664 
L 355.2 65.664 
L 350.871273 65.664 
L 346.542545 66.357101 
L 342.213818 65.664 
L 337.885091 65.664 
L 333.556364 65.664 
L 329.227636 65.664 
L 324.898909 65.664 
L 320.570182 65.664 
L 316.241455 65.664 
L 311.912727 65.664 
L 307.584 65.664 
L 303.255273 65.664 
L 298.926545 65.664 
L 294.597818 65.664 
L 290.269091 65.664 
L 285.940364 65.664 
L 281.611636 65.664 
L 277.282909 65.664 
L 272.954182 65.664 
L 268.625455 65.664 
L 264.296727 65.664 
L 259.968 65.664 
L 255.639273 65.664 
L 251.310545 65.664 
L 246.981818 65.664 
L 242.653091 65.664 
L 238.324364 65.664 
L 233.995636 65.664 
L 229.666909 65.664 
L 225.338182 65.883542 
L 221.009455 65.664 
L 216.680727 65.664 
L 212.352 65.883542 
L 208.023273 66.146026 
L 203.694545 65.895638 
L 199.365818 65.898058 
L 195.037091 66.346545 
L 190.708364 66.186359 
L 186.379636 68.114671 
L 182.050909 69.916124 
L 177.722182 70.460122 
L 173.393455 73.524949 
L 169.064727 75.715069 
L 164.736 79.104286 
L 160.407273 80.223657 
L 156.078545 80.747814 
L 151.749818 82.68832 
L 147.421091 84.940111 
L 143.092364 83.578518 
L 138.763636 83.549941 
L 134.434909 84.424994 
L 130.106182 89.119469 
L 125.777455 88.168459 
L 121.448727 92.459746 
L 117.12 93.829627 
L 112.791273 95.183973 
L 108.462545 95.577759 
L 104.133818 97.536327 
L 99.805091 97.44489 
L 95.476364 101.540566 
L 91.147636 110.824267 
L 86.818909 117.60475 
L 82.490182 140.647791 
L 78.161455 180.501987 
L 73.832727 221.827723 
z
" style="fill:#ffd700;fill-opacity:0.2;"/>
   </g>
   <g id="PolyCollection_3">
    <path clip-path="url(#p4d6526a411)" d="M 73.832727 156.945338 
L 73.832727 101.585166 
L 78.161455 76.456472 
L 82.490182 69.092112 
L 86.818909 66.87867 
L 91.147636 66.309052 
L 95.476364 67.049074 
L 99.805091 66.936188 
L 104.133818 67.490659 
L 108.462545 67.691934 
L 112.791273 67.607892 
L 117.12 67.661009 
L 121.448727 68.480644 
L 125.777455 66.890086 
L 130.106182 66.542249 
L 134.434909 65.563326 
L 138.763636 65.629305 
L 143.092364 65.174338 
L 147.421091 65.367102 
L 151.749818 65.423912 
L 156.078545 65.609689 
L 160.407273 65.664 
L 164.736 65.664 
L 169.064727 65.664 
L 173.393455 65.664 
L 177.722182 65.664 
L 182.050909 65.664 
L 186.379636 65.664 
L 190.708364 65.664 
L 195.037091 65.664 
L 199.365818 65.664 
L 203.694545 65.664 
L 208.023273 65.664 
L 212.352 65.664 
L 216.680727 65.664 
L 221.009455 65.664 
L 225.338182 65.664 
L 229.666909 65.664 
L 233.995636 65.664 
L 238.324364 65.664 
L 242.653091 65.664 
L 246.981818 65.664 
L 251.310545 65.664 
L 255.639273 65.664 
L 259.968 65.664 
L 264.296727 65.664 
L 268.625455 65.664 
L 272.954182 65.664 
L 277.282909 65.664 
L 281.611636 65.664 
L 285.940364 65.664 
L 290.269091 65.664 
L 294.597818 65.664 
L 298.926545 65.664 
L 303.255273 65.664 
L 307.584 65.664 
L 311.912727 65.664 
L 316.241455 65.664 
L 320.570182 65.664 
L 324.898909 65.664 
L 329.227636 65.664 
L 333.556364 65.664 
L 337.885091 65.664 
L 342.213818 65.664 
L 346.542545 65.664 
L 350.871273 65.664 
L 355.2 65.664 
L 359.528727 65.664 
L 363.857455 65.664 
L 368.186182 65.664 
L 372.514909 65.664 
L 376.843636 65.664 
L 381.172364 65.664 
L 385.501091 65.664 
L 389.829818 65.664 
L 394.158545 65.451473 
L 398.487273 65.244632 
L 398.487273 67.760842 
L 398.487273 67.760842 
L 394.158545 66.726634 
L 389.829818 65.664 
L 385.501091 65.664 
L 381.172364 65.664 
L 376.843636 65.664 
L 372.514909 65.664 
L 368.186182 65.664 
L 363.857455 65.664 
L 359.528727 65.664 
L 355.2 65.664 
L 350.871273 65.664 
L 346.542545 65.664 
L 342.213818 65.664 
L 337.885091 65.664 
L 333.556364 65.664 
L 329.227636 65.664 
L 324.898909 65.664 
L 320.570182 65.664 
L 316.241455 65.664 
L 311.912727 65.664 
L 307.584 65.664 
L 303.255273 65.664 
L 298.926545 65.664 
L 294.597818 65.664 
L 290.269091 65.664 
L 285.940364 65.664 
L 281.611636 65.664 
L 277.282909 65.664 
L 272.954182 65.664 
L 268.625455 65.664 
L 264.296727 65.664 
L 259.968 65.664 
L 255.639273 65.664 
L 251.310545 65.664 
L 246.981818 65.664 
L 242.653091 65.664 
L 238.324364 65.664 
L 233.995636 65.664 
L 229.666909 65.664 
L 225.338182 65.664 
L 221.009455 65.664 
L 216.680727 65.664 
L 212.352 65.664 
L 208.023273 65.664 
L 203.694545 65.664 
L 199.365818 65.664 
L 195.037091 65.664 
L 190.708364 65.664 
L 186.379636 65.664 
L 182.050909 65.664 
L 177.722182 65.664 
L 173.393455 65.664 
L 169.064727 65.664 
L 164.736 65.664 
L 160.407273 65.664 
L 156.078545 65.935555 
L 151.749818 67.206585 
L 147.421091 68.661692 
L 143.092364 70.830459 
L 138.763636 74.004776 
L 134.434909 75.758389 
L 130.106182 77.831045 
L 125.777455 75.374633 
L 121.448727 77.273529 
L 117.12 76.09926 
L 112.791273 77.4481 
L 108.462545 74.272804 
L 104.133818 72.807735 
L 99.805091 69.948715 
L 95.476364 70.842215 
L 91.147636 70.840027 
L 86.818909 78.916146 
L 82.490182 88.634682 
L 78.161455 111.860622 
L 73.832727 156.945338 
z
" style="fill:#00ffff;fill-opacity:0.2;"/>
   </g>
   <g id="PolyCollection_4">
    <path clip-path="url(#p4d6526a411)" d="M 73.832727 293.941877 
L 73.832727 293.123728 
L 78.161455 289.74836 
L 82.490182 286.202454 
L 86.818909 282.700232 
L 91.147636 279.063632 
L 95.476364 276.352902 
L 99.805091 273.320239 
L 104.133818 270.154584 
L 108.462545 267.652532 
L 112.791273 264.835943 
L 117.12 263.228644 
L 121.448727 261.787576 
L 125.777455 259.777919 
L 130.106182 258.339342 
L 134.434909 257.013417 
L 138.763636 255.210218 
L 143.092364 253.570109 
L 147.421091 252.230878 
L 151.749818 251.322677 
L 156.078545 250.569863 
L 160.407273 248.171908 
L 164.736 247.050139 
L 169.064727 244.994649 
L 173.393455 247.254679 
L 177.722182 245.159827 
L 182.050909 238.82928 
L 186.379636 238.456805 
L 190.708364 236.712654 
L 195.037091 236.469234 
L 199.365818 232.276589 
L 203.694545 229.976346 
L 208.023273 234.887726 
L 212.352 230.538583 
L 216.680727 230.483001 
L 221.009455 227.850436 
L 225.338182 228.450125 
L 229.666909 225.538106 
L 233.995636 226.842928 
L 238.324364 227.096553 
L 242.653091 221.821114 
L 246.981818 218.798035 
L 251.310545 218.309138 
L 255.639273 222.438581 
L 259.968 218.156496 
L 264.296727 216.151255 
L 268.625455 214.372227 
L 272.954182 220.522413 
L 277.282909 220.520723 
L 281.611636 217.58255 
L 285.940364 214.983295 
L 290.269091 214.001221 
L 294.597818 217.061908 
L 298.926545 217.308685 
L 303.255273 213.948275 
L 307.584 216.085745 
L 311.912727 214.077748 
L 316.241455 216.955064 
L 320.570182 216.211432 
L 324.898909 215.241222 
L 329.227636 214.565122 
L 333.556364 221.448239 
L 337.885091 218.659014 
L 342.213818 219.58918 
L 346.542545 220.385789 
L 350.871273 219.435521 
L 355.2 218.448573 
L 359.528727 222.310511 
L 363.857455 217.342116 
L 368.186182 220.289651 
L 372.514909 224.03267 
L 376.843636 218.354811 
L 381.172364 222.598369 
L 385.501091 220.656147 
L 389.829818 222.797386 
L 394.158545 217.59534 
L 398.487273 216.625907 
L 398.487273 232.447078 
L 398.487273 232.447078 
L 394.158545 234.27037 
L 389.829818 238.275799 
L 385.501091 235.349782 
L 381.172364 236.526876 
L 376.843636 235.424002 
L 372.514909 240.014196 
L 368.186182 235.605963 
L 363.857455 235.990597 
L 359.528727 235.85286 
L 355.2 235.94762 
L 350.871273 234.893418 
L 346.542545 236.994245 
L 342.213818 236.639316 
L 337.885091 236.455681 
L 333.556364 239.696071 
L 329.227636 235.087988 
L 324.898909 236.678194 
L 320.570182 234.545316 
L 316.241455 235.676565 
L 311.912727 234.165936 
L 307.584 237.219873 
L 303.255273 235.822408 
L 298.926545 236.5069 
L 294.597818 236.551432 
L 290.269091 237.083088 
L 285.940364 234.629172 
L 281.611636 237.128139 
L 277.282909 239.499142 
L 272.954182 237.782724 
L 268.625455 238.642603 
L 264.296727 238.879253 
L 259.968 238.127641 
L 255.639273 239.871299 
L 251.310545 240.724178 
L 246.981818 240.812986 
L 242.653091 246.28904 
L 238.324364 242.838646 
L 233.995636 244.95457 
L 229.666909 245.214298 
L 225.338182 245.007913 
L 221.009455 248.89723 
L 216.680727 245.548098 
L 212.352 245.856364 
L 208.023273 248.93368 
L 203.694545 249.004725 
L 199.365818 249.340927 
L 195.037091 249.46994 
L 190.708364 251.186556 
L 186.379636 250.161391 
L 182.050909 251.087543 
L 177.722182 252.828899 
L 173.393455 253.409682 
L 169.064727 253.041493 
L 164.736 253.707603 
L 160.407273 254.520227 
L 156.078545 255.430286 
L 151.749818 256.816045 
L 147.421091 256.788432 
L 143.092364 257.969524 
L 138.763636 260.184651 
L 134.434909 261.044992 
L 130.106182 262.002792 
L 125.777455 262.818909 
L 121.448727 264.382895 
L 117.12 266.406604 
L 112.791273 267.532034 
L 108.462545 270.225415 
L 104.133818 272.553053 
L 99.805091 275.105903 
L 95.476364 278.121724 
L 91.147636 280.638886 
L 86.818909 284.101671 
L 82.490182 287.006942 
L 78.161455 290.453007 
L 73.832727 293.941877 
z
" style="fill:#0000ff;fill-opacity:0.2;"/>
   </g>
   <g id="PolyCollection_5">
    <path clip-path="url(#p4d6526a411)" d="M 73.832727 162.263849 
L 73.832727 92.297231 
L 78.161455 59.536585 
L 82.490182 58.555564 
L 86.818909 59.617031 
L 91.147636 60.873114 
L 95.476364 63.196261 
L 99.805091 65.750069 
L 104.133818 65.994922 
L 108.462545 66.744269 
L 112.791273 65.89629 
L 117.12 65.144168 
L 121.448727 63.320358 
L 125.777455 63.760839 
L 130.106182 64.76049 
L 134.434909 64.186835 
L 138.763636 65.12586 
L 143.092364 64.809921 
L 147.421091 64.791167 
L 151.749818 64.615689 
L 156.078545 65.142958 
L 160.407273 65.401481 
L 164.736 65.399676 
L 169.064727 65.434348 
L 173.393455 65.48876 
L 177.722182 65.519935 
L 182.050909 65.650039 
L 186.379636 65.642274 
L 190.708364 65.329186 
L 195.037091 65.367026 
L 199.365818 65.26776 
L 203.694545 65.544706 
L 208.023273 65.400549 
L 212.352 65.508546 
L 216.680727 65.568563 
L 221.009455 65.568684 
L 225.338182 65.61102 
L 229.666909 65.650211 
L 233.995636 65.662065 
L 238.324364 65.663758 
L 242.653091 65.664 
L 246.981818 65.664 
L 251.310545 65.664 
L 255.639273 65.664 
L 259.968 65.664 
L 264.296727 65.664 
L 268.625455 65.664 
L 272.954182 65.664 
L 277.282909 65.664 
L 281.611636 65.664 
L 285.940364 65.664 
L 290.269091 65.664 
L 294.597818 65.664 
L 298.926545 65.664 
L 303.255273 65.664 
L 307.584 65.664 
L 311.912727 65.664 
L 316.241455 65.664 
L 320.570182 65.664 
L 324.898909 65.664 
L 329.227636 65.664 
L 333.556364 65.664 
L 337.885091 65.664 
L 342.213818 65.664 
L 346.542545 65.664 
L 350.871273 65.483891 
L 355.2 65.664 
L 359.528727 62.320899 
L 363.857455 58.237313 
L 368.186182 57.976412 
L 372.514909 67.765747 
L 376.843636 72.729365 
L 381.172364 77.056105 
L 385.501091 80.0431 
L 389.829818 85.396978 
L 394.158545 87.226895 
L 398.487273 96.840132 
L 398.487273 193.401246 
L 398.487273 193.401246 
L 394.158545 187.294521 
L 389.829818 183.847194 
L 385.501091 176.14465 
L 381.172364 166.249889 
L 376.843636 157.548753 
L 372.514909 138.315533 
L 368.186182 119.743619 
L 363.857455 111.274373 
L 359.528727 84.930275 
L 355.2 65.664 
L 350.871273 66.564547 
L 346.542545 65.664 
L 342.213818 65.664 
L 337.885091 65.664 
L 333.556364 65.664 
L 329.227636 65.664 
L 324.898909 65.664 
L 320.570182 65.664 
L 316.241455 65.664 
L 311.912727 65.664 
L 307.584 65.664 
L 303.255273 65.664 
L 298.926545 65.664 
L 294.597818 65.664 
L 290.269091 65.664 
L 285.940364 65.664 
L 281.611636 65.664 
L 277.282909 65.664 
L 272.954182 65.664 
L 268.625455 65.664 
L 264.296727 65.664 
L 259.968 65.664 
L 255.639273 65.664 
L 251.310545 65.664 
L 246.981818 65.664 
L 242.653091 65.664 
L 238.324364 65.66521 
L 233.995636 65.673677 
L 229.666909 65.732947 
L 225.338182 65.928902 
L 221.009455 66.140582 
L 216.680727 66.141187 
L 212.352 66.512797 
L 208.023273 66.981254 
L 203.694545 66.692429 
L 199.365818 68.009148 
L 195.037091 68.16293 
L 190.708364 68.594131 
L 186.379636 68.07396 
L 182.050909 68.778892 
L 177.722182 69.79152 
L 173.393455 70.34621 
L 169.064727 73.178831 
L 164.736 72.344526 
L 160.407273 75.178024 
L 156.078545 74.116632 
L 151.749818 73.95975 
L 147.421091 74.042159 
L 143.092364 75.573628 
L 138.763636 75.247045 
L 134.434909 78.291741 
L 130.106182 78.26289 
L 125.777455 82.01172 
L 121.448727 85.568615 
L 117.12 86.542852 
L 112.791273 88.707801 
L 108.462545 90.59497 
L 104.133818 97.428605 
L 99.805091 101.785129 
L 95.476364 103.819777 
L 91.147636 107.43768 
L 86.818909 111.426492 
L 82.490182 115.808069 
L 78.161455 120.893433 
L 73.832727 162.263849 
z
" style="fill:#008000;fill-opacity:0.2;"/>
   </g>
   <g id="PolyCollection_6">
    <path clip-path="url(#p4d6526a411)" d="M 73.832727 243.298287 
L 73.832727 206.021457 
L 78.161455 127.111792 
L 82.490182 85.657502 
L 86.818909 66.816475 
L 91.147636 65.497219 
L 95.476364 65.854382 
L 99.805091 66.206539 
L 104.133818 66.352298 
L 108.462545 66.480128 
L 112.791273 66.746092 
L 117.12 66.556225 
L 121.448727 67.532452 
L 125.777455 67.548259 
L 130.106182 67.647448 
L 134.434909 67.748939 
L 138.763636 66.751504 
L 143.092364 66.988456 
L 147.421091 66.010365 
L 151.749818 65.987753 
L 156.078545 65.003182 
L 160.407273 65.22624 
L 164.736 64.826497 
L 169.064727 64.489303 
L 173.393455 64.09351 
L 177.722182 64.795297 
L 182.050909 64.213828 
L 186.379636 64.333587 
L 190.708364 63.843397 
L 195.037091 64.68495 
L 199.365818 64.230019 
L 203.694545 64.468794 
L 208.023273 64.625679 
L 212.352 64.653258 
L 216.680727 64.838327 
L 221.009455 65.104802 
L 225.338182 64.992914 
L 229.666909 65.332449 
L 233.995636 65.493567 
L 238.324364 65.604004 
L 242.653091 65.584529 
L 246.981818 65.522598 
L 251.310545 65.664 
L 255.639273 65.488003 
L 259.968 65.644404 
L 264.296727 65.664 
L 268.625455 65.664 
L 272.954182 65.579086 
L 277.282909 65.581868 
L 281.611636 65.664 
L 285.940364 65.664 
L 290.269091 65.57836 
L 294.597818 65.59469 
L 298.926545 65.590214 
L 303.255273 65.585739 
L 307.584 65.485342 
L 311.912727 65.59215 
L 316.241455 65.581868 
L 320.570182 65.604609 
L 324.898909 65.664 
L 329.227636 65.664 
L 333.556364 65.664 
L 337.885091 65.664 
L 342.213818 65.546427 
L 346.542545 65.531912 
L 350.871273 65.650211 
L 355.2 65.532637 
L 359.528727 65.657775 
L 363.857455 65.588399 
L 368.186182 65.57849 
L 372.514909 65.448293 
L 376.843636 64.499333 
L 381.172364 61.892667 
L 385.501091 60.323058 
L 389.829818 58.119202 
L 394.158545 57.943092 
L 398.487273 58.070161 
L 398.487273 114.631965 
L 398.487273 114.631965 
L 394.158545 110.194487 
L 389.829818 109.354549 
L 385.501091 94.478923 
L 381.172364 85.351733 
L 376.843636 72.311058 
L 372.514909 68.687914 
L 368.186182 67.573587 
L 363.857455 66.880012 
L 359.528727 66.392598 
L 355.2 66.320813 
L 350.871273 65.732947 
L 346.542545 66.324442 
L 342.213818 66.251866 
L 337.885091 65.664 
L 333.556364 65.664 
L 329.227636 65.664 
L 324.898909 65.664 
L 320.570182 65.960957 
L 316.241455 66.074659 
L 311.912727 66.023251 
L 307.584 66.55729 
L 303.255273 66.055306 
L 298.926545 66.032928 
L 294.597818 66.01055 
L 290.269091 66.092198 
L 285.940364 65.664 
L 281.611636 65.664 
L 277.282909 66.074659 
L 272.954182 66.08857 
L 268.625455 65.664 
L 264.296727 65.664 
L 259.968 65.761978 
L 255.639273 66.543984 
L 251.310545 65.664 
L 246.981818 66.371011 
L 242.653091 66.061354 
L 238.324364 65.963981 
L 233.995636 66.516163 
L 229.666909 67.321757 
L 225.338182 69.01943 
L 221.009455 68.45999 
L 216.680727 69.792365 
L 212.352 70.717709 
L 208.023273 70.855603 
L 203.694545 71.640029 
L 199.365818 72.833904 
L 195.037091 70.559251 
L 190.708364 75.455383 
L 186.379636 73.059347 
L 182.050909 75.524763 
L 177.722182 70.844201 
L 173.393455 75.471383 
L 169.064727 74.033882 
L 164.736 72.394674 
L 160.407273 72.294428 
L 156.078545 75.012649 
L 151.749818 74.175649 
L 147.421091 75.416343 
L 143.092364 73.987798 
L 138.763636 76.644433 
L 134.434909 73.951139 
L 130.106182 73.459443 
L 125.777455 73.126079 
L 121.448727 73.078986 
L 117.12 71.5436 
L 112.791273 70.590233 
L 108.462545 70.2543 
L 104.133818 70.666145 
L 99.805091 69.563596 
L 95.476364 68.054905 
L 91.147636 70.947389 
L 86.818909 82.352157 
L 82.490182 128.200538 
L 78.161455 189.199852 
L 73.832727 243.298287 
z
" style="fill:#800080;fill-opacity:0.2;"/>
   </g>
   <g id="matplotlib.axis_1">
    <g id="xtick_1">
     <g id="line2d_1">
      <path clip-path="url(#p4d6526a411)" d="M 95.476364 307.584 
L 95.476364 41.472 
" style="fill:none;stroke:#b0b0b0;stroke-dasharray:2.96,1.28;stroke-dashoffset:0;stroke-width:0.8;"/>
     </g>
     <g id="line2d_2">
      <defs>
       <path d="M 0 0 
L 0 3.5 
" id="mf4be89a5da" style="stroke:#000000;stroke-width:0.8;"/>
      </defs>
      <g>
       <use style="stroke:#000000;stroke-width:0.8;" x="95.476364" xlink:href="#mf4be89a5da" y="307.584"/>
      </g>
     </g>
     <g id="text_1">
      <!-- 0.2 -->
      <defs>
       <path d="M 31.78125 66.40625 
Q 24.171875 66.40625 20.328125 58.90625 
Q 16.5 51.421875 16.5 36.375 
Q 16.5 21.390625 20.328125 13.890625 
Q 24.171875 6.390625 31.78125 6.390625 
Q 39.453125 6.390625 43.28125 13.890625 
Q 47.125 21.390625 47.125 36.375 
Q 47.125 51.421875 43.28125 58.90625 
Q 39.453125 66.40625 31.78125 66.40625 
z
M 31.78125 74.21875 
Q 44.046875 74.21875 50.515625 64.515625 
Q 56.984375 54.828125 56.984375 36.375 
Q 56.984375 17.96875 50.515625 8.265625 
Q 44.046875 -1.421875 31.78125 -1.421875 
Q 19.53125 -1.421875 13.0625 8.265625 
Q 6.59375 17.96875 6.59375 36.375 
Q 6.59375 54.828125 13.0625 64.515625 
Q 19.53125 74.21875 31.78125 74.21875 
z
" id="DejaVuSans-30"/>
       <path d="M 10.6875 12.40625 
L 21 12.40625 
L 21 0 
L 10.6875 0 
z
" id="DejaVuSans-2e"/>
       <path d="M 19.1875 8.296875 
L 53.609375 8.296875 
L 53.609375 0 
L 7.328125 0 
L 7.328125 8.296875 
Q 12.9375 14.109375 22.625 23.890625 
Q 32.328125 33.6875 34.8125 36.53125 
Q 39.546875 41.84375 41.421875 45.53125 
Q 43.3125 49.21875 43.3125 52.78125 
Q 43.3125 58.59375 39.234375 62.25 
Q 35.15625 65.921875 28.609375 65.921875 
Q 23.96875 65.921875 18.8125 64.3125 
Q 13.671875 62.703125 7.8125 59.421875 
L 7.8125 69.390625 
Q 13.765625 71.78125 18.9375 73 
Q 24.125 74.21875 28.421875 74.21875 
Q 39.75 74.21875 46.484375 68.546875 
Q 53.21875 62.890625 53.21875 53.421875 
Q 53.21875 48.921875 51.53125 44.890625 
Q 49.859375 40.875 45.40625 35.40625 
Q 44.1875 33.984375 37.640625 27.21875 
Q 31.109375 20.453125 19.1875 8.296875 
z
" id="DejaVuSans-32"/>
      </defs>
      <g transform="translate(87.524801 322.182437)scale(0.1 -0.1)">
       <use xlink:href="#DejaVuSans-30"/>
       <use x="63.623047" xlink:href="#DejaVuSans-2e"/>
       <use x="95.410156" xlink:href="#DejaVuSans-32"/>
      </g>
     </g>
    </g>
    <g id="xtick_2">
     <g id="line2d_3">
      <path clip-path="url(#p4d6526a411)" d="M 138.763636 307.584 
L 138.763636 41.472 
" style="fill:none;stroke:#b0b0b0;stroke-dasharray:2.96,1.28;stroke-dashoffset:0;stroke-width:0.8;"/>
     </g>
     <g id="line2d_4">
      <g>
       <use style="stroke:#000000;stroke-width:0.8;" x="138.763636" xlink:href="#mf4be89a5da" y="307.584"/>
      </g>
     </g>
     <g id="text_2">
      <!-- 0.4 -->
      <defs>
       <path d="M 37.796875 64.3125 
L 12.890625 25.390625 
L 37.796875 25.390625 
z
M 35.203125 72.90625 
L 47.609375 72.90625 
L 47.609375 25.390625 
L 58.015625 25.390625 
L 58.015625 17.1875 
L 47.609375 17.1875 
L 47.609375 0 
L 37.796875 0 
L 37.796875 17.1875 
L 4.890625 17.1875 
L 4.890625 26.703125 
z
" id="DejaVuSans-34"/>
      </defs>
      <g transform="translate(130.812074 322.182437)scale(0.1 -0.1)">
       <use xlink:href="#DejaVuSans-30"/>
       <use x="63.623047" xlink:href="#DejaVuSans-2e"/>
       <use x="95.410156" xlink:href="#DejaVuSans-34"/>
      </g>
     </g>
    </g>
    <g id="xtick_3">
     <g id="line2d_5">
      <path clip-path="url(#p4d6526a411)" d="M 182.050909 307.584 
L 182.050909 41.472 
" style="fill:none;stroke:#b0b0b0;stroke-dasharray:2.96,1.28;stroke-dashoffset:0;stroke-width:0.8;"/>
     </g>
     <g id="line2d_6">
      <g>
       <use style="stroke:#000000;stroke-width:0.8;" x="182.050909" xlink:href="#mf4be89a5da" y="307.584"/>
      </g>
     </g>
     <g id="text_3">
      <!-- 0.6 -->
      <defs>
       <path d="M 33.015625 40.375 
Q 26.375 40.375 22.484375 35.828125 
Q 18.609375 31.296875 18.609375 23.390625 
Q 18.609375 15.53125 22.484375 10.953125 
Q 26.375 6.390625 33.015625 6.390625 
Q 39.65625 6.390625 43.53125 10.953125 
Q 47.40625 15.53125 47.40625 23.390625 
Q 47.40625 31.296875 43.53125 35.828125 
Q 39.65625 40.375 33.015625 40.375 
z
M 52.59375 71.296875 
L 52.59375 62.3125 
Q 48.875 64.0625 45.09375 64.984375 
Q 41.3125 65.921875 37.59375 65.921875 
Q 27.828125 65.921875 22.671875 59.328125 
Q 17.53125 52.734375 16.796875 39.40625 
Q 19.671875 43.65625 24.015625 45.921875 
Q 28.375 48.1875 33.59375 48.1875 
Q 44.578125 48.1875 50.953125 41.515625 
Q 57.328125 34.859375 57.328125 23.390625 
Q 57.328125 12.15625 50.6875 5.359375 
Q 44.046875 -1.421875 33.015625 -1.421875 
Q 20.359375 -1.421875 13.671875 8.265625 
Q 6.984375 17.96875 6.984375 36.375 
Q 6.984375 53.65625 15.1875 63.9375 
Q 23.390625 74.21875 37.203125 74.21875 
Q 40.921875 74.21875 44.703125 73.484375 
Q 48.484375 72.75 52.59375 71.296875 
z
" id="DejaVuSans-36"/>
      </defs>
      <g transform="translate(174.099347 322.182437)scale(0.1 -0.1)">
       <use xlink:href="#DejaVuSans-30"/>
       <use x="63.623047" xlink:href="#DejaVuSans-2e"/>
       <use x="95.410156" xlink:href="#DejaVuSans-36"/>
      </g>
     </g>
    </g>
    <g id="xtick_4">
     <g id="line2d_7">
      <path clip-path="url(#p4d6526a411)" d="M 225.338182 307.584 
L 225.338182 41.472 
" style="fill:none;stroke:#b0b0b0;stroke-dasharray:2.96,1.28;stroke-dashoffset:0;stroke-width:0.8;"/>
     </g>
     <g id="line2d_8">
      <g>
       <use style="stroke:#000000;stroke-width:0.8;" x="225.338182" xlink:href="#mf4be89a5da" y="307.584"/>
      </g>
     </g>
     <g id="text_4">
      <!-- 0.8 -->
      <defs>
       <path d="M 31.78125 34.625 
Q 24.75 34.625 20.71875 30.859375 
Q 16.703125 27.09375 16.703125 20.515625 
Q 16.703125 13.921875 20.71875 10.15625 
Q 24.75 6.390625 31.78125 6.390625 
Q 38.8125 6.390625 42.859375 10.171875 
Q 46.921875 13.96875 46.921875 20.515625 
Q 46.921875 27.09375 42.890625 30.859375 
Q 38.875 34.625 31.78125 34.625 
z
M 21.921875 38.8125 
Q 15.578125 40.375 12.03125 44.71875 
Q 8.5 49.078125 8.5 55.328125 
Q 8.5 64.0625 14.71875 69.140625 
Q 20.953125 74.21875 31.78125 74.21875 
Q 42.671875 74.21875 48.875 69.140625 
Q 55.078125 64.0625 55.078125 55.328125 
Q 55.078125 49.078125 51.53125 44.71875 
Q 48 40.375 41.703125 38.8125 
Q 48.828125 37.15625 52.796875 32.3125 
Q 56.78125 27.484375 56.78125 20.515625 
Q 56.78125 9.90625 50.3125 4.234375 
Q 43.84375 -1.421875 31.78125 -1.421875 
Q 19.734375 -1.421875 13.25 4.234375 
Q 6.78125 9.90625 6.78125 20.515625 
Q 6.78125 27.484375 10.78125 32.3125 
Q 14.796875 37.15625 21.921875 38.8125 
z
M 18.3125 54.390625 
Q 18.3125 48.734375 21.84375 45.5625 
Q 25.390625 42.390625 31.78125 42.390625 
Q 38.140625 42.390625 41.71875 45.5625 
Q 45.3125 48.734375 45.3125 54.390625 
Q 45.3125 60.0625 41.71875 63.234375 
Q 38.140625 66.40625 31.78125 66.40625 
Q 25.390625 66.40625 21.84375 63.234375 
Q 18.3125 60.0625 18.3125 54.390625 
z
" id="DejaVuSans-38"/>
      </defs>
      <g transform="translate(217.386619 322.182437)scale(0.1 -0.1)">
       <use xlink:href="#DejaVuSans-30"/>
       <use x="63.623047" xlink:href="#DejaVuSans-2e"/>
       <use x="95.410156" xlink:href="#DejaVuSans-38"/>
      </g>
     </g>
    </g>
    <g id="xtick_5">
     <g id="line2d_9">
      <path clip-path="url(#p4d6526a411)" d="M 268.625455 307.584 
L 268.625455 41.472 
" style="fill:none;stroke:#b0b0b0;stroke-dasharray:2.96,1.28;stroke-dashoffset:0;stroke-width:0.8;"/>
     </g>
     <g id="line2d_10">
      <g>
       <use style="stroke:#000000;stroke-width:0.8;" x="268.625455" xlink:href="#mf4be89a5da" y="307.584"/>
      </g>
     </g>
     <g id="text_5">
      <!-- 1.0 -->
      <defs>
       <path d="M 12.40625 8.296875 
L 28.515625 8.296875 
L 28.515625 63.921875 
L 10.984375 60.40625 
L 10.984375 69.390625 
L 28.421875 72.90625 
L 38.28125 72.90625 
L 38.28125 8.296875 
L 54.390625 8.296875 
L 54.390625 0 
L 12.40625 0 
z
" id="DejaVuSans-31"/>
      </defs>
      <g transform="translate(260.673892 322.182437)scale(0.1 -0.1)">
       <use xlink:href="#DejaVuSans-31"/>
       <use x="63.623047" xlink:href="#DejaVuSans-2e"/>
       <use x="95.410156" xlink:href="#DejaVuSans-30"/>
      </g>
     </g>
    </g>
    <g id="xtick_6">
     <g id="line2d_11">
      <path clip-path="url(#p4d6526a411)" d="M 311.912727 307.584 
L 311.912727 41.472 
" style="fill:none;stroke:#b0b0b0;stroke-dasharray:2.96,1.28;stroke-dashoffset:0;stroke-width:0.8;"/>
     </g>
     <g id="line2d_12">
      <g>
       <use style="stroke:#000000;stroke-width:0.8;" x="311.912727" xlink:href="#mf4be89a5da" y="307.584"/>
      </g>
     </g>
     <g id="text_6">
      <!-- 1.2 -->
      <g transform="translate(303.961165 322.182437)scale(0.1 -0.1)">
       <use xlink:href="#DejaVuSans-31"/>
       <use x="63.623047" xlink:href="#DejaVuSans-2e"/>
       <use x="95.410156" xlink:href="#DejaVuSans-32"/>
      </g>
     </g>
    </g>
    <g id="xtick_7">
     <g id="line2d_13">
      <path clip-path="url(#p4d6526a411)" d="M 355.2 307.584 
L 355.2 41.472 
" style="fill:none;stroke:#b0b0b0;stroke-dasharray:2.96,1.28;stroke-dashoffset:0;stroke-width:0.8;"/>
     </g>
     <g id="line2d_14">
      <g>
       <use style="stroke:#000000;stroke-width:0.8;" x="355.2" xlink:href="#mf4be89a5da" y="307.584"/>
      </g>
     </g>
     <g id="text_7">
      <!-- 1.4 -->
      <g transform="translate(347.248437 322.182437)scale(0.1 -0.1)">
       <use xlink:href="#DejaVuSans-31"/>
       <use x="63.623047" xlink:href="#DejaVuSans-2e"/>
       <use x="95.410156" xlink:href="#DejaVuSans-34"/>
      </g>
     </g>
    </g>
    <g id="xtick_8">
     <g id="line2d_15">
      <path clip-path="url(#p4d6526a411)" d="M 398.487273 307.584 
L 398.487273 41.472 
" style="fill:none;stroke:#b0b0b0;stroke-dasharray:2.96,1.28;stroke-dashoffset:0;stroke-width:0.8;"/>
     </g>
     <g id="line2d_16">
      <g>
       <use style="stroke:#000000;stroke-width:0.8;" x="398.487273" xlink:href="#mf4be89a5da" y="307.584"/>
      </g>
     </g>
     <g id="text_8">
      <!-- 1.6 -->
      <g transform="translate(390.53571 322.182437)scale(0.1 -0.1)">
       <use xlink:href="#DejaVuSans-31"/>
       <use x="63.623047" xlink:href="#DejaVuSans-2e"/>
       <use x="95.410156" xlink:href="#DejaVuSans-36"/>
      </g>
     </g>
    </g>
    <g id="text_9">
     <!-- Pole Length -->
     <defs>
      <path d="M 19.671875 64.796875 
L 19.671875 37.40625 
L 32.078125 37.40625 
Q 38.96875 37.40625 42.71875 40.96875 
Q 46.484375 44.53125 46.484375 51.125 
Q 46.484375 57.671875 42.71875 61.234375 
Q 38.96875 64.796875 32.078125 64.796875 
z
M 9.8125 72.90625 
L 32.078125 72.90625 
Q 44.34375 72.90625 50.609375 67.359375 
Q 56.890625 61.8125 56.890625 51.125 
Q 56.890625 40.328125 50.609375 34.8125 
Q 44.34375 29.296875 32.078125 29.296875 
L 19.671875 29.296875 
L 19.671875 0 
L 9.8125 0 
z
" id="DejaVuSans-50"/>
      <path d="M 30.609375 48.390625 
Q 23.390625 48.390625 19.1875 42.75 
Q 14.984375 37.109375 14.984375 27.296875 
Q 14.984375 17.484375 19.15625 11.84375 
Q 23.34375 6.203125 30.609375 6.203125 
Q 37.796875 6.203125 41.984375 11.859375 
Q 46.1875 17.53125 46.1875 27.296875 
Q 46.1875 37.015625 41.984375 42.703125 
Q 37.796875 48.390625 30.609375 48.390625 
z
M 30.609375 56 
Q 42.328125 56 49.015625 48.375 
Q 55.71875 40.765625 55.71875 27.296875 
Q 55.71875 13.875 49.015625 6.21875 
Q 42.328125 -1.421875 30.609375 -1.421875 
Q 18.84375 -1.421875 12.171875 6.21875 
Q 5.515625 13.875 5.515625 27.296875 
Q 5.515625 40.765625 12.171875 48.375 
Q 18.84375 56 30.609375 56 
z
" id="DejaVuSans-6f"/>
      <path d="M 9.421875 75.984375 
L 18.40625 75.984375 
L 18.40625 0 
L 9.421875 0 
z
" id="DejaVuSans-6c"/>
      <path d="M 56.203125 29.59375 
L 56.203125 25.203125 
L 14.890625 25.203125 
Q 15.484375 15.921875 20.484375 11.0625 
Q 25.484375 6.203125 34.421875 6.203125 
Q 39.59375 6.203125 44.453125 7.46875 
Q 49.3125 8.734375 54.109375 11.28125 
L 54.109375 2.78125 
Q 49.265625 0.734375 44.1875 -0.34375 
Q 39.109375 -1.421875 33.890625 -1.421875 
Q 20.796875 -1.421875 13.15625 6.1875 
Q 5.515625 13.8125 5.515625 26.8125 
Q 5.515625 40.234375 12.765625 48.109375 
Q 20.015625 56 32.328125 56 
Q 43.359375 56 49.78125 48.890625 
Q 56.203125 41.796875 56.203125 29.59375 
z
M 47.21875 32.234375 
Q 47.125 39.59375 43.09375 43.984375 
Q 39.0625 48.390625 32.421875 48.390625 
Q 24.90625 48.390625 20.390625 44.140625 
Q 15.875 39.890625 15.1875 32.171875 
z
" id="DejaVuSans-65"/>
      <path id="DejaVuSans-20"/>
      <path d="M 9.8125 72.90625 
L 19.671875 72.90625 
L 19.671875 8.296875 
L 55.171875 8.296875 
L 55.171875 0 
L 9.8125 0 
z
" id="DejaVuSans-4c"/>
      <path d="M 54.890625 33.015625 
L 54.890625 0 
L 45.90625 0 
L 45.90625 32.71875 
Q 45.90625 40.484375 42.875 44.328125 
Q 39.84375 48.1875 33.796875 48.1875 
Q 26.515625 48.1875 22.3125 43.546875 
Q 18.109375 38.921875 18.109375 30.90625 
L 18.109375 0 
L 9.078125 0 
L 9.078125 54.6875 
L 18.109375 54.6875 
L 18.109375 46.1875 
Q 21.34375 51.125 25.703125 53.5625 
Q 30.078125 56 35.796875 56 
Q 45.21875 56 50.046875 50.171875 
Q 54.890625 44.34375 54.890625 33.015625 
z
" id="DejaVuSans-6e"/>
      <path d="M 45.40625 27.984375 
Q 45.40625 37.75 41.375 43.109375 
Q 37.359375 48.484375 30.078125 48.484375 
Q 22.859375 48.484375 18.828125 43.109375 
Q 14.796875 37.75 14.796875 27.984375 
Q 14.796875 18.265625 18.828125 12.890625 
Q 22.859375 7.515625 30.078125 7.515625 
Q 37.359375 7.515625 41.375 12.890625 
Q 45.40625 18.265625 45.40625 27.984375 
z
M 54.390625 6.78125 
Q 54.390625 -7.171875 48.1875 -13.984375 
Q 42 -20.796875 29.203125 -20.796875 
Q 24.46875 -20.796875 20.265625 -20.09375 
Q 16.0625 -19.390625 12.109375 -17.921875 
L 12.109375 -9.1875 
Q 16.0625 -11.328125 19.921875 -12.34375 
Q 23.78125 -13.375 27.78125 -13.375 
Q 36.625 -13.375 41.015625 -8.765625 
Q 45.40625 -4.15625 45.40625 5.171875 
L 45.40625 9.625 
Q 42.625 4.78125 38.28125 2.390625 
Q 33.9375 0 27.875 0 
Q 17.828125 0 11.671875 7.65625 
Q 5.515625 15.328125 5.515625 27.984375 
Q 5.515625 40.671875 11.671875 48.328125 
Q 17.828125 56 27.875 56 
Q 33.9375 56 38.28125 53.609375 
Q 42.625 51.21875 45.40625 46.390625 
L 45.40625 54.6875 
L 54.390625 54.6875 
z
" id="DejaVuSans-67"/>
      <path d="M 18.3125 70.21875 
L 18.3125 54.6875 
L 36.8125 54.6875 
L 36.8125 47.703125 
L 18.3125 47.703125 
L 18.3125 18.015625 
Q 18.3125 11.328125 20.140625 9.421875 
Q 21.96875 7.515625 27.59375 7.515625 
L 36.8125 7.515625 
L 36.8125 0 
L 27.59375 0 
Q 17.1875 0 13.234375 3.875 
Q 9.28125 7.765625 9.28125 18.015625 
L 9.28125 47.703125 
L 2.6875 47.703125 
L 2.6875 54.6875 
L 9.28125 54.6875 
L 9.28125 70.21875 
z
" id="DejaVuSans-74"/>
      <path d="M 54.890625 33.015625 
L 54.890625 0 
L 45.90625 0 
L 45.90625 32.71875 
Q 45.90625 40.484375 42.875 44.328125 
Q 39.84375 48.1875 33.796875 48.1875 
Q 26.515625 48.1875 22.3125 43.546875 
Q 18.109375 38.921875 18.109375 30.90625 
L 18.109375 0 
L 9.078125 0 
L 9.078125 75.984375 
L 18.109375 75.984375 
L 18.109375 46.1875 
Q 21.34375 51.125 25.703125 53.5625 
Q 30.078125 56 35.796875 56 
Q 45.21875 56 50.046875 50.171875 
Q 54.890625 44.34375 54.890625 33.015625 
z
" id="DejaVuSans-68"/>
     </defs>
     <g transform="translate(206.699844 335.860562)scale(0.1 -0.1)">
      <use xlink:href="#DejaVuSans-50"/>
      <use x="60.255859" xlink:href="#DejaVuSans-6f"/>
      <use x="121.4375" xlink:href="#DejaVuSans-6c"/>
      <use x="149.220703" xlink:href="#DejaVuSans-65"/>
      <use x="210.744141" xlink:href="#DejaVuSans-20"/>
      <use x="242.53125" xlink:href="#DejaVuSans-4c"/>
      <use x="298.228516" xlink:href="#DejaVuSans-65"/>
      <use x="359.751953" xlink:href="#DejaVuSans-6e"/>
      <use x="423.130859" xlink:href="#DejaVuSans-67"/>
      <use x="486.607422" xlink:href="#DejaVuSans-74"/>
      <use x="525.816406" xlink:href="#DejaVuSans-68"/>
     </g>
    </g>
   </g>
   <g id="matplotlib.axis_2">
    <g id="ytick_1">
     <g id="line2d_17">
      <path clip-path="url(#p4d6526a411)" d="M 57.6 307.584 
L 414.72 307.584 
" style="fill:none;stroke:#b0b0b0;stroke-dasharray:2.96,1.28;stroke-dashoffset:0;stroke-width:0.8;"/>
     </g>
     <g id="line2d_18">
      <defs>
       <path d="M 0 0 
L -3.5 0 
" id="m46e3fc5602" style="stroke:#000000;stroke-width:0.8;"/>
      </defs>
      <g>
       <use style="stroke:#000000;stroke-width:0.8;" x="57.6" xlink:href="#m46e3fc5602" y="307.584"/>
      </g>
     </g>
     <g id="text_10">
      <!-- 0 -->
      <g transform="translate(44.2375 311.383219)scale(0.1 -0.1)">
       <use xlink:href="#DejaVuSans-30"/>
      </g>
     </g>
    </g>
    <g id="ytick_2">
     <g id="line2d_19">
      <path clip-path="url(#p4d6526a411)" d="M 57.6 259.2 
L 414.72 259.2 
" style="fill:none;stroke:#b0b0b0;stroke-dasharray:2.96,1.28;stroke-dashoffset:0;stroke-width:0.8;"/>
     </g>
     <g id="line2d_20">
      <g>
       <use style="stroke:#000000;stroke-width:0.8;" x="57.6" xlink:href="#m46e3fc5602" y="259.2"/>
      </g>
     </g>
     <g id="text_11">
      <!-- 200 -->
      <g transform="translate(31.5125 262.999219)scale(0.1 -0.1)">
       <use xlink:href="#DejaVuSans-32"/>
       <use x="63.623047" xlink:href="#DejaVuSans-30"/>
       <use x="127.246094" xlink:href="#DejaVuSans-30"/>
      </g>
     </g>
    </g>
    <g id="ytick_3">
     <g id="line2d_21">
      <path clip-path="url(#p4d6526a411)" d="M 57.6 210.816 
L 414.72 210.816 
" style="fill:none;stroke:#b0b0b0;stroke-dasharray:2.96,1.28;stroke-dashoffset:0;stroke-width:0.8;"/>
     </g>
     <g id="line2d_22">
      <g>
       <use style="stroke:#000000;stroke-width:0.8;" x="57.6" xlink:href="#m46e3fc5602" y="210.816"/>
      </g>
     </g>
     <g id="text_12">
      <!-- 400 -->
      <g transform="translate(31.5125 214.615219)scale(0.1 -0.1)">
       <use xlink:href="#DejaVuSans-34"/>
       <use x="63.623047" xlink:href="#DejaVuSans-30"/>
       <use x="127.246094" xlink:href="#DejaVuSans-30"/>
      </g>
     </g>
    </g>
    <g id="ytick_4">
     <g id="line2d_23">
      <path clip-path="url(#p4d6526a411)" d="M 57.6 162.432 
L 414.72 162.432 
" style="fill:none;stroke:#b0b0b0;stroke-dasharray:2.96,1.28;stroke-dashoffset:0;stroke-width:0.8;"/>
     </g>
     <g id="line2d_24">
      <g>
       <use style="stroke:#000000;stroke-width:0.8;" x="57.6" xlink:href="#m46e3fc5602" y="162.432"/>
      </g>
     </g>
     <g id="text_13">
      <!-- 600 -->
      <g transform="translate(31.5125 166.231219)scale(0.1 -0.1)">
       <use xlink:href="#DejaVuSans-36"/>
       <use x="63.623047" xlink:href="#DejaVuSans-30"/>
       <use x="127.246094" xlink:href="#DejaVuSans-30"/>
      </g>
     </g>
    </g>
    <g id="ytick_5">
     <g id="line2d_25">
      <path clip-path="url(#p4d6526a411)" d="M 57.6 114.048 
L 414.72 114.048 
" style="fill:none;stroke:#b0b0b0;stroke-dasharray:2.96,1.28;stroke-dashoffset:0;stroke-width:0.8;"/>
     </g>
     <g id="line2d_26">
      <g>
       <use style="stroke:#000000;stroke-width:0.8;" x="57.6" xlink:href="#m46e3fc5602" y="114.048"/>
      </g>
     </g>
     <g id="text_14">
      <!-- 800 -->
      <g transform="translate(31.5125 117.847219)scale(0.1 -0.1)">
       <use xlink:href="#DejaVuSans-38"/>
       <use x="63.623047" xlink:href="#DejaVuSans-30"/>
       <use x="127.246094" xlink:href="#DejaVuSans-30"/>
      </g>
     </g>
    </g>
    <g id="ytick_6">
     <g id="line2d_27">
      <path clip-path="url(#p4d6526a411)" d="M 57.6 65.664 
L 414.72 65.664 
" style="fill:none;stroke:#b0b0b0;stroke-dasharray:2.96,1.28;stroke-dashoffset:0;stroke-width:0.8;"/>
     </g>
     <g id="line2d_28">
      <g>
       <use style="stroke:#000000;stroke-width:0.8;" x="57.6" xlink:href="#m46e3fc5602" y="65.664"/>
      </g>
     </g>
     <g id="text_15">
      <!-- 1000 -->
      <g transform="translate(25.15 69.463219)scale(0.1 -0.1)">
       <use xlink:href="#DejaVuSans-31"/>
       <use x="63.623047" xlink:href="#DejaVuSans-30"/>
       <use x="127.246094" xlink:href="#DejaVuSans-30"/>
       <use x="190.869141" xlink:href="#DejaVuSans-30"/>
      </g>
     </g>
    </g>
    <g id="text_16">
     <!-- Rewards -->
     <defs>
      <path d="M 44.390625 34.1875 
Q 47.5625 33.109375 50.5625 29.59375 
Q 53.5625 26.078125 56.59375 19.921875 
L 66.609375 0 
L 56 0 
L 46.6875 18.703125 
Q 43.0625 26.03125 39.671875 28.421875 
Q 36.28125 30.8125 30.421875 30.8125 
L 19.671875 30.8125 
L 19.671875 0 
L 9.8125 0 
L 9.8125 72.90625 
L 32.078125 72.90625 
Q 44.578125 72.90625 50.734375 67.671875 
Q 56.890625 62.453125 56.890625 51.90625 
Q 56.890625 45.015625 53.6875 40.46875 
Q 50.484375 35.9375 44.390625 34.1875 
z
M 19.671875 64.796875 
L 19.671875 38.921875 
L 32.078125 38.921875 
Q 39.203125 38.921875 42.84375 42.21875 
Q 46.484375 45.515625 46.484375 51.90625 
Q 46.484375 58.296875 42.84375 61.546875 
Q 39.203125 64.796875 32.078125 64.796875 
z
" id="DejaVuSans-52"/>
      <path d="M 4.203125 54.6875 
L 13.1875 54.6875 
L 24.421875 12.015625 
L 35.59375 54.6875 
L 46.1875 54.6875 
L 57.421875 12.015625 
L 68.609375 54.6875 
L 77.59375 54.6875 
L 63.28125 0 
L 52.6875 0 
L 40.921875 44.828125 
L 29.109375 0 
L 18.5 0 
z
" id="DejaVuSans-77"/>
      <path d="M 34.28125 27.484375 
Q 23.390625 27.484375 19.1875 25 
Q 14.984375 22.515625 14.984375 16.5 
Q 14.984375 11.71875 18.140625 8.90625 
Q 21.296875 6.109375 26.703125 6.109375 
Q 34.1875 6.109375 38.703125 11.40625 
Q 43.21875 16.703125 43.21875 25.484375 
L 43.21875 27.484375 
z
M 52.203125 31.203125 
L 52.203125 0 
L 43.21875 0 
L 43.21875 8.296875 
Q 40.140625 3.328125 35.546875 0.953125 
Q 30.953125 -1.421875 24.3125 -1.421875 
Q 15.921875 -1.421875 10.953125 3.296875 
Q 6 8.015625 6 15.921875 
Q 6 25.140625 12.171875 29.828125 
Q 18.359375 34.515625 30.609375 34.515625 
L 43.21875 34.515625 
L 43.21875 35.40625 
Q 43.21875 41.609375 39.140625 45 
Q 35.0625 48.390625 27.6875 48.390625 
Q 23 48.390625 18.546875 47.265625 
Q 14.109375 46.140625 10.015625 43.890625 
L 10.015625 52.203125 
Q 14.9375 54.109375 19.578125 55.046875 
Q 24.21875 56 28.609375 56 
Q 40.484375 56 46.34375 49.84375 
Q 52.203125 43.703125 52.203125 31.203125 
z
" id="DejaVuSans-61"/>
      <path d="M 41.109375 46.296875 
Q 39.59375 47.171875 37.8125 47.578125 
Q 36.03125 48 33.890625 48 
Q 26.265625 48 22.1875 43.046875 
Q 18.109375 38.09375 18.109375 28.8125 
L 18.109375 0 
L 9.078125 0 
L 9.078125 54.6875 
L 18.109375 54.6875 
L 18.109375 46.1875 
Q 20.953125 51.171875 25.484375 53.578125 
Q 30.03125 56 36.53125 56 
Q 37.453125 56 38.578125 55.875 
Q 39.703125 55.765625 41.0625 55.515625 
z
" id="DejaVuSans-72"/>
      <path d="M 45.40625 46.390625 
L 45.40625 75.984375 
L 54.390625 75.984375 
L 54.390625 0 
L 45.40625 0 
L 45.40625 8.203125 
Q 42.578125 3.328125 38.25 0.953125 
Q 33.9375 -1.421875 27.875 -1.421875 
Q 17.96875 -1.421875 11.734375 6.484375 
Q 5.515625 14.40625 5.515625 27.296875 
Q 5.515625 40.1875 11.734375 48.09375 
Q 17.96875 56 27.875 56 
Q 33.9375 56 38.25 53.625 
Q 42.578125 51.265625 45.40625 46.390625 
z
M 14.796875 27.296875 
Q 14.796875 17.390625 18.875 11.75 
Q 22.953125 6.109375 30.078125 6.109375 
Q 37.203125 6.109375 41.296875 11.75 
Q 45.40625 17.390625 45.40625 27.296875 
Q 45.40625 37.203125 41.296875 42.84375 
Q 37.203125 48.484375 30.078125 48.484375 
Q 22.953125 48.484375 18.875 42.84375 
Q 14.796875 37.203125 14.796875 27.296875 
z
" id="DejaVuSans-64"/>
      <path d="M 44.28125 53.078125 
L 44.28125 44.578125 
Q 40.484375 46.53125 36.375 47.5 
Q 32.28125 48.484375 27.875 48.484375 
Q 21.1875 48.484375 17.84375 46.4375 
Q 14.5 44.390625 14.5 40.28125 
Q 14.5 37.15625 16.890625 35.375 
Q 19.28125 33.59375 26.515625 31.984375 
L 29.59375 31.296875 
Q 39.15625 29.25 43.1875 25.515625 
Q 47.21875 21.78125 47.21875 15.09375 
Q 47.21875 7.46875 41.1875 3.015625 
Q 35.15625 -1.421875 24.609375 -1.421875 
Q 20.21875 -1.421875 15.453125 -0.5625 
Q 10.6875 0.296875 5.421875 2 
L 5.421875 11.28125 
Q 10.40625 8.6875 15.234375 7.390625 
Q 20.0625 6.109375 24.8125 6.109375 
Q 31.15625 6.109375 34.5625 8.28125 
Q 37.984375 10.453125 37.984375 14.40625 
Q 37.984375 18.0625 35.515625 20.015625 
Q 33.0625 21.96875 24.703125 23.78125 
L 21.578125 24.515625 
Q 13.234375 26.265625 9.515625 29.90625 
Q 5.8125 33.546875 5.8125 39.890625 
Q 5.8125 47.609375 11.28125 51.796875 
Q 16.75 56 26.8125 56 
Q 31.78125 56 36.171875 55.265625 
Q 40.578125 54.546875 44.28125 53.078125 
z
" id="DejaVuSans-73"/>
     </defs>
     <g transform="translate(19.070312 196.062375)rotate(-90)scale(0.1 -0.1)">
      <use xlink:href="#DejaVuSans-52"/>
      <use x="69.419922" xlink:href="#DejaVuSans-65"/>
      <use x="130.943359" xlink:href="#DejaVuSans-77"/>
      <use x="212.730469" xlink:href="#DejaVuSans-61"/>
      <use x="274.009766" xlink:href="#DejaVuSans-72"/>
      <use x="315.107422" xlink:href="#DejaVuSans-64"/>
      <use x="378.583984" xlink:href="#DejaVuSans-73"/>
     </g>
    </g>
   </g>
   <g id="line2d_29">
    <path clip-path="url(#p4d6526a411)" d="M 73.832727 130.012543 
L 78.161455 97.062313 
L 82.490182 82.238665 
L 86.818909 76.015757 
L 91.147636 75.278627 
L 95.476364 73.774852 
L 99.805091 74.689068 
L 104.133818 76.552819 
L 108.462545 77.16149 
L 112.791273 77.51687 
L 117.12 77.574205 
L 121.448727 74.981307 
L 125.777455 75.476517 
L 130.106182 76.145184 
L 134.434909 76.094139 
L 138.763636 76.173972 
L 143.092364 76.384443 
L 147.421091 74.953002 
L 151.749818 75.924069 
L 156.078545 74.683987 
L 160.407273 73.750902 
L 164.736 71.748288 
L 169.064727 71.054945 
L 173.393455 69.979369 
L 177.722182 70.109038 
L 182.050909 68.520833 
L 186.379636 68.561718 
L 190.708364 68.017882 
L 195.037091 68.375439 
L 199.365818 67.213498 
L 203.694545 67.580732 
L 208.023273 67.695886 
L 212.352 66.548943 
L 216.680727 66.438386 
L 221.009455 66.556443 
L 225.338182 66.361455 
L 229.666909 66.17058 
L 233.995636 65.972932 
L 238.324364 66.073812 
L 242.653091 66.038492 
L 246.981818 65.912694 
L 251.310545 65.859229 
L 255.639273 65.86939 
L 259.968 65.738511 
L 264.296727 65.826086 
L 268.625455 65.720367 
L 272.954182 65.792218 
L 277.282909 65.77988 
L 281.611636 65.782057 
L 285.940364 65.760526 
L 290.269091 65.664 
L 294.597818 65.664 
L 298.926545 65.837215 
L 303.255273 65.664 
L 307.584 65.93737 
L 311.912727 65.664 
L 316.241455 65.731496 
L 320.570182 65.950191 
L 324.898909 65.768026 
L 329.227636 65.759075 
L 333.556364 65.664 
L 337.885091 65.784718 
L 342.213818 65.818829 
L 346.542545 65.664 
L 350.871273 65.664 
L 355.2 65.664 
L 359.528727 65.668355 
L 363.857455 65.748672 
L 368.186182 66.485802 
L 372.514909 67.767978 
L 376.843636 70.572073 
L 381.172364 72.834267 
L 385.501091 77.610977 
L 389.829818 85.587322 
L 394.158545 101.459935 
L 398.487273 113.469327 
" style="fill:none;stroke:#ff6347;stroke-linecap:square;stroke-width:2;"/>
   </g>
   <g id="line2d_30">
    <path clip-path="url(#p4d6526a411)" d="M 73.832727 181.450299 
L 78.161455 143.467891 
L 82.490182 112.281016 
L 86.818909 94.614324 
L 91.147636 90.778925 
L 95.476364 85.420881 
L 99.805091 83.474876 
L 104.133818 85.553695 
L 108.462545 84.680122 
L 112.791273 84.481505 
L 117.12 83.692846 
L 121.448727 82.863544 
L 125.777455 79.463843 
L 130.106182 81.200586 
L 134.434909 76.401135 
L 138.763636 75.823188 
L 143.092364 75.224436 
L 147.421091 75.259757 
L 151.749818 73.784771 
L 156.078545 72.849024 
L 160.407273 72.311962 
L 164.736 71.755062 
L 169.064727 70.122828 
L 173.393455 69.329572 
L 177.722182 67.78588 
L 182.050909 67.810314 
L 186.379636 66.889325 
L 190.708364 65.919709 
L 195.037091 65.96011 
L 199.365818 65.757623 
L 203.694545 65.756655 
L 208.023273 65.85681 
L 212.352 65.751817 
L 216.680727 65.664 
L 221.009455 65.664 
L 225.338182 65.751817 
L 229.666909 65.664 
L 233.995636 65.664 
L 238.324364 65.664 
L 242.653091 65.664 
L 246.981818 65.664 
L 251.310545 65.664 
L 255.639273 65.664 
L 259.968 65.664 
L 264.296727 65.664 
L 268.625455 65.664 
L 272.954182 65.664 
L 277.282909 65.664 
L 281.611636 65.664 
L 285.940364 65.664 
L 290.269091 65.664 
L 294.597818 65.664 
L 298.926545 65.664 
L 303.255273 65.664 
L 307.584 65.664 
L 311.912727 65.664 
L 316.241455 65.664 
L 320.570182 65.664 
L 324.898909 65.664 
L 329.227636 65.664 
L 333.556364 65.664 
L 337.885091 65.664 
L 342.213818 65.664 
L 346.542545 65.94124 
L 350.871273 65.664 
L 355.2 65.664 
L 359.528727 65.664 
L 363.857455 65.670532 
L 368.186182 65.829957 
L 372.514909 65.664 
L 376.843636 65.664 
L 381.172364 65.664 
L 385.501091 65.664 
L 389.829818 65.664 
L 394.158545 65.997124 
L 398.487273 79.630284 
" style="fill:none;stroke:#ffd700;stroke-dasharray:7.4,3.2;stroke-dashoffset:0;stroke-width:2;"/>
   </g>
   <g id="line2d_31">
    <path clip-path="url(#p4d6526a411)" d="M 73.832727 129.265252 
L 78.161455 94.158547 
L 82.490182 78.863397 
L 86.818909 72.897408 
L 91.147636 68.57454 
L 95.476364 68.945645 
L 99.805091 68.442451 
L 104.133818 70.149197 
L 108.462545 70.982369 
L 112.791273 72.527996 
L 117.12 71.880134 
L 121.448727 72.877087 
L 125.777455 71.13236 
L 130.106182 72.186647 
L 134.434909 70.660858 
L 138.763636 69.817041 
L 143.092364 68.002399 
L 147.421091 67.014397 
L 151.749818 66.315249 
L 156.078545 65.772622 
L 160.407273 65.664 
L 164.736 65.664 
L 169.064727 65.664 
L 173.393455 65.664 
L 177.722182 65.664 
L 182.050909 65.664 
L 186.379636 65.664 
L 190.708364 65.664 
L 195.037091 65.664 
L 199.365818 65.664 
L 203.694545 65.664 
L 208.023273 65.664 
L 212.352 65.664 
L 216.680727 65.664 
L 221.009455 65.664 
L 225.338182 65.664 
L 229.666909 65.664 
L 233.995636 65.664 
L 238.324364 65.664 
L 242.653091 65.664 
L 246.981818 65.664 
L 251.310545 65.664 
L 255.639273 65.664 
L 259.968 65.664 
L 264.296727 65.664 
L 268.625455 65.664 
L 272.954182 65.664 
L 277.282909 65.664 
L 281.611636 65.664 
L 285.940364 65.664 
L 290.269091 65.664 
L 294.597818 65.664 
L 298.926545 65.664 
L 303.255273 65.664 
L 307.584 65.664 
L 311.912727 65.664 
L 316.241455 65.664 
L 320.570182 65.664 
L 324.898909 65.664 
L 329.227636 65.664 
L 333.556364 65.664 
L 337.885091 65.664 
L 342.213818 65.664 
L 346.542545 65.664 
L 350.871273 65.664 
L 355.2 65.664 
L 359.528727 65.664 
L 363.857455 65.664 
L 368.186182 65.664 
L 372.514909 65.664 
L 376.843636 65.664 
L 381.172364 65.664 
L 385.501091 65.664 
L 389.829818 65.664 
L 394.158545 66.089053 
L 398.487273 66.502737 
" style="fill:none;stroke:#00ffff;stroke-dasharray:2,3.3;stroke-dashoffset:0;stroke-width:2;"/>
   </g>
   <g id="line2d_32">
    <path clip-path="url(#p4d6526a411)" d="M 73.832727 293.532803 
L 78.161455 290.100684 
L 82.490182 286.604698 
L 86.818909 283.400951 
L 91.147636 279.851259 
L 95.476364 277.237313 
L 99.805091 274.213071 
L 104.133818 271.353819 
L 108.462545 268.938973 
L 112.791273 266.183988 
L 117.12 264.817624 
L 121.448727 263.085235 
L 125.777455 261.298414 
L 130.106182 260.171067 
L 134.434909 259.029204 
L 138.763636 257.697435 
L 143.092364 255.769816 
L 147.421091 254.509655 
L 151.749818 254.069361 
L 156.078545 253.000074 
L 160.407273 251.346067 
L 164.736 250.378871 
L 169.064727 249.018071 
L 173.393455 250.33218 
L 177.722182 248.994363 
L 182.050909 244.958412 
L 186.379636 244.309098 
L 190.708364 243.949605 
L 195.037091 242.969587 
L 199.365818 240.808758 
L 203.694545 239.490536 
L 208.023273 241.910703 
L 212.352 238.197473 
L 216.680727 238.015549 
L 221.009455 238.373833 
L 225.338182 236.729019 
L 229.666909 235.376202 
L 233.995636 235.898749 
L 238.324364 234.967599 
L 242.653091 234.055077 
L 246.981818 229.80551 
L 251.310545 229.516658 
L 255.639273 231.15494 
L 259.968 228.142068 
L 264.296727 227.515254 
L 268.625455 226.507415 
L 272.954182 229.152568 
L 277.282909 230.009933 
L 281.611636 227.355345 
L 285.940364 224.806234 
L 290.269091 225.542154 
L 294.597818 226.80667 
L 298.926545 226.907793 
L 303.255273 224.885341 
L 307.584 226.652809 
L 311.912727 224.121842 
L 316.241455 226.315814 
L 320.570182 225.378374 
L 324.898909 225.959708 
L 329.227636 224.826555 
L 333.556364 230.572155 
L 337.885091 227.557348 
L 342.213818 228.114248 
L 346.542545 228.690017 
L 350.871273 227.16447 
L 355.2 227.198097 
L 359.528727 229.081686 
L 363.857455 226.666356 
L 368.186182 227.947807 
L 372.514909 232.023433 
L 376.843636 226.889407 
L 381.172364 229.562623 
L 385.501091 228.002964 
L 389.829818 230.536593 
L 394.158545 225.932855 
L 398.487273 224.536493 
" style="fill:none;stroke:#0000ff;stroke-dasharray:12.8,3.2,2,3.2;stroke-dashoffset:0;stroke-width:2;"/>
   </g>
   <g id="line2d_33">
    <path clip-path="url(#p4d6526a411)" d="M 73.832727 127.28054 
L 78.161455 90.215009 
L 82.490182 87.181816 
L 86.818909 85.521761 
L 91.147636 84.155397 
L 95.476364 83.508019 
L 99.805091 83.767599 
L 104.133818 81.711763 
L 108.462545 78.669619 
L 112.791273 77.302045 
L 117.12 75.84351 
L 121.448727 74.444486 
L 125.777455 72.88628 
L 130.106182 71.51169 
L 134.434909 71.239288 
L 138.763636 70.186452 
L 143.092364 70.191775 
L 147.421091 69.416663 
L 151.749818 69.28772 
L 156.078545 69.629795 
L 160.407273 70.289752 
L 164.736 68.872101 
L 169.064727 69.306589 
L 173.393455 67.917485 
L 177.722182 67.655727 
L 182.050909 67.214465 
L 186.379636 66.858117 
L 190.708364 66.961659 
L 195.037091 66.764978 
L 199.365818 66.638454 
L 203.694545 66.118568 
L 208.023273 66.190902 
L 212.352 66.010671 
L 216.680727 65.854875 
L 221.009455 65.854633 
L 225.338182 65.769961 
L 229.666909 65.691579 
L 233.995636 65.667871 
L 238.324364 65.664484 
L 242.653091 65.664 
L 246.981818 65.664 
L 251.310545 65.664 
L 255.639273 65.664 
L 259.968 65.664 
L 264.296727 65.664 
L 268.625455 65.664 
L 272.954182 65.664 
L 277.282909 65.664 
L 281.611636 65.664 
L 285.940364 65.664 
L 290.269091 65.664 
L 294.597818 65.664 
L 298.926545 65.664 
L 303.255273 65.664 
L 307.584 65.664 
L 311.912727 65.664 
L 316.241455 65.664 
L 320.570182 65.664 
L 324.898909 65.664 
L 329.227636 65.664 
L 333.556364 65.664 
L 337.885091 65.664 
L 342.213818 65.664 
L 346.542545 65.664 
L 350.871273 66.024219 
L 355.2 65.664 
L 359.528727 73.625587 
L 363.857455 84.755843 
L 368.186182 88.860015 
L 372.514909 103.04064 
L 376.843636 115.139059 
L 381.172364 121.652997 
L 385.501091 128.093875 
L 389.829818 134.622086 
L 394.158545 137.260708 
L 398.487273 145.120689 
" style="fill:none;stroke:#008000;stroke-dasharray:12.8,3.2,2,3.2;stroke-dashoffset:0;stroke-width:2;"/>
   </g>
   <g id="line2d_34">
    <path clip-path="url(#p4d6526a411)" d="M 73.832727 224.659872 
L 78.161455 158.155822 
L 82.490182 106.92902 
L 86.818909 74.584316 
L 91.147636 68.222304 
L 95.476364 66.954643 
L 99.805091 67.885068 
L 104.133818 68.509221 
L 108.462545 68.367214 
L 112.791273 68.668163 
L 117.12 69.049912 
L 121.448727 70.305719 
L 125.777455 70.337169 
L 130.106182 70.553445 
L 134.434909 70.850039 
L 138.763636 71.697969 
L 143.092364 70.488127 
L 147.421091 70.713354 
L 151.749818 70.081701 
L 156.078545 70.007916 
L 160.407273 68.760334 
L 164.736 68.610586 
L 169.064727 69.261592 
L 173.393455 69.782446 
L 177.722182 67.819749 
L 182.050909 69.869295 
L 186.379636 68.696467 
L 190.708364 69.64939 
L 195.037091 67.6221 
L 199.365818 68.531962 
L 203.694545 68.054412 
L 208.023273 67.740641 
L 212.352 67.685484 
L 216.680727 67.315346 
L 221.009455 66.782396 
L 225.338182 67.006172 
L 229.666909 66.327103 
L 233.995636 66.004865 
L 238.324364 65.783992 
L 242.653091 65.822941 
L 246.981818 65.946804 
L 251.310545 65.664 
L 255.639273 66.015994 
L 259.968 65.703191 
L 264.296727 65.664 
L 268.625455 65.664 
L 272.954182 65.833828 
L 277.282909 65.828264 
L 281.611636 65.664 
L 285.940364 65.664 
L 290.269091 65.835279 
L 294.597818 65.80262 
L 298.926545 65.811571 
L 303.255273 65.820522 
L 307.584 66.021316 
L 311.912727 65.8077 
L 316.241455 65.828264 
L 320.570182 65.782783 
L 324.898909 65.664 
L 329.227636 65.664 
L 333.556364 65.664 
L 337.885091 65.664 
L 342.213818 65.899146 
L 346.542545 65.928177 
L 350.871273 65.691579 
L 355.2 65.926725 
L 359.528727 66.025187 
L 363.857455 66.234205 
L 368.186182 66.576038 
L 372.514909 67.068104 
L 376.843636 68.405196 
L 381.172364 73.6222 
L 385.501091 77.400991 
L 389.829818 83.736876 
L 394.158545 84.06879 
L 398.487273 86.351063 
" style="fill:none;stroke:#800080;stroke-dasharray:12.8,3.2,2,3.2;stroke-dashoffset:0;stroke-width:2;"/>
   </g>
   <g id="patch_3">
    <path d="M 57.6 307.584 
L 57.6 41.472 
" style="fill:none;stroke:#000000;stroke-linecap:square;stroke-linejoin:miter;stroke-width:0.8;"/>
   </g>
   <g id="patch_4">
    <path d="M 414.72 307.584 
L 414.72 41.472 
" style="fill:none;stroke:#000000;stroke-linecap:square;stroke-linejoin:miter;stroke-width:0.8;"/>
   </g>
   <g id="patch_5">
    <path d="M 57.6 307.584 
L 414.72 307.584 
" style="fill:none;stroke:#000000;stroke-linecap:square;stroke-linejoin:miter;stroke-width:0.8;"/>
   </g>
   <g id="patch_6">
    <path d="M 57.6 41.472 
L 414.72 41.472 
" style="fill:none;stroke:#000000;stroke-linecap:square;stroke-linejoin:miter;stroke-width:0.8;"/>
   </g>
   <g id="text_17">
    <!-- CartPole (100000 steps) -->
    <defs>
     <path d="M 64.40625 67.28125 
L 64.40625 56.890625 
Q 59.421875 61.53125 53.78125 63.8125 
Q 48.140625 66.109375 41.796875 66.109375 
Q 29.296875 66.109375 22.65625 58.46875 
Q 16.015625 50.828125 16.015625 36.375 
Q 16.015625 21.96875 22.65625 14.328125 
Q 29.296875 6.6875 41.796875 6.6875 
Q 48.140625 6.6875 53.78125 8.984375 
Q 59.421875 11.28125 64.40625 15.921875 
L 64.40625 5.609375 
Q 59.234375 2.09375 53.4375 0.328125 
Q 47.65625 -1.421875 41.21875 -1.421875 
Q 24.65625 -1.421875 15.125 8.703125 
Q 5.609375 18.84375 5.609375 36.375 
Q 5.609375 53.953125 15.125 64.078125 
Q 24.65625 74.21875 41.21875 74.21875 
Q 47.75 74.21875 53.53125 72.484375 
Q 59.328125 70.75 64.40625 67.28125 
z
" id="DejaVuSans-43"/>
     <path d="M 31 75.875 
Q 24.46875 64.65625 21.28125 53.65625 
Q 18.109375 42.671875 18.109375 31.390625 
Q 18.109375 20.125 21.3125 9.0625 
Q 24.515625 -2 31 -13.1875 
L 23.1875 -13.1875 
Q 15.875 -1.703125 12.234375 9.375 
Q 8.59375 20.453125 8.59375 31.390625 
Q 8.59375 42.28125 12.203125 53.3125 
Q 15.828125 64.359375 23.1875 75.875 
z
" id="DejaVuSans-28"/>
     <path d="M 18.109375 8.203125 
L 18.109375 -20.796875 
L 9.078125 -20.796875 
L 9.078125 54.6875 
L 18.109375 54.6875 
L 18.109375 46.390625 
Q 20.953125 51.265625 25.265625 53.625 
Q 29.59375 56 35.59375 56 
Q 45.5625 56 51.78125 48.09375 
Q 58.015625 40.1875 58.015625 27.296875 
Q 58.015625 14.40625 51.78125 6.484375 
Q 45.5625 -1.421875 35.59375 -1.421875 
Q 29.59375 -1.421875 25.265625 0.953125 
Q 20.953125 3.328125 18.109375 8.203125 
z
M 48.6875 27.296875 
Q 48.6875 37.203125 44.609375 42.84375 
Q 40.53125 48.484375 33.40625 48.484375 
Q 26.265625 48.484375 22.1875 42.84375 
Q 18.109375 37.203125 18.109375 27.296875 
Q 18.109375 17.390625 22.1875 11.75 
Q 26.265625 6.109375 33.40625 6.109375 
Q 40.53125 6.109375 44.609375 11.75 
Q 48.6875 17.390625 48.6875 27.296875 
z
" id="DejaVuSans-70"/>
     <path d="M 8.015625 75.875 
L 15.828125 75.875 
Q 23.140625 64.359375 26.78125 53.3125 
Q 30.421875 42.28125 30.421875 31.390625 
Q 30.421875 20.453125 26.78125 9.375 
Q 23.140625 -1.703125 15.828125 -13.1875 
L 8.015625 -13.1875 
Q 14.5 -2 17.703125 9.0625 
Q 20.90625 20.125 20.90625 31.390625 
Q 20.90625 42.671875 17.703125 53.65625 
Q 14.5 64.65625 8.015625 75.875 
z
" id="DejaVuSans-29"/>
    </defs>
    <g transform="translate(163.324687 35.472)scale(0.12 -0.12)">
     <use xlink:href="#DejaVuSans-43"/>
     <use x="69.824219" xlink:href="#DejaVuSans-61"/>
     <use x="131.103516" xlink:href="#DejaVuSans-72"/>
     <use x="172.216797" xlink:href="#DejaVuSans-74"/>
     <use x="211.425781" xlink:href="#DejaVuSans-50"/>
     <use x="271.681641" xlink:href="#DejaVuSans-6f"/>
     <use x="332.863281" xlink:href="#DejaVuSans-6c"/>
     <use x="360.646484" xlink:href="#DejaVuSans-65"/>
     <use x="422.169922" xlink:href="#DejaVuSans-20"/>
     <use x="453.957031" xlink:href="#DejaVuSans-28"/>
     <use x="492.970703" xlink:href="#DejaVuSans-31"/>
     <use x="556.59375" xlink:href="#DejaVuSans-30"/>
     <use x="620.216797" xlink:href="#DejaVuSans-30"/>
     <use x="683.839844" xlink:href="#DejaVuSans-30"/>
     <use x="747.462891" xlink:href="#DejaVuSans-30"/>
     <use x="811.085938" xlink:href="#DejaVuSans-30"/>
     <use x="874.708984" xlink:href="#DejaVuSans-20"/>
     <use x="906.496094" xlink:href="#DejaVuSans-73"/>
     <use x="958.595703" xlink:href="#DejaVuSans-74"/>
     <use x="997.804688" xlink:href="#DejaVuSans-65"/>
     <use x="1059.328125" xlink:href="#DejaVuSans-70"/>
     <use x="1122.804688" xlink:href="#DejaVuSans-73"/>
     <use x="1174.904297" xlink:href="#DejaVuSans-29"/>
    </g>
   </g>
   <g id="legend_1">
    <g id="patch_7">
     <path d="M 175.077969 220.062375 
L 297.242031 220.062375 
Q 299.242031 220.062375 299.242031 218.062375 
L 299.242031 130.993625 
Q 299.242031 128.993625 297.242031 128.993625 
L 175.077969 128.993625 
Q 173.077969 128.993625 173.077969 130.993625 
L 173.077969 218.062375 
Q 173.077969 220.062375 175.077969 220.062375 
z
" style="fill:#ffffff;opacity:0.8;stroke:#cccccc;stroke-linejoin:miter;"/>
    </g>
    <g id="line2d_35">
     <path d="M 177.077969 137.092062 
L 197.077969 137.092062 
" style="fill:none;stroke:#ff6347;stroke-linecap:square;stroke-width:2;"/>
    </g>
    <g id="line2d_36"/>
    <g id="text_18">
     <!-- Base -->
     <defs>
      <path d="M 19.671875 34.8125 
L 19.671875 8.109375 
L 35.5 8.109375 
Q 43.453125 8.109375 47.28125 11.40625 
Q 51.125 14.703125 51.125 21.484375 
Q 51.125 28.328125 47.28125 31.5625 
Q 43.453125 34.8125 35.5 34.8125 
z
M 19.671875 64.796875 
L 19.671875 42.828125 
L 34.28125 42.828125 
Q 41.5 42.828125 45.03125 45.53125 
Q 48.578125 48.25 48.578125 53.8125 
Q 48.578125 59.328125 45.03125 62.0625 
Q 41.5 64.796875 34.28125 64.796875 
z
M 9.8125 72.90625 
L 35.015625 72.90625 
Q 46.296875 72.90625 52.390625 68.21875 
Q 58.5 63.53125 58.5 54.890625 
Q 58.5 48.1875 55.375 44.234375 
Q 52.25 40.28125 46.1875 39.3125 
Q 53.46875 37.75 57.5 32.78125 
Q 61.53125 27.828125 61.53125 20.40625 
Q 61.53125 10.640625 54.890625 5.3125 
Q 48.25 0 35.984375 0 
L 9.8125 0 
z
" id="DejaVuSans-42"/>
     </defs>
     <g transform="translate(205.077969 140.592062)scale(0.1 -0.1)">
      <use xlink:href="#DejaVuSans-42"/>
      <use x="68.603516" xlink:href="#DejaVuSans-61"/>
      <use x="129.882812" xlink:href="#DejaVuSans-73"/>
      <use x="181.982422" xlink:href="#DejaVuSans-65"/>
     </g>
    </g>
    <g id="line2d_37">
     <path d="M 177.077969 151.770187 
L 197.077969 151.770187 
" style="fill:none;stroke:#ffd700;stroke-dasharray:7.4,3.2;stroke-dashoffset:0;stroke-width:2;"/>
    </g>
    <g id="line2d_38"/>
    <g id="text_19">
     <!-- L1 -->
     <g transform="translate(205.077969 155.270187)scale(0.1 -0.1)">
      <use xlink:href="#DejaVuSans-4c"/>
      <use x="55.712891" xlink:href="#DejaVuSans-31"/>
     </g>
    </g>
    <g id="line2d_39">
     <path d="M 177.077969 166.448312 
L 197.077969 166.448312 
" style="fill:none;stroke:#00ffff;stroke-dasharray:2,3.3;stroke-dashoffset:0;stroke-width:2;"/>
    </g>
    <g id="line2d_40"/>
    <g id="text_20">
     <!-- L2 -->
     <g transform="translate(205.077969 169.948312)scale(0.1 -0.1)">
      <use xlink:href="#DejaVuSans-4c"/>
      <use x="55.712891" xlink:href="#DejaVuSans-32"/>
     </g>
    </g>
    <g id="line2d_41">
     <path d="M 177.077969 181.126438 
L 197.077969 181.126438 
" style="fill:none;stroke:#0000ff;stroke-dasharray:12.8,3.2,2,3.2;stroke-dashoffset:0;stroke-width:2;"/>
    </g>
    <g id="line2d_42"/>
    <g id="text_21">
     <!-- Dropout -->
     <defs>
      <path d="M 19.671875 64.796875 
L 19.671875 8.109375 
L 31.59375 8.109375 
Q 46.6875 8.109375 53.6875 14.9375 
Q 60.6875 21.78125 60.6875 36.53125 
Q 60.6875 51.171875 53.6875 57.984375 
Q 46.6875 64.796875 31.59375 64.796875 
z
M 9.8125 72.90625 
L 30.078125 72.90625 
Q 51.265625 72.90625 61.171875 64.09375 
Q 71.09375 55.28125 71.09375 36.53125 
Q 71.09375 17.671875 61.125 8.828125 
Q 51.171875 0 30.078125 0 
L 9.8125 0 
z
" id="DejaVuSans-44"/>
      <path d="M 8.5 21.578125 
L 8.5 54.6875 
L 17.484375 54.6875 
L 17.484375 21.921875 
Q 17.484375 14.15625 20.5 10.265625 
Q 23.53125 6.390625 29.59375 6.390625 
Q 36.859375 6.390625 41.078125 11.03125 
Q 45.3125 15.671875 45.3125 23.6875 
L 45.3125 54.6875 
L 54.296875 54.6875 
L 54.296875 0 
L 45.3125 0 
L 45.3125 8.40625 
Q 42.046875 3.421875 37.71875 1 
Q 33.40625 -1.421875 27.6875 -1.421875 
Q 18.265625 -1.421875 13.375 4.4375 
Q 8.5 10.296875 8.5 21.578125 
z
M 31.109375 56 
z
" id="DejaVuSans-75"/>
     </defs>
     <g transform="translate(205.077969 184.626438)scale(0.1 -0.1)">
      <use xlink:href="#DejaVuSans-44"/>
      <use x="77.001953" xlink:href="#DejaVuSans-72"/>
      <use x="118.083984" xlink:href="#DejaVuSans-6f"/>
      <use x="179.265625" xlink:href="#DejaVuSans-70"/>
      <use x="242.742188" xlink:href="#DejaVuSans-6f"/>
      <use x="303.923828" xlink:href="#DejaVuSans-75"/>
      <use x="367.302734" xlink:href="#DejaVuSans-74"/>
     </g>
    </g>
    <g id="line2d_43">
     <path d="M 177.077969 195.804563 
L 197.077969 195.804563 
" style="fill:none;stroke:#008000;stroke-dasharray:12.8,3.2,2,3.2;stroke-dashoffset:0;stroke-width:2;"/>
    </g>
    <g id="line2d_44"/>
    <g id="text_22">
     <!-- Improved dropout -->
     <defs>
      <path d="M 9.8125 72.90625 
L 19.671875 72.90625 
L 19.671875 0 
L 9.8125 0 
z
" id="DejaVuSans-49"/>
      <path d="M 52 44.1875 
Q 55.375 50.25 60.0625 53.125 
Q 64.75 56 71.09375 56 
Q 79.640625 56 84.28125 50.015625 
Q 88.921875 44.046875 88.921875 33.015625 
L 88.921875 0 
L 79.890625 0 
L 79.890625 32.71875 
Q 79.890625 40.578125 77.09375 44.375 
Q 74.3125 48.1875 68.609375 48.1875 
Q 61.625 48.1875 57.5625 43.546875 
Q 53.515625 38.921875 53.515625 30.90625 
L 53.515625 0 
L 44.484375 0 
L 44.484375 32.71875 
Q 44.484375 40.625 41.703125 44.40625 
Q 38.921875 48.1875 33.109375 48.1875 
Q 26.21875 48.1875 22.15625 43.53125 
Q 18.109375 38.875 18.109375 30.90625 
L 18.109375 0 
L 9.078125 0 
L 9.078125 54.6875 
L 18.109375 54.6875 
L 18.109375 46.1875 
Q 21.1875 51.21875 25.484375 53.609375 
Q 29.78125 56 35.6875 56 
Q 41.65625 56 45.828125 52.96875 
Q 50 49.953125 52 44.1875 
z
" id="DejaVuSans-6d"/>
      <path d="M 2.984375 54.6875 
L 12.5 54.6875 
L 29.59375 8.796875 
L 46.6875 54.6875 
L 56.203125 54.6875 
L 35.6875 0 
L 23.484375 0 
z
" id="DejaVuSans-76"/>
     </defs>
     <g transform="translate(205.077969 199.304563)scale(0.1 -0.1)">
      <use xlink:href="#DejaVuSans-49"/>
      <use x="29.492188" xlink:href="#DejaVuSans-6d"/>
      <use x="126.904297" xlink:href="#DejaVuSans-70"/>
      <use x="190.380859" xlink:href="#DejaVuSans-72"/>
      <use x="231.462891" xlink:href="#DejaVuSans-6f"/>
      <use x="292.644531" xlink:href="#DejaVuSans-76"/>
      <use x="351.824219" xlink:href="#DejaVuSans-65"/>
      <use x="413.347656" xlink:href="#DejaVuSans-64"/>
      <use x="476.824219" xlink:href="#DejaVuSans-20"/>
      <use x="508.611328" xlink:href="#DejaVuSans-64"/>
      <use x="572.087891" xlink:href="#DejaVuSans-72"/>
      <use x="613.169922" xlink:href="#DejaVuSans-6f"/>
      <use x="674.351562" xlink:href="#DejaVuSans-70"/>
      <use x="737.828125" xlink:href="#DejaVuSans-6f"/>
      <use x="799.009766" xlink:href="#DejaVuSans-75"/>
      <use x="862.388672" xlink:href="#DejaVuSans-74"/>
     </g>
    </g>
    <g id="line2d_45">
     <path d="M 177.077969 210.482687 
L 197.077969 210.482687 
" style="fill:none;stroke:#800080;stroke-dasharray:12.8,3.2,2,3.2;stroke-dashoffset:0;stroke-width:2;"/>
    </g>
    <g id="line2d_46"/>
    <g id="text_23">
     <!-- New dropout -->
     <defs>
      <path d="M 9.8125 72.90625 
L 23.09375 72.90625 
L 55.421875 11.921875 
L 55.421875 72.90625 
L 64.984375 72.90625 
L 64.984375 0 
L 51.703125 0 
L 19.390625 60.984375 
L 19.390625 0 
L 9.8125 0 
z
" id="DejaVuSans-4e"/>
     </defs>
     <g transform="translate(205.077969 213.982687)scale(0.1 -0.1)">
      <use xlink:href="#DejaVuSans-4e"/>
      <use x="74.804688" xlink:href="#DejaVuSans-65"/>
      <use x="136.328125" xlink:href="#DejaVuSans-77"/>
      <use x="218.115234" xlink:href="#DejaVuSans-20"/>
      <use x="249.902344" xlink:href="#DejaVuSans-64"/>
      <use x="313.378906" xlink:href="#DejaVuSans-72"/>
      <use x="354.460938" xlink:href="#DejaVuSans-6f"/>
      <use x="415.642578" xlink:href="#DejaVuSans-70"/>
      <use x="479.119141" xlink:href="#DejaVuSans-6f"/>
      <use x="540.300781" xlink:href="#DejaVuSans-75"/>
      <use x="603.679688" xlink:href="#DejaVuSans-74"/>
     </g>
    </g>
   </g>
  </g>
 </g>
 <defs>
  <clipPath id="p4d6526a411">
   <rect height="266.112" width="357.12" x="57.6" y="41.472"/>
  </clipPath>
 </defs>
</svg>
