<?xml version="1.0" encoding="utf-8" standalone="no"?>
<!DOCTYPE svg PUBLIC "-//W3C//DTD SVG 1.1//EN"
  "http://www.w3.org/Graphics/SVG/1.1/DTD/svg11.dtd">
<!-- Created with matplotlib (http://matplotlib.org/) -->
<svg height="345.6pt" version="1.1" viewBox="0 0 460.8 345.6" width="460.8pt" xmlns="http://www.w3.org/2000/svg" xmlns:xlink="http://www.w3.org/1999/xlink">
 <defs>
  <style type="text/css">
*{stroke-linecap:butt;stroke-linejoin:round;}
  </style>
 </defs>
 <g id="figure_1">
  <g id="patch_1">
   <path d="M 0 345.6 
L 460.8 345.6 
L 460.8 0 
L 0 0 
z
" style="fill:#ffffff;"/>
  </g>
  <g id="axes_1">
   <g id="patch_2">
    <path d="M 57.6 307.584 
L 414.72 307.584 
L 414.72 41.472 
L 57.6 41.472 
z
" style="fill:#ffffff;"/>
   </g>
   <g id="PolyCollection_1">
    <path clip-path="url(#p9ef704eb63)" d="M 73.832727 277.570867 
L 73.832727 251.647312 
L 78.161455 244.209056 
L 82.490182 234.790309 
L 86.818909 230.567736 
L 91.147636 226.979301 
L 95.476364 226.008666 
L 99.805091 223.666005 
L 104.133818 227.306595 
L 108.462545 227.316069 
L 112.791273 227.518627 
L 117.12 227.327798 
L 121.448727 229.981856 
L 125.777455 231.888785 
L 130.106182 236.236308 
L 134.434909 235.995527 
L 138.763636 237.871947 
L 143.092364 240.427625 
L 147.421091 240.709909 
L 151.749818 241.347917 
L 156.078545 242.447681 
L 160.407273 242.007534 
L 164.736 243.351452 
L 169.064727 244.18041 
L 173.393455 244.987493 
L 177.722182 245.654038 
L 182.050909 247.204213 
L 186.379636 246.1708 
L 190.708364 246.652116 
L 195.037091 246.167972 
L 199.365818 246.472183 
L 203.694545 246.971728 
L 208.023273 247.184194 
L 212.352 246.955988 
L 216.680727 246.348734 
L 221.009455 247.788596 
L 225.338182 248.063284 
L 229.666909 248.561526 
L 233.995636 247.641207 
L 238.324364 246.491262 
L 242.653091 249.641542 
L 246.981818 248.480279 
L 251.310545 248.251455 
L 255.639273 250.970474 
L 259.968 249.81703 
L 264.296727 249.583143 
L 268.625455 251.254951 
L 272.954182 251.923526 
L 277.282909 252.630648 
L 281.611636 253.930605 
L 285.940364 254.366639 
L 290.269091 254.845484 
L 294.597818 257.109938 
L 298.926545 256.364757 
L 303.255273 256.478843 
L 307.584 257.646513 
L 311.912727 258.498248 
L 316.241455 258.667858 
L 320.570182 258.265302 
L 324.898909 259.074093 
L 329.227636 259.444447 
L 333.556364 259.56438 
L 337.885091 260.436157 
L 342.213818 260.462096 
L 346.542545 260.530777 
L 350.871273 261.246228 
L 355.2 261.454562 
L 359.528727 261.599052 
L 363.857455 262.323635 
L 368.186182 262.100313 
L 372.514909 262.197059 
L 376.843636 262.524925 
L 381.172364 262.24147 
L 385.501091 262.457494 
L 389.829818 263.388023 
L 394.158545 263.168109 
L 398.487273 263.583306 
L 398.487273 277.770547 
L 398.487273 277.770547 
L 394.158545 276.941792 
L 389.829818 277.464572 
L 385.501091 276.652793 
L 381.172364 276.491906 
L 376.843636 276.551978 
L 372.514909 276.505351 
L 368.186182 276.110032 
L 363.857455 276.032346 
L 359.528727 275.569101 
L 355.2 275.216204 
L 350.871273 274.954245 
L 346.542545 274.732499 
L 342.213818 274.31105 
L 337.885091 272.721931 
L 333.556364 272.507487 
L 329.227636 271.835857 
L 324.898909 271.26853 
L 320.570182 269.759727 
L 316.241455 270.660153 
L 311.912727 270.353179 
L 307.584 269.087147 
L 303.255273 268.453964 
L 298.926545 267.526343 
L 294.597818 267.624979 
L 290.269091 266.715443 
L 285.940364 266.354341 
L 281.611636 266.365564 
L 277.282909 266.400279 
L 272.954182 266.059888 
L 268.625455 266.080601 
L 264.296727 266.120901 
L 259.968 266.265376 
L 255.639273 265.809145 
L 251.310545 266.599095 
L 246.981818 266.045614 
L 242.653091 266.255554 
L 238.324364 266.098788 
L 233.995636 266.405684 
L 229.666909 266.034524 
L 225.338182 265.948771 
L 221.009455 265.788003 
L 216.680727 265.821826 
L 212.352 265.769536 
L 208.023273 265.603262 
L 203.694545 265.523488 
L 199.365818 266.1498 
L 195.037091 265.948882 
L 190.708364 266.1605 
L 186.379636 265.990567 
L 182.050909 265.932576 
L 177.722182 266.035101 
L 173.393455 265.751868 
L 169.064727 265.611109 
L 164.736 265.482547 
L 160.407273 265.528806 
L 156.078545 265.879738 
L 151.749818 265.734098 
L 147.421091 265.309593 
L 143.092364 265.912179 
L 138.763636 266.045754 
L 134.434909 266.05939 
L 130.106182 265.81619 
L 125.777455 266.242673 
L 121.448727 266.384555 
L 117.12 266.865203 
L 112.791273 266.197308 
L 108.462545 267.384964 
L 104.133818 266.434016 
L 99.805091 266.889003 
L 95.476364 266.248492 
L 91.147636 267.083063 
L 86.818909 268.794127 
L 82.490182 269.754449 
L 78.161455 272.084304 
L 73.832727 277.570867 
z
" style="fill:#ff6347;fill-opacity:0.2;"/>
   </g>
   <g id="PolyCollection_2">
    <path clip-path="url(#p9ef704eb63)" d="M 73.832727 259.427112 
L 73.832727 219.33478 
L 78.161455 193.820112 
L 82.490182 177.310387 
L 86.818909 170.652457 
L 91.147636 171.481646 
L 95.476364 178.403467 
L 99.805091 182.07597 
L 104.133818 189.189251 
L 108.462545 198.175981 
L 112.791273 204.140055 
L 117.12 206.553568 
L 121.448727 213.594336 
L 125.777455 214.80326 
L 130.106182 221.075109 
L 134.434909 220.520942 
L 138.763636 222.242638 
L 143.092364 224.01914 
L 147.421091 226.387511 
L 151.749818 225.841795 
L 156.078545 230.263364 
L 160.407273 230.601185 
L 164.736 231.696629 
L 169.064727 232.102877 
L 173.393455 233.458565 
L 177.722182 235.55509 
L 182.050909 234.499518 
L 186.379636 235.146455 
L 190.708364 236.912335 
L 195.037091 237.809193 
L 199.365818 236.072363 
L 203.694545 237.823933 
L 208.023273 236.318767 
L 212.352 236.747311 
L 216.680727 237.497905 
L 221.009455 239.352651 
L 225.338182 238.874038 
L 229.666909 237.269193 
L 233.995636 238.951376 
L 238.324364 236.977167 
L 242.653091 237.976148 
L 246.981818 238.050068 
L 251.310545 239.200621 
L 255.639273 240.997051 
L 259.968 242.194793 
L 264.296727 240.679097 
L 268.625455 242.494529 
L 272.954182 240.708105 
L 277.282909 239.083876 
L 281.611636 235.582807 
L 285.940364 232.108239 
L 290.269091 227.831493 
L 294.597818 221.37971 
L 298.926545 225.85563 
L 303.255273 222.930474 
L 307.584 221.132845 
L 311.912727 216.332489 
L 316.241455 214.823635 
L 320.570182 214.533897 
L 324.898909 213.46092 
L 329.227636 212.733027 
L 333.556364 208.075989 
L 337.885091 209.781846 
L 342.213818 208.878225 
L 346.542545 208.936345 
L 350.871273 209.520088 
L 355.2 208.392036 
L 359.528727 208.556196 
L 363.857455 209.196385 
L 368.186182 209.758612 
L 372.514909 209.227485 
L 376.843636 209.741274 
L 381.172364 209.900393 
L 385.501091 210.266158 
L 389.829818 210.138114 
L 394.158545 210.451843 
L 398.487273 210.454916 
L 398.487273 271.377425 
L 398.487273 271.377425 
L 394.158545 271.258569 
L 389.829818 270.990239 
L 385.501091 271.027185 
L 381.172364 270.676382 
L 376.843636 270.480847 
L 372.514909 269.673753 
L 368.186182 270.276263 
L 363.857455 269.836457 
L 359.528727 268.890135 
L 355.2 268.52449 
L 350.871273 268.067041 
L 346.542545 267.550531 
L 342.213818 266.871762 
L 337.885091 265.569457 
L 333.556364 264.296312 
L 329.227636 264.688144 
L 324.898909 263.663657 
L 320.570182 263.421918 
L 316.241455 262.231753 
L 311.912727 260.65129 
L 307.584 260.262104 
L 303.255273 260.367901 
L 298.926545 258.79024 
L 294.597818 259.285125 
L 290.269091 256.891791 
L 285.940364 256.981218 
L 281.611636 255.66264 
L 277.282909 255.561032 
L 272.954182 255.091244 
L 268.625455 255.097932 
L 264.296727 254.452554 
L 259.968 254.939955 
L 255.639273 252.973383 
L 251.310545 253.551989 
L 246.981818 252.146414 
L 242.653091 252.321457 
L 238.324364 251.289278 
L 233.995636 253.552539 
L 229.666909 251.765106 
L 225.338182 252.346734 
L 221.009455 252.253741 
L 216.680727 251.282861 
L 212.352 252.582614 
L 208.023273 251.783656 
L 203.694545 251.855325 
L 199.365818 251.353168 
L 195.037091 252.102308 
L 190.708364 252.94546 
L 186.379636 251.846523 
L 182.050909 252.093808 
L 177.722182 252.447662 
L 173.393455 251.19553 
L 169.064727 252.009317 
L 164.736 250.991141 
L 160.407273 251.728059 
L 156.078545 250.615812 
L 151.749818 250.348003 
L 147.421091 250.111945 
L 143.092364 249.709364 
L 138.763636 249.288749 
L 134.434909 249.846326 
L 130.106182 250.157749 
L 125.777455 248.666385 
L 121.448727 247.842697 
L 117.12 245.057642 
L 112.791273 242.033278 
L 108.462545 240.553957 
L 104.133818 238.136094 
L 99.805091 236.488 
L 95.476364 234.936 
L 91.147636 232.173279 
L 86.818909 230.471017 
L 82.490182 235.398636 
L 78.161455 244.022463 
L 73.832727 259.427112 
z
" style="fill:#ffd700;fill-opacity:0.2;"/>
   </g>
   <g id="PolyCollection_3">
    <path clip-path="url(#p9ef704eb63)" d="M 73.832727 275.476112 
L 73.832727 238.809313 
L 78.161455 222.003078 
L 82.490182 216.42445 
L 86.818909 213.324614 
L 91.147636 214.03558 
L 95.476364 215.191197 
L 99.805091 218.37142 
L 104.133818 216.721103 
L 108.462545 218.892107 
L 112.791273 224.373699 
L 117.12 222.726652 
L 121.448727 224.423442 
L 125.777455 227.559414 
L 130.106182 227.109364 
L 134.434909 230.050218 
L 138.763636 229.438195 
L 143.092364 231.058142 
L 147.421091 231.587351 
L 151.749818 235.510386 
L 156.078545 235.954596 
L 160.407273 236.944987 
L 164.736 236.441899 
L 169.064727 238.398841 
L 173.393455 238.433915 
L 177.722182 239.341339 
L 182.050909 240.889706 
L 186.379636 240.438889 
L 190.708364 239.696224 
L 195.037091 240.831798 
L 199.365818 243.829834 
L 203.694545 240.54552 
L 208.023273 242.459119 
L 212.352 240.584654 
L 216.680727 242.156769 
L 221.009455 242.806118 
L 225.338182 242.145135 
L 229.666909 241.568645 
L 233.995636 240.616304 
L 238.324364 241.536985 
L 242.653091 242.612794 
L 246.981818 242.036667 
L 251.310545 240.874564 
L 255.639273 243.110125 
L 259.968 243.18964 
L 264.296727 242.22738 
L 268.625455 243.474994 
L 272.954182 242.874876 
L 277.282909 243.965843 
L 281.611636 244.660399 
L 285.940364 245.217799 
L 290.269091 244.572391 
L 294.597818 244.560642 
L 298.926545 247.093186 
L 303.255273 245.9112 
L 307.584 246.504787 
L 311.912727 244.915433 
L 316.241455 247.991924 
L 320.570182 247.95673 
L 324.898909 248.746527 
L 329.227636 249.257018 
L 333.556364 248.774298 
L 337.885091 249.366472 
L 342.213818 249.994705 
L 346.542545 248.634413 
L 350.871273 250.433242 
L 355.2 250.954546 
L 359.528727 250.398295 
L 363.857455 251.480119 
L 368.186182 252.15252 
L 372.514909 252.88124 
L 376.843636 251.709397 
L 381.172364 252.065991 
L 385.501091 253.948512 
L 389.829818 253.677536 
L 394.158545 253.763237 
L 398.487273 254.155854 
L 398.487273 265.570835 
L 398.487273 265.570835 
L 394.158545 265.188341 
L 389.829818 265.076151 
L 385.501091 265.835754 
L 381.172364 265.418584 
L 376.843636 264.819594 
L 372.514909 265.05766 
L 368.186182 264.927564 
L 363.857455 265.536099 
L 359.528727 265.169306 
L 355.2 264.557413 
L 350.871273 264.7289 
L 346.542545 264.171429 
L 342.213818 264.227337 
L 337.885091 264.808637 
L 333.556364 264.535705 
L 329.227636 264.456024 
L 324.898909 263.52322 
L 320.570182 263.442105 
L 316.241455 263.508034 
L 311.912727 263.277478 
L 307.584 262.944173 
L 303.255273 262.482989 
L 298.926545 262.412384 
L 294.597818 262.318644 
L 290.269091 262.176742 
L 285.940364 261.781479 
L 281.611636 262.003578 
L 277.282909 261.498694 
L 272.954182 261.934543 
L 268.625455 262.362584 
L 264.296727 261.619196 
L 259.968 261.417533 
L 255.639273 262.130394 
L 251.310545 261.896921 
L 246.981818 261.956513 
L 242.653091 262.1255 
L 238.324364 261.677696 
L 233.995636 261.874553 
L 229.666909 261.058654 
L 225.338182 261.538388 
L 221.009455 260.533878 
L 216.680727 261.190485 
L 212.352 260.652574 
L 208.023273 260.851363 
L 203.694545 260.71977 
L 199.365818 261.227795 
L 195.037091 261.447137 
L 190.708364 260.30963 
L 186.379636 260.777533 
L 182.050909 260.803299 
L 177.722182 259.560393 
L 173.393455 259.78657 
L 169.064727 259.921799 
L 164.736 260.846227 
L 160.407273 260.275885 
L 156.078545 259.295111 
L 151.749818 259.73787 
L 147.421091 258.896049 
L 143.092364 259.582022 
L 138.763636 258.535042 
L 134.434909 259.128749 
L 130.106182 258.40887 
L 125.777455 258.374438 
L 121.448727 257.70017 
L 117.12 258.457827 
L 112.791273 258.442772 
L 108.462545 259.880913 
L 104.133818 259.880443 
L 99.805091 260.38902 
L 95.476364 259.909477 
L 91.147636 260.651411 
L 86.818909 260.147455 
L 82.490182 261.449595 
L 78.161455 266.245465 
L 73.832727 275.476112 
z
" style="fill:#00ffff;fill-opacity:0.2;"/>
   </g>
   <g id="PolyCollection_4">
    <path clip-path="url(#p9ef704eb63)" d="M 73.832727 293.947536 
L 73.832727 292.769221 
L 78.161455 288.771108 
L 82.490182 284.839353 
L 86.818909 281.965858 
L 91.147636 278.138325 
L 95.476364 275.624879 
L 99.805091 272.460543 
L 104.133818 270.878431 
L 108.462545 268.725889 
L 112.791273 266.795875 
L 117.12 264.442769 
L 121.448727 263.167034 
L 125.777455 261.580438 
L 130.106182 260.25505 
L 134.434909 258.532118 
L 138.763636 256.397127 
L 143.092364 255.743112 
L 147.421091 255.330756 
L 151.749818 253.640202 
L 156.078545 252.383819 
L 160.407273 251.918382 
L 164.736 251.862689 
L 169.064727 248.408915 
L 173.393455 248.438803 
L 177.722182 245.262576 
L 182.050909 246.224518 
L 186.379636 242.430905 
L 190.708364 242.818305 
L 195.037091 242.910561 
L 199.365818 238.750813 
L 203.694545 239.732711 
L 208.023273 239.328293 
L 212.352 241.023452 
L 216.680727 236.906286 
L 221.009455 239.309222 
L 225.338182 233.21483 
L 229.666909 233.76689 
L 233.995636 236.304834 
L 238.324364 229.911613 
L 242.653091 231.971109 
L 246.981818 231.881559 
L 251.310545 229.872572 
L 255.639273 231.483367 
L 259.968 230.328769 
L 264.296727 230.639743 
L 268.625455 232.647392 
L 272.954182 230.441171 
L 277.282909 227.13166 
L 281.611636 230.345953 
L 285.940364 231.304033 
L 290.269091 229.843373 
L 294.597818 229.780338 
L 298.926545 230.38022 
L 303.255273 228.021663 
L 307.584 225.66531 
L 311.912727 234.435462 
L 316.241455 233.417803 
L 320.570182 232.192821 
L 324.898909 232.24711 
L 329.227636 231.721172 
L 333.556364 235.617595 
L 337.885091 234.906181 
L 342.213818 235.914637 
L 346.542545 235.445555 
L 350.871273 234.530337 
L 355.2 232.781116 
L 359.528727 239.952727 
L 363.857455 240.151073 
L 368.186182 239.099669 
L 372.514909 235.919413 
L 376.843636 236.607661 
L 381.172364 238.073046 
L 385.501091 241.115276 
L 389.829818 240.230908 
L 394.158545 239.1594 
L 398.487273 241.484502 
L 398.487273 250.452837 
L 398.487273 250.452837 
L 394.158545 251.077725 
L 389.829818 252.943126 
L 385.501091 251.653784 
L 381.172364 250.339034 
L 376.843636 250.412412 
L 372.514909 248.264874 
L 368.186182 250.886343 
L 363.857455 251.758687 
L 359.528727 249.966515 
L 355.2 248.843174 
L 350.871273 247.761168 
L 346.542545 249.104031 
L 342.213818 247.822581 
L 337.885091 250.395292 
L 333.556364 248.54879 
L 329.227636 249.489434 
L 324.898909 248.061618 
L 320.570182 248.221384 
L 316.241455 249.415118 
L 311.912727 249.039515 
L 307.584 247.972716 
L 303.255273 248.257646 
L 298.926545 246.979987 
L 294.597818 243.909459 
L 290.269091 248.661116 
L 285.940364 248.437151 
L 281.611636 248.264497 
L 277.282909 245.89963 
L 272.954182 246.303592 
L 268.625455 248.209527 
L 264.296727 246.410323 
L 259.968 247.385609 
L 255.639273 247.748333 
L 251.310545 247.047825 
L 246.981818 249.231795 
L 242.653091 249.000964 
L 238.324364 247.344569 
L 233.995636 249.917387 
L 229.666909 248.746697 
L 225.338182 250.429491 
L 221.009455 252.432645 
L 216.680727 251.995924 
L 212.352 252.19074 
L 208.023273 253.06821 
L 203.694545 254.134182 
L 199.365818 254.179366 
L 195.037091 255.016717 
L 190.708364 255.473304 
L 186.379636 255.501695 
L 182.050909 256.596318 
L 177.722182 256.90556 
L 173.393455 258.096473 
L 169.064727 258.293769 
L 164.736 260.340772 
L 160.407273 258.98355 
L 156.078545 260.360091 
L 151.749818 262.658481 
L 147.421091 263.328098 
L 143.092364 263.306202 
L 138.763636 263.860335 
L 134.434909 265.3285 
L 130.106182 266.913583 
L 125.777455 268.359629 
L 121.448727 270.112498 
L 117.12 270.790025 
L 112.791273 272.460532 
L 108.462545 274.342694 
L 104.133818 276.040066 
L 99.805091 278.012726 
L 95.476364 280.668986 
L 91.147636 282.820241 
L 86.818909 285.404556 
L 82.490182 288.200698 
L 78.161455 290.858844 
L 73.832727 293.947536 
z
" style="fill:#0000ff;fill-opacity:0.2;"/>
   </g>
   <g id="PolyCollection_5">
    <path clip-path="url(#p9ef704eb63)" d="M 73.832727 263.967948 
L 73.832727 244.148033 
L 78.161455 228.695407 
L 82.490182 210.825833 
L 86.818909 198.38199 
L 91.147636 186.317958 
L 95.476364 180.535055 
L 99.805091 175.267731 
L 104.133818 178.08076 
L 108.462545 178.909218 
L 112.791273 184.687443 
L 117.12 184.004069 
L 121.448727 190.493573 
L 125.777455 195.049994 
L 130.106182 196.251072 
L 134.434909 199.562657 
L 138.763636 200.651965 
L 143.092364 204.855106 
L 147.421091 202.812943 
L 151.749818 205.263549 
L 156.078545 205.858809 
L 160.407273 208.200841 
L 164.736 207.801955 
L 169.064727 210.310947 
L 173.393455 211.77422 
L 177.722182 210.588241 
L 182.050909 208.838612 
L 186.379636 210.662895 
L 190.708364 213.492953 
L 195.037091 211.819495 
L 199.365818 211.653375 
L 203.694545 212.967149 
L 208.023273 213.546465 
L 212.352 214.245359 
L 216.680727 214.941066 
L 221.009455 213.168219 
L 225.338182 214.281684 
L 229.666909 217.386075 
L 233.995636 216.236238 
L 238.324364 215.751483 
L 242.653091 217.092927 
L 246.981818 216.408612 
L 251.310545 219.914423 
L 255.639273 217.78208 
L 259.968 216.206839 
L 264.296727 217.127669 
L 268.625455 218.408385 
L 272.954182 223.50738 
L 277.282909 218.99244 
L 281.611636 225.065284 
L 285.940364 223.332305 
L 290.269091 223.754059 
L 294.597818 224.499148 
L 298.926545 222.46502 
L 303.255273 223.639119 
L 307.584 222.656674 
L 311.912727 223.959968 
L 316.241455 227.309546 
L 320.570182 229.09358 
L 324.898909 228.243938 
L 329.227636 232.137563 
L 333.556364 233.176578 
L 337.885091 230.6368 
L 342.213818 236.551927 
L 346.542545 235.822653 
L 350.871273 238.136358 
L 355.2 241.039367 
L 359.528727 241.105184 
L 363.857455 241.56937 
L 368.186182 244.892233 
L 372.514909 249.457767 
L 376.843636 249.797365 
L 381.172364 252.393437 
L 385.501091 253.897719 
L 389.829818 257.248536 
L 394.158545 258.361905 
L 398.487273 258.290162 
L 398.487273 278.744452 
L 398.487273 278.744452 
L 394.158545 277.597132 
L 389.829818 276.100668 
L 385.501091 274.836136 
L 381.172364 273.518179 
L 376.843636 271.318912 
L 372.514909 269.636543 
L 368.186182 268.414867 
L 363.857455 267.333335 
L 359.528727 266.521634 
L 355.2 264.783696 
L 350.871273 263.842596 
L 346.542545 262.302999 
L 342.213818 262.197879 
L 337.885091 262.847375 
L 333.556364 261.913462 
L 329.227636 261.230007 
L 324.898909 260.89487 
L 320.570182 259.161737 
L 316.241455 259.478284 
L 311.912727 258.477656 
L 307.584 258.182343 
L 303.255273 256.908626 
L 298.926545 256.381544 
L 294.597818 256.399381 
L 290.269091 255.696337 
L 285.940364 256.252599 
L 281.611636 255.852115 
L 277.282909 256.452245 
L 272.954182 254.813733 
L 268.625455 256.835506 
L 264.296727 256.238923 
L 259.968 255.068113 
L 255.639273 256.492195 
L 251.310545 254.399528 
L 246.981818 256.43253 
L 242.653091 254.954717 
L 238.324364 255.436861 
L 233.995636 255.109838 
L 229.666909 255.073801 
L 225.338182 254.88566 
L 221.009455 255.12144 
L 216.680727 254.788501 
L 212.352 253.978982 
L 208.023273 253.542303 
L 203.694545 254.182583 
L 199.365818 254.220955 
L 195.037091 253.283109 
L 190.708364 253.531948 
L 186.379636 252.889487 
L 182.050909 252.855824 
L 177.722182 253.177514 
L 173.393455 253.848997 
L 169.064727 252.263594 
L 164.736 252.504344 
L 160.407273 250.812638 
L 156.078545 251.33156 
L 151.749818 250.005007 
L 147.421091 249.555961 
L 143.092364 248.916933 
L 138.763636 249.160328 
L 134.434909 247.236281 
L 130.106182 244.95661 
L 125.777455 246.12769 
L 121.448727 243.271199 
L 117.12 239.528939 
L 112.791273 241.713768 
L 108.462545 237.293613 
L 104.133818 237.704034 
L 99.805091 235.391746 
L 95.476364 237.421212 
L 91.147636 238.38062 
L 86.818909 242.597804 
L 82.490182 249.470305 
L 78.161455 257.941948 
L 73.832727 263.967948 
z
" style="fill:#008000;fill-opacity:0.2;"/>
   </g>
   <g id="PolyCollection_6">
    <path clip-path="url(#p9ef704eb63)" d="M 73.832727 285.81525 
L 73.832727 233.980628 
L 78.161455 230.969474 
L 82.490182 228.677994 
L 86.818909 224.4453 
L 91.147636 201.001916 
L 95.476364 187.885392 
L 99.805091 185.263057 
L 104.133818 179.112856 
L 108.462545 178.070306 
L 112.791273 176.372499 
L 117.12 176.600994 
L 121.448727 171.965098 
L 125.777455 175.314537 
L 130.106182 177.679891 
L 134.434909 176.358009 
L 138.763636 177.947368 
L 143.092364 177.362495 
L 147.421091 180.861008 
L 151.749818 179.379099 
L 156.078545 182.265252 
L 160.407273 184.373486 
L 164.736 183.984431 
L 169.064727 185.466031 
L 173.393455 185.672802 
L 177.722182 187.232342 
L 182.050909 189.718569 
L 186.379636 186.383124 
L 190.708364 189.194526 
L 195.037091 190.059718 
L 199.365818 192.266093 
L 203.694545 193.113106 
L 208.023273 192.47443 
L 212.352 193.361266 
L 216.680727 193.110235 
L 221.009455 192.899835 
L 225.338182 195.551327 
L 229.666909 194.871596 
L 233.995636 194.865428 
L 238.324364 196.282265 
L 242.653091 197.327341 
L 246.981818 197.154033 
L 251.310545 196.771401 
L 255.639273 196.043794 
L 259.968 199.647816 
L 264.296727 198.525188 
L 268.625455 198.391136 
L 272.954182 198.772975 
L 277.282909 199.783342 
L 281.611636 199.202549 
L 285.940364 200.304103 
L 290.269091 199.617739 
L 294.597818 202.774299 
L 298.926545 202.600345 
L 303.255273 200.840599 
L 307.584 204.474085 
L 311.912727 201.915396 
L 316.241455 202.629346 
L 320.570182 202.596175 
L 324.898909 203.649659 
L 329.227636 204.4094 
L 333.556364 203.546372 
L 337.885091 205.260549 
L 342.213818 205.985161 
L 346.542545 206.746273 
L 350.871273 206.938041 
L 355.2 206.476529 
L 359.528727 207.027051 
L 363.857455 207.288039 
L 368.186182 207.518781 
L 372.514909 207.14436 
L 376.843636 207.427475 
L 381.172364 208.784506 
L 385.501091 208.865579 
L 389.829818 209.104968 
L 394.158545 208.076944 
L 398.487273 208.500494 
L 398.487273 269.024219 
L 398.487273 269.024219 
L 394.158545 268.480089 
L 389.829818 269.417907 
L 385.501091 269.185068 
L 381.172364 269.04551 
L 376.843636 267.765129 
L 372.514909 267.639399 
L 368.186182 267.644793 
L 363.857455 266.865761 
L 359.528727 266.881441 
L 355.2 265.657723 
L 350.871273 265.557639 
L 346.542545 265.452329 
L 342.213818 264.381139 
L 337.885091 263.352315 
L 333.556364 261.287218 
L 329.227636 261.55057 
L 324.898909 260.714606 
L 320.570182 259.375501 
L 316.241455 259.564412 
L 311.912727 258.567021 
L 307.584 261.484432 
L 303.255273 257.498891 
L 298.926545 259.278434 
L 294.597818 259.475101 
L 290.269091 256.50915 
L 285.940364 256.482744 
L 281.611636 255.735062 
L 277.282909 256.375964 
L 272.954182 255.645959 
L 268.625455 255.133661 
L 264.296727 254.871391 
L 259.968 255.839436 
L 255.639273 252.801303 
L 251.310545 253.71101 
L 246.981818 253.57804 
L 242.653091 253.389733 
L 238.324364 252.767013 
L 233.995636 251.454992 
L 229.666909 252.243773 
L 225.338182 253.013143 
L 221.009455 248.930065 
L 216.680727 250.229247 
L 212.352 250.776068 
L 208.023273 249.776896 
L 203.694545 249.93075 
L 199.365818 249.370755 
L 195.037091 247.618836 
L 190.708364 246.916386 
L 186.379636 244.670209 
L 182.050909 247.131651 
L 177.722182 245.070266 
L 173.393455 244.375594 
L 169.064727 244.760903 
L 164.736 243.241244 
L 160.407273 243.760839 
L 156.078545 242.259628 
L 151.749818 241.104265 
L 147.421091 242.785218 
L 143.092364 239.731086 
L 138.763636 241.434292 
L 134.434909 240.749119 
L 130.106182 241.510653 
L 125.777455 241.498416 
L 121.448727 239.201443 
L 117.12 243.090323 
L 112.791273 244.726793 
L 108.462545 248.681205 
L 104.133818 249.859481 
L 99.805091 253.643967 
L 95.476364 257.09092 
L 91.147636 260.318996 
L 86.818909 264.288051 
L 82.490182 271.737189 
L 78.161455 277.118444 
L 73.832727 285.81525 
z
" style="fill:#800080;fill-opacity:0.2;"/>
   </g>
   <g id="matplotlib.axis_1">
    <g id="xtick_1">
     <g id="line2d_1">
      <path clip-path="url(#p9ef704eb63)" d="M 95.476364 307.584 
L 95.476364 41.472 
" style="fill:none;stroke:#b0b0b0;stroke-dasharray:2.96,1.28;stroke-dashoffset:0;stroke-width:0.8;"/>
     </g>
     <g id="line2d_2">
      <defs>
       <path d="M 0 0 
L 0 3.5 
" id="m27e7a12d61" style="stroke:#000000;stroke-width:0.8;"/>
      </defs>
      <g>
       <use style="stroke:#000000;stroke-width:0.8;" x="95.476364" xlink:href="#m27e7a12d61" y="307.584"/>
      </g>
     </g>
     <g id="text_1">
      <!-- 0.2 -->
      <defs>
       <path d="M 31.78125 66.40625 
Q 24.171875 66.40625 20.328125 58.90625 
Q 16.5 51.421875 16.5 36.375 
Q 16.5 21.390625 20.328125 13.890625 
Q 24.171875 6.390625 31.78125 6.390625 
Q 39.453125 6.390625 43.28125 13.890625 
Q 47.125 21.390625 47.125 36.375 
Q 47.125 51.421875 43.28125 58.90625 
Q 39.453125 66.40625 31.78125 66.40625 
z
M 31.78125 74.21875 
Q 44.046875 74.21875 50.515625 64.515625 
Q 56.984375 54.828125 56.984375 36.375 
Q 56.984375 17.96875 50.515625 8.265625 
Q 44.046875 -1.421875 31.78125 -1.421875 
Q 19.53125 -1.421875 13.0625 8.265625 
Q 6.59375 17.96875 6.59375 36.375 
Q 6.59375 54.828125 13.0625 64.515625 
Q 19.53125 74.21875 31.78125 74.21875 
z
" id="DejaVuSans-30"/>
       <path d="M 10.6875 12.40625 
L 21 12.40625 
L 21 0 
L 10.6875 0 
z
" id="DejaVuSans-2e"/>
       <path d="M 19.1875 8.296875 
L 53.609375 8.296875 
L 53.609375 0 
L 7.328125 0 
L 7.328125 8.296875 
Q 12.9375 14.109375 22.625 23.890625 
Q 32.328125 33.6875 34.8125 36.53125 
Q 39.546875 41.84375 41.421875 45.53125 
Q 43.3125 49.21875 43.3125 52.78125 
Q 43.3125 58.59375 39.234375 62.25 
Q 35.15625 65.921875 28.609375 65.921875 
Q 23.96875 65.921875 18.8125 64.3125 
Q 13.671875 62.703125 7.8125 59.421875 
L 7.8125 69.390625 
Q 13.765625 71.78125 18.9375 73 
Q 24.125 74.21875 28.421875 74.21875 
Q 39.75 74.21875 46.484375 68.546875 
Q 53.21875 62.890625 53.21875 53.421875 
Q 53.21875 48.921875 51.53125 44.890625 
Q 49.859375 40.875 45.40625 35.40625 
Q 44.1875 33.984375 37.640625 27.21875 
Q 31.109375 20.453125 19.1875 8.296875 
z
" id="DejaVuSans-32"/>
      </defs>
      <g transform="translate(87.524801 322.182437)scale(0.1 -0.1)">
       <use xlink:href="#DejaVuSans-30"/>
       <use x="63.623047" xlink:href="#DejaVuSans-2e"/>
       <use x="95.410156" xlink:href="#DejaVuSans-32"/>
      </g>
     </g>
    </g>
    <g id="xtick_2">
     <g id="line2d_3">
      <path clip-path="url(#p9ef704eb63)" d="M 138.763636 307.584 
L 138.763636 41.472 
" style="fill:none;stroke:#b0b0b0;stroke-dasharray:2.96,1.28;stroke-dashoffset:0;stroke-width:0.8;"/>
     </g>
     <g id="line2d_4">
      <g>
       <use style="stroke:#000000;stroke-width:0.8;" x="138.763636" xlink:href="#m27e7a12d61" y="307.584"/>
      </g>
     </g>
     <g id="text_2">
      <!-- 0.4 -->
      <defs>
       <path d="M 37.796875 64.3125 
L 12.890625 25.390625 
L 37.796875 25.390625 
z
M 35.203125 72.90625 
L 47.609375 72.90625 
L 47.609375 25.390625 
L 58.015625 25.390625 
L 58.015625 17.1875 
L 47.609375 17.1875 
L 47.609375 0 
L 37.796875 0 
L 37.796875 17.1875 
L 4.890625 17.1875 
L 4.890625 26.703125 
z
" id="DejaVuSans-34"/>
      </defs>
      <g transform="translate(130.812074 322.182437)scale(0.1 -0.1)">
       <use xlink:href="#DejaVuSans-30"/>
       <use x="63.623047" xlink:href="#DejaVuSans-2e"/>
       <use x="95.410156" xlink:href="#DejaVuSans-34"/>
      </g>
     </g>
    </g>
    <g id="xtick_3">
     <g id="line2d_5">
      <path clip-path="url(#p9ef704eb63)" d="M 182.050909 307.584 
L 182.050909 41.472 
" style="fill:none;stroke:#b0b0b0;stroke-dasharray:2.96,1.28;stroke-dashoffset:0;stroke-width:0.8;"/>
     </g>
     <g id="line2d_6">
      <g>
       <use style="stroke:#000000;stroke-width:0.8;" x="182.050909" xlink:href="#m27e7a12d61" y="307.584"/>
      </g>
     </g>
     <g id="text_3">
      <!-- 0.6 -->
      <defs>
       <path d="M 33.015625 40.375 
Q 26.375 40.375 22.484375 35.828125 
Q 18.609375 31.296875 18.609375 23.390625 
Q 18.609375 15.53125 22.484375 10.953125 
Q 26.375 6.390625 33.015625 6.390625 
Q 39.65625 6.390625 43.53125 10.953125 
Q 47.40625 15.53125 47.40625 23.390625 
Q 47.40625 31.296875 43.53125 35.828125 
Q 39.65625 40.375 33.015625 40.375 
z
M 52.59375 71.296875 
L 52.59375 62.3125 
Q 48.875 64.0625 45.09375 64.984375 
Q 41.3125 65.921875 37.59375 65.921875 
Q 27.828125 65.921875 22.671875 59.328125 
Q 17.53125 52.734375 16.796875 39.40625 
Q 19.671875 43.65625 24.015625 45.921875 
Q 28.375 48.1875 33.59375 48.1875 
Q 44.578125 48.1875 50.953125 41.515625 
Q 57.328125 34.859375 57.328125 23.390625 
Q 57.328125 12.15625 50.6875 5.359375 
Q 44.046875 -1.421875 33.015625 -1.421875 
Q 20.359375 -1.421875 13.671875 8.265625 
Q 6.984375 17.96875 6.984375 36.375 
Q 6.984375 53.65625 15.1875 63.9375 
Q 23.390625 74.21875 37.203125 74.21875 
Q 40.921875 74.21875 44.703125 73.484375 
Q 48.484375 72.75 52.59375 71.296875 
z
" id="DejaVuSans-36"/>
      </defs>
      <g transform="translate(174.099347 322.182437)scale(0.1 -0.1)">
       <use xlink:href="#DejaVuSans-30"/>
       <use x="63.623047" xlink:href="#DejaVuSans-2e"/>
       <use x="95.410156" xlink:href="#DejaVuSans-36"/>
      </g>
     </g>
    </g>
    <g id="xtick_4">
     <g id="line2d_7">
      <path clip-path="url(#p9ef704eb63)" d="M 225.338182 307.584 
L 225.338182 41.472 
" style="fill:none;stroke:#b0b0b0;stroke-dasharray:2.96,1.28;stroke-dashoffset:0;stroke-width:0.8;"/>
     </g>
     <g id="line2d_8">
      <g>
       <use style="stroke:#000000;stroke-width:0.8;" x="225.338182" xlink:href="#m27e7a12d61" y="307.584"/>
      </g>
     </g>
     <g id="text_4">
      <!-- 0.8 -->
      <defs>
       <path d="M 31.78125 34.625 
Q 24.75 34.625 20.71875 30.859375 
Q 16.703125 27.09375 16.703125 20.515625 
Q 16.703125 13.921875 20.71875 10.15625 
Q 24.75 6.390625 31.78125 6.390625 
Q 38.8125 6.390625 42.859375 10.171875 
Q 46.921875 13.96875 46.921875 20.515625 
Q 46.921875 27.09375 42.890625 30.859375 
Q 38.875 34.625 31.78125 34.625 
z
M 21.921875 38.8125 
Q 15.578125 40.375 12.03125 44.71875 
Q 8.5 49.078125 8.5 55.328125 
Q 8.5 64.0625 14.71875 69.140625 
Q 20.953125 74.21875 31.78125 74.21875 
Q 42.671875 74.21875 48.875 69.140625 
Q 55.078125 64.0625 55.078125 55.328125 
Q 55.078125 49.078125 51.53125 44.71875 
Q 48 40.375 41.703125 38.8125 
Q 48.828125 37.15625 52.796875 32.3125 
Q 56.78125 27.484375 56.78125 20.515625 
Q 56.78125 9.90625 50.3125 4.234375 
Q 43.84375 -1.421875 31.78125 -1.421875 
Q 19.734375 -1.421875 13.25 4.234375 
Q 6.78125 9.90625 6.78125 20.515625 
Q 6.78125 27.484375 10.78125 32.3125 
Q 14.796875 37.15625 21.921875 38.8125 
z
M 18.3125 54.390625 
Q 18.3125 48.734375 21.84375 45.5625 
Q 25.390625 42.390625 31.78125 42.390625 
Q 38.140625 42.390625 41.71875 45.5625 
Q 45.3125 48.734375 45.3125 54.390625 
Q 45.3125 60.0625 41.71875 63.234375 
Q 38.140625 66.40625 31.78125 66.40625 
Q 25.390625 66.40625 21.84375 63.234375 
Q 18.3125 60.0625 18.3125 54.390625 
z
" id="DejaVuSans-38"/>
      </defs>
      <g transform="translate(217.386619 322.182437)scale(0.1 -0.1)">
       <use xlink:href="#DejaVuSans-30"/>
       <use x="63.623047" xlink:href="#DejaVuSans-2e"/>
       <use x="95.410156" xlink:href="#DejaVuSans-38"/>
      </g>
     </g>
    </g>
    <g id="xtick_5">
     <g id="line2d_9">
      <path clip-path="url(#p9ef704eb63)" d="M 268.625455 307.584 
L 268.625455 41.472 
" style="fill:none;stroke:#b0b0b0;stroke-dasharray:2.96,1.28;stroke-dashoffset:0;stroke-width:0.8;"/>
     </g>
     <g id="line2d_10">
      <g>
       <use style="stroke:#000000;stroke-width:0.8;" x="268.625455" xlink:href="#m27e7a12d61" y="307.584"/>
      </g>
     </g>
     <g id="text_5">
      <!-- 1.0 -->
      <defs>
       <path d="M 12.40625 8.296875 
L 28.515625 8.296875 
L 28.515625 63.921875 
L 10.984375 60.40625 
L 10.984375 69.390625 
L 28.421875 72.90625 
L 38.28125 72.90625 
L 38.28125 8.296875 
L 54.390625 8.296875 
L 54.390625 0 
L 12.40625 0 
z
" id="DejaVuSans-31"/>
      </defs>
      <g transform="translate(260.673892 322.182437)scale(0.1 -0.1)">
       <use xlink:href="#DejaVuSans-31"/>
       <use x="63.623047" xlink:href="#DejaVuSans-2e"/>
       <use x="95.410156" xlink:href="#DejaVuSans-30"/>
      </g>
     </g>
    </g>
    <g id="xtick_6">
     <g id="line2d_11">
      <path clip-path="url(#p9ef704eb63)" d="M 311.912727 307.584 
L 311.912727 41.472 
" style="fill:none;stroke:#b0b0b0;stroke-dasharray:2.96,1.28;stroke-dashoffset:0;stroke-width:0.8;"/>
     </g>
     <g id="line2d_12">
      <g>
       <use style="stroke:#000000;stroke-width:0.8;" x="311.912727" xlink:href="#m27e7a12d61" y="307.584"/>
      </g>
     </g>
     <g id="text_6">
      <!-- 1.2 -->
      <g transform="translate(303.961165 322.182437)scale(0.1 -0.1)">
       <use xlink:href="#DejaVuSans-31"/>
       <use x="63.623047" xlink:href="#DejaVuSans-2e"/>
       <use x="95.410156" xlink:href="#DejaVuSans-32"/>
      </g>
     </g>
    </g>
    <g id="xtick_7">
     <g id="line2d_13">
      <path clip-path="url(#p9ef704eb63)" d="M 355.2 307.584 
L 355.2 41.472 
" style="fill:none;stroke:#b0b0b0;stroke-dasharray:2.96,1.28;stroke-dashoffset:0;stroke-width:0.8;"/>
     </g>
     <g id="line2d_14">
      <g>
       <use style="stroke:#000000;stroke-width:0.8;" x="355.2" xlink:href="#m27e7a12d61" y="307.584"/>
      </g>
     </g>
     <g id="text_7">
      <!-- 1.4 -->
      <g transform="translate(347.248437 322.182437)scale(0.1 -0.1)">
       <use xlink:href="#DejaVuSans-31"/>
       <use x="63.623047" xlink:href="#DejaVuSans-2e"/>
       <use x="95.410156" xlink:href="#DejaVuSans-34"/>
      </g>
     </g>
    </g>
    <g id="xtick_8">
     <g id="line2d_15">
      <path clip-path="url(#p9ef704eb63)" d="M 398.487273 307.584 
L 398.487273 41.472 
" style="fill:none;stroke:#b0b0b0;stroke-dasharray:2.96,1.28;stroke-dashoffset:0;stroke-width:0.8;"/>
     </g>
     <g id="line2d_16">
      <g>
       <use style="stroke:#000000;stroke-width:0.8;" x="398.487273" xlink:href="#m27e7a12d61" y="307.584"/>
      </g>
     </g>
     <g id="text_8">
      <!-- 1.6 -->
      <g transform="translate(390.53571 322.182437)scale(0.1 -0.1)">
       <use xlink:href="#DejaVuSans-31"/>
       <use x="63.623047" xlink:href="#DejaVuSans-2e"/>
       <use x="95.410156" xlink:href="#DejaVuSans-36"/>
      </g>
     </g>
    </g>
    <g id="text_9">
     <!-- Pole Length -->
     <defs>
      <path d="M 19.671875 64.796875 
L 19.671875 37.40625 
L 32.078125 37.40625 
Q 38.96875 37.40625 42.71875 40.96875 
Q 46.484375 44.53125 46.484375 51.125 
Q 46.484375 57.671875 42.71875 61.234375 
Q 38.96875 64.796875 32.078125 64.796875 
z
M 9.8125 72.90625 
L 32.078125 72.90625 
Q 44.34375 72.90625 50.609375 67.359375 
Q 56.890625 61.8125 56.890625 51.125 
Q 56.890625 40.328125 50.609375 34.8125 
Q 44.34375 29.296875 32.078125 29.296875 
L 19.671875 29.296875 
L 19.671875 0 
L 9.8125 0 
z
" id="DejaVuSans-50"/>
      <path d="M 30.609375 48.390625 
Q 23.390625 48.390625 19.1875 42.75 
Q 14.984375 37.109375 14.984375 27.296875 
Q 14.984375 17.484375 19.15625 11.84375 
Q 23.34375 6.203125 30.609375 6.203125 
Q 37.796875 6.203125 41.984375 11.859375 
Q 46.1875 17.53125 46.1875 27.296875 
Q 46.1875 37.015625 41.984375 42.703125 
Q 37.796875 48.390625 30.609375 48.390625 
z
M 30.609375 56 
Q 42.328125 56 49.015625 48.375 
Q 55.71875 40.765625 55.71875 27.296875 
Q 55.71875 13.875 49.015625 6.21875 
Q 42.328125 -1.421875 30.609375 -1.421875 
Q 18.84375 -1.421875 12.171875 6.21875 
Q 5.515625 13.875 5.515625 27.296875 
Q 5.515625 40.765625 12.171875 48.375 
Q 18.84375 56 30.609375 56 
z
" id="DejaVuSans-6f"/>
      <path d="M 9.421875 75.984375 
L 18.40625 75.984375 
L 18.40625 0 
L 9.421875 0 
z
" id="DejaVuSans-6c"/>
      <path d="M 56.203125 29.59375 
L 56.203125 25.203125 
L 14.890625 25.203125 
Q 15.484375 15.921875 20.484375 11.0625 
Q 25.484375 6.203125 34.421875 6.203125 
Q 39.59375 6.203125 44.453125 7.46875 
Q 49.3125 8.734375 54.109375 11.28125 
L 54.109375 2.78125 
Q 49.265625 0.734375 44.1875 -0.34375 
Q 39.109375 -1.421875 33.890625 -1.421875 
Q 20.796875 -1.421875 13.15625 6.1875 
Q 5.515625 13.8125 5.515625 26.8125 
Q 5.515625 40.234375 12.765625 48.109375 
Q 20.015625 56 32.328125 56 
Q 43.359375 56 49.78125 48.890625 
Q 56.203125 41.796875 56.203125 29.59375 
z
M 47.21875 32.234375 
Q 47.125 39.59375 43.09375 43.984375 
Q 39.0625 48.390625 32.421875 48.390625 
Q 24.90625 48.390625 20.390625 44.140625 
Q 15.875 39.890625 15.1875 32.171875 
z
" id="DejaVuSans-65"/>
      <path id="DejaVuSans-20"/>
      <path d="M 9.8125 72.90625 
L 19.671875 72.90625 
L 19.671875 8.296875 
L 55.171875 8.296875 
L 55.171875 0 
L 9.8125 0 
z
" id="DejaVuSans-4c"/>
      <path d="M 54.890625 33.015625 
L 54.890625 0 
L 45.90625 0 
L 45.90625 32.71875 
Q 45.90625 40.484375 42.875 44.328125 
Q 39.84375 48.1875 33.796875 48.1875 
Q 26.515625 48.1875 22.3125 43.546875 
Q 18.109375 38.921875 18.109375 30.90625 
L 18.109375 0 
L 9.078125 0 
L 9.078125 54.6875 
L 18.109375 54.6875 
L 18.109375 46.1875 
Q 21.34375 51.125 25.703125 53.5625 
Q 30.078125 56 35.796875 56 
Q 45.21875 56 50.046875 50.171875 
Q 54.890625 44.34375 54.890625 33.015625 
z
" id="DejaVuSans-6e"/>
      <path d="M 45.40625 27.984375 
Q 45.40625 37.75 41.375 43.109375 
Q 37.359375 48.484375 30.078125 48.484375 
Q 22.859375 48.484375 18.828125 43.109375 
Q 14.796875 37.75 14.796875 27.984375 
Q 14.796875 18.265625 18.828125 12.890625 
Q 22.859375 7.515625 30.078125 7.515625 
Q 37.359375 7.515625 41.375 12.890625 
Q 45.40625 18.265625 45.40625 27.984375 
z
M 54.390625 6.78125 
Q 54.390625 -7.171875 48.1875 -13.984375 
Q 42 -20.796875 29.203125 -20.796875 
Q 24.46875 -20.796875 20.265625 -20.09375 
Q 16.0625 -19.390625 12.109375 -17.921875 
L 12.109375 -9.1875 
Q 16.0625 -11.328125 19.921875 -12.34375 
Q 23.78125 -13.375 27.78125 -13.375 
Q 36.625 -13.375 41.015625 -8.765625 
Q 45.40625 -4.15625 45.40625 5.171875 
L 45.40625 9.625 
Q 42.625 4.78125 38.28125 2.390625 
Q 33.9375 0 27.875 0 
Q 17.828125 0 11.671875 7.65625 
Q 5.515625 15.328125 5.515625 27.984375 
Q 5.515625 40.671875 11.671875 48.328125 
Q 17.828125 56 27.875 56 
Q 33.9375 56 38.28125 53.609375 
Q 42.625 51.21875 45.40625 46.390625 
L 45.40625 54.6875 
L 54.390625 54.6875 
z
" id="DejaVuSans-67"/>
      <path d="M 18.3125 70.21875 
L 18.3125 54.6875 
L 36.8125 54.6875 
L 36.8125 47.703125 
L 18.3125 47.703125 
L 18.3125 18.015625 
Q 18.3125 11.328125 20.140625 9.421875 
Q 21.96875 7.515625 27.59375 7.515625 
L 36.8125 7.515625 
L 36.8125 0 
L 27.59375 0 
Q 17.1875 0 13.234375 3.875 
Q 9.28125 7.765625 9.28125 18.015625 
L 9.28125 47.703125 
L 2.6875 47.703125 
L 2.6875 54.6875 
L 9.28125 54.6875 
L 9.28125 70.21875 
z
" id="DejaVuSans-74"/>
      <path d="M 54.890625 33.015625 
L 54.890625 0 
L 45.90625 0 
L 45.90625 32.71875 
Q 45.90625 40.484375 42.875 44.328125 
Q 39.84375 48.1875 33.796875 48.1875 
Q 26.515625 48.1875 22.3125 43.546875 
Q 18.109375 38.921875 18.109375 30.90625 
L 18.109375 0 
L 9.078125 0 
L 9.078125 75.984375 
L 18.109375 75.984375 
L 18.109375 46.1875 
Q 21.34375 51.125 25.703125 53.5625 
Q 30.078125 56 35.796875 56 
Q 45.21875 56 50.046875 50.171875 
Q 54.890625 44.34375 54.890625 33.015625 
z
" id="DejaVuSans-68"/>
     </defs>
     <g transform="translate(206.699844 335.860562)scale(0.1 -0.1)">
      <use xlink:href="#DejaVuSans-50"/>
      <use x="60.255859" xlink:href="#DejaVuSans-6f"/>
      <use x="121.4375" xlink:href="#DejaVuSans-6c"/>
      <use x="149.220703" xlink:href="#DejaVuSans-65"/>
      <use x="210.744141" xlink:href="#DejaVuSans-20"/>
      <use x="242.53125" xlink:href="#DejaVuSans-4c"/>
      <use x="298.228516" xlink:href="#DejaVuSans-65"/>
      <use x="359.751953" xlink:href="#DejaVuSans-6e"/>
      <use x="423.130859" xlink:href="#DejaVuSans-67"/>
      <use x="486.607422" xlink:href="#DejaVuSans-74"/>
      <use x="525.816406" xlink:href="#DejaVuSans-68"/>
     </g>
    </g>
   </g>
   <g id="matplotlib.axis_2">
    <g id="ytick_1">
     <g id="line2d_17">
      <path clip-path="url(#p9ef704eb63)" d="M 57.6 307.584 
L 414.72 307.584 
" style="fill:none;stroke:#b0b0b0;stroke-dasharray:2.96,1.28;stroke-dashoffset:0;stroke-width:0.8;"/>
     </g>
     <g id="line2d_18">
      <defs>
       <path d="M 0 0 
L -3.5 0 
" id="mdeb29bbc11" style="stroke:#000000;stroke-width:0.8;"/>
      </defs>
      <g>
       <use style="stroke:#000000;stroke-width:0.8;" x="57.6" xlink:href="#mdeb29bbc11" y="307.584"/>
      </g>
     </g>
     <g id="text_10">
      <!-- 0 -->
      <g transform="translate(44.2375 311.383219)scale(0.1 -0.1)">
       <use xlink:href="#DejaVuSans-30"/>
      </g>
     </g>
    </g>
    <g id="ytick_2">
     <g id="line2d_19">
      <path clip-path="url(#p9ef704eb63)" d="M 57.6 259.2 
L 414.72 259.2 
" style="fill:none;stroke:#b0b0b0;stroke-dasharray:2.96,1.28;stroke-dashoffset:0;stroke-width:0.8;"/>
     </g>
     <g id="line2d_20">
      <g>
       <use style="stroke:#000000;stroke-width:0.8;" x="57.6" xlink:href="#mdeb29bbc11" y="259.2"/>
      </g>
     </g>
     <g id="text_11">
      <!-- 200 -->
      <g transform="translate(31.5125 262.999219)scale(0.1 -0.1)">
       <use xlink:href="#DejaVuSans-32"/>
       <use x="63.623047" xlink:href="#DejaVuSans-30"/>
       <use x="127.246094" xlink:href="#DejaVuSans-30"/>
      </g>
     </g>
    </g>
    <g id="ytick_3">
     <g id="line2d_21">
      <path clip-path="url(#p9ef704eb63)" d="M 57.6 210.816 
L 414.72 210.816 
" style="fill:none;stroke:#b0b0b0;stroke-dasharray:2.96,1.28;stroke-dashoffset:0;stroke-width:0.8;"/>
     </g>
     <g id="line2d_22">
      <g>
       <use style="stroke:#000000;stroke-width:0.8;" x="57.6" xlink:href="#mdeb29bbc11" y="210.816"/>
      </g>
     </g>
     <g id="text_12">
      <!-- 400 -->
      <g transform="translate(31.5125 214.615219)scale(0.1 -0.1)">
       <use xlink:href="#DejaVuSans-34"/>
       <use x="63.623047" xlink:href="#DejaVuSans-30"/>
       <use x="127.246094" xlink:href="#DejaVuSans-30"/>
      </g>
     </g>
    </g>
    <g id="ytick_4">
     <g id="line2d_23">
      <path clip-path="url(#p9ef704eb63)" d="M 57.6 162.432 
L 414.72 162.432 
" style="fill:none;stroke:#b0b0b0;stroke-dasharray:2.96,1.28;stroke-dashoffset:0;stroke-width:0.8;"/>
     </g>
     <g id="line2d_24">
      <g>
       <use style="stroke:#000000;stroke-width:0.8;" x="57.6" xlink:href="#mdeb29bbc11" y="162.432"/>
      </g>
     </g>
     <g id="text_13">
      <!-- 600 -->
      <g transform="translate(31.5125 166.231219)scale(0.1 -0.1)">
       <use xlink:href="#DejaVuSans-36"/>
       <use x="63.623047" xlink:href="#DejaVuSans-30"/>
       <use x="127.246094" xlink:href="#DejaVuSans-30"/>
      </g>
     </g>
    </g>
    <g id="ytick_5">
     <g id="line2d_25">
      <path clip-path="url(#p9ef704eb63)" d="M 57.6 114.048 
L 414.72 114.048 
" style="fill:none;stroke:#b0b0b0;stroke-dasharray:2.96,1.28;stroke-dashoffset:0;stroke-width:0.8;"/>
     </g>
     <g id="line2d_26">
      <g>
       <use style="stroke:#000000;stroke-width:0.8;" x="57.6" xlink:href="#mdeb29bbc11" y="114.048"/>
      </g>
     </g>
     <g id="text_14">
      <!-- 800 -->
      <g transform="translate(31.5125 117.847219)scale(0.1 -0.1)">
       <use xlink:href="#DejaVuSans-38"/>
       <use x="63.623047" xlink:href="#DejaVuSans-30"/>
       <use x="127.246094" xlink:href="#DejaVuSans-30"/>
      </g>
     </g>
    </g>
    <g id="ytick_6">
     <g id="line2d_27">
      <path clip-path="url(#p9ef704eb63)" d="M 57.6 65.664 
L 414.72 65.664 
" style="fill:none;stroke:#b0b0b0;stroke-dasharray:2.96,1.28;stroke-dashoffset:0;stroke-width:0.8;"/>
     </g>
     <g id="line2d_28">
      <g>
       <use style="stroke:#000000;stroke-width:0.8;" x="57.6" xlink:href="#mdeb29bbc11" y="65.664"/>
      </g>
     </g>
     <g id="text_15">
      <!-- 1000 -->
      <g transform="translate(25.15 69.463219)scale(0.1 -0.1)">
       <use xlink:href="#DejaVuSans-31"/>
       <use x="63.623047" xlink:href="#DejaVuSans-30"/>
       <use x="127.246094" xlink:href="#DejaVuSans-30"/>
       <use x="190.869141" xlink:href="#DejaVuSans-30"/>
      </g>
     </g>
    </g>
    <g id="text_16">
     <!-- Rewards -->
     <defs>
      <path d="M 44.390625 34.1875 
Q 47.5625 33.109375 50.5625 29.59375 
Q 53.5625 26.078125 56.59375 19.921875 
L 66.609375 0 
L 56 0 
L 46.6875 18.703125 
Q 43.0625 26.03125 39.671875 28.421875 
Q 36.28125 30.8125 30.421875 30.8125 
L 19.671875 30.8125 
L 19.671875 0 
L 9.8125 0 
L 9.8125 72.90625 
L 32.078125 72.90625 
Q 44.578125 72.90625 50.734375 67.671875 
Q 56.890625 62.453125 56.890625 51.90625 
Q 56.890625 45.015625 53.6875 40.46875 
Q 50.484375 35.9375 44.390625 34.1875 
z
M 19.671875 64.796875 
L 19.671875 38.921875 
L 32.078125 38.921875 
Q 39.203125 38.921875 42.84375 42.21875 
Q 46.484375 45.515625 46.484375 51.90625 
Q 46.484375 58.296875 42.84375 61.546875 
Q 39.203125 64.796875 32.078125 64.796875 
z
" id="DejaVuSans-52"/>
      <path d="M 4.203125 54.6875 
L 13.1875 54.6875 
L 24.421875 12.015625 
L 35.59375 54.6875 
L 46.1875 54.6875 
L 57.421875 12.015625 
L 68.609375 54.6875 
L 77.59375 54.6875 
L 63.28125 0 
L 52.6875 0 
L 40.921875 44.828125 
L 29.109375 0 
L 18.5 0 
z
" id="DejaVuSans-77"/>
      <path d="M 34.28125 27.484375 
Q 23.390625 27.484375 19.1875 25 
Q 14.984375 22.515625 14.984375 16.5 
Q 14.984375 11.71875 18.140625 8.90625 
Q 21.296875 6.109375 26.703125 6.109375 
Q 34.1875 6.109375 38.703125 11.40625 
Q 43.21875 16.703125 43.21875 25.484375 
L 43.21875 27.484375 
z
M 52.203125 31.203125 
L 52.203125 0 
L 43.21875 0 
L 43.21875 8.296875 
Q 40.140625 3.328125 35.546875 0.953125 
Q 30.953125 -1.421875 24.3125 -1.421875 
Q 15.921875 -1.421875 10.953125 3.296875 
Q 6 8.015625 6 15.921875 
Q 6 25.140625 12.171875 29.828125 
Q 18.359375 34.515625 30.609375 34.515625 
L 43.21875 34.515625 
L 43.21875 35.40625 
Q 43.21875 41.609375 39.140625 45 
Q 35.0625 48.390625 27.6875 48.390625 
Q 23 48.390625 18.546875 47.265625 
Q 14.109375 46.140625 10.015625 43.890625 
L 10.015625 52.203125 
Q 14.9375 54.109375 19.578125 55.046875 
Q 24.21875 56 28.609375 56 
Q 40.484375 56 46.34375 49.84375 
Q 52.203125 43.703125 52.203125 31.203125 
z
" id="DejaVuSans-61"/>
      <path d="M 41.109375 46.296875 
Q 39.59375 47.171875 37.8125 47.578125 
Q 36.03125 48 33.890625 48 
Q 26.265625 48 22.1875 43.046875 
Q 18.109375 38.09375 18.109375 28.8125 
L 18.109375 0 
L 9.078125 0 
L 9.078125 54.6875 
L 18.109375 54.6875 
L 18.109375 46.1875 
Q 20.953125 51.171875 25.484375 53.578125 
Q 30.03125 56 36.53125 56 
Q 37.453125 56 38.578125 55.875 
Q 39.703125 55.765625 41.0625 55.515625 
z
" id="DejaVuSans-72"/>
      <path d="M 45.40625 46.390625 
L 45.40625 75.984375 
L 54.390625 75.984375 
L 54.390625 0 
L 45.40625 0 
L 45.40625 8.203125 
Q 42.578125 3.328125 38.25 0.953125 
Q 33.9375 -1.421875 27.875 -1.421875 
Q 17.96875 -1.421875 11.734375 6.484375 
Q 5.515625 14.40625 5.515625 27.296875 
Q 5.515625 40.1875 11.734375 48.09375 
Q 17.96875 56 27.875 56 
Q 33.9375 56 38.25 53.625 
Q 42.578125 51.265625 45.40625 46.390625 
z
M 14.796875 27.296875 
Q 14.796875 17.390625 18.875 11.75 
Q 22.953125 6.109375 30.078125 6.109375 
Q 37.203125 6.109375 41.296875 11.75 
Q 45.40625 17.390625 45.40625 27.296875 
Q 45.40625 37.203125 41.296875 42.84375 
Q 37.203125 48.484375 30.078125 48.484375 
Q 22.953125 48.484375 18.875 42.84375 
Q 14.796875 37.203125 14.796875 27.296875 
z
" id="DejaVuSans-64"/>
      <path d="M 44.28125 53.078125 
L 44.28125 44.578125 
Q 40.484375 46.53125 36.375 47.5 
Q 32.28125 48.484375 27.875 48.484375 
Q 21.1875 48.484375 17.84375 46.4375 
Q 14.5 44.390625 14.5 40.28125 
Q 14.5 37.15625 16.890625 35.375 
Q 19.28125 33.59375 26.515625 31.984375 
L 29.59375 31.296875 
Q 39.15625 29.25 43.1875 25.515625 
Q 47.21875 21.78125 47.21875 15.09375 
Q 47.21875 7.46875 41.1875 3.015625 
Q 35.15625 -1.421875 24.609375 -1.421875 
Q 20.21875 -1.421875 15.453125 -0.5625 
Q 10.6875 0.296875 5.421875 2 
L 5.421875 11.28125 
Q 10.40625 8.6875 15.234375 7.390625 
Q 20.0625 6.109375 24.8125 6.109375 
Q 31.15625 6.109375 34.5625 8.28125 
Q 37.984375 10.453125 37.984375 14.40625 
Q 37.984375 18.0625 35.515625 20.015625 
Q 33.0625 21.96875 24.703125 23.78125 
L 21.578125 24.515625 
Q 13.234375 26.265625 9.515625 29.90625 
Q 5.8125 33.546875 5.8125 39.890625 
Q 5.8125 47.609375 11.28125 51.796875 
Q 16.75 56 26.8125 56 
Q 31.78125 56 36.171875 55.265625 
Q 40.578125 54.546875 44.28125 53.078125 
z
" id="DejaVuSans-73"/>
     </defs>
     <g transform="translate(19.070312 196.062375)rotate(-90)scale(0.1 -0.1)">
      <use xlink:href="#DejaVuSans-52"/>
      <use x="69.419922" xlink:href="#DejaVuSans-65"/>
      <use x="130.943359" xlink:href="#DejaVuSans-77"/>
      <use x="212.730469" xlink:href="#DejaVuSans-61"/>
      <use x="274.009766" xlink:href="#DejaVuSans-72"/>
      <use x="315.107422" xlink:href="#DejaVuSans-64"/>
      <use x="378.583984" xlink:href="#DejaVuSans-73"/>
     </g>
    </g>
   </g>
   <g id="line2d_29">
    <path clip-path="url(#p9ef704eb63)" d="M 73.832727 264.609089 
L 78.161455 258.14668 
L 82.490182 252.272379 
L 86.818909 249.680932 
L 91.147636 247.031182 
L 95.476364 246.128579 
L 99.805091 245.277504 
L 104.133818 246.870305 
L 108.462545 247.350516 
L 112.791273 246.857967 
L 117.12 247.0965 
L 121.448727 248.183205 
L 125.777455 249.065729 
L 130.106182 251.026249 
L 134.434909 251.027459 
L 138.763636 251.958851 
L 143.092364 253.169902 
L 147.421091 253.009751 
L 151.749818 253.541007 
L 156.078545 254.163709 
L 160.407273 253.76817 
L 164.736 254.417 
L 169.064727 254.895759 
L 173.393455 255.369681 
L 177.722182 255.84457 
L 182.050909 256.568394 
L 186.379636 256.080684 
L 190.708364 256.406308 
L 195.037091 256.058427 
L 199.365818 256.310991 
L 203.694545 256.247608 
L 208.023273 256.393728 
L 212.352 256.362762 
L 216.680727 256.08528 
L 221.009455 256.7883 
L 225.338182 257.006028 
L 229.666909 257.298025 
L 233.995636 257.023446 
L 238.324364 256.295025 
L 242.653091 257.948548 
L 246.981818 257.262947 
L 251.310545 257.425275 
L 255.639273 258.38981 
L 259.968 258.041203 
L 264.296727 257.852022 
L 268.625455 258.667776 
L 272.954182 258.991707 
L 277.282909 259.515464 
L 281.611636 260.148084 
L 285.940364 260.36049 
L 290.269091 260.780463 
L 294.597818 262.367459 
L 298.926545 261.94555 
L 303.255273 262.466404 
L 307.584 263.36683 
L 311.912727 264.425714 
L 316.241455 264.664005 
L 320.570182 264.012515 
L 324.898909 265.171311 
L 329.227636 265.640152 
L 333.556364 266.035933 
L 337.885091 266.579044 
L 342.213818 267.386573 
L 346.542545 267.631638 
L 350.871273 268.100237 
L 355.2 268.335383 
L 359.528727 268.584077 
L 363.857455 269.17799 
L 368.186182 269.105172 
L 372.514909 269.351205 
L 376.843636 269.538451 
L 381.172364 269.366688 
L 385.501091 269.555144 
L 389.829818 270.426298 
L 394.158545 270.05495 
L 398.487273 270.676927 
" style="fill:none;stroke:#ff6347;stroke-linecap:square;stroke-width:2;"/>
   </g>
   <g id="line2d_30">
    <path clip-path="url(#p9ef704eb63)" d="M 73.832727 239.380946 
L 78.161455 218.921288 
L 82.490182 206.354511 
L 86.818909 200.561737 
L 91.147636 201.827462 
L 95.476364 206.669733 
L 99.805091 209.281985 
L 104.133818 213.662673 
L 108.462545 219.364969 
L 112.791273 223.086666 
L 117.12 225.805605 
L 121.448727 230.718516 
L 125.777455 231.734822 
L 130.106182 235.616429 
L 134.434909 235.183634 
L 138.763636 235.765693 
L 143.092364 236.864252 
L 147.421091 238.249728 
L 151.749818 238.094899 
L 156.078545 240.439588 
L 160.407273 241.164622 
L 164.736 241.343885 
L 169.064727 242.056097 
L 173.393455 242.327048 
L 177.722182 244.001376 
L 182.050909 243.296663 
L 186.379636 243.496489 
L 190.708364 244.928897 
L 195.037091 244.95575 
L 199.365818 243.712765 
L 203.694545 244.839629 
L 208.023273 244.051212 
L 212.352 244.664963 
L 216.680727 244.390383 
L 221.009455 245.803196 
L 225.338182 245.610386 
L 229.666909 244.517149 
L 233.995636 246.251958 
L 238.324364 244.133222 
L 242.653091 245.148803 
L 246.981818 245.098241 
L 251.310545 246.376305 
L 255.639273 246.985217 
L 259.968 248.567374 
L 264.296727 247.565825 
L 268.625455 248.79623 
L 272.954182 247.899675 
L 277.282909 247.322454 
L 281.611636 245.622724 
L 285.940364 244.544728 
L 290.269091 242.361642 
L 294.597818 240.332417 
L 298.926545 242.322935 
L 303.255273 241.649188 
L 307.584 240.697475 
L 311.912727 238.49189 
L 316.241455 238.527694 
L 320.570182 238.977907 
L 324.898909 238.562289 
L 329.227636 238.710586 
L 333.556364 236.18615 
L 337.885091 237.675652 
L 342.213818 237.874994 
L 346.542545 238.243438 
L 350.871273 238.793564 
L 355.2 238.458263 
L 359.528727 238.723165 
L 363.857455 239.516421 
L 368.186182 240.017437 
L 372.514909 239.450619 
L 376.843636 240.11106 
L 381.172364 240.288388 
L 385.501091 240.646671 
L 389.829818 240.564177 
L 394.158545 240.855206 
L 398.487273 240.91617 
" style="fill:none;stroke:#ffd700;stroke-dasharray:7.4,3.2;stroke-dashoffset:0;stroke-width:2;"/>
   </g>
   <g id="line2d_31">
    <path clip-path="url(#p9ef704eb63)" d="M 73.832727 257.142712 
L 78.161455 244.124271 
L 82.490182 238.937023 
L 86.818909 236.736035 
L 91.147636 237.343496 
L 95.476364 237.550337 
L 99.805091 239.38022 
L 104.133818 238.300773 
L 108.462545 239.38651 
L 112.791273 241.408236 
L 117.12 240.592239 
L 121.448727 241.061806 
L 125.777455 242.966926 
L 130.106182 242.759117 
L 134.434909 244.589484 
L 138.763636 243.986619 
L 143.092364 245.320082 
L 147.421091 245.2417 
L 151.749818 247.624128 
L 156.078545 247.624854 
L 160.407273 248.610436 
L 164.736 248.644063 
L 169.064727 249.16032 
L 173.393455 249.110243 
L 177.722182 249.450866 
L 182.050909 250.846502 
L 186.379636 250.608211 
L 190.708364 250.002927 
L 195.037091 251.139468 
L 199.365818 252.528814 
L 203.694545 250.632645 
L 208.023273 251.655241 
L 212.352 250.618614 
L 216.680727 251.673627 
L 221.009455 251.669998 
L 225.338182 251.841761 
L 229.666909 251.31365 
L 233.995636 251.245428 
L 238.324364 251.607341 
L 242.653091 252.369147 
L 246.981818 251.99659 
L 251.310545 251.385742 
L 255.639273 252.62026 
L 259.968 252.303587 
L 264.296727 251.923288 
L 268.625455 252.918789 
L 272.954182 252.404709 
L 277.282909 252.732269 
L 281.611636 253.331988 
L 285.940364 253.499639 
L 290.269091 253.374566 
L 294.597818 253.439643 
L 298.926545 254.752785 
L 303.255273 254.197094 
L 307.584 254.72448 
L 311.912727 254.096456 
L 316.241455 255.749979 
L 320.570182 255.699418 
L 324.898909 256.134874 
L 329.227636 256.856521 
L 333.556364 256.655002 
L 337.885091 257.087555 
L 342.213818 257.111021 
L 346.542545 256.402921 
L 350.871273 257.581071 
L 355.2 257.75598 
L 359.528727 257.7838 
L 363.857455 258.508109 
L 368.186182 258.540042 
L 372.514909 258.96945 
L 376.843636 258.264495 
L 381.172364 258.742287 
L 385.501091 259.892133 
L 389.829818 259.376844 
L 394.158545 259.475789 
L 398.487273 259.863345 
" style="fill:none;stroke:#00ffff;stroke-dasharray:2,3.3;stroke-dashoffset:0;stroke-width:2;"/>
   </g>
   <g id="line2d_32">
    <path clip-path="url(#p9ef704eb63)" d="M 73.832727 293.358378 
L 78.161455 289.814976 
L 82.490182 286.520026 
L 86.818909 283.685207 
L 91.147636 280.479283 
L 95.476364 278.146932 
L 99.805091 275.236635 
L 104.133818 273.459249 
L 108.462545 271.534291 
L 112.791273 269.628204 
L 117.12 267.616397 
L 121.448727 266.639766 
L 125.777455 264.970034 
L 130.106182 263.584316 
L 134.434909 261.930309 
L 138.763636 260.128731 
L 143.092364 259.524657 
L 147.421091 259.329427 
L 151.749818 258.149341 
L 156.078545 256.371955 
L 160.407273 255.450966 
L 164.736 256.101731 
L 169.064727 253.351342 
L 173.393455 253.267638 
L 177.722182 251.084068 
L 182.050909 251.410418 
L 186.379636 248.9663 
L 190.708364 249.145805 
L 195.037091 248.963639 
L 199.365818 246.465089 
L 203.694545 246.933446 
L 208.023273 246.198252 
L 212.352 246.607096 
L 216.680727 244.451105 
L 221.009455 245.870934 
L 225.338182 241.822161 
L 229.666909 241.256794 
L 233.995636 243.11111 
L 238.324364 238.628091 
L 242.653091 240.486036 
L 246.981818 240.556677 
L 251.310545 238.460198 
L 255.639273 239.61585 
L 259.968 238.857189 
L 264.296727 238.525033 
L 268.625455 240.42846 
L 272.954182 238.372381 
L 277.282909 236.515645 
L 281.611636 239.305225 
L 285.940364 239.870592 
L 290.269091 239.252244 
L 294.597818 236.844899 
L 298.926545 238.680104 
L 303.255273 238.139654 
L 307.584 236.819013 
L 311.912727 241.737489 
L 316.241455 241.416461 
L 320.570182 240.207103 
L 324.898909 240.154364 
L 329.227636 240.605303 
L 333.556364 242.083192 
L 337.885091 242.650737 
L 342.213818 241.868609 
L 346.542545 242.274793 
L 350.871273 241.145752 
L 355.2 240.812145 
L 359.528727 244.959621 
L 363.857455 245.95488 
L 368.186182 244.993006 
L 372.514909 242.092143 
L 376.843636 243.510036 
L 381.172364 244.20604 
L 385.501091 246.38453 
L 389.829818 246.587017 
L 394.158545 245.118563 
L 398.487273 245.968669 
" style="fill:none;stroke:#0000ff;stroke-dasharray:12.8,3.2,2,3.2;stroke-dashoffset:0;stroke-width:2;"/>
   </g>
   <g id="line2d_33">
    <path clip-path="url(#p9ef704eb63)" d="M 73.832727 254.05799 
L 78.161455 243.318678 
L 82.490182 230.148069 
L 86.818909 220.489897 
L 91.147636 212.349289 
L 95.476364 208.978134 
L 99.805091 205.329738 
L 104.133818 207.892397 
L 108.462545 208.101416 
L 112.791273 213.200605 
L 117.12 211.766504 
L 121.448727 216.882386 
L 125.777455 220.588842 
L 130.106182 220.603841 
L 134.434909 223.399469 
L 138.763636 224.906147 
L 143.092364 226.88602 
L 147.421091 226.184452 
L 151.749818 227.634278 
L 156.078545 228.595185 
L 160.407273 229.506739 
L 164.736 230.153149 
L 169.064727 231.28727 
L 173.393455 232.811608 
L 177.722182 231.882877 
L 182.050909 230.847218 
L 186.379636 231.776191 
L 190.708364 233.512451 
L 195.037091 232.551302 
L 199.365818 232.937165 
L 203.694545 233.574866 
L 208.023273 233.544384 
L 212.352 234.11217 
L 216.680727 234.864783 
L 221.009455 234.144829 
L 225.338182 234.583672 
L 229.666909 236.229938 
L 233.995636 235.673038 
L 238.324364 235.594172 
L 242.653091 236.023822 
L 246.981818 236.420571 
L 251.310545 237.156975 
L 255.639273 237.137138 
L 259.968 235.637476 
L 264.296727 236.683296 
L 268.625455 237.621946 
L 272.954182 239.160557 
L 277.282909 237.722342 
L 281.611636 240.4587 
L 285.940364 239.792452 
L 290.269091 239.725198 
L 294.597818 240.449265 
L 298.926545 239.423282 
L 303.255273 240.273873 
L 307.584 240.419508 
L 311.912727 241.218812 
L 316.241455 243.393915 
L 320.570182 244.127658 
L 324.898909 244.569404 
L 329.227636 246.683785 
L 333.556364 247.54502 
L 337.885091 246.742088 
L 342.213818 249.374903 
L 346.542545 249.062826 
L 350.871273 250.989477 
L 355.2 252.911532 
L 359.528727 253.813409 
L 363.857455 254.451352 
L 368.186182 256.65355 
L 372.514909 259.547155 
L 376.843636 260.558139 
L 381.172364 262.955808 
L 385.501091 264.366927 
L 389.829818 266.674602 
L 394.158545 267.979519 
L 398.487273 268.517307 
" style="fill:none;stroke:#008000;stroke-dasharray:12.8,3.2,2,3.2;stroke-dashoffset:0;stroke-width:2;"/>
   </g>
   <g id="line2d_34">
    <path clip-path="url(#p9ef704eb63)" d="M 73.832727 259.897939 
L 78.161455 254.043959 
L 82.490182 250.207592 
L 86.818909 244.366675 
L 91.147636 230.660456 
L 95.476364 222.488156 
L 99.805091 219.453512 
L 104.133818 214.486168 
L 108.462545 213.375756 
L 112.791273 210.549646 
L 117.12 209.845659 
L 121.448727 205.58327 
L 125.777455 208.406477 
L 130.106182 209.595272 
L 134.434909 208.553564 
L 138.763636 209.69083 
L 143.092364 208.54679 
L 147.421091 211.823113 
L 151.749818 210.241682 
L 156.078545 212.26244 
L 160.407273 214.067163 
L 164.736 213.612837 
L 169.064727 215.113467 
L 173.393455 215.024198 
L 177.722182 216.151304 
L 182.050909 218.42511 
L 186.379636 215.526666 
L 190.708364 218.055456 
L 195.037091 218.839277 
L 199.365818 220.818424 
L 203.694545 221.521928 
L 208.023273 221.125663 
L 212.352 222.068667 
L 216.680727 221.669741 
L 221.009455 220.91495 
L 225.338182 224.282235 
L 229.666909 223.557684 
L 233.995636 223.16021 
L 238.324364 224.524639 
L 242.653091 225.358537 
L 246.981818 225.366036 
L 251.310545 225.241206 
L 255.639273 224.422548 
L 259.968 227.743626 
L 264.296727 226.69829 
L 268.625455 226.762399 
L 272.954182 227.209467 
L 277.282909 228.079653 
L 281.611636 227.468805 
L 285.940364 228.393423 
L 290.269091 228.063444 
L 294.597818 231.1247 
L 298.926545 230.939389 
L 303.255273 229.169745 
L 307.584 232.979259 
L 311.912727 230.241208 
L 316.241455 231.096879 
L 320.570182 230.985838 
L 324.898909 232.182132 
L 329.227636 232.979985 
L 333.556364 232.416795 
L 337.885091 234.306432 
L 342.213818 235.18315 
L 346.542545 236.099301 
L 350.871273 236.24784 
L 355.2 236.067126 
L 359.528727 236.954246 
L 363.857455 237.0769 
L 368.186182 237.581787 
L 372.514909 237.39188 
L 376.843636 237.596302 
L 381.172364 238.915008 
L 385.501091 239.025324 
L 389.829818 239.261437 
L 394.158545 238.278516 
L 398.487273 238.762356 
" style="fill:none;stroke:#800080;stroke-dasharray:12.8,3.2,2,3.2;stroke-dashoffset:0;stroke-width:2;"/>
   </g>
   <g id="patch_3">
    <path d="M 57.6 307.584 
L 57.6 41.472 
" style="fill:none;stroke:#000000;stroke-linecap:square;stroke-linejoin:miter;stroke-width:0.8;"/>
   </g>
   <g id="patch_4">
    <path d="M 414.72 307.584 
L 414.72 41.472 
" style="fill:none;stroke:#000000;stroke-linecap:square;stroke-linejoin:miter;stroke-width:0.8;"/>
   </g>
   <g id="patch_5">
    <path d="M 57.6 307.584 
L 414.72 307.584 
" style="fill:none;stroke:#000000;stroke-linecap:square;stroke-linejoin:miter;stroke-width:0.8;"/>
   </g>
   <g id="patch_6">
    <path d="M 57.6 41.472 
L 414.72 41.472 
" style="fill:none;stroke:#000000;stroke-linecap:square;stroke-linejoin:miter;stroke-width:0.8;"/>
   </g>
   <g id="text_17">
    <!-- CartPole (50000 steps) -->
    <defs>
     <path d="M 64.40625 67.28125 
L 64.40625 56.890625 
Q 59.421875 61.53125 53.78125 63.8125 
Q 48.140625 66.109375 41.796875 66.109375 
Q 29.296875 66.109375 22.65625 58.46875 
Q 16.015625 50.828125 16.015625 36.375 
Q 16.015625 21.96875 22.65625 14.328125 
Q 29.296875 6.6875 41.796875 6.6875 
Q 48.140625 6.6875 53.78125 8.984375 
Q 59.421875 11.28125 64.40625 15.921875 
L 64.40625 5.609375 
Q 59.234375 2.09375 53.4375 0.328125 
Q 47.65625 -1.421875 41.21875 -1.421875 
Q 24.65625 -1.421875 15.125 8.703125 
Q 5.609375 18.84375 5.609375 36.375 
Q 5.609375 53.953125 15.125 64.078125 
Q 24.65625 74.21875 41.21875 74.21875 
Q 47.75 74.21875 53.53125 72.484375 
Q 59.328125 70.75 64.40625 67.28125 
z
" id="DejaVuSans-43"/>
     <path d="M 31 75.875 
Q 24.46875 64.65625 21.28125 53.65625 
Q 18.109375 42.671875 18.109375 31.390625 
Q 18.109375 20.125 21.3125 9.0625 
Q 24.515625 -2 31 -13.1875 
L 23.1875 -13.1875 
Q 15.875 -1.703125 12.234375 9.375 
Q 8.59375 20.453125 8.59375 31.390625 
Q 8.59375 42.28125 12.203125 53.3125 
Q 15.828125 64.359375 23.1875 75.875 
z
" id="DejaVuSans-28"/>
     <path d="M 10.796875 72.90625 
L 49.515625 72.90625 
L 49.515625 64.59375 
L 19.828125 64.59375 
L 19.828125 46.734375 
Q 21.96875 47.46875 24.109375 47.828125 
Q 26.265625 48.1875 28.421875 48.1875 
Q 40.625 48.1875 47.75 41.5 
Q 54.890625 34.8125 54.890625 23.390625 
Q 54.890625 11.625 47.5625 5.09375 
Q 40.234375 -1.421875 26.90625 -1.421875 
Q 22.3125 -1.421875 17.546875 -0.640625 
Q 12.796875 0.140625 7.71875 1.703125 
L 7.71875 11.625 
Q 12.109375 9.234375 16.796875 8.0625 
Q 21.484375 6.890625 26.703125 6.890625 
Q 35.15625 6.890625 40.078125 11.328125 
Q 45.015625 15.765625 45.015625 23.390625 
Q 45.015625 31 40.078125 35.4375 
Q 35.15625 39.890625 26.703125 39.890625 
Q 22.75 39.890625 18.8125 39.015625 
Q 14.890625 38.140625 10.796875 36.28125 
z
" id="DejaVuSans-35"/>
     <path d="M 18.109375 8.203125 
L 18.109375 -20.796875 
L 9.078125 -20.796875 
L 9.078125 54.6875 
L 18.109375 54.6875 
L 18.109375 46.390625 
Q 20.953125 51.265625 25.265625 53.625 
Q 29.59375 56 35.59375 56 
Q 45.5625 56 51.78125 48.09375 
Q 58.015625 40.1875 58.015625 27.296875 
Q 58.015625 14.40625 51.78125 6.484375 
Q 45.5625 -1.421875 35.59375 -1.421875 
Q 29.59375 -1.421875 25.265625 0.953125 
Q 20.953125 3.328125 18.109375 8.203125 
z
M 48.6875 27.296875 
Q 48.6875 37.203125 44.609375 42.84375 
Q 40.53125 48.484375 33.40625 48.484375 
Q 26.265625 48.484375 22.1875 42.84375 
Q 18.109375 37.203125 18.109375 27.296875 
Q 18.109375 17.390625 22.1875 11.75 
Q 26.265625 6.109375 33.40625 6.109375 
Q 40.53125 6.109375 44.609375 11.75 
Q 48.6875 17.390625 48.6875 27.296875 
z
" id="DejaVuSans-70"/>
     <path d="M 8.015625 75.875 
L 15.828125 75.875 
Q 23.140625 64.359375 26.78125 53.3125 
Q 30.421875 42.28125 30.421875 31.390625 
Q 30.421875 20.453125 26.78125 9.375 
Q 23.140625 -1.703125 15.828125 -13.1875 
L 8.015625 -13.1875 
Q 14.5 -2 17.703125 9.0625 
Q 20.90625 20.125 20.90625 31.390625 
Q 20.90625 42.671875 17.703125 53.65625 
Q 14.5 64.65625 8.015625 75.875 
z
" id="DejaVuSans-29"/>
    </defs>
    <g transform="translate(167.142188 35.472)scale(0.12 -0.12)">
     <use xlink:href="#DejaVuSans-43"/>
     <use x="69.824219" xlink:href="#DejaVuSans-61"/>
     <use x="131.103516" xlink:href="#DejaVuSans-72"/>
     <use x="172.216797" xlink:href="#DejaVuSans-74"/>
     <use x="211.425781" xlink:href="#DejaVuSans-50"/>
     <use x="271.681641" xlink:href="#DejaVuSans-6f"/>
     <use x="332.863281" xlink:href="#DejaVuSans-6c"/>
     <use x="360.646484" xlink:href="#DejaVuSans-65"/>
     <use x="422.169922" xlink:href="#DejaVuSans-20"/>
     <use x="453.957031" xlink:href="#DejaVuSans-28"/>
     <use x="492.970703" xlink:href="#DejaVuSans-35"/>
     <use x="556.59375" xlink:href="#DejaVuSans-30"/>
     <use x="620.216797" xlink:href="#DejaVuSans-30"/>
     <use x="683.839844" xlink:href="#DejaVuSans-30"/>
     <use x="747.462891" xlink:href="#DejaVuSans-30"/>
     <use x="811.085938" xlink:href="#DejaVuSans-20"/>
     <use x="842.873047" xlink:href="#DejaVuSans-73"/>
     <use x="894.972656" xlink:href="#DejaVuSans-74"/>
     <use x="934.181641" xlink:href="#DejaVuSans-65"/>
     <use x="995.705078" xlink:href="#DejaVuSans-70"/>
     <use x="1059.181641" xlink:href="#DejaVuSans-73"/>
     <use x="1111.28125" xlink:href="#DejaVuSans-29"/>
    </g>
   </g>
   <g id="legend_1">
    <g id="patch_7">
     <path d="M 285.555938 137.54075 
L 407.72 137.54075 
Q 409.72 137.54075 409.72 135.54075 
L 409.72 48.472 
Q 409.72 46.472 407.72 46.472 
L 285.555938 46.472 
Q 283.555938 46.472 283.555938 48.472 
L 283.555938 135.54075 
Q 283.555938 137.54075 285.555938 137.54075 
z
" style="fill:#ffffff;opacity:0.8;stroke:#cccccc;stroke-linejoin:miter;"/>
    </g>
    <g id="line2d_35">
     <path d="M 287.555938 54.570438 
L 307.555938 54.570438 
" style="fill:none;stroke:#ff6347;stroke-linecap:square;stroke-width:2;"/>
    </g>
    <g id="line2d_36"/>
    <g id="text_18">
     <!-- Base -->
     <defs>
      <path d="M 19.671875 34.8125 
L 19.671875 8.109375 
L 35.5 8.109375 
Q 43.453125 8.109375 47.28125 11.40625 
Q 51.125 14.703125 51.125 21.484375 
Q 51.125 28.328125 47.28125 31.5625 
Q 43.453125 34.8125 35.5 34.8125 
z
M 19.671875 64.796875 
L 19.671875 42.828125 
L 34.28125 42.828125 
Q 41.5 42.828125 45.03125 45.53125 
Q 48.578125 48.25 48.578125 53.8125 
Q 48.578125 59.328125 45.03125 62.0625 
Q 41.5 64.796875 34.28125 64.796875 
z
M 9.8125 72.90625 
L 35.015625 72.90625 
Q 46.296875 72.90625 52.390625 68.21875 
Q 58.5 63.53125 58.5 54.890625 
Q 58.5 48.1875 55.375 44.234375 
Q 52.25 40.28125 46.1875 39.3125 
Q 53.46875 37.75 57.5 32.78125 
Q 61.53125 27.828125 61.53125 20.40625 
Q 61.53125 10.640625 54.890625 5.3125 
Q 48.25 0 35.984375 0 
L 9.8125 0 
z
" id="DejaVuSans-42"/>
     </defs>
     <g transform="translate(315.555938 58.070438)scale(0.1 -0.1)">
      <use xlink:href="#DejaVuSans-42"/>
      <use x="68.603516" xlink:href="#DejaVuSans-61"/>
      <use x="129.882812" xlink:href="#DejaVuSans-73"/>
      <use x="181.982422" xlink:href="#DejaVuSans-65"/>
     </g>
    </g>
    <g id="line2d_37">
     <path d="M 287.555938 69.248563 
L 307.555938 69.248563 
" style="fill:none;stroke:#ffd700;stroke-dasharray:7.4,3.2;stroke-dashoffset:0;stroke-width:2;"/>
    </g>
    <g id="line2d_38"/>
    <g id="text_19">
     <!-- L1 -->
     <g transform="translate(315.555938 72.748563)scale(0.1 -0.1)">
      <use xlink:href="#DejaVuSans-4c"/>
      <use x="55.712891" xlink:href="#DejaVuSans-31"/>
     </g>
    </g>
    <g id="line2d_39">
     <path d="M 287.555938 83.926688 
L 307.555938 83.926688 
" style="fill:none;stroke:#00ffff;stroke-dasharray:2,3.3;stroke-dashoffset:0;stroke-width:2;"/>
    </g>
    <g id="line2d_40"/>
    <g id="text_20">
     <!-- L2 -->
     <g transform="translate(315.555938 87.426688)scale(0.1 -0.1)">
      <use xlink:href="#DejaVuSans-4c"/>
      <use x="55.712891" xlink:href="#DejaVuSans-32"/>
     </g>
    </g>
    <g id="line2d_41">
     <path d="M 287.555938 98.604813 
L 307.555938 98.604813 
" style="fill:none;stroke:#0000ff;stroke-dasharray:12.8,3.2,2,3.2;stroke-dashoffset:0;stroke-width:2;"/>
    </g>
    <g id="line2d_42"/>
    <g id="text_21">
     <!-- Dropout -->
     <defs>
      <path d="M 19.671875 64.796875 
L 19.671875 8.109375 
L 31.59375 8.109375 
Q 46.6875 8.109375 53.6875 14.9375 
Q 60.6875 21.78125 60.6875 36.53125 
Q 60.6875 51.171875 53.6875 57.984375 
Q 46.6875 64.796875 31.59375 64.796875 
z
M 9.8125 72.90625 
L 30.078125 72.90625 
Q 51.265625 72.90625 61.171875 64.09375 
Q 71.09375 55.28125 71.09375 36.53125 
Q 71.09375 17.671875 61.125 8.828125 
Q 51.171875 0 30.078125 0 
L 9.8125 0 
z
" id="DejaVuSans-44"/>
      <path d="M 8.5 21.578125 
L 8.5 54.6875 
L 17.484375 54.6875 
L 17.484375 21.921875 
Q 17.484375 14.15625 20.5 10.265625 
Q 23.53125 6.390625 29.59375 6.390625 
Q 36.859375 6.390625 41.078125 11.03125 
Q 45.3125 15.671875 45.3125 23.6875 
L 45.3125 54.6875 
L 54.296875 54.6875 
L 54.296875 0 
L 45.3125 0 
L 45.3125 8.40625 
Q 42.046875 3.421875 37.71875 1 
Q 33.40625 -1.421875 27.6875 -1.421875 
Q 18.265625 -1.421875 13.375 4.4375 
Q 8.5 10.296875 8.5 21.578125 
z
M 31.109375 56 
z
" id="DejaVuSans-75"/>
     </defs>
     <g transform="translate(315.555938 102.104813)scale(0.1 -0.1)">
      <use xlink:href="#DejaVuSans-44"/>
      <use x="77.001953" xlink:href="#DejaVuSans-72"/>
      <use x="118.083984" xlink:href="#DejaVuSans-6f"/>
      <use x="179.265625" xlink:href="#DejaVuSans-70"/>
      <use x="242.742188" xlink:href="#DejaVuSans-6f"/>
      <use x="303.923828" xlink:href="#DejaVuSans-75"/>
      <use x="367.302734" xlink:href="#DejaVuSans-74"/>
     </g>
    </g>
    <g id="line2d_43">
     <path d="M 287.555938 113.282938 
L 307.555938 113.282938 
" style="fill:none;stroke:#008000;stroke-dasharray:12.8,3.2,2,3.2;stroke-dashoffset:0;stroke-width:2;"/>
    </g>
    <g id="line2d_44"/>
    <g id="text_22">
     <!-- Improved dropout -->
     <defs>
      <path d="M 9.8125 72.90625 
L 19.671875 72.90625 
L 19.671875 0 
L 9.8125 0 
z
" id="DejaVuSans-49"/>
      <path d="M 52 44.1875 
Q 55.375 50.25 60.0625 53.125 
Q 64.75 56 71.09375 56 
Q 79.640625 56 84.28125 50.015625 
Q 88.921875 44.046875 88.921875 33.015625 
L 88.921875 0 
L 79.890625 0 
L 79.890625 32.71875 
Q 79.890625 40.578125 77.09375 44.375 
Q 74.3125 48.1875 68.609375 48.1875 
Q 61.625 48.1875 57.5625 43.546875 
Q 53.515625 38.921875 53.515625 30.90625 
L 53.515625 0 
L 44.484375 0 
L 44.484375 32.71875 
Q 44.484375 40.625 41.703125 44.40625 
Q 38.921875 48.1875 33.109375 48.1875 
Q 26.21875 48.1875 22.15625 43.53125 
Q 18.109375 38.875 18.109375 30.90625 
L 18.109375 0 
L 9.078125 0 
L 9.078125 54.6875 
L 18.109375 54.6875 
L 18.109375 46.1875 
Q 21.1875 51.21875 25.484375 53.609375 
Q 29.78125 56 35.6875 56 
Q 41.65625 56 45.828125 52.96875 
Q 50 49.953125 52 44.1875 
z
" id="DejaVuSans-6d"/>
      <path d="M 2.984375 54.6875 
L 12.5 54.6875 
L 29.59375 8.796875 
L 46.6875 54.6875 
L 56.203125 54.6875 
L 35.6875 0 
L 23.484375 0 
z
" id="DejaVuSans-76"/>
     </defs>
     <g transform="translate(315.555938 116.782938)scale(0.1 -0.1)">
      <use xlink:href="#DejaVuSans-49"/>
      <use x="29.492188" xlink:href="#DejaVuSans-6d"/>
      <use x="126.904297" xlink:href="#DejaVuSans-70"/>
      <use x="190.380859" xlink:href="#DejaVuSans-72"/>
      <use x="231.462891" xlink:href="#DejaVuSans-6f"/>
      <use x="292.644531" xlink:href="#DejaVuSans-76"/>
      <use x="351.824219" xlink:href="#DejaVuSans-65"/>
      <use x="413.347656" xlink:href="#DejaVuSans-64"/>
      <use x="476.824219" xlink:href="#DejaVuSans-20"/>
      <use x="508.611328" xlink:href="#DejaVuSans-64"/>
      <use x="572.087891" xlink:href="#DejaVuSans-72"/>
      <use x="613.169922" xlink:href="#DejaVuSans-6f"/>
      <use x="674.351562" xlink:href="#DejaVuSans-70"/>
      <use x="737.828125" xlink:href="#DejaVuSans-6f"/>
      <use x="799.009766" xlink:href="#DejaVuSans-75"/>
      <use x="862.388672" xlink:href="#DejaVuSans-74"/>
     </g>
    </g>
    <g id="line2d_45">
     <path d="M 287.555938 127.961063 
L 307.555938 127.961063 
" style="fill:none;stroke:#800080;stroke-dasharray:12.8,3.2,2,3.2;stroke-dashoffset:0;stroke-width:2;"/>
    </g>
    <g id="line2d_46"/>
    <g id="text_23">
     <!-- New dropout -->
     <defs>
      <path d="M 9.8125 72.90625 
L 23.09375 72.90625 
L 55.421875 11.921875 
L 55.421875 72.90625 
L 64.984375 72.90625 
L 64.984375 0 
L 51.703125 0 
L 19.390625 60.984375 
L 19.390625 0 
L 9.8125 0 
z
" id="DejaVuSans-4e"/>
     </defs>
     <g transform="translate(315.555938 131.461063)scale(0.1 -0.1)">
      <use xlink:href="#DejaVuSans-4e"/>
      <use x="74.804688" xlink:href="#DejaVuSans-65"/>
      <use x="136.328125" xlink:href="#DejaVuSans-77"/>
      <use x="218.115234" xlink:href="#DejaVuSans-20"/>
      <use x="249.902344" xlink:href="#DejaVuSans-64"/>
      <use x="313.378906" xlink:href="#DejaVuSans-72"/>
      <use x="354.460938" xlink:href="#DejaVuSans-6f"/>
      <use x="415.642578" xlink:href="#DejaVuSans-70"/>
      <use x="479.119141" xlink:href="#DejaVuSans-6f"/>
      <use x="540.300781" xlink:href="#DejaVuSans-75"/>
      <use x="603.679688" xlink:href="#DejaVuSans-74"/>
     </g>
    </g>
   </g>
  </g>
 </g>
 <defs>
  <clipPath id="p9ef704eb63">
   <rect height="266.112" width="357.12" x="57.6" y="41.472"/>
  </clipPath>
 </defs>
</svg>
