<?xml version="1.0" encoding="utf-8" standalone="no"?>
<!DOCTYPE svg PUBLIC "-//W3C//DTD SVG 1.1//EN"
  "http://www.w3.org/Graphics/SVG/1.1/DTD/svg11.dtd">
<!-- Created with matplotlib (http://matplotlib.org/) -->
<svg height="345.6pt" version="1.1" viewBox="0 0 460.8 345.6" width="460.8pt" xmlns="http://www.w3.org/2000/svg" xmlns:xlink="http://www.w3.org/1999/xlink">
 <defs>
  <style type="text/css">
*{stroke-linecap:butt;stroke-linejoin:round;}
  </style>
 </defs>
 <g id="figure_1">
  <g id="patch_1">
   <path d="M 0 345.6 
L 460.8 345.6 
L 460.8 0 
L 0 0 
z
" style="fill:#ffffff;"/>
  </g>
  <g id="axes_1">
   <g id="patch_2">
    <path d="M 57.6 307.584 
L 414.72 307.584 
L 414.72 41.472 
L 57.6 41.472 
z
" style="fill:#ffffff;"/>
   </g>
   <g id="PolyCollection_1">
    <path clip-path="url(#p26e358a92f)" d="M 73.832727 236.977208 
L 73.832727 186.055992 
L 78.161455 149.463219 
L 82.490182 118.354108 
L 86.818909 105.864807 
L 91.147636 97.864813 
L 95.476364 94.362242 
L 99.805091 92.973224 
L 104.133818 93.362393 
L 108.462545 91.519606 
L 112.791273 92.187123 
L 117.12 89.215181 
L 121.448727 85.661918 
L 125.777455 86.151693 
L 130.106182 85.096326 
L 134.434909 85.138288 
L 138.763636 85.856571 
L 143.092364 83.784863 
L 147.421091 85.735225 
L 151.749818 84.70818 
L 156.078545 85.487178 
L 160.407273 84.516706 
L 164.736 84.687869 
L 169.064727 84.42634 
L 173.393455 83.7092 
L 177.722182 84.583752 
L 182.050909 83.787945 
L 186.379636 84.157711 
L 190.708364 82.741322 
L 195.037091 83.547923 
L 199.365818 83.49695 
L 203.694545 83.289422 
L 208.023273 83.26961 
L 212.352 82.193887 
L 216.680727 82.551116 
L 221.009455 83.365235 
L 225.338182 82.47064 
L 229.666909 81.833283 
L 233.995636 82.128213 
L 238.324364 81.593494 
L 242.653091 82.104476 
L 246.981818 81.095741 
L 251.310545 81.47652 
L 255.639273 80.37039 
L 259.968 79.474721 
L 264.296727 78.337103 
L 268.625455 77.980209 
L 272.954182 78.301491 
L 277.282909 77.938005 
L 281.611636 78.007416 
L 285.940364 77.927964 
L 290.269091 77.84004 
L 294.597818 77.768946 
L 298.926545 77.713154 
L 303.255273 77.687987 
L 307.584 77.520879 
L 311.912727 77.524923 
L 316.241455 77.27892 
L 320.570182 77.012386 
L 324.898909 77.36508 
L 329.227636 77.666166 
L 333.556364 77.781943 
L 337.885091 77.702668 
L 342.213818 78.693259 
L 346.542545 79.505347 
L 350.871273 80.543037 
L 355.2 80.264549 
L 359.528727 81.963091 
L 363.857455 83.338451 
L 368.186182 87.964878 
L 372.514909 93.918917 
L 376.843636 99.581166 
L 381.172364 107.532614 
L 385.501091 114.819703 
L 389.829818 118.999442 
L 394.158545 121.204117 
L 398.487273 122.487104 
L 398.487273 215.508797 
L 398.487273 215.508797 
L 394.158545 211.42987 
L 389.829818 205.602801 
L 385.501091 196.96707 
L 381.172364 187.751344 
L 376.843636 175.703265 
L 372.514909 167.157069 
L 368.186182 159.313926 
L 363.857455 155.907642 
L 359.528727 155.881801 
L 355.2 153.056439 
L 350.871273 154.05045 
L 346.542545 153.63904 
L 342.213818 152.157242 
L 337.885091 150.133026 
L 333.556364 151.789769 
L 329.227636 151.807327 
L 324.898909 151.019773 
L 320.570182 150.696058 
L 316.241455 150.704345 
L 311.912727 150.77187 
L 307.584 149.88323 
L 303.255273 150.859435 
L 298.926545 151.486001 
L 294.597818 151.398759 
L 290.269091 150.845277 
L 285.940364 150.611234 
L 281.611636 150.139871 
L 277.282909 149.299179 
L 272.954182 149.061007 
L 268.625455 149.013119 
L 264.296727 148.722995 
L 259.968 148.661921 
L 255.639273 148.92263 
L 251.310545 149.146093 
L 246.981818 148.364688 
L 242.653091 147.23596 
L 238.324364 148.387546 
L 233.995636 150.33154 
L 229.666909 147.399257 
L 225.338182 149.828478 
L 221.009455 150.632161 
L 216.680727 148.125686 
L 212.352 149.411404 
L 208.023273 149.279653 
L 203.694545 149.477569 
L 199.365818 149.392936 
L 195.037091 149.414539 
L 190.708364 146.554601 
L 186.379636 148.798945 
L 182.050909 146.293251 
L 177.722182 149.77846 
L 173.393455 148.715717 
L 169.064727 148.251141 
L 164.736 149.007612 
L 160.407273 147.358084 
L 156.078545 148.208303 
L 151.749818 146.537619 
L 147.421091 146.861455 
L 143.092364 144.70837 
L 138.763636 145.50293 
L 134.434909 142.346138 
L 130.106182 140.952547 
L 125.777455 141.466757 
L 121.448727 138.740932 
L 117.12 138.2736 
L 112.791273 141.114511 
L 108.462545 137.946629 
L 104.133818 138.572393 
L 99.805091 139.978111 
L 95.476364 141.090061 
L 91.147636 150.406831 
L 86.818909 161.560611 
L 82.490182 177.457236 
L 78.161455 205.658199 
L 73.832727 236.977208 
z
" style="fill:#ff6347;fill-opacity:0.2;"/>
   </g>
   <g id="PolyCollection_2">
    <path clip-path="url(#p26e358a92f)" d="M 73.832727 231.19534 
L 73.832727 180.04039 
L 78.161455 124.055001 
L 82.490182 100.468914 
L 86.818909 87.785799 
L 91.147636 79.073021 
L 95.476364 77.034293 
L 99.805091 81.359701 
L 104.133818 83.536738 
L 108.462545 85.71458 
L 112.791273 89.870631 
L 117.12 87.519265 
L 121.448727 89.103022 
L 125.777455 89.064105 
L 130.106182 86.284619 
L 134.434909 83.85778 
L 138.763636 83.735271 
L 143.092364 81.804932 
L 147.421091 80.471046 
L 151.749818 80.29452 
L 156.078545 79.011767 
L 160.407273 79.787407 
L 164.736 79.735998 
L 169.064727 79.232956 
L 173.393455 80.924153 
L 177.722182 80.985456 
L 182.050909 80.625826 
L 186.379636 81.135639 
L 190.708364 81.521896 
L 195.037091 81.471318 
L 199.365818 81.133764 
L 203.694545 81.137925 
L 208.023273 80.67816 
L 212.352 79.616377 
L 216.680727 77.762846 
L 221.009455 77.299595 
L 225.338182 76.299354 
L 229.666909 73.50482 
L 233.995636 73.203485 
L 238.324364 71.256469 
L 242.653091 68.495806 
L 246.981818 67.772189 
L 251.310545 66.382395 
L 255.639273 65.981663 
L 259.968 65.55085 
L 264.296727 65.727218 
L 268.625455 65.509349 
L 272.954182 65.64064 
L 277.282909 65.541373 
L 281.611636 65.458045 
L 285.940364 65.552655 
L 290.269091 69.678038 
L 294.597818 73.198371 
L 298.926545 75.167367 
L 303.255273 76.65367 
L 307.584 76.709403 
L 311.912727 77.262585 
L 316.241455 77.34165 
L 320.570182 77.867875 
L 324.898909 78.301502 
L 329.227636 78.1593 
L 333.556364 79.333147 
L 337.885091 92.536145 
L 342.213818 100.725642 
L 346.542545 105.109559 
L 350.871273 107.964918 
L 355.2 109.790407 
L 359.528727 110.704917 
L 363.857455 112.256239 
L 368.186182 116.480177 
L 372.514909 118.64093 
L 376.843636 119.427837 
L 381.172364 114.985255 
L 385.501091 117.961575 
L 389.829818 123.828438 
L 394.158545 125.967095 
L 398.487273 135.283617 
L 398.487273 227.724877 
L 398.487273 227.724877 
L 394.158545 220.478105 
L 389.829818 216.636015 
L 385.501091 208.953907 
L 381.172364 198.715588 
L 376.843636 202.484255 
L 372.514909 201.4616 
L 368.186182 202.174705 
L 363.857455 200.476925 
L 359.528727 199.49728 
L 355.2 198.795764 
L 350.871273 196.54732 
L 346.542545 192.008636 
L 342.213818 186.099341 
L 337.885091 177.918595 
L 333.556364 167.854211 
L 329.227636 163.298426 
L 324.898909 165.760734 
L 320.570182 162.856833 
L 316.241455 157.130393 
L 311.912727 154.652848 
L 307.584 150.080229 
L 303.255273 148.839271 
L 298.926545 140.930368 
L 294.597818 136.215116 
L 290.269091 135.621356 
L 285.940364 129.993977 
L 281.611636 127.770993 
L 277.282909 128.992097 
L 272.954182 129.949537 
L 268.625455 126.405579 
L 264.296727 129.155585 
L 259.968 125.136576 
L 255.639273 128.670349 
L 251.310545 129.218426 
L 246.981818 132.809765 
L 242.653091 131.259266 
L 238.324364 132.374161 
L 233.995636 135.05072 
L 229.666909 137.36067 
L 225.338182 139.648392 
L 221.009455 141.024773 
L 216.680727 141.86789 
L 212.352 147.528877 
L 208.023273 147.249947 
L 203.694545 150.971528 
L 199.365818 149.43369 
L 195.037091 149.601265 
L 190.708364 150.492725 
L 186.379636 148.683315 
L 182.050909 147.103423 
L 177.722182 150.424848 
L 173.393455 151.144173 
L 169.064727 145.790176 
L 164.736 147.406353 
L 160.407273 147.151248 
L 156.078545 146.409081 
L 151.749818 147.108621 
L 147.421091 147.427547 
L 143.092364 148.41561 
L 138.763636 146.429629 
L 134.434909 144.848342 
L 130.106182 145.097138 
L 125.777455 147.890521 
L 121.448727 144.71487 
L 117.12 142.578381 
L 112.791273 145.227501 
L 108.462545 140.700076 
L 104.133818 137.803887 
L 99.805091 138.842933 
L 95.476364 134.003444 
L 91.147636 135.606096 
L 86.818909 144.098185 
L 82.490182 166.18865 
L 78.161455 193.61575 
L 73.832727 231.19534 
z
" style="fill:#ffd700;fill-opacity:0.2;"/>
   </g>
   <g id="PolyCollection_3">
    <path clip-path="url(#p26e358a92f)" d="M 73.832727 188.817038 
L 73.832727 119.919124 
L 78.161455 90.10927 
L 82.490182 81.276667 
L 86.818909 74.314703 
L 91.147636 72.532788 
L 95.476364 71.431194 
L 99.805091 68.455887 
L 104.133818 70.372034 
L 108.462545 70.777385 
L 112.791273 71.770305 
L 117.12 72.214504 
L 121.448727 73.556213 
L 125.777455 74.21542 
L 130.106182 72.626508 
L 134.434909 72.654584 
L 138.763636 70.724088 
L 143.092364 70.698422 
L 147.421091 70.189409 
L 151.749818 71.318855 
L 156.078545 70.396453 
L 160.407273 70.66603 
L 164.736 69.537001 
L 169.064727 69.411468 
L 173.393455 68.913968 
L 177.722182 68.949848 
L 182.050909 68.867462 
L 186.379636 69.506046 
L 190.708364 69.007177 
L 195.037091 69.941638 
L 199.365818 68.650289 
L 203.694545 68.739022 
L 208.023273 68.716232 
L 212.352 67.515876 
L 216.680727 67.509518 
L 221.009455 66.700962 
L 225.338182 68.121862 
L 229.666909 68.263304 
L 233.995636 68.140339 
L 238.324364 67.782422 
L 242.653091 67.773502 
L 246.981818 68.223457 
L 251.310545 68.060442 
L 255.639273 67.09095 
L 259.968 67.84594 
L 264.296727 67.861902 
L 268.625455 68.581063 
L 272.954182 68.182222 
L 277.282909 68.645394 
L 281.611636 68.657367 
L 285.940364 69.531966 
L 290.269091 69.180929 
L 294.597818 69.954942 
L 298.926545 70.162244 
L 303.255273 70.273102 
L 307.584 70.774723 
L 311.912727 70.506044 
L 316.241455 72.847275 
L 320.570182 74.207397 
L 324.898909 75.58755 
L 329.227636 77.480617 
L 333.556364 79.439549 
L 337.885091 83.048009 
L 342.213818 87.689495 
L 346.542545 87.184482 
L 350.871273 85.619443 
L 355.2 88.698412 
L 359.528727 89.993608 
L 363.857455 90.506976 
L 368.186182 94.787962 
L 372.514909 92.086573 
L 376.843636 94.338535 
L 381.172364 95.609804 
L 385.501091 97.126989 
L 389.829818 99.466716 
L 394.158545 96.935469 
L 398.487273 104.302697 
L 398.487273 190.153411 
L 398.487273 190.153411 
L 394.158545 185.518987 
L 389.829818 188.150313 
L 385.501091 184.234957 
L 381.172364 182.439773 
L 376.843636 179.538406 
L 372.514909 175.433678 
L 368.186182 176.176746 
L 363.857455 170.746096 
L 359.528727 167.86968 
L 355.2 164.516625 
L 350.871273 158.181036 
L 346.542545 152.398363 
L 342.213818 140.433117 
L 337.885091 127.103333 
L 333.556364 110.911125 
L 329.227636 106.490143 
L 324.898909 105.458881 
L 320.570182 102.724458 
L 316.241455 103.203992 
L 311.912727 99.586733 
L 307.584 101.899824 
L 303.255273 101.424573 
L 298.926545 101.99024 
L 294.597818 100.189606 
L 290.269091 97.173701 
L 285.940364 98.090324 
L 281.611636 96.59072 
L 277.282909 96.626885 
L 272.954182 95.142601 
L 268.625455 96.752664 
L 264.296727 94.874088 
L 259.968 94.661677 
L 255.639273 94.41028 
L 251.310545 94.78296 
L 246.981818 94.670749 
L 242.653091 93.393878 
L 238.324364 92.122137 
L 233.995636 92.689805 
L 229.666909 91.98478 
L 225.338182 88.825949 
L 221.009455 86.900612 
L 216.680727 88.853815 
L 212.352 86.762107 
L 208.023273 85.628521 
L 203.694545 84.9719 
L 199.365818 82.266457 
L 195.037091 88.281092 
L 190.708364 83.722034 
L 186.379636 84.143913 
L 182.050909 84.506223 
L 177.722182 86.893841 
L 173.393455 88.563165 
L 169.064727 88.37 
L 164.736 89.931134 
L 160.407273 91.371779 
L 156.078545 88.162063 
L 151.749818 92.490292 
L 147.421091 90.905395 
L 143.092364 90.072694 
L 138.763636 90.131699 
L 134.434909 93.361357 
L 130.106182 92.992201 
L 125.777455 99.31504 
L 121.448727 105.334711 
L 117.12 105.834054 
L 112.791273 107.204323 
L 108.462545 107.893391 
L 104.133818 106.258389 
L 99.805091 99.106891 
L 95.476364 95.17987 
L 91.147636 96.55215 
L 86.818909 93.72756 
L 82.490182 104.528814 
L 78.161455 137.338868 
L 73.832727 188.817038 
z
" style="fill:#00ffff;fill-opacity:0.2;"/>
   </g>
   <g id="PolyCollection_4">
    <path clip-path="url(#p26e358a92f)" d="M 73.832727 293.949298 
L 73.832727 293.108566 
L 78.161455 289.930172 
L 82.490182 286.235417 
L 86.818909 282.583646 
L 91.147636 279.562589 
L 95.476364 276.128076 
L 99.805091 273.705126 
L 104.133818 270.742526 
L 108.462545 268.756344 
L 112.791273 266.992984 
L 117.12 265.591081 
L 121.448727 262.369845 
L 125.777455 262.096588 
L 130.106182 259.378835 
L 134.434909 259.719317 
L 138.763636 257.834644 
L 143.092364 256.086146 
L 147.421091 254.101475 
L 151.749818 252.501699 
L 156.078545 252.09344 
L 160.407273 252.070356 
L 164.736 247.8302 
L 169.064727 247.279795 
L 173.393455 246.109718 
L 177.722182 246.492083 
L 182.050909 242.062879 
L 186.379636 239.915744 
L 190.708364 237.552264 
L 195.037091 236.574563 
L 199.365818 231.510934 
L 203.694545 226.04934 
L 208.023273 226.886298 
L 212.352 219.450854 
L 216.680727 221.158121 
L 221.009455 222.144161 
L 225.338182 223.00735 
L 229.666909 213.908181 
L 233.995636 213.091577 
L 238.324364 216.160364 
L 242.653091 215.508671 
L 246.981818 221.060968 
L 251.310545 216.274671 
L 255.639273 216.36029 
L 259.968 218.868347 
L 264.296727 216.546838 
L 268.625455 216.71606 
L 272.954182 217.991446 
L 277.282909 217.969492 
L 281.611636 218.725935 
L 285.940364 214.020237 
L 290.269091 222.069624 
L 294.597818 211.828455 
L 298.926545 217.42407 
L 303.255273 219.24402 
L 307.584 216.441863 
L 311.912727 215.971669 
L 316.241455 218.226337 
L 320.570182 219.51854 
L 324.898909 218.785056 
L 329.227636 221.703554 
L 333.556364 215.93772 
L 337.885091 219.871649 
L 342.213818 221.351602 
L 346.542545 221.46566 
L 350.871273 220.261652 
L 355.2 223.958333 
L 359.528727 219.767151 
L 363.857455 222.879566 
L 368.186182 219.6637 
L 372.514909 216.450201 
L 376.843636 221.115901 
L 381.172364 224.433139 
L 385.501091 225.234883 
L 389.829818 223.155962 
L 394.158545 226.140422 
L 398.487273 220.584014 
L 398.487273 242.281799 
L 398.487273 242.281799 
L 394.158545 242.466636 
L 389.829818 241.889066 
L 385.501091 241.655994 
L 381.172364 241.87326 
L 376.843636 241.621693 
L 372.514909 237.767455 
L 368.186182 239.066248 
L 363.857455 240.86877 
L 359.528727 239.274874 
L 355.2 239.70388 
L 350.871273 238.667155 
L 346.542545 239.239323 
L 342.213818 241.124719 
L 337.885091 240.16999 
L 333.556364 237.409024 
L 329.227636 239.298506 
L 324.898909 241.957183 
L 320.570182 239.949264 
L 316.241455 238.729854 
L 311.912727 238.476295 
L 307.584 239.346822 
L 303.255273 241.808844 
L 298.926545 239.956448 
L 294.597818 236.362006 
L 290.269091 241.559688 
L 285.940364 241.619425 
L 281.611636 239.380827 
L 277.282909 241.030922 
L 272.954182 239.80082 
L 268.625455 243.597497 
L 264.296727 241.294296 
L 259.968 242.516915 
L 255.639273 243.952782 
L 251.310545 243.086688 
L 246.981818 243.796814 
L 242.653091 243.70415 
L 238.324364 244.895403 
L 233.995636 243.377387 
L 229.666909 244.065525 
L 225.338182 246.050163 
L 221.009455 247.257362 
L 216.680727 246.19434 
L 212.352 246.455893 
L 208.023273 248.83853 
L 203.694545 248.349766 
L 199.365818 249.932399 
L 195.037091 251.111758 
L 190.708364 252.937426 
L 186.379636 251.367443 
L 182.050909 254.015163 
L 177.722182 255.544932 
L 173.393455 255.462811 
L 169.064727 256.142938 
L 164.736 257.069212 
L 160.407273 258.378218 
L 156.078545 259.580216 
L 151.749818 259.993034 
L 147.421091 260.607793 
L 143.092364 262.332724 
L 138.763636 263.256958 
L 134.434909 265.306388 
L 130.106182 265.391887 
L 125.777455 267.490276 
L 121.448727 268.030838 
L 117.12 270.134262 
L 112.791273 272.119238 
L 108.462545 273.444713 
L 104.133818 275.205388 
L 99.805091 277.893072 
L 95.476364 279.86726 
L 91.147636 282.666057 
L 86.818909 284.881601 
L 82.490182 287.790701 
L 78.161455 291.045339 
L 73.832727 293.949298 
z
" style="fill:#0000ff;fill-opacity:0.2;"/>
   </g>
   <g id="PolyCollection_5">
    <path clip-path="url(#p26e358a92f)" d="M 73.832727 242.659248 
L 73.832727 193.643264 
L 78.161455 147.809025 
L 82.490182 124.369361 
L 86.818909 99.487153 
L 91.147636 86.239956 
L 95.476364 83.548893 
L 99.805091 83.636869 
L 104.133818 80.861277 
L 108.462545 80.264192 
L 112.791273 79.71402 
L 117.12 77.155338 
L 121.448727 77.289562 
L 125.777455 78.124839 
L 130.106182 76.446293 
L 134.434909 76.880988 
L 138.763636 76.451474 
L 143.092364 76.84355 
L 147.421091 78.204229 
L 151.749818 79.36512 
L 156.078545 79.134175 
L 160.407273 78.695162 
L 164.736 79.526898 
L 169.064727 80.760445 
L 173.393455 81.056928 
L 177.722182 79.31616 
L 182.050909 79.743843 
L 186.379636 81.081981 
L 190.708364 80.123663 
L 195.037091 81.065664 
L 199.365818 79.103334 
L 203.694545 77.956486 
L 208.023273 80.181262 
L 212.352 80.139049 
L 216.680727 80.170472 
L 221.009455 79.989068 
L 225.338182 78.169524 
L 229.666909 80.429648 
L 233.995636 78.883896 
L 238.324364 80.424009 
L 242.653091 79.935695 
L 246.981818 79.308965 
L 251.310545 78.755063 
L 255.639273 80.075586 
L 259.968 80.18131 
L 264.296727 80.477313 
L 268.625455 81.469035 
L 272.954182 80.743512 
L 277.282909 80.052896 
L 281.611636 79.962888 
L 285.940364 81.79546 
L 290.269091 81.323408 
L 294.597818 81.41855 
L 298.926545 81.531844 
L 303.255273 81.716028 
L 307.584 82.405094 
L 311.912727 83.011538 
L 316.241455 83.087145 
L 320.570182 83.073627 
L 324.898909 85.658928 
L 329.227636 84.464302 
L 333.556364 88.001589 
L 337.885091 88.366415 
L 342.213818 88.760391 
L 346.542545 91.971412 
L 350.871273 94.687829 
L 355.2 96.143149 
L 359.528727 95.1638 
L 363.857455 99.087772 
L 368.186182 98.399151 
L 372.514909 108.220782 
L 376.843636 113.14828 
L 381.172364 125.168118 
L 385.501091 133.655024 
L 389.829818 139.281994 
L 394.158545 142.028222 
L 398.487273 144.876753 
L 398.487273 221.463947 
L 398.487273 221.463947 
L 394.158545 213.001266 
L 389.829818 208.072341 
L 385.501091 198.484478 
L 381.172364 187.71552 
L 376.843636 176.853596 
L 372.514909 173.008591 
L 368.186182 165.043297 
L 363.857455 163.097176 
L 359.528727 160.22126 
L 355.2 158.514216 
L 350.871273 154.178939 
L 346.542545 151.092178 
L 342.213818 147.027214 
L 337.885091 144.900383 
L 333.556364 146.665442 
L 329.227636 141.802782 
L 324.898909 141.9542 
L 320.570182 138.635685 
L 316.241455 137.868344 
L 311.912727 134.806249 
L 307.584 137.978013 
L 303.255273 134.666206 
L 298.926545 136.936223 
L 294.597818 136.927106 
L 290.269091 132.52544 
L 285.940364 136.214412 
L 281.611636 134.438988 
L 277.282909 134.7017 
L 272.954182 134.57379 
L 268.625455 135.213179 
L 264.296727 133.122357 
L 259.968 132.21892 
L 255.639273 131.372448 
L 251.310545 128.489368 
L 246.981818 131.763608 
L 242.653091 131.744582 
L 238.324364 133.005833 
L 233.995636 129.528525 
L 229.666909 131.682697 
L 225.338182 127.402757 
L 221.009455 131.085441 
L 216.680727 131.466743 
L 212.352 134.033004 
L 208.023273 127.791833 
L 203.694545 124.943546 
L 199.365818 127.481624 
L 195.037091 131.189899 
L 190.708364 126.760791 
L 186.379636 128.652291 
L 182.050909 126.93498 
L 177.722182 125.935818 
L 173.393455 130.268693 
L 169.064727 131.368835 
L 164.736 127.410778 
L 160.407273 127.10162 
L 156.078545 131.160383 
L 151.749818 133.373798 
L 147.421091 131.773415 
L 143.092364 129.712861 
L 138.763636 129.810762 
L 134.434909 130.992435 
L 130.106182 130.550412 
L 125.777455 132.262617 
L 121.448727 133.380456 
L 117.12 131.309338 
L 112.791273 134.159503 
L 108.462545 133.380959 
L 104.133818 136.849097 
L 99.805091 143.131958 
L 95.476364 144.210839 
L 91.147636 149.740217 
L 86.818909 162.848268 
L 82.490182 187.588691 
L 78.161455 212.720757 
L 73.832727 242.659248 
z
" style="fill:#008000;fill-opacity:0.2;"/>
   </g>
   <g id="PolyCollection_6">
    <path clip-path="url(#p26e358a92f)" d="M 73.832727 190.251931 
L 73.832727 142.356412 
L 78.161455 77.490743 
L 82.490182 70.969872 
L 86.818909 71.313375 
L 91.147636 70.555484 
L 95.476364 72.439051 
L 99.805091 73.531095 
L 104.133818 70.800173 
L 108.462545 69.94661 
L 112.791273 70.672615 
L 117.12 68.68972 
L 121.448727 67.82307 
L 125.777455 68.562278 
L 130.106182 68.529257 
L 134.434909 68.460413 
L 138.763636 68.165109 
L 143.092364 67.39812 
L 147.421091 67.283338 
L 151.749818 68.253801 
L 156.078545 67.828123 
L 160.407273 67.35021 
L 164.736 67.910454 
L 169.064727 66.739103 
L 173.393455 66.768094 
L 177.722182 66.278507 
L 182.050909 65.943611 
L 186.379636 66.556053 
L 190.708364 67.242764 
L 195.037091 66.206853 
L 199.365818 66.261407 
L 203.694545 66.505585 
L 208.023273 66.268842 
L 212.352 66.233905 
L 216.680727 65.803807 
L 221.009455 66.062733 
L 225.338182 65.582941 
L 229.666909 65.462949 
L 233.995636 65.574468 
L 238.324364 65.386332 
L 242.653091 65.477916 
L 246.981818 65.420809 
L 251.310545 65.374172 
L 255.639273 65.485781 
L 259.968 65.66268 
L 264.296727 65.147138 
L 268.625455 65.661333 
L 272.954182 65.659318 
L 277.282909 65.649337 
L 281.611636 65.643114 
L 285.940364 65.591842 
L 290.269091 65.651146 
L 294.597818 65.585354 
L 298.926545 65.382902 
L 303.255273 65.636528 
L 307.584 65.537954 
L 311.912727 65.565844 
L 316.241455 65.628277 
L 320.570182 65.425041 
L 324.898909 66.387087 
L 329.227636 66.957137 
L 333.556364 61.388509 
L 337.885091 58.515475 
L 342.213818 58.012268 
L 346.542545 57.808374 
L 350.871273 56.360165 
L 355.2 57.078291 
L 359.528727 56.024842 
L 363.857455 56.620419 
L 368.186182 55.348673 
L 372.514909 56.072417 
L 376.843636 55.968768 
L 381.172364 56.431928 
L 385.501091 57.365539 
L 389.829818 58.730768 
L 394.158545 60.932767 
L 398.487273 61.562692 
L 398.487273 131.137026 
L 398.487273 131.137026 
L 394.158545 130.513804 
L 389.829818 128.582843 
L 385.501091 127.513872 
L 381.172364 126.767591 
L 376.843636 126.34871 
L 372.514909 126.313766 
L 368.186182 125.753883 
L 363.857455 126.545231 
L 359.528727 125.979592 
L 355.2 126.621035 
L 350.871273 125.741037 
L 346.542545 126.142064 
L 342.213818 125.40256 
L 337.885091 121.12153 
L 333.556364 104.938057 
L 329.227636 76.643465 
L 324.898909 75.141228 
L 320.570182 75.029633 
L 316.241455 73.929358 
L 311.912727 75.387669 
L 307.584 76.07842 
L 303.255273 77.497168 
L 298.926545 79.692928 
L 294.597818 79.152755 
L 290.269091 79.53258 
L 285.940364 81.490472 
L 281.611636 78.549224 
L 277.282909 80.303695 
L 272.954182 80.94593 
L 268.625455 82.9983 
L 264.296727 80.265928 
L 259.968 85.480504 
L 255.639273 83.361097 
L 251.310545 82.806459 
L 246.981818 84.616316 
L 242.653091 85.35948 
L 238.324364 83.506512 
L 233.995636 85.757413 
L 229.666909 84.131946 
L 225.338182 85.530244 
L 221.009455 86.939848 
L 216.680727 84.704094 
L 212.352 85.531981 
L 208.023273 87.202579 
L 203.694545 86.909711 
L 199.365818 85.304652 
L 195.037091 86.854756 
L 190.708364 90.608378 
L 186.379636 87.762572 
L 182.050909 86.675284 
L 177.722182 86.591017 
L 173.393455 88.845771 
L 169.064727 87.839828 
L 164.736 87.929848 
L 160.407273 88.869906 
L 156.078545 88.743262 
L 151.749818 88.927222 
L 147.421091 88.083284 
L 143.092364 88.143169 
L 138.763636 88.906082 
L 134.434909 86.96669 
L 130.106182 88.600962 
L 125.777455 87.579456 
L 121.448727 87.695478 
L 117.12 89.772995 
L 112.791273 92.694302 
L 108.462545 93.589167 
L 104.133818 92.560454 
L 99.805091 94.80873 
L 95.476364 93.077567 
L 91.147636 87.283078 
L 86.818909 83.795845 
L 82.490182 91.702735 
L 78.161455 115.303807 
L 73.832727 190.251931 
z
" style="fill:#800080;fill-opacity:0.2;"/>
   </g>
   <g id="matplotlib.axis_1">
    <g id="xtick_1">
     <g id="line2d_1">
      <path clip-path="url(#p26e358a92f)" d="M 95.476364 307.584 
L 95.476364 41.472 
" style="fill:none;stroke:#b0b0b0;stroke-dasharray:2.96,1.28;stroke-dashoffset:0;stroke-width:0.8;"/>
     </g>
     <g id="line2d_2">
      <defs>
       <path d="M 0 0 
L 0 3.5 
" id="m6bceac1c36" style="stroke:#000000;stroke-width:0.8;"/>
      </defs>
      <g>
       <use style="stroke:#000000;stroke-width:0.8;" x="95.476364" xlink:href="#m6bceac1c36" y="307.584"/>
      </g>
     </g>
     <g id="text_1">
      <!-- 0.2 -->
      <defs>
       <path d="M 31.78125 66.40625 
Q 24.171875 66.40625 20.328125 58.90625 
Q 16.5 51.421875 16.5 36.375 
Q 16.5 21.390625 20.328125 13.890625 
Q 24.171875 6.390625 31.78125 6.390625 
Q 39.453125 6.390625 43.28125 13.890625 
Q 47.125 21.390625 47.125 36.375 
Q 47.125 51.421875 43.28125 58.90625 
Q 39.453125 66.40625 31.78125 66.40625 
z
M 31.78125 74.21875 
Q 44.046875 74.21875 50.515625 64.515625 
Q 56.984375 54.828125 56.984375 36.375 
Q 56.984375 17.96875 50.515625 8.265625 
Q 44.046875 -1.421875 31.78125 -1.421875 
Q 19.53125 -1.421875 13.0625 8.265625 
Q 6.59375 17.96875 6.59375 36.375 
Q 6.59375 54.828125 13.0625 64.515625 
Q 19.53125 74.21875 31.78125 74.21875 
z
" id="DejaVuSans-30"/>
       <path d="M 10.6875 12.40625 
L 21 12.40625 
L 21 0 
L 10.6875 0 
z
" id="DejaVuSans-2e"/>
       <path d="M 19.1875 8.296875 
L 53.609375 8.296875 
L 53.609375 0 
L 7.328125 0 
L 7.328125 8.296875 
Q 12.9375 14.109375 22.625 23.890625 
Q 32.328125 33.6875 34.8125 36.53125 
Q 39.546875 41.84375 41.421875 45.53125 
Q 43.3125 49.21875 43.3125 52.78125 
Q 43.3125 58.59375 39.234375 62.25 
Q 35.15625 65.921875 28.609375 65.921875 
Q 23.96875 65.921875 18.8125 64.3125 
Q 13.671875 62.703125 7.8125 59.421875 
L 7.8125 69.390625 
Q 13.765625 71.78125 18.9375 73 
Q 24.125 74.21875 28.421875 74.21875 
Q 39.75 74.21875 46.484375 68.546875 
Q 53.21875 62.890625 53.21875 53.421875 
Q 53.21875 48.921875 51.53125 44.890625 
Q 49.859375 40.875 45.40625 35.40625 
Q 44.1875 33.984375 37.640625 27.21875 
Q 31.109375 20.453125 19.1875 8.296875 
z
" id="DejaVuSans-32"/>
      </defs>
      <g transform="translate(87.524801 322.182437)scale(0.1 -0.1)">
       <use xlink:href="#DejaVuSans-30"/>
       <use x="63.623047" xlink:href="#DejaVuSans-2e"/>
       <use x="95.410156" xlink:href="#DejaVuSans-32"/>
      </g>
     </g>
    </g>
    <g id="xtick_2">
     <g id="line2d_3">
      <path clip-path="url(#p26e358a92f)" d="M 138.763636 307.584 
L 138.763636 41.472 
" style="fill:none;stroke:#b0b0b0;stroke-dasharray:2.96,1.28;stroke-dashoffset:0;stroke-width:0.8;"/>
     </g>
     <g id="line2d_4">
      <g>
       <use style="stroke:#000000;stroke-width:0.8;" x="138.763636" xlink:href="#m6bceac1c36" y="307.584"/>
      </g>
     </g>
     <g id="text_2">
      <!-- 0.4 -->
      <defs>
       <path d="M 37.796875 64.3125 
L 12.890625 25.390625 
L 37.796875 25.390625 
z
M 35.203125 72.90625 
L 47.609375 72.90625 
L 47.609375 25.390625 
L 58.015625 25.390625 
L 58.015625 17.1875 
L 47.609375 17.1875 
L 47.609375 0 
L 37.796875 0 
L 37.796875 17.1875 
L 4.890625 17.1875 
L 4.890625 26.703125 
z
" id="DejaVuSans-34"/>
      </defs>
      <g transform="translate(130.812074 322.182437)scale(0.1 -0.1)">
       <use xlink:href="#DejaVuSans-30"/>
       <use x="63.623047" xlink:href="#DejaVuSans-2e"/>
       <use x="95.410156" xlink:href="#DejaVuSans-34"/>
      </g>
     </g>
    </g>
    <g id="xtick_3">
     <g id="line2d_5">
      <path clip-path="url(#p26e358a92f)" d="M 182.050909 307.584 
L 182.050909 41.472 
" style="fill:none;stroke:#b0b0b0;stroke-dasharray:2.96,1.28;stroke-dashoffset:0;stroke-width:0.8;"/>
     </g>
     <g id="line2d_6">
      <g>
       <use style="stroke:#000000;stroke-width:0.8;" x="182.050909" xlink:href="#m6bceac1c36" y="307.584"/>
      </g>
     </g>
     <g id="text_3">
      <!-- 0.6 -->
      <defs>
       <path d="M 33.015625 40.375 
Q 26.375 40.375 22.484375 35.828125 
Q 18.609375 31.296875 18.609375 23.390625 
Q 18.609375 15.53125 22.484375 10.953125 
Q 26.375 6.390625 33.015625 6.390625 
Q 39.65625 6.390625 43.53125 10.953125 
Q 47.40625 15.53125 47.40625 23.390625 
Q 47.40625 31.296875 43.53125 35.828125 
Q 39.65625 40.375 33.015625 40.375 
z
M 52.59375 71.296875 
L 52.59375 62.3125 
Q 48.875 64.0625 45.09375 64.984375 
Q 41.3125 65.921875 37.59375 65.921875 
Q 27.828125 65.921875 22.671875 59.328125 
Q 17.53125 52.734375 16.796875 39.40625 
Q 19.671875 43.65625 24.015625 45.921875 
Q 28.375 48.1875 33.59375 48.1875 
Q 44.578125 48.1875 50.953125 41.515625 
Q 57.328125 34.859375 57.328125 23.390625 
Q 57.328125 12.15625 50.6875 5.359375 
Q 44.046875 -1.421875 33.015625 -1.421875 
Q 20.359375 -1.421875 13.671875 8.265625 
Q 6.984375 17.96875 6.984375 36.375 
Q 6.984375 53.65625 15.1875 63.9375 
Q 23.390625 74.21875 37.203125 74.21875 
Q 40.921875 74.21875 44.703125 73.484375 
Q 48.484375 72.75 52.59375 71.296875 
z
" id="DejaVuSans-36"/>
      </defs>
      <g transform="translate(174.099347 322.182437)scale(0.1 -0.1)">
       <use xlink:href="#DejaVuSans-30"/>
       <use x="63.623047" xlink:href="#DejaVuSans-2e"/>
       <use x="95.410156" xlink:href="#DejaVuSans-36"/>
      </g>
     </g>
    </g>
    <g id="xtick_4">
     <g id="line2d_7">
      <path clip-path="url(#p26e358a92f)" d="M 225.338182 307.584 
L 225.338182 41.472 
" style="fill:none;stroke:#b0b0b0;stroke-dasharray:2.96,1.28;stroke-dashoffset:0;stroke-width:0.8;"/>
     </g>
     <g id="line2d_8">
      <g>
       <use style="stroke:#000000;stroke-width:0.8;" x="225.338182" xlink:href="#m6bceac1c36" y="307.584"/>
      </g>
     </g>
     <g id="text_4">
      <!-- 0.8 -->
      <defs>
       <path d="M 31.78125 34.625 
Q 24.75 34.625 20.71875 30.859375 
Q 16.703125 27.09375 16.703125 20.515625 
Q 16.703125 13.921875 20.71875 10.15625 
Q 24.75 6.390625 31.78125 6.390625 
Q 38.8125 6.390625 42.859375 10.171875 
Q 46.921875 13.96875 46.921875 20.515625 
Q 46.921875 27.09375 42.890625 30.859375 
Q 38.875 34.625 31.78125 34.625 
z
M 21.921875 38.8125 
Q 15.578125 40.375 12.03125 44.71875 
Q 8.5 49.078125 8.5 55.328125 
Q 8.5 64.0625 14.71875 69.140625 
Q 20.953125 74.21875 31.78125 74.21875 
Q 42.671875 74.21875 48.875 69.140625 
Q 55.078125 64.0625 55.078125 55.328125 
Q 55.078125 49.078125 51.53125 44.71875 
Q 48 40.375 41.703125 38.8125 
Q 48.828125 37.15625 52.796875 32.3125 
Q 56.78125 27.484375 56.78125 20.515625 
Q 56.78125 9.90625 50.3125 4.234375 
Q 43.84375 -1.421875 31.78125 -1.421875 
Q 19.734375 -1.421875 13.25 4.234375 
Q 6.78125 9.90625 6.78125 20.515625 
Q 6.78125 27.484375 10.78125 32.3125 
Q 14.796875 37.15625 21.921875 38.8125 
z
M 18.3125 54.390625 
Q 18.3125 48.734375 21.84375 45.5625 
Q 25.390625 42.390625 31.78125 42.390625 
Q 38.140625 42.390625 41.71875 45.5625 
Q 45.3125 48.734375 45.3125 54.390625 
Q 45.3125 60.0625 41.71875 63.234375 
Q 38.140625 66.40625 31.78125 66.40625 
Q 25.390625 66.40625 21.84375 63.234375 
Q 18.3125 60.0625 18.3125 54.390625 
z
" id="DejaVuSans-38"/>
      </defs>
      <g transform="translate(217.386619 322.182437)scale(0.1 -0.1)">
       <use xlink:href="#DejaVuSans-30"/>
       <use x="63.623047" xlink:href="#DejaVuSans-2e"/>
       <use x="95.410156" xlink:href="#DejaVuSans-38"/>
      </g>
     </g>
    </g>
    <g id="xtick_5">
     <g id="line2d_9">
      <path clip-path="url(#p26e358a92f)" d="M 268.625455 307.584 
L 268.625455 41.472 
" style="fill:none;stroke:#b0b0b0;stroke-dasharray:2.96,1.28;stroke-dashoffset:0;stroke-width:0.8;"/>
     </g>
     <g id="line2d_10">
      <g>
       <use style="stroke:#000000;stroke-width:0.8;" x="268.625455" xlink:href="#m6bceac1c36" y="307.584"/>
      </g>
     </g>
     <g id="text_5">
      <!-- 1.0 -->
      <defs>
       <path d="M 12.40625 8.296875 
L 28.515625 8.296875 
L 28.515625 63.921875 
L 10.984375 60.40625 
L 10.984375 69.390625 
L 28.421875 72.90625 
L 38.28125 72.90625 
L 38.28125 8.296875 
L 54.390625 8.296875 
L 54.390625 0 
L 12.40625 0 
z
" id="DejaVuSans-31"/>
      </defs>
      <g transform="translate(260.673892 322.182437)scale(0.1 -0.1)">
       <use xlink:href="#DejaVuSans-31"/>
       <use x="63.623047" xlink:href="#DejaVuSans-2e"/>
       <use x="95.410156" xlink:href="#DejaVuSans-30"/>
      </g>
     </g>
    </g>
    <g id="xtick_6">
     <g id="line2d_11">
      <path clip-path="url(#p26e358a92f)" d="M 311.912727 307.584 
L 311.912727 41.472 
" style="fill:none;stroke:#b0b0b0;stroke-dasharray:2.96,1.28;stroke-dashoffset:0;stroke-width:0.8;"/>
     </g>
     <g id="line2d_12">
      <g>
       <use style="stroke:#000000;stroke-width:0.8;" x="311.912727" xlink:href="#m6bceac1c36" y="307.584"/>
      </g>
     </g>
     <g id="text_6">
      <!-- 1.2 -->
      <g transform="translate(303.961165 322.182437)scale(0.1 -0.1)">
       <use xlink:href="#DejaVuSans-31"/>
       <use x="63.623047" xlink:href="#DejaVuSans-2e"/>
       <use x="95.410156" xlink:href="#DejaVuSans-32"/>
      </g>
     </g>
    </g>
    <g id="xtick_7">
     <g id="line2d_13">
      <path clip-path="url(#p26e358a92f)" d="M 355.2 307.584 
L 355.2 41.472 
" style="fill:none;stroke:#b0b0b0;stroke-dasharray:2.96,1.28;stroke-dashoffset:0;stroke-width:0.8;"/>
     </g>
     <g id="line2d_14">
      <g>
       <use style="stroke:#000000;stroke-width:0.8;" x="355.2" xlink:href="#m6bceac1c36" y="307.584"/>
      </g>
     </g>
     <g id="text_7">
      <!-- 1.4 -->
      <g transform="translate(347.248437 322.182437)scale(0.1 -0.1)">
       <use xlink:href="#DejaVuSans-31"/>
       <use x="63.623047" xlink:href="#DejaVuSans-2e"/>
       <use x="95.410156" xlink:href="#DejaVuSans-34"/>
      </g>
     </g>
    </g>
    <g id="xtick_8">
     <g id="line2d_15">
      <path clip-path="url(#p26e358a92f)" d="M 398.487273 307.584 
L 398.487273 41.472 
" style="fill:none;stroke:#b0b0b0;stroke-dasharray:2.96,1.28;stroke-dashoffset:0;stroke-width:0.8;"/>
     </g>
     <g id="line2d_16">
      <g>
       <use style="stroke:#000000;stroke-width:0.8;" x="398.487273" xlink:href="#m6bceac1c36" y="307.584"/>
      </g>
     </g>
     <g id="text_8">
      <!-- 1.6 -->
      <g transform="translate(390.53571 322.182437)scale(0.1 -0.1)">
       <use xlink:href="#DejaVuSans-31"/>
       <use x="63.623047" xlink:href="#DejaVuSans-2e"/>
       <use x="95.410156" xlink:href="#DejaVuSans-36"/>
      </g>
     </g>
    </g>
    <g id="text_9">
     <!-- Pole Length -->
     <defs>
      <path d="M 19.671875 64.796875 
L 19.671875 37.40625 
L 32.078125 37.40625 
Q 38.96875 37.40625 42.71875 40.96875 
Q 46.484375 44.53125 46.484375 51.125 
Q 46.484375 57.671875 42.71875 61.234375 
Q 38.96875 64.796875 32.078125 64.796875 
z
M 9.8125 72.90625 
L 32.078125 72.90625 
Q 44.34375 72.90625 50.609375 67.359375 
Q 56.890625 61.8125 56.890625 51.125 
Q 56.890625 40.328125 50.609375 34.8125 
Q 44.34375 29.296875 32.078125 29.296875 
L 19.671875 29.296875 
L 19.671875 0 
L 9.8125 0 
z
" id="DejaVuSans-50"/>
      <path d="M 30.609375 48.390625 
Q 23.390625 48.390625 19.1875 42.75 
Q 14.984375 37.109375 14.984375 27.296875 
Q 14.984375 17.484375 19.15625 11.84375 
Q 23.34375 6.203125 30.609375 6.203125 
Q 37.796875 6.203125 41.984375 11.859375 
Q 46.1875 17.53125 46.1875 27.296875 
Q 46.1875 37.015625 41.984375 42.703125 
Q 37.796875 48.390625 30.609375 48.390625 
z
M 30.609375 56 
Q 42.328125 56 49.015625 48.375 
Q 55.71875 40.765625 55.71875 27.296875 
Q 55.71875 13.875 49.015625 6.21875 
Q 42.328125 -1.421875 30.609375 -1.421875 
Q 18.84375 -1.421875 12.171875 6.21875 
Q 5.515625 13.875 5.515625 27.296875 
Q 5.515625 40.765625 12.171875 48.375 
Q 18.84375 56 30.609375 56 
z
" id="DejaVuSans-6f"/>
      <path d="M 9.421875 75.984375 
L 18.40625 75.984375 
L 18.40625 0 
L 9.421875 0 
z
" id="DejaVuSans-6c"/>
      <path d="M 56.203125 29.59375 
L 56.203125 25.203125 
L 14.890625 25.203125 
Q 15.484375 15.921875 20.484375 11.0625 
Q 25.484375 6.203125 34.421875 6.203125 
Q 39.59375 6.203125 44.453125 7.46875 
Q 49.3125 8.734375 54.109375 11.28125 
L 54.109375 2.78125 
Q 49.265625 0.734375 44.1875 -0.34375 
Q 39.109375 -1.421875 33.890625 -1.421875 
Q 20.796875 -1.421875 13.15625 6.1875 
Q 5.515625 13.8125 5.515625 26.8125 
Q 5.515625 40.234375 12.765625 48.109375 
Q 20.015625 56 32.328125 56 
Q 43.359375 56 49.78125 48.890625 
Q 56.203125 41.796875 56.203125 29.59375 
z
M 47.21875 32.234375 
Q 47.125 39.59375 43.09375 43.984375 
Q 39.0625 48.390625 32.421875 48.390625 
Q 24.90625 48.390625 20.390625 44.140625 
Q 15.875 39.890625 15.1875 32.171875 
z
" id="DejaVuSans-65"/>
      <path id="DejaVuSans-20"/>
      <path d="M 9.8125 72.90625 
L 19.671875 72.90625 
L 19.671875 8.296875 
L 55.171875 8.296875 
L 55.171875 0 
L 9.8125 0 
z
" id="DejaVuSans-4c"/>
      <path d="M 54.890625 33.015625 
L 54.890625 0 
L 45.90625 0 
L 45.90625 32.71875 
Q 45.90625 40.484375 42.875 44.328125 
Q 39.84375 48.1875 33.796875 48.1875 
Q 26.515625 48.1875 22.3125 43.546875 
Q 18.109375 38.921875 18.109375 30.90625 
L 18.109375 0 
L 9.078125 0 
L 9.078125 54.6875 
L 18.109375 54.6875 
L 18.109375 46.1875 
Q 21.34375 51.125 25.703125 53.5625 
Q 30.078125 56 35.796875 56 
Q 45.21875 56 50.046875 50.171875 
Q 54.890625 44.34375 54.890625 33.015625 
z
" id="DejaVuSans-6e"/>
      <path d="M 45.40625 27.984375 
Q 45.40625 37.75 41.375 43.109375 
Q 37.359375 48.484375 30.078125 48.484375 
Q 22.859375 48.484375 18.828125 43.109375 
Q 14.796875 37.75 14.796875 27.984375 
Q 14.796875 18.265625 18.828125 12.890625 
Q 22.859375 7.515625 30.078125 7.515625 
Q 37.359375 7.515625 41.375 12.890625 
Q 45.40625 18.265625 45.40625 27.984375 
z
M 54.390625 6.78125 
Q 54.390625 -7.171875 48.1875 -13.984375 
Q 42 -20.796875 29.203125 -20.796875 
Q 24.46875 -20.796875 20.265625 -20.09375 
Q 16.0625 -19.390625 12.109375 -17.921875 
L 12.109375 -9.1875 
Q 16.0625 -11.328125 19.921875 -12.34375 
Q 23.78125 -13.375 27.78125 -13.375 
Q 36.625 -13.375 41.015625 -8.765625 
Q 45.40625 -4.15625 45.40625 5.171875 
L 45.40625 9.625 
Q 42.625 4.78125 38.28125 2.390625 
Q 33.9375 0 27.875 0 
Q 17.828125 0 11.671875 7.65625 
Q 5.515625 15.328125 5.515625 27.984375 
Q 5.515625 40.671875 11.671875 48.328125 
Q 17.828125 56 27.875 56 
Q 33.9375 56 38.28125 53.609375 
Q 42.625 51.21875 45.40625 46.390625 
L 45.40625 54.6875 
L 54.390625 54.6875 
z
" id="DejaVuSans-67"/>
      <path d="M 18.3125 70.21875 
L 18.3125 54.6875 
L 36.8125 54.6875 
L 36.8125 47.703125 
L 18.3125 47.703125 
L 18.3125 18.015625 
Q 18.3125 11.328125 20.140625 9.421875 
Q 21.96875 7.515625 27.59375 7.515625 
L 36.8125 7.515625 
L 36.8125 0 
L 27.59375 0 
Q 17.1875 0 13.234375 3.875 
Q 9.28125 7.765625 9.28125 18.015625 
L 9.28125 47.703125 
L 2.6875 47.703125 
L 2.6875 54.6875 
L 9.28125 54.6875 
L 9.28125 70.21875 
z
" id="DejaVuSans-74"/>
      <path d="M 54.890625 33.015625 
L 54.890625 0 
L 45.90625 0 
L 45.90625 32.71875 
Q 45.90625 40.484375 42.875 44.328125 
Q 39.84375 48.1875 33.796875 48.1875 
Q 26.515625 48.1875 22.3125 43.546875 
Q 18.109375 38.921875 18.109375 30.90625 
L 18.109375 0 
L 9.078125 0 
L 9.078125 75.984375 
L 18.109375 75.984375 
L 18.109375 46.1875 
Q 21.34375 51.125 25.703125 53.5625 
Q 30.078125 56 35.796875 56 
Q 45.21875 56 50.046875 50.171875 
Q 54.890625 44.34375 54.890625 33.015625 
z
" id="DejaVuSans-68"/>
     </defs>
     <g transform="translate(206.699844 335.860562)scale(0.1 -0.1)">
      <use xlink:href="#DejaVuSans-50"/>
      <use x="60.255859" xlink:href="#DejaVuSans-6f"/>
      <use x="121.4375" xlink:href="#DejaVuSans-6c"/>
      <use x="149.220703" xlink:href="#DejaVuSans-65"/>
      <use x="210.744141" xlink:href="#DejaVuSans-20"/>
      <use x="242.53125" xlink:href="#DejaVuSans-4c"/>
      <use x="298.228516" xlink:href="#DejaVuSans-65"/>
      <use x="359.751953" xlink:href="#DejaVuSans-6e"/>
      <use x="423.130859" xlink:href="#DejaVuSans-67"/>
      <use x="486.607422" xlink:href="#DejaVuSans-74"/>
      <use x="525.816406" xlink:href="#DejaVuSans-68"/>
     </g>
    </g>
   </g>
   <g id="matplotlib.axis_2">
    <g id="ytick_1">
     <g id="line2d_17">
      <path clip-path="url(#p26e358a92f)" d="M 57.6 307.584 
L 414.72 307.584 
" style="fill:none;stroke:#b0b0b0;stroke-dasharray:2.96,1.28;stroke-dashoffset:0;stroke-width:0.8;"/>
     </g>
     <g id="line2d_18">
      <defs>
       <path d="M 0 0 
L -3.5 0 
" id="m9fff7a514e" style="stroke:#000000;stroke-width:0.8;"/>
      </defs>
      <g>
       <use style="stroke:#000000;stroke-width:0.8;" x="57.6" xlink:href="#m9fff7a514e" y="307.584"/>
      </g>
     </g>
     <g id="text_10">
      <!-- 0 -->
      <g transform="translate(44.2375 311.383219)scale(0.1 -0.1)">
       <use xlink:href="#DejaVuSans-30"/>
      </g>
     </g>
    </g>
    <g id="ytick_2">
     <g id="line2d_19">
      <path clip-path="url(#p26e358a92f)" d="M 57.6 259.2 
L 414.72 259.2 
" style="fill:none;stroke:#b0b0b0;stroke-dasharray:2.96,1.28;stroke-dashoffset:0;stroke-width:0.8;"/>
     </g>
     <g id="line2d_20">
      <g>
       <use style="stroke:#000000;stroke-width:0.8;" x="57.6" xlink:href="#m9fff7a514e" y="259.2"/>
      </g>
     </g>
     <g id="text_11">
      <!-- 200 -->
      <g transform="translate(31.5125 262.999219)scale(0.1 -0.1)">
       <use xlink:href="#DejaVuSans-32"/>
       <use x="63.623047" xlink:href="#DejaVuSans-30"/>
       <use x="127.246094" xlink:href="#DejaVuSans-30"/>
      </g>
     </g>
    </g>
    <g id="ytick_3">
     <g id="line2d_21">
      <path clip-path="url(#p26e358a92f)" d="M 57.6 210.816 
L 414.72 210.816 
" style="fill:none;stroke:#b0b0b0;stroke-dasharray:2.96,1.28;stroke-dashoffset:0;stroke-width:0.8;"/>
     </g>
     <g id="line2d_22">
      <g>
       <use style="stroke:#000000;stroke-width:0.8;" x="57.6" xlink:href="#m9fff7a514e" y="210.816"/>
      </g>
     </g>
     <g id="text_12">
      <!-- 400 -->
      <g transform="translate(31.5125 214.615219)scale(0.1 -0.1)">
       <use xlink:href="#DejaVuSans-34"/>
       <use x="63.623047" xlink:href="#DejaVuSans-30"/>
       <use x="127.246094" xlink:href="#DejaVuSans-30"/>
      </g>
     </g>
    </g>
    <g id="ytick_4">
     <g id="line2d_23">
      <path clip-path="url(#p26e358a92f)" d="M 57.6 162.432 
L 414.72 162.432 
" style="fill:none;stroke:#b0b0b0;stroke-dasharray:2.96,1.28;stroke-dashoffset:0;stroke-width:0.8;"/>
     </g>
     <g id="line2d_24">
      <g>
       <use style="stroke:#000000;stroke-width:0.8;" x="57.6" xlink:href="#m9fff7a514e" y="162.432"/>
      </g>
     </g>
     <g id="text_13">
      <!-- 600 -->
      <g transform="translate(31.5125 166.231219)scale(0.1 -0.1)">
       <use xlink:href="#DejaVuSans-36"/>
       <use x="63.623047" xlink:href="#DejaVuSans-30"/>
       <use x="127.246094" xlink:href="#DejaVuSans-30"/>
      </g>
     </g>
    </g>
    <g id="ytick_5">
     <g id="line2d_25">
      <path clip-path="url(#p26e358a92f)" d="M 57.6 114.048 
L 414.72 114.048 
" style="fill:none;stroke:#b0b0b0;stroke-dasharray:2.96,1.28;stroke-dashoffset:0;stroke-width:0.8;"/>
     </g>
     <g id="line2d_26">
      <g>
       <use style="stroke:#000000;stroke-width:0.8;" x="57.6" xlink:href="#m9fff7a514e" y="114.048"/>
      </g>
     </g>
     <g id="text_14">
      <!-- 800 -->
      <g transform="translate(31.5125 117.847219)scale(0.1 -0.1)">
       <use xlink:href="#DejaVuSans-38"/>
       <use x="63.623047" xlink:href="#DejaVuSans-30"/>
       <use x="127.246094" xlink:href="#DejaVuSans-30"/>
      </g>
     </g>
    </g>
    <g id="ytick_6">
     <g id="line2d_27">
      <path clip-path="url(#p26e358a92f)" d="M 57.6 65.664 
L 414.72 65.664 
" style="fill:none;stroke:#b0b0b0;stroke-dasharray:2.96,1.28;stroke-dashoffset:0;stroke-width:0.8;"/>
     </g>
     <g id="line2d_28">
      <g>
       <use style="stroke:#000000;stroke-width:0.8;" x="57.6" xlink:href="#m9fff7a514e" y="65.664"/>
      </g>
     </g>
     <g id="text_15">
      <!-- 1000 -->
      <g transform="translate(25.15 69.463219)scale(0.1 -0.1)">
       <use xlink:href="#DejaVuSans-31"/>
       <use x="63.623047" xlink:href="#DejaVuSans-30"/>
       <use x="127.246094" xlink:href="#DejaVuSans-30"/>
       <use x="190.869141" xlink:href="#DejaVuSans-30"/>
      </g>
     </g>
    </g>
    <g id="text_16">
     <!-- Rewards -->
     <defs>
      <path d="M 44.390625 34.1875 
Q 47.5625 33.109375 50.5625 29.59375 
Q 53.5625 26.078125 56.59375 19.921875 
L 66.609375 0 
L 56 0 
L 46.6875 18.703125 
Q 43.0625 26.03125 39.671875 28.421875 
Q 36.28125 30.8125 30.421875 30.8125 
L 19.671875 30.8125 
L 19.671875 0 
L 9.8125 0 
L 9.8125 72.90625 
L 32.078125 72.90625 
Q 44.578125 72.90625 50.734375 67.671875 
Q 56.890625 62.453125 56.890625 51.90625 
Q 56.890625 45.015625 53.6875 40.46875 
Q 50.484375 35.9375 44.390625 34.1875 
z
M 19.671875 64.796875 
L 19.671875 38.921875 
L 32.078125 38.921875 
Q 39.203125 38.921875 42.84375 42.21875 
Q 46.484375 45.515625 46.484375 51.90625 
Q 46.484375 58.296875 42.84375 61.546875 
Q 39.203125 64.796875 32.078125 64.796875 
z
" id="DejaVuSans-52"/>
      <path d="M 4.203125 54.6875 
L 13.1875 54.6875 
L 24.421875 12.015625 
L 35.59375 54.6875 
L 46.1875 54.6875 
L 57.421875 12.015625 
L 68.609375 54.6875 
L 77.59375 54.6875 
L 63.28125 0 
L 52.6875 0 
L 40.921875 44.828125 
L 29.109375 0 
L 18.5 0 
z
" id="DejaVuSans-77"/>
      <path d="M 34.28125 27.484375 
Q 23.390625 27.484375 19.1875 25 
Q 14.984375 22.515625 14.984375 16.5 
Q 14.984375 11.71875 18.140625 8.90625 
Q 21.296875 6.109375 26.703125 6.109375 
Q 34.1875 6.109375 38.703125 11.40625 
Q 43.21875 16.703125 43.21875 25.484375 
L 43.21875 27.484375 
z
M 52.203125 31.203125 
L 52.203125 0 
L 43.21875 0 
L 43.21875 8.296875 
Q 40.140625 3.328125 35.546875 0.953125 
Q 30.953125 -1.421875 24.3125 -1.421875 
Q 15.921875 -1.421875 10.953125 3.296875 
Q 6 8.015625 6 15.921875 
Q 6 25.140625 12.171875 29.828125 
Q 18.359375 34.515625 30.609375 34.515625 
L 43.21875 34.515625 
L 43.21875 35.40625 
Q 43.21875 41.609375 39.140625 45 
Q 35.0625 48.390625 27.6875 48.390625 
Q 23 48.390625 18.546875 47.265625 
Q 14.109375 46.140625 10.015625 43.890625 
L 10.015625 52.203125 
Q 14.9375 54.109375 19.578125 55.046875 
Q 24.21875 56 28.609375 56 
Q 40.484375 56 46.34375 49.84375 
Q 52.203125 43.703125 52.203125 31.203125 
z
" id="DejaVuSans-61"/>
      <path d="M 41.109375 46.296875 
Q 39.59375 47.171875 37.8125 47.578125 
Q 36.03125 48 33.890625 48 
Q 26.265625 48 22.1875 43.046875 
Q 18.109375 38.09375 18.109375 28.8125 
L 18.109375 0 
L 9.078125 0 
L 9.078125 54.6875 
L 18.109375 54.6875 
L 18.109375 46.1875 
Q 20.953125 51.171875 25.484375 53.578125 
Q 30.03125 56 36.53125 56 
Q 37.453125 56 38.578125 55.875 
Q 39.703125 55.765625 41.0625 55.515625 
z
" id="DejaVuSans-72"/>
      <path d="M 45.40625 46.390625 
L 45.40625 75.984375 
L 54.390625 75.984375 
L 54.390625 0 
L 45.40625 0 
L 45.40625 8.203125 
Q 42.578125 3.328125 38.25 0.953125 
Q 33.9375 -1.421875 27.875 -1.421875 
Q 17.96875 -1.421875 11.734375 6.484375 
Q 5.515625 14.40625 5.515625 27.296875 
Q 5.515625 40.1875 11.734375 48.09375 
Q 17.96875 56 27.875 56 
Q 33.9375 56 38.25 53.625 
Q 42.578125 51.265625 45.40625 46.390625 
z
M 14.796875 27.296875 
Q 14.796875 17.390625 18.875 11.75 
Q 22.953125 6.109375 30.078125 6.109375 
Q 37.203125 6.109375 41.296875 11.75 
Q 45.40625 17.390625 45.40625 27.296875 
Q 45.40625 37.203125 41.296875 42.84375 
Q 37.203125 48.484375 30.078125 48.484375 
Q 22.953125 48.484375 18.875 42.84375 
Q 14.796875 37.203125 14.796875 27.296875 
z
" id="DejaVuSans-64"/>
      <path d="M 44.28125 53.078125 
L 44.28125 44.578125 
Q 40.484375 46.53125 36.375 47.5 
Q 32.28125 48.484375 27.875 48.484375 
Q 21.1875 48.484375 17.84375 46.4375 
Q 14.5 44.390625 14.5 40.28125 
Q 14.5 37.15625 16.890625 35.375 
Q 19.28125 33.59375 26.515625 31.984375 
L 29.59375 31.296875 
Q 39.15625 29.25 43.1875 25.515625 
Q 47.21875 21.78125 47.21875 15.09375 
Q 47.21875 7.46875 41.1875 3.015625 
Q 35.15625 -1.421875 24.609375 -1.421875 
Q 20.21875 -1.421875 15.453125 -0.5625 
Q 10.6875 0.296875 5.421875 2 
L 5.421875 11.28125 
Q 10.40625 8.6875 15.234375 7.390625 
Q 20.0625 6.109375 24.8125 6.109375 
Q 31.15625 6.109375 34.5625 8.28125 
Q 37.984375 10.453125 37.984375 14.40625 
Q 37.984375 18.0625 35.515625 20.015625 
Q 33.0625 21.96875 24.703125 23.78125 
L 21.578125 24.515625 
Q 13.234375 26.265625 9.515625 29.90625 
Q 5.8125 33.546875 5.8125 39.890625 
Q 5.8125 47.609375 11.28125 51.796875 
Q 16.75 56 26.8125 56 
Q 31.78125 56 36.171875 55.265625 
Q 40.578125 54.546875 44.28125 53.078125 
z
" id="DejaVuSans-73"/>
     </defs>
     <g transform="translate(19.070312 196.062375)rotate(-90)scale(0.1 -0.1)">
      <use xlink:href="#DejaVuSans-52"/>
      <use x="69.419922" xlink:href="#DejaVuSans-65"/>
      <use x="130.943359" xlink:href="#DejaVuSans-77"/>
      <use x="212.730469" xlink:href="#DejaVuSans-61"/>
      <use x="274.009766" xlink:href="#DejaVuSans-72"/>
      <use x="315.107422" xlink:href="#DejaVuSans-64"/>
      <use x="378.583984" xlink:href="#DejaVuSans-73"/>
     </g>
    </g>
   </g>
   <g id="line2d_29">
    <path clip-path="url(#p26e358a92f)" d="M 73.832727 211.5166 
L 78.161455 177.560709 
L 82.490182 147.905672 
L 86.818909 133.712709 
L 91.147636 124.135822 
L 95.476364 117.726152 
L 99.805091 116.475667 
L 104.133818 115.967393 
L 108.462545 114.733117 
L 112.791273 116.650817 
L 117.12 113.74439 
L 121.448727 112.201425 
L 125.777455 113.809225 
L 130.106182 113.024436 
L 134.434909 113.742213 
L 138.763636 115.67975 
L 143.092364 114.246616 
L 147.421091 116.29834 
L 151.749818 115.622899 
L 156.078545 116.84774 
L 160.407273 115.937395 
L 164.736 116.84774 
L 169.064727 116.33874 
L 173.393455 116.212458 
L 177.722182 117.181106 
L 182.050909 115.040598 
L 186.379636 116.478328 
L 190.708364 114.647962 
L 195.037091 116.481231 
L 199.365818 116.444943 
L 203.694545 116.383496 
L 208.023273 116.274632 
L 212.352 115.802646 
L 216.680727 115.338401 
L 221.009455 116.998698 
L 225.338182 116.149559 
L 229.666909 114.61627 
L 233.995636 116.229876 
L 238.324364 114.99052 
L 242.653091 114.670218 
L 246.981818 114.730214 
L 251.310545 115.311306 
L 255.639273 114.64651 
L 259.968 114.068321 
L 264.296727 113.530049 
L 268.625455 113.496664 
L 272.954182 113.681249 
L 277.282909 113.618592 
L 281.611636 114.073644 
L 285.940364 114.269599 
L 290.269091 114.342659 
L 294.597818 114.583853 
L 298.926545 114.599578 
L 303.255273 114.273711 
L 307.584 113.702054 
L 311.912727 114.148397 
L 316.241455 113.991633 
L 320.570182 113.854222 
L 324.898909 114.192426 
L 329.227636 114.736746 
L 333.556364 114.785856 
L 337.885091 113.917847 
L 342.213818 115.425251 
L 346.542545 116.572193 
L 350.871273 117.296744 
L 355.2 116.660494 
L 359.528727 118.922446 
L 363.857455 119.623046 
L 368.186182 123.639402 
L 372.514909 130.537993 
L 376.843636 137.642216 
L 381.172364 147.641979 
L 385.501091 155.893386 
L 389.829818 162.301121 
L 394.158545 166.316993 
L 398.487273 168.997951 
" style="fill:none;stroke:#ff6347;stroke-linecap:square;stroke-width:2;"/>
   </g>
   <g id="line2d_30">
    <path clip-path="url(#p26e358a92f)" d="M 73.832727 205.617865 
L 78.161455 158.835375 
L 82.490182 133.328782 
L 86.818909 115.941992 
L 91.147636 107.339558 
L 95.476364 105.518868 
L 99.805091 110.101317 
L 104.133818 110.670313 
L 108.462545 113.207328 
L 112.791273 117.549066 
L 117.12 115.048823 
L 121.448727 116.908946 
L 125.777455 118.477313 
L 130.106182 115.690879 
L 134.434909 114.353061 
L 138.763636 115.08245 
L 143.092364 115.110271 
L 147.421091 113.949297 
L 151.749818 113.701571 
L 156.078545 112.710424 
L 160.407273 113.469327 
L 164.736 113.571176 
L 169.064727 112.511566 
L 173.393455 116.034163 
L 177.722182 115.705152 
L 182.050909 113.864625 
L 186.379636 114.909477 
L 190.708364 116.00731 
L 195.037091 115.536292 
L 199.365818 115.283727 
L 203.694545 116.054726 
L 208.023273 113.964054 
L 212.352 113.572627 
L 216.680727 109.815368 
L 221.009455 109.162184 
L 225.338182 107.973873 
L 229.666909 105.432745 
L 233.995636 104.127103 
L 238.324364 101.815315 
L 242.653091 99.877536 
L 246.981818 100.290977 
L 251.310545 97.800411 
L 255.639273 97.326006 
L 259.968 95.343713 
L 264.296727 97.441402 
L 268.625455 95.957464 
L 272.954182 97.795089 
L 277.282909 97.266735 
L 281.611636 96.614519 
L 285.940364 97.773316 
L 290.269091 102.649697 
L 294.597818 104.706743 
L 298.926545 108.048868 
L 303.255273 112.74647 
L 307.584 113.394816 
L 311.912727 115.957716 
L 316.241455 117.236022 
L 320.570182 120.362354 
L 324.898909 122.031118 
L 329.227636 120.728863 
L 333.556364 123.593679 
L 337.885091 135.22737 
L 342.213818 143.412492 
L 346.542545 148.559098 
L 350.871273 152.256119 
L 355.2 154.293085 
L 359.528727 155.101098 
L 363.857455 156.366582 
L 368.186182 159.327441 
L 372.514909 160.051265 
L 376.843636 160.956046 
L 381.172364 156.850422 
L 385.501091 163.457741 
L 389.829818 170.232227 
L 394.158545 173.2226 
L 398.487273 181.504247 
" style="fill:none;stroke:#ffd700;stroke-dasharray:7.4,3.2;stroke-dashoffset:0;stroke-width:2;"/>
   </g>
   <g id="line2d_31">
    <path clip-path="url(#p26e358a92f)" d="M 73.832727 154.368081 
L 78.161455 113.724069 
L 82.490182 92.90274 
L 86.818909 84.021132 
L 91.147636 84.542469 
L 95.476364 83.305532 
L 99.805091 83.781389 
L 104.133818 88.315212 
L 108.462545 89.335388 
L 112.791273 89.487314 
L 117.12 89.024279 
L 121.448727 89.445462 
L 125.777455 86.76523 
L 130.106182 82.809354 
L 134.434909 83.007971 
L 138.763636 80.427894 
L 143.092364 80.385558 
L 147.421091 80.547402 
L 151.749818 81.904573 
L 156.078545 79.279258 
L 160.407273 81.018904 
L 164.736 79.734067 
L 169.064727 78.890734 
L 173.393455 78.738566 
L 177.722182 77.921844 
L 182.050909 76.686843 
L 186.379636 76.824979 
L 190.708364 76.364605 
L 195.037091 79.111365 
L 199.365818 75.458373 
L 203.694545 76.855461 
L 208.023273 77.172376 
L 212.352 77.138991 
L 216.680727 78.181667 
L 221.009455 76.800787 
L 225.338182 78.473906 
L 229.666909 80.124042 
L 233.995636 80.415072 
L 238.324364 79.952279 
L 242.653091 80.58369 
L 246.981818 81.447103 
L 251.310545 81.421701 
L 255.639273 80.750615 
L 259.968 81.253809 
L 264.296727 81.367995 
L 268.625455 82.666863 
L 272.954182 81.662412 
L 277.282909 82.63614 
L 281.611636 82.624044 
L 285.940364 83.811145 
L 290.269091 83.177315 
L 294.597818 85.072274 
L 298.926545 86.076242 
L 303.255273 85.848837 
L 307.584 86.337274 
L 311.912727 85.046388 
L 316.241455 88.025633 
L 320.570182 88.465928 
L 324.898909 90.523215 
L 329.227636 91.98538 
L 333.556364 95.175337 
L 337.885091 105.075671 
L 342.213818 114.061306 
L 346.542545 119.791423 
L 350.871273 121.900239 
L 355.2 126.607519 
L 359.528727 128.931644 
L 363.857455 130.626536 
L 368.186182 135.482354 
L 372.514909 133.760125 
L 376.843636 136.93847 
L 381.172364 139.024788 
L 385.501091 140.680973 
L 389.829818 143.808515 
L 394.158545 141.227228 
L 398.487273 147.228054 
" style="fill:none;stroke:#00ffff;stroke-dasharray:2,3.3;stroke-dashoffset:0;stroke-width:2;"/>
   </g>
   <g id="line2d_32">
    <path clip-path="url(#p26e358a92f)" d="M 73.832727 293.528932 
L 78.161455 290.487756 
L 82.490182 287.013059 
L 86.818909 283.732623 
L 91.147636 281.114323 
L 95.476364 277.997668 
L 99.805091 275.799099 
L 104.133818 272.973957 
L 108.462545 271.100529 
L 112.791273 269.556111 
L 117.12 267.862671 
L 121.448727 265.200342 
L 125.777455 264.793432 
L 130.106182 262.385361 
L 134.434909 262.512852 
L 138.763636 260.545801 
L 143.092364 259.209435 
L 147.421091 257.354634 
L 151.749818 256.247366 
L 156.078545 255.836828 
L 160.407273 255.224287 
L 164.736 252.449706 
L 169.064727 251.711366 
L 173.393455 250.786264 
L 177.722182 251.018508 
L 182.050909 248.039021 
L 186.379636 245.641594 
L 190.708364 245.244845 
L 195.037091 243.84316 
L 199.365818 240.721667 
L 203.694545 237.199553 
L 208.023273 237.862414 
L 212.352 232.953373 
L 216.680727 233.67623 
L 221.009455 234.700762 
L 225.338182 234.528756 
L 229.666909 228.986853 
L 233.995636 228.234482 
L 238.324364 230.527884 
L 242.653091 229.60641 
L 246.981818 232.428891 
L 251.310545 229.68068 
L 255.639273 230.156536 
L 259.968 230.692631 
L 264.296727 228.920567 
L 268.625455 230.156778 
L 272.954182 228.896133 
L 277.282909 229.500207 
L 281.611636 229.053381 
L 285.940364 227.819831 
L 290.269091 231.814656 
L 294.597818 224.095231 
L 298.926545 228.690259 
L 303.255273 230.526432 
L 307.584 227.894342 
L 311.912727 227.223982 
L 316.241455 228.478095 
L 320.570182 229.733902 
L 324.898909 230.371119 
L 329.227636 230.50103 
L 333.556364 226.673372 
L 337.885091 230.020819 
L 342.213818 231.238161 
L 346.542545 230.352492 
L 350.871273 229.464403 
L 355.2 231.831107 
L 359.528727 229.521012 
L 363.857455 231.874168 
L 368.186182 229.364974 
L 372.514909 227.108828 
L 376.843636 231.368797 
L 381.172364 233.153199 
L 385.501091 233.445439 
L 389.829818 232.522514 
L 394.158545 234.303529 
L 398.487273 231.432906 
" style="fill:none;stroke:#0000ff;stroke-dasharray:12.8,3.2,2,3.2;stroke-dashoffset:0;stroke-width:2;"/>
   </g>
   <g id="line2d_33">
    <path clip-path="url(#p26e358a92f)" d="M 73.832727 218.151256 
L 78.161455 180.264891 
L 82.490182 155.979026 
L 86.818909 131.167711 
L 91.147636 117.990086 
L 95.476364 113.879866 
L 99.805091 113.384413 
L 104.133818 108.855187 
L 108.462545 106.822575 
L 112.791273 106.936762 
L 117.12 104.232338 
L 121.448727 105.335009 
L 125.777455 105.193728 
L 130.106182 103.498353 
L 134.434909 103.936712 
L 138.763636 103.131118 
L 143.092364 103.278205 
L 147.421091 104.988822 
L 151.749818 106.369459 
L 156.078545 105.147279 
L 160.407273 102.898391 
L 164.736 103.468838 
L 169.064727 106.06464 
L 173.393455 105.662811 
L 177.722182 102.625989 
L 182.050909 103.339411 
L 186.379636 104.867136 
L 190.708364 103.442227 
L 195.037091 106.127781 
L 199.365818 103.292479 
L 203.694545 101.450016 
L 208.023273 103.986547 
L 212.352 107.086026 
L 216.680727 105.818607 
L 221.009455 105.537254 
L 225.338182 102.78614 
L 229.666909 106.056173 
L 233.995636 104.206211 
L 238.324364 106.714921 
L 242.653091 105.840138 
L 246.981818 105.536287 
L 251.310545 103.622216 
L 255.639273 105.724017 
L 259.968 106.200115 
L 264.296727 106.799835 
L 268.625455 108.341107 
L 272.954182 107.658651 
L 277.282909 107.377298 
L 281.611636 107.200938 
L 285.940364 109.004936 
L 290.269091 106.924424 
L 294.597818 109.172828 
L 298.926545 109.234034 
L 303.255273 108.191117 
L 307.584 110.191553 
L 311.912727 108.908893 
L 316.241455 110.477745 
L 320.570182 110.854656 
L 324.898909 113.806564 
L 329.227636 113.133542 
L 333.556364 117.333516 
L 337.885091 116.633399 
L 342.213818 117.893802 
L 346.542545 121.531795 
L 350.871273 124.433384 
L 355.2 127.328682 
L 359.528727 127.69253 
L 363.857455 131.092474 
L 368.186182 131.721224 
L 372.514909 140.614687 
L 376.843636 145.000938 
L 381.172364 156.441819 
L 385.501091 166.069751 
L 389.829818 173.677167 
L 394.158545 177.514744 
L 398.487273 183.17035 
" style="fill:none;stroke:#008000;stroke-dasharray:12.8,3.2,2,3.2;stroke-dashoffset:0;stroke-width:2;"/>
   </g>
   <g id="line2d_34">
    <path clip-path="url(#p26e358a92f)" d="M 73.832727 166.304172 
L 78.161455 96.397275 
L 82.490182 81.336303 
L 86.818909 77.55461 
L 91.147636 78.919281 
L 95.476364 82.758309 
L 99.805091 84.169912 
L 104.133818 81.680314 
L 108.462545 81.767889 
L 112.791273 81.683459 
L 117.12 79.231357 
L 121.448727 77.759274 
L 125.777455 78.070867 
L 130.106182 78.56511 
L 134.434909 77.713551 
L 138.763636 78.535596 
L 143.092364 77.770644 
L 147.421091 77.683311 
L 151.749818 78.590511 
L 156.078545 78.285692 
L 160.407273 78.110058 
L 164.736 77.920151 
L 169.064727 77.289466 
L 173.393455 77.806932 
L 177.722182 76.434762 
L 182.050909 76.309448 
L 186.379636 77.159313 
L 190.708364 78.925571 
L 195.037091 76.530804 
L 199.365818 75.78303 
L 203.694545 76.707648 
L 208.023273 76.735711 
L 212.352 75.882943 
L 216.680727 75.253951 
L 221.009455 76.50129 
L 225.338182 75.556593 
L 229.666909 74.797448 
L 233.995636 75.66594 
L 238.324364 74.446422 
L 242.653091 75.418698 
L 246.981818 75.018563 
L 251.310545 74.090316 
L 255.639273 74.423439 
L 259.968 75.571592 
L 264.296727 72.706533 
L 268.625455 74.329816 
L 272.954182 73.302624 
L 277.282909 72.976516 
L 281.611636 72.096169 
L 285.940364 73.541157 
L 290.269091 72.591863 
L 294.597818 72.369055 
L 298.926545 72.537915 
L 303.255273 71.566848 
L 307.584 70.808187 
L 311.912727 70.476756 
L 316.241455 69.778817 
L 320.570182 70.227337 
L 324.898909 70.764157 
L 329.227636 71.800301 
L 333.556364 83.163283 
L 337.885091 89.818502 
L 342.213818 91.707414 
L 346.542545 91.975219 
L 350.871273 91.050601 
L 355.2 91.849663 
L 359.528727 91.002217 
L 363.857455 91.582825 
L 368.186182 90.551278 
L 372.514909 91.193092 
L 376.843636 91.158739 
L 381.172364 91.599759 
L 385.501091 92.439706 
L 389.829818 93.656805 
L 394.158545 95.723286 
L 398.487273 96.349859 
" style="fill:none;stroke:#800080;stroke-dasharray:12.8,3.2,2,3.2;stroke-dashoffset:0;stroke-width:2;"/>
   </g>
   <g id="patch_3">
    <path d="M 57.6 307.584 
L 57.6 41.472 
" style="fill:none;stroke:#000000;stroke-linecap:square;stroke-linejoin:miter;stroke-width:0.8;"/>
   </g>
   <g id="patch_4">
    <path d="M 414.72 307.584 
L 414.72 41.472 
" style="fill:none;stroke:#000000;stroke-linecap:square;stroke-linejoin:miter;stroke-width:0.8;"/>
   </g>
   <g id="patch_5">
    <path d="M 57.6 307.584 
L 414.72 307.584 
" style="fill:none;stroke:#000000;stroke-linecap:square;stroke-linejoin:miter;stroke-width:0.8;"/>
   </g>
   <g id="patch_6">
    <path d="M 57.6 41.472 
L 414.72 41.472 
" style="fill:none;stroke:#000000;stroke-linecap:square;stroke-linejoin:miter;stroke-width:0.8;"/>
   </g>
   <g id="text_17">
    <!-- CartPole (75000 steps) -->
    <defs>
     <path d="M 64.40625 67.28125 
L 64.40625 56.890625 
Q 59.421875 61.53125 53.78125 63.8125 
Q 48.140625 66.109375 41.796875 66.109375 
Q 29.296875 66.109375 22.65625 58.46875 
Q 16.015625 50.828125 16.015625 36.375 
Q 16.015625 21.96875 22.65625 14.328125 
Q 29.296875 6.6875 41.796875 6.6875 
Q 48.140625 6.6875 53.78125 8.984375 
Q 59.421875 11.28125 64.40625 15.921875 
L 64.40625 5.609375 
Q 59.234375 2.09375 53.4375 0.328125 
Q 47.65625 -1.421875 41.21875 -1.421875 
Q 24.65625 -1.421875 15.125 8.703125 
Q 5.609375 18.84375 5.609375 36.375 
Q 5.609375 53.953125 15.125 64.078125 
Q 24.65625 74.21875 41.21875 74.21875 
Q 47.75 74.21875 53.53125 72.484375 
Q 59.328125 70.75 64.40625 67.28125 
z
" id="DejaVuSans-43"/>
     <path d="M 31 75.875 
Q 24.46875 64.65625 21.28125 53.65625 
Q 18.109375 42.671875 18.109375 31.390625 
Q 18.109375 20.125 21.3125 9.0625 
Q 24.515625 -2 31 -13.1875 
L 23.1875 -13.1875 
Q 15.875 -1.703125 12.234375 9.375 
Q 8.59375 20.453125 8.59375 31.390625 
Q 8.59375 42.28125 12.203125 53.3125 
Q 15.828125 64.359375 23.1875 75.875 
z
" id="DejaVuSans-28"/>
     <path d="M 8.203125 72.90625 
L 55.078125 72.90625 
L 55.078125 68.703125 
L 28.609375 0 
L 18.3125 0 
L 43.21875 64.59375 
L 8.203125 64.59375 
z
" id="DejaVuSans-37"/>
     <path d="M 10.796875 72.90625 
L 49.515625 72.90625 
L 49.515625 64.59375 
L 19.828125 64.59375 
L 19.828125 46.734375 
Q 21.96875 47.46875 24.109375 47.828125 
Q 26.265625 48.1875 28.421875 48.1875 
Q 40.625 48.1875 47.75 41.5 
Q 54.890625 34.8125 54.890625 23.390625 
Q 54.890625 11.625 47.5625 5.09375 
Q 40.234375 -1.421875 26.90625 -1.421875 
Q 22.3125 -1.421875 17.546875 -0.640625 
Q 12.796875 0.140625 7.71875 1.703125 
L 7.71875 11.625 
Q 12.109375 9.234375 16.796875 8.0625 
Q 21.484375 6.890625 26.703125 6.890625 
Q 35.15625 6.890625 40.078125 11.328125 
Q 45.015625 15.765625 45.015625 23.390625 
Q 45.015625 31 40.078125 35.4375 
Q 35.15625 39.890625 26.703125 39.890625 
Q 22.75 39.890625 18.8125 39.015625 
Q 14.890625 38.140625 10.796875 36.28125 
z
" id="DejaVuSans-35"/>
     <path d="M 18.109375 8.203125 
L 18.109375 -20.796875 
L 9.078125 -20.796875 
L 9.078125 54.6875 
L 18.109375 54.6875 
L 18.109375 46.390625 
Q 20.953125 51.265625 25.265625 53.625 
Q 29.59375 56 35.59375 56 
Q 45.5625 56 51.78125 48.09375 
Q 58.015625 40.1875 58.015625 27.296875 
Q 58.015625 14.40625 51.78125 6.484375 
Q 45.5625 -1.421875 35.59375 -1.421875 
Q 29.59375 -1.421875 25.265625 0.953125 
Q 20.953125 3.328125 18.109375 8.203125 
z
M 48.6875 27.296875 
Q 48.6875 37.203125 44.609375 42.84375 
Q 40.53125 48.484375 33.40625 48.484375 
Q 26.265625 48.484375 22.1875 42.84375 
Q 18.109375 37.203125 18.109375 27.296875 
Q 18.109375 17.390625 22.1875 11.75 
Q 26.265625 6.109375 33.40625 6.109375 
Q 40.53125 6.109375 44.609375 11.75 
Q 48.6875 17.390625 48.6875 27.296875 
z
" id="DejaVuSans-70"/>
     <path d="M 8.015625 75.875 
L 15.828125 75.875 
Q 23.140625 64.359375 26.78125 53.3125 
Q 30.421875 42.28125 30.421875 31.390625 
Q 30.421875 20.453125 26.78125 9.375 
Q 23.140625 -1.703125 15.828125 -13.1875 
L 8.015625 -13.1875 
Q 14.5 -2 17.703125 9.0625 
Q 20.90625 20.125 20.90625 31.390625 
Q 20.90625 42.671875 17.703125 53.65625 
Q 14.5 64.65625 8.015625 75.875 
z
" id="DejaVuSans-29"/>
    </defs>
    <g transform="translate(167.142188 35.472)scale(0.12 -0.12)">
     <use xlink:href="#DejaVuSans-43"/>
     <use x="69.824219" xlink:href="#DejaVuSans-61"/>
     <use x="131.103516" xlink:href="#DejaVuSans-72"/>
     <use x="172.216797" xlink:href="#DejaVuSans-74"/>
     <use x="211.425781" xlink:href="#DejaVuSans-50"/>
     <use x="271.681641" xlink:href="#DejaVuSans-6f"/>
     <use x="332.863281" xlink:href="#DejaVuSans-6c"/>
     <use x="360.646484" xlink:href="#DejaVuSans-65"/>
     <use x="422.169922" xlink:href="#DejaVuSans-20"/>
     <use x="453.957031" xlink:href="#DejaVuSans-28"/>
     <use x="492.970703" xlink:href="#DejaVuSans-37"/>
     <use x="556.59375" xlink:href="#DejaVuSans-35"/>
     <use x="620.216797" xlink:href="#DejaVuSans-30"/>
     <use x="683.839844" xlink:href="#DejaVuSans-30"/>
     <use x="747.462891" xlink:href="#DejaVuSans-30"/>
     <use x="811.085938" xlink:href="#DejaVuSans-20"/>
     <use x="842.873047" xlink:href="#DejaVuSans-73"/>
     <use x="894.972656" xlink:href="#DejaVuSans-74"/>
     <use x="934.181641" xlink:href="#DejaVuSans-65"/>
     <use x="995.705078" xlink:href="#DejaVuSans-70"/>
     <use x="1059.181641" xlink:href="#DejaVuSans-73"/>
     <use x="1111.28125" xlink:href="#DejaVuSans-29"/>
    </g>
   </g>
   <g id="legend_1">
    <g id="patch_7">
     <path d="M 175.077969 220.062375 
L 297.242031 220.062375 
Q 299.242031 220.062375 299.242031 218.062375 
L 299.242031 130.993625 
Q 299.242031 128.993625 297.242031 128.993625 
L 175.077969 128.993625 
Q 173.077969 128.993625 173.077969 130.993625 
L 173.077969 218.062375 
Q 173.077969 220.062375 175.077969 220.062375 
z
" style="fill:#ffffff;opacity:0.8;stroke:#cccccc;stroke-linejoin:miter;"/>
    </g>
    <g id="line2d_35">
     <path d="M 177.077969 137.092062 
L 197.077969 137.092062 
" style="fill:none;stroke:#ff6347;stroke-linecap:square;stroke-width:2;"/>
    </g>
    <g id="line2d_36"/>
    <g id="text_18">
     <!-- Base -->
     <defs>
      <path d="M 19.671875 34.8125 
L 19.671875 8.109375 
L 35.5 8.109375 
Q 43.453125 8.109375 47.28125 11.40625 
Q 51.125 14.703125 51.125 21.484375 
Q 51.125 28.328125 47.28125 31.5625 
Q 43.453125 34.8125 35.5 34.8125 
z
M 19.671875 64.796875 
L 19.671875 42.828125 
L 34.28125 42.828125 
Q 41.5 42.828125 45.03125 45.53125 
Q 48.578125 48.25 48.578125 53.8125 
Q 48.578125 59.328125 45.03125 62.0625 
Q 41.5 64.796875 34.28125 64.796875 
z
M 9.8125 72.90625 
L 35.015625 72.90625 
Q 46.296875 72.90625 52.390625 68.21875 
Q 58.5 63.53125 58.5 54.890625 
Q 58.5 48.1875 55.375 44.234375 
Q 52.25 40.28125 46.1875 39.3125 
Q 53.46875 37.75 57.5 32.78125 
Q 61.53125 27.828125 61.53125 20.40625 
Q 61.53125 10.640625 54.890625 5.3125 
Q 48.25 0 35.984375 0 
L 9.8125 0 
z
" id="DejaVuSans-42"/>
     </defs>
     <g transform="translate(205.077969 140.592062)scale(0.1 -0.1)">
      <use xlink:href="#DejaVuSans-42"/>
      <use x="68.603516" xlink:href="#DejaVuSans-61"/>
      <use x="129.882812" xlink:href="#DejaVuSans-73"/>
      <use x="181.982422" xlink:href="#DejaVuSans-65"/>
     </g>
    </g>
    <g id="line2d_37">
     <path d="M 177.077969 151.770187 
L 197.077969 151.770187 
" style="fill:none;stroke:#ffd700;stroke-dasharray:7.4,3.2;stroke-dashoffset:0;stroke-width:2;"/>
    </g>
    <g id="line2d_38"/>
    <g id="text_19">
     <!-- L1 -->
     <g transform="translate(205.077969 155.270187)scale(0.1 -0.1)">
      <use xlink:href="#DejaVuSans-4c"/>
      <use x="55.712891" xlink:href="#DejaVuSans-31"/>
     </g>
    </g>
    <g id="line2d_39">
     <path d="M 177.077969 166.448312 
L 197.077969 166.448312 
" style="fill:none;stroke:#00ffff;stroke-dasharray:2,3.3;stroke-dashoffset:0;stroke-width:2;"/>
    </g>
    <g id="line2d_40"/>
    <g id="text_20">
     <!-- L2 -->
     <g transform="translate(205.077969 169.948312)scale(0.1 -0.1)">
      <use xlink:href="#DejaVuSans-4c"/>
      <use x="55.712891" xlink:href="#DejaVuSans-32"/>
     </g>
    </g>
    <g id="line2d_41">
     <path d="M 177.077969 181.126438 
L 197.077969 181.126438 
" style="fill:none;stroke:#0000ff;stroke-dasharray:12.8,3.2,2,3.2;stroke-dashoffset:0;stroke-width:2;"/>
    </g>
    <g id="line2d_42"/>
    <g id="text_21">
     <!-- Dropout -->
     <defs>
      <path d="M 19.671875 64.796875 
L 19.671875 8.109375 
L 31.59375 8.109375 
Q 46.6875 8.109375 53.6875 14.9375 
Q 60.6875 21.78125 60.6875 36.53125 
Q 60.6875 51.171875 53.6875 57.984375 
Q 46.6875 64.796875 31.59375 64.796875 
z
M 9.8125 72.90625 
L 30.078125 72.90625 
Q 51.265625 72.90625 61.171875 64.09375 
Q 71.09375 55.28125 71.09375 36.53125 
Q 71.09375 17.671875 61.125 8.828125 
Q 51.171875 0 30.078125 0 
L 9.8125 0 
z
" id="DejaVuSans-44"/>
      <path d="M 8.5 21.578125 
L 8.5 54.6875 
L 17.484375 54.6875 
L 17.484375 21.921875 
Q 17.484375 14.15625 20.5 10.265625 
Q 23.53125 6.390625 29.59375 6.390625 
Q 36.859375 6.390625 41.078125 11.03125 
Q 45.3125 15.671875 45.3125 23.6875 
L 45.3125 54.6875 
L 54.296875 54.6875 
L 54.296875 0 
L 45.3125 0 
L 45.3125 8.40625 
Q 42.046875 3.421875 37.71875 1 
Q 33.40625 -1.421875 27.6875 -1.421875 
Q 18.265625 -1.421875 13.375 4.4375 
Q 8.5 10.296875 8.5 21.578125 
z
M 31.109375 56 
z
" id="DejaVuSans-75"/>
     </defs>
     <g transform="translate(205.077969 184.626438)scale(0.1 -0.1)">
      <use xlink:href="#DejaVuSans-44"/>
      <use x="77.001953" xlink:href="#DejaVuSans-72"/>
      <use x="118.083984" xlink:href="#DejaVuSans-6f"/>
      <use x="179.265625" xlink:href="#DejaVuSans-70"/>
      <use x="242.742188" xlink:href="#DejaVuSans-6f"/>
      <use x="303.923828" xlink:href="#DejaVuSans-75"/>
      <use x="367.302734" xlink:href="#DejaVuSans-74"/>
     </g>
    </g>
    <g id="line2d_43">
     <path d="M 177.077969 195.804563 
L 197.077969 195.804563 
" style="fill:none;stroke:#008000;stroke-dasharray:12.8,3.2,2,3.2;stroke-dashoffset:0;stroke-width:2;"/>
    </g>
    <g id="line2d_44"/>
    <g id="text_22">
     <!-- Improved dropout -->
     <defs>
      <path d="M 9.8125 72.90625 
L 19.671875 72.90625 
L 19.671875 0 
L 9.8125 0 
z
" id="DejaVuSans-49"/>
      <path d="M 52 44.1875 
Q 55.375 50.25 60.0625 53.125 
Q 64.75 56 71.09375 56 
Q 79.640625 56 84.28125 50.015625 
Q 88.921875 44.046875 88.921875 33.015625 
L 88.921875 0 
L 79.890625 0 
L 79.890625 32.71875 
Q 79.890625 40.578125 77.09375 44.375 
Q 74.3125 48.1875 68.609375 48.1875 
Q 61.625 48.1875 57.5625 43.546875 
Q 53.515625 38.921875 53.515625 30.90625 
L 53.515625 0 
L 44.484375 0 
L 44.484375 32.71875 
Q 44.484375 40.625 41.703125 44.40625 
Q 38.921875 48.1875 33.109375 48.1875 
Q 26.21875 48.1875 22.15625 43.53125 
Q 18.109375 38.875 18.109375 30.90625 
L 18.109375 0 
L 9.078125 0 
L 9.078125 54.6875 
L 18.109375 54.6875 
L 18.109375 46.1875 
Q 21.1875 51.21875 25.484375 53.609375 
Q 29.78125 56 35.6875 56 
Q 41.65625 56 45.828125 52.96875 
Q 50 49.953125 52 44.1875 
z
" id="DejaVuSans-6d"/>
      <path d="M 2.984375 54.6875 
L 12.5 54.6875 
L 29.59375 8.796875 
L 46.6875 54.6875 
L 56.203125 54.6875 
L 35.6875 0 
L 23.484375 0 
z
" id="DejaVuSans-76"/>
     </defs>
     <g transform="translate(205.077969 199.304563)scale(0.1 -0.1)">
      <use xlink:href="#DejaVuSans-49"/>
      <use x="29.492188" xlink:href="#DejaVuSans-6d"/>
      <use x="126.904297" xlink:href="#DejaVuSans-70"/>
      <use x="190.380859" xlink:href="#DejaVuSans-72"/>
      <use x="231.462891" xlink:href="#DejaVuSans-6f"/>
      <use x="292.644531" xlink:href="#DejaVuSans-76"/>
      <use x="351.824219" xlink:href="#DejaVuSans-65"/>
      <use x="413.347656" xlink:href="#DejaVuSans-64"/>
      <use x="476.824219" xlink:href="#DejaVuSans-20"/>
      <use x="508.611328" xlink:href="#DejaVuSans-64"/>
      <use x="572.087891" xlink:href="#DejaVuSans-72"/>
      <use x="613.169922" xlink:href="#DejaVuSans-6f"/>
      <use x="674.351562" xlink:href="#DejaVuSans-70"/>
      <use x="737.828125" xlink:href="#DejaVuSans-6f"/>
      <use x="799.009766" xlink:href="#DejaVuSans-75"/>
      <use x="862.388672" xlink:href="#DejaVuSans-74"/>
     </g>
    </g>
    <g id="line2d_45">
     <path d="M 177.077969 210.482687 
L 197.077969 210.482687 
" style="fill:none;stroke:#800080;stroke-dasharray:12.8,3.2,2,3.2;stroke-dashoffset:0;stroke-width:2;"/>
    </g>
    <g id="line2d_46"/>
    <g id="text_23">
     <!-- New dropout -->
     <defs>
      <path d="M 9.8125 72.90625 
L 23.09375 72.90625 
L 55.421875 11.921875 
L 55.421875 72.90625 
L 64.984375 72.90625 
L 64.984375 0 
L 51.703125 0 
L 19.390625 60.984375 
L 19.390625 0 
L 9.8125 0 
z
" id="DejaVuSans-4e"/>
     </defs>
     <g transform="translate(205.077969 213.982687)scale(0.1 -0.1)">
      <use xlink:href="#DejaVuSans-4e"/>
      <use x="74.804688" xlink:href="#DejaVuSans-65"/>
      <use x="136.328125" xlink:href="#DejaVuSans-77"/>
      <use x="218.115234" xlink:href="#DejaVuSans-20"/>
      <use x="249.902344" xlink:href="#DejaVuSans-64"/>
      <use x="313.378906" xlink:href="#DejaVuSans-72"/>
      <use x="354.460938" xlink:href="#DejaVuSans-6f"/>
      <use x="415.642578" xlink:href="#DejaVuSans-70"/>
      <use x="479.119141" xlink:href="#DejaVuSans-6f"/>
      <use x="540.300781" xlink:href="#DejaVuSans-75"/>
      <use x="603.679688" xlink:href="#DejaVuSans-74"/>
     </g>
    </g>
   </g>
  </g>
 </g>
 <defs>
  <clipPath id="p26e358a92f">
   <rect height="266.112" width="357.12" x="57.6" y="41.472"/>
  </clipPath>
 </defs>
</svg>
