<?xml version="1.0" encoding="utf-8" standalone="no"?>
<!DOCTYPE svg PUBLIC "-//W3C//DTD SVG 1.1//EN"
  "http://www.w3.org/Graphics/SVG/1.1/DTD/svg11.dtd">
<!-- Created with matplotlib (http://matplotlib.org/) -->
<svg height="345.6pt" version="1.1" viewBox="0 0 460.8 345.6" width="460.8pt" xmlns="http://www.w3.org/2000/svg" xmlns:xlink="http://www.w3.org/1999/xlink">
 <defs>
  <style type="text/css">
*{stroke-linecap:butt;stroke-linejoin:round;}
  </style>
 </defs>
 <g id="figure_1">
  <g id="patch_1">
   <path d="M 0 345.6 
L 460.8 345.6 
L 460.8 0 
L 0 0 
z
" style="fill:#ffffff;"/>
  </g>
  <g id="axes_1">
   <g id="patch_2">
    <path d="M 57.6 307.584 
L 414.72 307.584 
L 414.72 41.472 
L 57.6 41.472 
z
" style="fill:#ffffff;"/>
   </g>
   <g id="PolyCollection_1">
    <path clip-path="url(#p2df92f0b7c)" d="M 73.832727 65.857606 
L 73.832727 60.068804 
L 79.243636 60.605778 
L 84.654545 60.990955 
L 90.065455 61.717288 
L 95.476364 62.470694 
L 100.887273 62.98692 
L 106.298182 63.798056 
L 111.709091 64.38429 
L 117.12 65.814591 
L 122.530909 67.347518 
L 127.941818 68.692519 
L 133.352727 70.133155 
L 138.763636 70.716885 
L 144.174545 72.552855 
L 149.585455 72.837109 
L 154.996364 72.965512 
L 160.407273 73.852597 
L 165.818182 73.98003 
L 171.229091 74.141056 
L 176.64 74.964019 
L 182.050909 75.766366 
L 187.461818 77.136224 
L 192.872727 77.743359 
L 198.283636 78.510907 
L 203.694545 78.872706 
L 209.105455 80.380561 
L 214.516364 81.333747 
L 219.927273 81.45968 
L 225.338182 82.385758 
L 230.749091 84.349953 
L 236.16 84.61501 
L 241.570909 88.01598 
L 246.981818 88.773388 
L 252.392727 89.799148 
L 257.803636 89.404066 
L 263.214545 92.394512 
L 268.625455 94.024127 
L 274.036364 94.409386 
L 279.447273 96.887881 
L 284.858182 100.602914 
L 290.269091 101.523792 
L 295.68 100.767687 
L 301.090909 103.540648 
L 306.501818 104.692196 
L 311.912727 106.254636 
L 317.323636 107.534677 
L 322.734545 108.012103 
L 328.145455 112.7668 
L 333.556364 114.847225 
L 338.967273 113.544157 
L 344.378182 117.167333 
L 349.789091 114.872841 
L 355.2 120.260254 
L 360.610909 122.962955 
L 366.021818 125.528161 
L 371.432727 125.731682 
L 376.843636 125.964767 
L 382.254545 130.064879 
L 387.665455 129.258295 
L 393.076364 129.280002 
L 398.487273 133.683239 
L 398.487273 164.316028 
L 398.487273 164.316028 
L 393.076364 163.648622 
L 387.665455 163.856124 
L 382.254545 165.640987 
L 376.843636 160.798769 
L 371.432727 158.924731 
L 366.021818 156.215051 
L 360.610909 148.377213 
L 355.2 147.870119 
L 349.789091 146.428614 
L 344.378182 146.416396 
L 338.967273 142.202331 
L 333.556364 143.84101 
L 328.145455 141.432852 
L 322.734545 130.030195 
L 317.323636 134.586877 
L 311.912727 130.471134 
L 306.501818 130.722367 
L 301.090909 123.504935 
L 295.68 121.788829 
L 290.269091 125.884671 
L 284.858182 126.091886 
L 279.447273 120.336234 
L 274.036364 112.772146 
L 268.625455 116.864103 
L 263.214545 111.960427 
L 257.803636 104.265266 
L 252.392727 105.873282 
L 246.981818 103.631187 
L 241.570909 103.583485 
L 236.16 97.267496 
L 230.749091 97.702865 
L 225.338182 95.513778 
L 219.927273 94.92592 
L 214.516364 93.115526 
L 209.105455 90.342176 
L 203.694545 88.421056 
L 198.283636 88.201764 
L 192.872727 87.056693 
L 187.461818 86.386005 
L 182.050909 84.280441 
L 176.64 83.70336 
L 171.229091 82.716761 
L 165.818182 83.41243 
L 160.407273 83.213756 
L 154.996364 82.793989 
L 149.585455 81.257982 
L 144.174545 79.141906 
L 138.763636 77.364559 
L 133.352727 76.361777 
L 127.941818 74.958886 
L 122.530909 73.873558 
L 117.12 74.04883 
L 111.709091 71.581801 
L 106.298182 71.41276 
L 100.887273 70.785439 
L 95.476364 69.038262 
L 90.065455 68.154353 
L 84.654545 67.676893 
L 79.243636 67.025201 
L 73.832727 65.857606 
z
" style="fill:#ff6347;fill-opacity:0.2;"/>
   </g>
   <g id="PolyCollection_2">
    <path clip-path="url(#p2df92f0b7c)" d="M 73.832727 61.818067 
L 73.832727 59.246719 
L 79.243636 59.579505 
L 84.654545 59.877562 
L 90.065455 60.368452 
L 95.476364 60.730417 
L 100.887273 61.39277 
L 106.298182 61.638138 
L 111.709091 62.625117 
L 117.12 63.841014 
L 122.530909 65.496421 
L 127.941818 67.094448 
L 133.352727 68.901272 
L 138.763636 70.077806 
L 144.174545 71.162695 
L 149.585455 72.616283 
L 154.996364 73.58991 
L 160.407273 74.626264 
L 165.818182 74.886269 
L 171.229091 75.536303 
L 176.64 76.138282 
L 182.050909 76.518116 
L 187.461818 77.127108 
L 192.872727 78.25399 
L 198.283636 79.446412 
L 203.694545 79.612281 
L 209.105455 81.508218 
L 214.516364 82.96546 
L 219.927273 85.719033 
L 225.338182 87.415638 
L 230.749091 88.503986 
L 236.16 93.938298 
L 241.570909 96.610471 
L 246.981818 97.153809 
L 252.392727 100.91314 
L 257.803636 104.083764 
L 263.214545 104.420017 
L 268.625455 105.89158 
L 274.036364 107.215798 
L 279.447273 109.852934 
L 284.858182 111.102187 
L 290.269091 116.642607 
L 295.68 121.336953 
L 301.090909 122.857549 
L 306.501818 122.762845 
L 311.912727 124.959173 
L 317.323636 126.895593 
L 322.734545 130.136655 
L 328.145455 137.944783 
L 333.556364 136.973418 
L 338.967273 138.833445 
L 344.378182 139.594732 
L 349.789091 142.885516 
L 355.2 142.674728 
L 360.610909 147.600527 
L 366.021818 152.360987 
L 371.432727 150.706479 
L 376.843636 155.067186 
L 382.254545 160.79967 
L 387.665455 156.263656 
L 393.076364 161.497774 
L 398.487273 158.710233 
L 398.487273 192.519176 
L 398.487273 192.519176 
L 393.076364 196.128 
L 387.665455 191.20922 
L 382.254545 195.031542 
L 376.843636 188.261599 
L 371.432727 183.046146 
L 366.021818 183.648267 
L 360.610909 181.080971 
L 355.2 174.894416 
L 349.789091 173.482737 
L 344.378182 169.478182 
L 338.967273 169.059867 
L 333.556364 173.068144 
L 328.145455 168.683288 
L 322.734545 161.370447 
L 317.323636 157.358264 
L 311.912727 152.425608 
L 306.501818 153.416691 
L 301.090909 149.828178 
L 295.68 153.117693 
L 290.269091 144.842224 
L 284.858182 132.960533 
L 279.447273 137.331522 
L 274.036364 132.931689 
L 268.625455 130.312127 
L 263.214545 127.214305 
L 257.803636 121.677225 
L 252.392727 121.130022 
L 246.981818 114.797901 
L 241.570909 111.999841 
L 236.16 110.471315 
L 230.749091 105.13051 
L 225.338182 98.875135 
L 219.927273 102.157767 
L 214.516364 94.227669 
L 209.105455 91.703875 
L 203.694545 91.202869 
L 198.283636 89.160009 
L 192.872727 87.318754 
L 187.461818 84.068335 
L 182.050909 82.076687 
L 176.64 80.684216 
L 171.229091 80.006438 
L 165.818182 80.232144 
L 160.407273 77.968923 
L 154.996364 77.669395 
L 149.585455 77.041995 
L 144.174545 76.928425 
L 138.763636 74.206461 
L 133.352727 72.885897 
L 127.941818 71.010215 
L 122.530909 69.833903 
L 117.12 69.697167 
L 111.709091 67.572148 
L 106.298182 66.749566 
L 100.887273 66.045157 
L 95.476364 65.366789 
L 90.065455 64.413193 
L 84.654545 63.422565 
L 79.243636 62.483927 
L 73.832727 61.818067 
z
" style="fill:#ffd700;fill-opacity:0.2;"/>
   </g>
   <g id="PolyCollection_3">
    <path clip-path="url(#p2df92f0b7c)" d="M 73.832727 67.169237 
L 73.832727 59.321331 
L 79.243636 59.094887 
L 84.654545 59.347988 
L 90.065455 60.208719 
L 95.476364 61.130951 
L 100.887273 61.474494 
L 106.298182 63.483392 
L 111.709091 64.738562 
L 117.12 65.673252 
L 122.530909 67.391903 
L 127.941818 68.572211 
L 133.352727 70.155336 
L 138.763636 70.735117 
L 144.174545 72.11035 
L 149.585455 74.472549 
L 154.996364 75.142272 
L 160.407273 75.353041 
L 165.818182 76.495351 
L 171.229091 78.480476 
L 176.64 79.930465 
L 182.050909 81.714346 
L 187.461818 82.100667 
L 192.872727 84.00889 
L 198.283636 86.153676 
L 203.694545 87.963594 
L 209.105455 91.691856 
L 214.516364 94.159151 
L 219.927273 94.978315 
L 225.338182 98.450785 
L 230.749091 103.580466 
L 236.16 106.474629 
L 241.570909 105.443707 
L 246.981818 108.613793 
L 252.392727 112.344772 
L 257.803636 113.031424 
L 263.214545 116.348654 
L 268.625455 116.621691 
L 274.036364 121.552351 
L 279.447273 125.490194 
L 284.858182 125.898321 
L 290.269091 127.279948 
L 295.68 129.250533 
L 301.090909 132.412342 
L 306.501818 134.741179 
L 311.912727 135.651448 
L 317.323636 139.11219 
L 322.734545 138.207872 
L 328.145455 144.281759 
L 333.556364 143.952124 
L 338.967273 148.118554 
L 344.378182 146.692279 
L 349.789091 150.242828 
L 355.2 152.566678 
L 360.610909 153.675208 
L 366.021818 154.843089 
L 371.432727 157.154709 
L 376.843636 159.804888 
L 382.254545 158.721339 
L 387.665455 165.926202 
L 393.076364 162.372216 
L 398.487273 166.254353 
L 398.487273 201.287722 
L 398.487273 201.287722 
L 393.076364 199.78472 
L 387.665455 201.80699 
L 382.254545 199.272153 
L 376.843636 201.493716 
L 371.432727 194.540638 
L 366.021818 191.446314 
L 360.610909 192.423562 
L 355.2 189.48477 
L 349.789091 186.490251 
L 344.378182 181.496669 
L 338.967273 185.675681 
L 333.556364 178.0219 
L 328.145455 179.465538 
L 322.734545 174.520937 
L 317.323636 174.010465 
L 311.912727 169.155449 
L 306.501818 167.871019 
L 301.090909 164.650695 
L 295.68 160.308146 
L 290.269091 157.750957 
L 284.858182 154.718511 
L 279.447273 156.553482 
L 274.036364 149.180597 
L 268.625455 143.009065 
L 263.214545 144.193656 
L 257.803636 137.374438 
L 252.392727 139.284238 
L 246.981818 130.587303 
L 241.570909 130.058916 
L 236.16 128.959288 
L 230.749091 122.370188 
L 225.338182 119.226688 
L 219.927273 113.304921 
L 214.516364 114.702273 
L 209.105455 109.576668 
L 203.694545 103.973108 
L 198.283636 104.86131 
L 192.872727 101.143407 
L 187.461818 94.618299 
L 182.050909 96.760959 
L 176.64 97.473134 
L 171.229091 93.745067 
L 165.818182 89.839441 
L 160.407273 88.109193 
L 154.996364 87.900473 
L 149.585455 83.980489 
L 144.174545 85.020353 
L 138.763636 81.225756 
L 133.352727 83.184965 
L 127.941818 78.494136 
L 122.530909 76.145316 
L 117.12 76.030697 
L 111.709091 72.754528 
L 106.298182 73.158139 
L 100.887273 70.260415 
L 95.476364 69.817719 
L 90.065455 67.003738 
L 84.654545 67.557231 
L 79.243636 66.994577 
L 73.832727 67.169237 
z
" style="fill:#00ffff;fill-opacity:0.2;"/>
   </g>
   <g id="PolyCollection_4">
    <path clip-path="url(#p2df92f0b7c)" d="M 73.832727 119.842166 
L 73.832727 54.198745 
L 79.243636 54.122446 
L 84.654545 54.320649 
L 90.065455 56.609503 
L 95.476364 57.594037 
L 100.887273 58.6846 
L 106.298182 59.417911 
L 111.709091 60.244957 
L 117.12 62.02428 
L 122.530909 62.613399 
L 127.941818 64.805881 
L 133.352727 68.034574 
L 138.763636 69.074603 
L 144.174545 72.929669 
L 149.585455 73.527646 
L 154.996364 76.724353 
L 160.407273 80.84519 
L 165.818182 84.081971 
L 171.229091 87.82241 
L 176.64 90.73696 
L 182.050909 90.21537 
L 187.461818 96.054534 
L 192.872727 99.875722 
L 198.283636 107.051361 
L 203.694545 108.000364 
L 209.105455 107.56914 
L 214.516364 110.909912 
L 219.927273 110.982305 
L 225.338182 114.147568 
L 230.749091 116.695997 
L 236.16 119.310086 
L 241.570909 118.570011 
L 246.981818 123.299601 
L 252.392727 128.341994 
L 257.803636 127.00599 
L 263.214545 128.838606 
L 268.625455 131.678301 
L 274.036364 138.044717 
L 279.447273 140.620958 
L 284.858182 136.711163 
L 290.269091 143.55884 
L 295.68 146.665533 
L 301.090909 144.921782 
L 306.501818 150.724781 
L 311.912727 147.718296 
L 317.323636 159.858782 
L 322.734545 168.316993 
L 328.145455 175.506478 
L 333.556364 177.443777 
L 338.967273 178.503644 
L 344.378182 177.491065 
L 349.789091 177.188925 
L 355.2 174.772114 
L 360.610909 181.109332 
L 366.021818 180.522919 
L 371.432727 177.635799 
L 376.843636 187.743731 
L 382.254545 187.40277 
L 387.665455 199.87768 
L 393.076364 200.495575 
L 398.487273 199.17256 
L 398.487273 266.231477 
L 398.487273 266.231477 
L 393.076364 265.76631 
L 387.665455 261.983197 
L 382.254545 252.214046 
L 376.843636 251.830991 
L 371.432727 245.847373 
L 366.021818 246.645662 
L 360.610909 246.862907 
L 355.2 244.356014 
L 349.789091 243.492813 
L 344.378182 240.881305 
L 338.967273 243.099326 
L 333.556364 244.352245 
L 328.145455 238.75422 
L 322.734545 230.25616 
L 317.323636 224.43964 
L 311.912727 214.145433 
L 306.501818 216.143789 
L 301.090909 211.915817 
L 295.68 213.927148 
L 290.269091 210.22476 
L 284.858182 204.070205 
L 279.447273 206.578548 
L 274.036364 204.313969 
L 268.625455 197.509777 
L 263.214545 197.119356 
L 257.803636 192.735596 
L 252.392727 196.44556 
L 246.981818 189.751445 
L 241.570909 183.443678 
L 236.16 184.704281 
L 230.749091 183.074126 
L 225.338182 180.639486 
L 219.927273 177.91061 
L 214.516364 179.405009 
L 209.105455 172.782064 
L 203.694545 172.540505 
L 198.283636 173.465316 
L 192.872727 166.026084 
L 187.461818 160.437068 
L 182.050909 152.84193 
L 176.64 157.022297 
L 171.229091 149.46268 
L 165.818182 146.625313 
L 160.407273 146.48102 
L 154.996364 142.150624 
L 149.585455 137.180596 
L 144.174545 138.101294 
L 138.763636 132.917261 
L 133.352727 133.636021 
L 127.941818 127.048084 
L 122.530909 126.47542 
L 117.12 126.77859 
L 111.709091 124.53817 
L 106.298182 123.829992 
L 100.887273 123.183875 
L 95.476364 121.968457 
L 90.065455 121.680007 
L 84.654545 119.934119 
L 79.243636 119.77283 
L 73.832727 119.842166 
z
" style="fill:#0000ff;fill-opacity:0.2;"/>
   </g>
   <g id="PolyCollection_5">
    <path clip-path="url(#p2df92f0b7c)" d="M 73.832727 65.156036 
L 73.832727 60.556033 
L 79.243636 60.592846 
L 84.654545 60.687989 
L 90.065455 60.8686 
L 95.476364 60.8996 
L 100.887273 61.083141 
L 106.298182 61.567623 
L 111.709091 61.874975 
L 117.12 62.313973 
L 122.530909 62.774724 
L 127.941818 63.400286 
L 133.352727 64.202101 
L 138.763636 65.068109 
L 144.174545 65.637117 
L 149.585455 66.856467 
L 154.996364 68.081937 
L 160.407273 68.773941 
L 165.818182 69.744389 
L 171.229091 70.703062 
L 176.64 71.839259 
L 182.050909 72.384918 
L 187.461818 73.61447 
L 192.872727 73.813891 
L 198.283636 74.850188 
L 203.694545 75.2682 
L 209.105455 75.378562 
L 214.516364 75.798488 
L 219.927273 76.419114 
L 225.338182 77.3323 
L 230.749091 77.177027 
L 236.16 77.458718 
L 241.570909 77.203468 
L 246.981818 76.971203 
L 252.392727 77.696365 
L 257.803636 77.608723 
L 263.214545 77.591258 
L 268.625455 77.792112 
L 274.036364 78.21034 
L 279.447273 79.71902 
L 284.858182 79.03582 
L 290.269091 81.334385 
L 295.68 80.454624 
L 301.090909 81.505224 
L 306.501818 81.473884 
L 311.912727 83.257758 
L 317.323636 83.346279 
L 322.734545 85.882672 
L 328.145455 85.821792 
L 333.556364 87.091476 
L 338.967273 87.565744 
L 344.378182 88.414996 
L 349.789091 88.220605 
L 355.2 91.251808 
L 360.610909 93.310987 
L 366.021818 92.75632 
L 371.432727 94.734123 
L 376.843636 94.744908 
L 382.254545 99.003722 
L 387.665455 96.118525 
L 393.076364 97.158316 
L 398.487273 98.346141 
L 398.487273 131.517327 
L 398.487273 131.517327 
L 393.076364 126.98326 
L 387.665455 126.742326 
L 382.254545 130.113181 
L 376.843636 121.604425 
L 371.432727 125.416741 
L 366.021818 118.556722 
L 360.610909 119.908869 
L 355.2 115.24122 
L 349.789091 111.744938 
L 344.378182 115.451748 
L 338.967273 111.337286 
L 333.556364 111.500928 
L 328.145455 108.80264 
L 322.734545 107.66812 
L 317.323636 105.145482 
L 311.912727 105.590109 
L 306.501818 100.474908 
L 301.090909 97.609718 
L 295.68 96.14822 
L 290.269091 96.163563 
L 284.858182 92.205109 
L 279.447273 92.466365 
L 274.036364 92.318861 
L 268.625455 90.104515 
L 263.214545 92.388785 
L 257.803636 88.562046 
L 252.392727 89.60901 
L 246.981818 85.160954 
L 241.570909 86.235542 
L 236.16 86.613154 
L 230.749091 85.872008 
L 225.338182 85.143868 
L 219.927273 82.321809 
L 214.516364 80.742899 
L 209.105455 79.677435 
L 203.694545 79.235736 
L 198.283636 78.508015 
L 192.872727 77.361226 
L 187.461818 77.321146 
L 182.050909 76.048762 
L 176.64 75.209186 
L 171.229091 74.505824 
L 165.818182 73.76767 
L 160.407273 73.409009 
L 154.996364 72.754487 
L 149.585455 71.366737 
L 144.174545 70.558313 
L 138.763636 69.531134 
L 133.352727 68.547421 
L 127.941818 67.755951 
L 122.530909 67.271584 
L 117.12 66.760784 
L 111.709091 66.369513 
L 106.298182 66.241409 
L 100.887273 65.776596 
L 95.476364 65.680962 
L 90.065455 65.240218 
L 84.654545 65.513242 
L 79.243636 65.14777 
L 73.832727 65.156036 
z
" style="fill:#008000;fill-opacity:0.2;"/>
   </g>
   <g id="PolyCollection_6">
    <path clip-path="url(#p2df92f0b7c)" d="M 73.832727 64.026757 
L 73.832727 61.015194 
L 79.243636 61.13971 
L 84.654545 61.527139 
L 90.065455 61.61646 
L 95.476364 61.788486 
L 100.887273 61.914017 
L 106.298182 62.072921 
L 111.709091 62.476948 
L 117.12 63.238883 
L 122.530909 63.792487 
L 127.941818 64.185705 
L 133.352727 65.060093 
L 138.763636 65.276832 
L 144.174545 65.419078 
L 149.585455 66.336954 
L 154.996364 66.450848 
L 160.407273 66.86804 
L 165.818182 67.394533 
L 171.229091 68.219567 
L 176.64 69.243209 
L 182.050909 69.865264 
L 187.461818 70.468632 
L 192.872727 71.011914 
L 198.283636 71.481058 
L 203.694545 72.067648 
L 209.105455 72.670328 
L 214.516364 73.253861 
L 219.927273 73.473711 
L 225.338182 74.284804 
L 230.749091 75.116581 
L 236.16 75.416645 
L 241.570909 76.315655 
L 246.981818 77.07294 
L 252.392727 77.616409 
L 257.803636 78.402643 
L 263.214545 79.134684 
L 268.625455 79.493651 
L 274.036364 79.802391 
L 279.447273 79.468139 
L 284.858182 80.03513 
L 290.269091 80.337776 
L 295.68 81.090969 
L 301.090909 81.156336 
L 306.501818 81.53906 
L 311.912727 82.196475 
L 317.323636 81.303325 
L 322.734545 83.087308 
L 328.145455 85.198467 
L 333.556364 85.722915 
L 338.967273 86.202659 
L 344.378182 86.776071 
L 349.789091 88.645672 
L 355.2 89.846352 
L 360.610909 91.170792 
L 366.021818 92.258742 
L 371.432727 92.761689 
L 376.843636 96.621165 
L 382.254545 95.740272 
L 387.665455 96.986284 
L 393.076364 98.950001 
L 398.487273 99.5295 
L 398.487273 120.012208 
L 398.487273 120.012208 
L 393.076364 118.965038 
L 387.665455 116.370982 
L 382.254545 112.034448 
L 376.843636 115.185394 
L 371.432727 108.474417 
L 366.021818 113.649807 
L 360.610909 104.721301 
L 355.2 104.771307 
L 349.789091 103.923408 
L 344.378182 98.548473 
L 338.967273 100.990959 
L 333.556364 101.498766 
L 328.145455 98.339256 
L 322.734545 94.321129 
L 317.323636 93.477378 
L 311.912727 92.956301 
L 306.501818 91.868989 
L 301.090909 92.029146 
L 295.68 90.258341 
L 290.269091 88.273967 
L 284.858182 89.963782 
L 279.447273 87.745306 
L 274.036364 84.472694 
L 268.625455 85.42736 
L 263.214545 84.897513 
L 257.803636 82.562009 
L 252.392727 81.077098 
L 246.981818 79.953738 
L 241.570909 78.777114 
L 236.16 77.538036 
L 230.749091 77.461188 
L 225.338182 76.474211 
L 219.927273 76.095541 
L 214.516364 75.937028 
L 209.105455 75.40918 
L 203.694545 75.125949 
L 198.283636 74.71341 
L 192.872727 74.340673 
L 187.461818 74.133518 
L 182.050909 73.34633 
L 176.64 72.75927 
L 171.229091 71.742558 
L 165.818182 70.495789 
L 160.407273 69.534957 
L 154.996364 69.192038 
L 149.585455 68.904344 
L 144.174545 67.74316 
L 138.763636 66.666613 
L 133.352727 66.854805 
L 127.941818 66.181872 
L 122.530909 65.461775 
L 117.12 65.308973 
L 111.709091 64.585519 
L 106.298182 64.586991 
L 100.887273 64.507361 
L 95.476364 64.538543 
L 90.065455 64.365108 
L 84.654545 64.443301 
L 79.243636 64.117066 
L 73.832727 64.026757 
z
" style="fill:#800080;fill-opacity:0.2;"/>
   </g>
   <g id="matplotlib.axis_1">
    <g id="xtick_1">
     <g id="line2d_1">
      <path clip-path="url(#p2df92f0b7c)" d="M 73.832727 307.584 
L 73.832727 41.472 
" style="fill:none;stroke:#b0b0b0;stroke-dasharray:2.96,1.28;stroke-dashoffset:0;stroke-width:0.8;"/>
     </g>
     <g id="line2d_2">
      <defs>
       <path d="M 0 0 
L 0 3.5 
" id="m0287eb64d1" style="stroke:#000000;stroke-width:0.8;"/>
      </defs>
      <g>
       <use style="stroke:#000000;stroke-width:0.8;" x="73.832727" xlink:href="#m0287eb64d1" y="307.584"/>
      </g>
     </g>
     <g id="text_1">
      <!-- 0.16 -->
      <defs>
       <path d="M 31.78125 66.40625 
Q 24.171875 66.40625 20.328125 58.90625 
Q 16.5 51.421875 16.5 36.375 
Q 16.5 21.390625 20.328125 13.890625 
Q 24.171875 6.390625 31.78125 6.390625 
Q 39.453125 6.390625 43.28125 13.890625 
Q 47.125 21.390625 47.125 36.375 
Q 47.125 51.421875 43.28125 58.90625 
Q 39.453125 66.40625 31.78125 66.40625 
z
M 31.78125 74.21875 
Q 44.046875 74.21875 50.515625 64.515625 
Q 56.984375 54.828125 56.984375 36.375 
Q 56.984375 17.96875 50.515625 8.265625 
Q 44.046875 -1.421875 31.78125 -1.421875 
Q 19.53125 -1.421875 13.0625 8.265625 
Q 6.59375 17.96875 6.59375 36.375 
Q 6.59375 54.828125 13.0625 64.515625 
Q 19.53125 74.21875 31.78125 74.21875 
z
" id="DejaVuSans-30"/>
       <path d="M 10.6875 12.40625 
L 21 12.40625 
L 21 0 
L 10.6875 0 
z
" id="DejaVuSans-2e"/>
       <path d="M 12.40625 8.296875 
L 28.515625 8.296875 
L 28.515625 63.921875 
L 10.984375 60.40625 
L 10.984375 69.390625 
L 28.421875 72.90625 
L 38.28125 72.90625 
L 38.28125 8.296875 
L 54.390625 8.296875 
L 54.390625 0 
L 12.40625 0 
z
" id="DejaVuSans-31"/>
       <path d="M 33.015625 40.375 
Q 26.375 40.375 22.484375 35.828125 
Q 18.609375 31.296875 18.609375 23.390625 
Q 18.609375 15.53125 22.484375 10.953125 
Q 26.375 6.390625 33.015625 6.390625 
Q 39.65625 6.390625 43.53125 10.953125 
Q 47.40625 15.53125 47.40625 23.390625 
Q 47.40625 31.296875 43.53125 35.828125 
Q 39.65625 40.375 33.015625 40.375 
z
M 52.59375 71.296875 
L 52.59375 62.3125 
Q 48.875 64.0625 45.09375 64.984375 
Q 41.3125 65.921875 37.59375 65.921875 
Q 27.828125 65.921875 22.671875 59.328125 
Q 17.53125 52.734375 16.796875 39.40625 
Q 19.671875 43.65625 24.015625 45.921875 
Q 28.375 48.1875 33.59375 48.1875 
Q 44.578125 48.1875 50.953125 41.515625 
Q 57.328125 34.859375 57.328125 23.390625 
Q 57.328125 12.15625 50.6875 5.359375 
Q 44.046875 -1.421875 33.015625 -1.421875 
Q 20.359375 -1.421875 13.671875 8.265625 
Q 6.984375 17.96875 6.984375 36.375 
Q 6.984375 53.65625 15.1875 63.9375 
Q 23.390625 74.21875 37.203125 74.21875 
Q 40.921875 74.21875 44.703125 73.484375 
Q 48.484375 72.75 52.59375 71.296875 
z
" id="DejaVuSans-36"/>
      </defs>
      <g transform="translate(62.699915 322.182437)scale(0.1 -0.1)">
       <use xlink:href="#DejaVuSans-30"/>
       <use x="63.623047" xlink:href="#DejaVuSans-2e"/>
       <use x="95.410156" xlink:href="#DejaVuSans-31"/>
       <use x="159.033203" xlink:href="#DejaVuSans-36"/>
      </g>
     </g>
    </g>
    <g id="xtick_2">
     <g id="line2d_3">
      <path clip-path="url(#p2df92f0b7c)" d="M 127.941818 307.584 
L 127.941818 41.472 
" style="fill:none;stroke:#b0b0b0;stroke-dasharray:2.96,1.28;stroke-dashoffset:0;stroke-width:0.8;"/>
     </g>
     <g id="line2d_4">
      <g>
       <use style="stroke:#000000;stroke-width:0.8;" x="127.941818" xlink:href="#m0287eb64d1" y="307.584"/>
      </g>
     </g>
     <g id="text_2">
      <!-- 0.18 -->
      <defs>
       <path d="M 31.78125 34.625 
Q 24.75 34.625 20.71875 30.859375 
Q 16.703125 27.09375 16.703125 20.515625 
Q 16.703125 13.921875 20.71875 10.15625 
Q 24.75 6.390625 31.78125 6.390625 
Q 38.8125 6.390625 42.859375 10.171875 
Q 46.921875 13.96875 46.921875 20.515625 
Q 46.921875 27.09375 42.890625 30.859375 
Q 38.875 34.625 31.78125 34.625 
z
M 21.921875 38.8125 
Q 15.578125 40.375 12.03125 44.71875 
Q 8.5 49.078125 8.5 55.328125 
Q 8.5 64.0625 14.71875 69.140625 
Q 20.953125 74.21875 31.78125 74.21875 
Q 42.671875 74.21875 48.875 69.140625 
Q 55.078125 64.0625 55.078125 55.328125 
Q 55.078125 49.078125 51.53125 44.71875 
Q 48 40.375 41.703125 38.8125 
Q 48.828125 37.15625 52.796875 32.3125 
Q 56.78125 27.484375 56.78125 20.515625 
Q 56.78125 9.90625 50.3125 4.234375 
Q 43.84375 -1.421875 31.78125 -1.421875 
Q 19.734375 -1.421875 13.25 4.234375 
Q 6.78125 9.90625 6.78125 20.515625 
Q 6.78125 27.484375 10.78125 32.3125 
Q 14.796875 37.15625 21.921875 38.8125 
z
M 18.3125 54.390625 
Q 18.3125 48.734375 21.84375 45.5625 
Q 25.390625 42.390625 31.78125 42.390625 
Q 38.140625 42.390625 41.71875 45.5625 
Q 45.3125 48.734375 45.3125 54.390625 
Q 45.3125 60.0625 41.71875 63.234375 
Q 38.140625 66.40625 31.78125 66.40625 
Q 25.390625 66.40625 21.84375 63.234375 
Q 18.3125 60.0625 18.3125 54.390625 
z
" id="DejaVuSans-38"/>
      </defs>
      <g transform="translate(116.809006 322.182437)scale(0.1 -0.1)">
       <use xlink:href="#DejaVuSans-30"/>
       <use x="63.623047" xlink:href="#DejaVuSans-2e"/>
       <use x="95.410156" xlink:href="#DejaVuSans-31"/>
       <use x="159.033203" xlink:href="#DejaVuSans-38"/>
      </g>
     </g>
    </g>
    <g id="xtick_3">
     <g id="line2d_5">
      <path clip-path="url(#p2df92f0b7c)" d="M 182.050909 307.584 
L 182.050909 41.472 
" style="fill:none;stroke:#b0b0b0;stroke-dasharray:2.96,1.28;stroke-dashoffset:0;stroke-width:0.8;"/>
     </g>
     <g id="line2d_6">
      <g>
       <use style="stroke:#000000;stroke-width:0.8;" x="182.050909" xlink:href="#m0287eb64d1" y="307.584"/>
      </g>
     </g>
     <g id="text_3">
      <!-- 0.20 -->
      <defs>
       <path d="M 19.1875 8.296875 
L 53.609375 8.296875 
L 53.609375 0 
L 7.328125 0 
L 7.328125 8.296875 
Q 12.9375 14.109375 22.625 23.890625 
Q 32.328125 33.6875 34.8125 36.53125 
Q 39.546875 41.84375 41.421875 45.53125 
Q 43.3125 49.21875 43.3125 52.78125 
Q 43.3125 58.59375 39.234375 62.25 
Q 35.15625 65.921875 28.609375 65.921875 
Q 23.96875 65.921875 18.8125 64.3125 
Q 13.671875 62.703125 7.8125 59.421875 
L 7.8125 69.390625 
Q 13.765625 71.78125 18.9375 73 
Q 24.125 74.21875 28.421875 74.21875 
Q 39.75 74.21875 46.484375 68.546875 
Q 53.21875 62.890625 53.21875 53.421875 
Q 53.21875 48.921875 51.53125 44.890625 
Q 49.859375 40.875 45.40625 35.40625 
Q 44.1875 33.984375 37.640625 27.21875 
Q 31.109375 20.453125 19.1875 8.296875 
z
" id="DejaVuSans-32"/>
      </defs>
      <g transform="translate(170.918097 322.182437)scale(0.1 -0.1)">
       <use xlink:href="#DejaVuSans-30"/>
       <use x="63.623047" xlink:href="#DejaVuSans-2e"/>
       <use x="95.410156" xlink:href="#DejaVuSans-32"/>
       <use x="159.033203" xlink:href="#DejaVuSans-30"/>
      </g>
     </g>
    </g>
    <g id="xtick_4">
     <g id="line2d_7">
      <path clip-path="url(#p2df92f0b7c)" d="M 236.16 307.584 
L 236.16 41.472 
" style="fill:none;stroke:#b0b0b0;stroke-dasharray:2.96,1.28;stroke-dashoffset:0;stroke-width:0.8;"/>
     </g>
     <g id="line2d_8">
      <g>
       <use style="stroke:#000000;stroke-width:0.8;" x="236.16" xlink:href="#m0287eb64d1" y="307.584"/>
      </g>
     </g>
     <g id="text_4">
      <!-- 0.22 -->
      <g transform="translate(225.027188 322.182437)scale(0.1 -0.1)">
       <use xlink:href="#DejaVuSans-30"/>
       <use x="63.623047" xlink:href="#DejaVuSans-2e"/>
       <use x="95.410156" xlink:href="#DejaVuSans-32"/>
       <use x="159.033203" xlink:href="#DejaVuSans-32"/>
      </g>
     </g>
    </g>
    <g id="xtick_5">
     <g id="line2d_9">
      <path clip-path="url(#p2df92f0b7c)" d="M 290.269091 307.584 
L 290.269091 41.472 
" style="fill:none;stroke:#b0b0b0;stroke-dasharray:2.96,1.28;stroke-dashoffset:0;stroke-width:0.8;"/>
     </g>
     <g id="line2d_10">
      <g>
       <use style="stroke:#000000;stroke-width:0.8;" x="290.269091" xlink:href="#m0287eb64d1" y="307.584"/>
      </g>
     </g>
     <g id="text_5">
      <!-- 0.24 -->
      <defs>
       <path d="M 37.796875 64.3125 
L 12.890625 25.390625 
L 37.796875 25.390625 
z
M 35.203125 72.90625 
L 47.609375 72.90625 
L 47.609375 25.390625 
L 58.015625 25.390625 
L 58.015625 17.1875 
L 47.609375 17.1875 
L 47.609375 0 
L 37.796875 0 
L 37.796875 17.1875 
L 4.890625 17.1875 
L 4.890625 26.703125 
z
" id="DejaVuSans-34"/>
      </defs>
      <g transform="translate(279.136278 322.182437)scale(0.1 -0.1)">
       <use xlink:href="#DejaVuSans-30"/>
       <use x="63.623047" xlink:href="#DejaVuSans-2e"/>
       <use x="95.410156" xlink:href="#DejaVuSans-32"/>
       <use x="159.033203" xlink:href="#DejaVuSans-34"/>
      </g>
     </g>
    </g>
    <g id="xtick_6">
     <g id="line2d_11">
      <path clip-path="url(#p2df92f0b7c)" d="M 344.378182 307.584 
L 344.378182 41.472 
" style="fill:none;stroke:#b0b0b0;stroke-dasharray:2.96,1.28;stroke-dashoffset:0;stroke-width:0.8;"/>
     </g>
     <g id="line2d_12">
      <g>
       <use style="stroke:#000000;stroke-width:0.8;" x="344.378182" xlink:href="#m0287eb64d1" y="307.584"/>
      </g>
     </g>
     <g id="text_6">
      <!-- 0.26 -->
      <g transform="translate(333.245369 322.182437)scale(0.1 -0.1)">
       <use xlink:href="#DejaVuSans-30"/>
       <use x="63.623047" xlink:href="#DejaVuSans-2e"/>
       <use x="95.410156" xlink:href="#DejaVuSans-32"/>
       <use x="159.033203" xlink:href="#DejaVuSans-36"/>
      </g>
     </g>
    </g>
    <g id="xtick_7">
     <g id="line2d_13">
      <path clip-path="url(#p2df92f0b7c)" d="M 398.487273 307.584 
L 398.487273 41.472 
" style="fill:none;stroke:#b0b0b0;stroke-dasharray:2.96,1.28;stroke-dashoffset:0;stroke-width:0.8;"/>
     </g>
     <g id="line2d_14">
      <g>
       <use style="stroke:#000000;stroke-width:0.8;" x="398.487273" xlink:href="#m0287eb64d1" y="307.584"/>
      </g>
     </g>
     <g id="text_7">
      <!-- 0.28 -->
      <g transform="translate(387.35446 322.182437)scale(0.1 -0.1)">
       <use xlink:href="#DejaVuSans-30"/>
       <use x="63.623047" xlink:href="#DejaVuSans-2e"/>
       <use x="95.410156" xlink:href="#DejaVuSans-32"/>
       <use x="159.033203" xlink:href="#DejaVuSans-38"/>
      </g>
     </g>
    </g>
    <g id="text_8">
     <!-- Car Weight(kg) -->
     <defs>
      <path d="M 64.40625 67.28125 
L 64.40625 56.890625 
Q 59.421875 61.53125 53.78125 63.8125 
Q 48.140625 66.109375 41.796875 66.109375 
Q 29.296875 66.109375 22.65625 58.46875 
Q 16.015625 50.828125 16.015625 36.375 
Q 16.015625 21.96875 22.65625 14.328125 
Q 29.296875 6.6875 41.796875 6.6875 
Q 48.140625 6.6875 53.78125 8.984375 
Q 59.421875 11.28125 64.40625 15.921875 
L 64.40625 5.609375 
Q 59.234375 2.09375 53.4375 0.328125 
Q 47.65625 -1.421875 41.21875 -1.421875 
Q 24.65625 -1.421875 15.125 8.703125 
Q 5.609375 18.84375 5.609375 36.375 
Q 5.609375 53.953125 15.125 64.078125 
Q 24.65625 74.21875 41.21875 74.21875 
Q 47.75 74.21875 53.53125 72.484375 
Q 59.328125 70.75 64.40625 67.28125 
z
" id="DejaVuSans-43"/>
      <path d="M 34.28125 27.484375 
Q 23.390625 27.484375 19.1875 25 
Q 14.984375 22.515625 14.984375 16.5 
Q 14.984375 11.71875 18.140625 8.90625 
Q 21.296875 6.109375 26.703125 6.109375 
Q 34.1875 6.109375 38.703125 11.40625 
Q 43.21875 16.703125 43.21875 25.484375 
L 43.21875 27.484375 
z
M 52.203125 31.203125 
L 52.203125 0 
L 43.21875 0 
L 43.21875 8.296875 
Q 40.140625 3.328125 35.546875 0.953125 
Q 30.953125 -1.421875 24.3125 -1.421875 
Q 15.921875 -1.421875 10.953125 3.296875 
Q 6 8.015625 6 15.921875 
Q 6 25.140625 12.171875 29.828125 
Q 18.359375 34.515625 30.609375 34.515625 
L 43.21875 34.515625 
L 43.21875 35.40625 
Q 43.21875 41.609375 39.140625 45 
Q 35.0625 48.390625 27.6875 48.390625 
Q 23 48.390625 18.546875 47.265625 
Q 14.109375 46.140625 10.015625 43.890625 
L 10.015625 52.203125 
Q 14.9375 54.109375 19.578125 55.046875 
Q 24.21875 56 28.609375 56 
Q 40.484375 56 46.34375 49.84375 
Q 52.203125 43.703125 52.203125 31.203125 
z
" id="DejaVuSans-61"/>
      <path d="M 41.109375 46.296875 
Q 39.59375 47.171875 37.8125 47.578125 
Q 36.03125 48 33.890625 48 
Q 26.265625 48 22.1875 43.046875 
Q 18.109375 38.09375 18.109375 28.8125 
L 18.109375 0 
L 9.078125 0 
L 9.078125 54.6875 
L 18.109375 54.6875 
L 18.109375 46.1875 
Q 20.953125 51.171875 25.484375 53.578125 
Q 30.03125 56 36.53125 56 
Q 37.453125 56 38.578125 55.875 
Q 39.703125 55.765625 41.0625 55.515625 
z
" id="DejaVuSans-72"/>
      <path id="DejaVuSans-20"/>
      <path d="M 3.328125 72.90625 
L 13.28125 72.90625 
L 28.609375 11.28125 
L 43.890625 72.90625 
L 54.984375 72.90625 
L 70.3125 11.28125 
L 85.59375 72.90625 
L 95.609375 72.90625 
L 77.296875 0 
L 64.890625 0 
L 49.515625 63.28125 
L 33.984375 0 
L 21.578125 0 
z
" id="DejaVuSans-57"/>
      <path d="M 56.203125 29.59375 
L 56.203125 25.203125 
L 14.890625 25.203125 
Q 15.484375 15.921875 20.484375 11.0625 
Q 25.484375 6.203125 34.421875 6.203125 
Q 39.59375 6.203125 44.453125 7.46875 
Q 49.3125 8.734375 54.109375 11.28125 
L 54.109375 2.78125 
Q 49.265625 0.734375 44.1875 -0.34375 
Q 39.109375 -1.421875 33.890625 -1.421875 
Q 20.796875 -1.421875 13.15625 6.1875 
Q 5.515625 13.8125 5.515625 26.8125 
Q 5.515625 40.234375 12.765625 48.109375 
Q 20.015625 56 32.328125 56 
Q 43.359375 56 49.78125 48.890625 
Q 56.203125 41.796875 56.203125 29.59375 
z
M 47.21875 32.234375 
Q 47.125 39.59375 43.09375 43.984375 
Q 39.0625 48.390625 32.421875 48.390625 
Q 24.90625 48.390625 20.390625 44.140625 
Q 15.875 39.890625 15.1875 32.171875 
z
" id="DejaVuSans-65"/>
      <path d="M 9.421875 54.6875 
L 18.40625 54.6875 
L 18.40625 0 
L 9.421875 0 
z
M 9.421875 75.984375 
L 18.40625 75.984375 
L 18.40625 64.59375 
L 9.421875 64.59375 
z
" id="DejaVuSans-69"/>
      <path d="M 45.40625 27.984375 
Q 45.40625 37.75 41.375 43.109375 
Q 37.359375 48.484375 30.078125 48.484375 
Q 22.859375 48.484375 18.828125 43.109375 
Q 14.796875 37.75 14.796875 27.984375 
Q 14.796875 18.265625 18.828125 12.890625 
Q 22.859375 7.515625 30.078125 7.515625 
Q 37.359375 7.515625 41.375 12.890625 
Q 45.40625 18.265625 45.40625 27.984375 
z
M 54.390625 6.78125 
Q 54.390625 -7.171875 48.1875 -13.984375 
Q 42 -20.796875 29.203125 -20.796875 
Q 24.46875 -20.796875 20.265625 -20.09375 
Q 16.0625 -19.390625 12.109375 -17.921875 
L 12.109375 -9.1875 
Q 16.0625 -11.328125 19.921875 -12.34375 
Q 23.78125 -13.375 27.78125 -13.375 
Q 36.625 -13.375 41.015625 -8.765625 
Q 45.40625 -4.15625 45.40625 5.171875 
L 45.40625 9.625 
Q 42.625 4.78125 38.28125 2.390625 
Q 33.9375 0 27.875 0 
Q 17.828125 0 11.671875 7.65625 
Q 5.515625 15.328125 5.515625 27.984375 
Q 5.515625 40.671875 11.671875 48.328125 
Q 17.828125 56 27.875 56 
Q 33.9375 56 38.28125 53.609375 
Q 42.625 51.21875 45.40625 46.390625 
L 45.40625 54.6875 
L 54.390625 54.6875 
z
" id="DejaVuSans-67"/>
      <path d="M 54.890625 33.015625 
L 54.890625 0 
L 45.90625 0 
L 45.90625 32.71875 
Q 45.90625 40.484375 42.875 44.328125 
Q 39.84375 48.1875 33.796875 48.1875 
Q 26.515625 48.1875 22.3125 43.546875 
Q 18.109375 38.921875 18.109375 30.90625 
L 18.109375 0 
L 9.078125 0 
L 9.078125 75.984375 
L 18.109375 75.984375 
L 18.109375 46.1875 
Q 21.34375 51.125 25.703125 53.5625 
Q 30.078125 56 35.796875 56 
Q 45.21875 56 50.046875 50.171875 
Q 54.890625 44.34375 54.890625 33.015625 
z
" id="DejaVuSans-68"/>
      <path d="M 18.3125 70.21875 
L 18.3125 54.6875 
L 36.8125 54.6875 
L 36.8125 47.703125 
L 18.3125 47.703125 
L 18.3125 18.015625 
Q 18.3125 11.328125 20.140625 9.421875 
Q 21.96875 7.515625 27.59375 7.515625 
L 36.8125 7.515625 
L 36.8125 0 
L 27.59375 0 
Q 17.1875 0 13.234375 3.875 
Q 9.28125 7.765625 9.28125 18.015625 
L 9.28125 47.703125 
L 2.6875 47.703125 
L 2.6875 54.6875 
L 9.28125 54.6875 
L 9.28125 70.21875 
z
" id="DejaVuSans-74"/>
      <path d="M 31 75.875 
Q 24.46875 64.65625 21.28125 53.65625 
Q 18.109375 42.671875 18.109375 31.390625 
Q 18.109375 20.125 21.3125 9.0625 
Q 24.515625 -2 31 -13.1875 
L 23.1875 -13.1875 
Q 15.875 -1.703125 12.234375 9.375 
Q 8.59375 20.453125 8.59375 31.390625 
Q 8.59375 42.28125 12.203125 53.3125 
Q 15.828125 64.359375 23.1875 75.875 
z
" id="DejaVuSans-28"/>
      <path d="M 9.078125 75.984375 
L 18.109375 75.984375 
L 18.109375 31.109375 
L 44.921875 54.6875 
L 56.390625 54.6875 
L 27.390625 29.109375 
L 57.625 0 
L 45.90625 0 
L 18.109375 26.703125 
L 18.109375 0 
L 9.078125 0 
z
" id="DejaVuSans-6b"/>
      <path d="M 8.015625 75.875 
L 15.828125 75.875 
Q 23.140625 64.359375 26.78125 53.3125 
Q 30.421875 42.28125 30.421875 31.390625 
Q 30.421875 20.453125 26.78125 9.375 
Q 23.140625 -1.703125 15.828125 -13.1875 
L 8.015625 -13.1875 
Q 14.5 -2 17.703125 9.0625 
Q 20.90625 20.125 20.90625 31.390625 
Q 20.90625 42.671875 17.703125 53.65625 
Q 14.5 64.65625 8.015625 75.875 
z
" id="DejaVuSans-29"/>
     </defs>
     <g transform="translate(198.280312 335.860562)scale(0.1 -0.1)">
      <use xlink:href="#DejaVuSans-43"/>
      <use x="69.824219" xlink:href="#DejaVuSans-61"/>
      <use x="131.103516" xlink:href="#DejaVuSans-72"/>
      <use x="172.216797" xlink:href="#DejaVuSans-20"/>
      <use x="204.003906" xlink:href="#DejaVuSans-57"/>
      <use x="302.802734" xlink:href="#DejaVuSans-65"/>
      <use x="364.326172" xlink:href="#DejaVuSans-69"/>
      <use x="392.109375" xlink:href="#DejaVuSans-67"/>
      <use x="455.585938" xlink:href="#DejaVuSans-68"/>
      <use x="518.964844" xlink:href="#DejaVuSans-74"/>
      <use x="558.173828" xlink:href="#DejaVuSans-28"/>
      <use x="597.1875" xlink:href="#DejaVuSans-6b"/>
      <use x="655.097656" xlink:href="#DejaVuSans-67"/>
      <use x="718.574219" xlink:href="#DejaVuSans-29"/>
     </g>
    </g>
   </g>
   <g id="matplotlib.axis_2">
    <g id="ytick_1">
     <g id="line2d_15">
      <path clip-path="url(#p2df92f0b7c)" d="M 57.6 283.392 
L 414.72 283.392 
" style="fill:none;stroke:#b0b0b0;stroke-dasharray:2.96,1.28;stroke-dashoffset:0;stroke-width:0.8;"/>
     </g>
     <g id="line2d_16">
      <defs>
       <path d="M 0 0 
L -3.5 0 
" id="m458c177c3e" style="stroke:#000000;stroke-width:0.8;"/>
      </defs>
      <g>
       <use style="stroke:#000000;stroke-width:0.8;" x="57.6" xlink:href="#m458c177c3e" y="283.392"/>
      </g>
     </g>
     <g id="text_9">
      <!-- −1000 -->
      <defs>
       <path d="M 10.59375 35.5 
L 73.1875 35.5 
L 73.1875 27.203125 
L 10.59375 27.203125 
z
" id="DejaVuSans-2212"/>
      </defs>
      <g transform="translate(16.770313 287.191219)scale(0.1 -0.1)">
       <use xlink:href="#DejaVuSans-2212"/>
       <use x="83.789062" xlink:href="#DejaVuSans-31"/>
       <use x="147.412109" xlink:href="#DejaVuSans-30"/>
       <use x="211.035156" xlink:href="#DejaVuSans-30"/>
       <use x="274.658203" xlink:href="#DejaVuSans-30"/>
      </g>
     </g>
    </g>
    <g id="ytick_2">
     <g id="line2d_17">
      <path clip-path="url(#p2df92f0b7c)" d="M 57.6 235.008 
L 414.72 235.008 
" style="fill:none;stroke:#b0b0b0;stroke-dasharray:2.96,1.28;stroke-dashoffset:0;stroke-width:0.8;"/>
     </g>
     <g id="line2d_18">
      <g>
       <use style="stroke:#000000;stroke-width:0.8;" x="57.6" xlink:href="#m458c177c3e" y="235.008"/>
      </g>
     </g>
     <g id="text_10">
      <!-- −800 -->
      <g transform="translate(23.132812 238.807219)scale(0.1 -0.1)">
       <use xlink:href="#DejaVuSans-2212"/>
       <use x="83.789062" xlink:href="#DejaVuSans-38"/>
       <use x="147.412109" xlink:href="#DejaVuSans-30"/>
       <use x="211.035156" xlink:href="#DejaVuSans-30"/>
      </g>
     </g>
    </g>
    <g id="ytick_3">
     <g id="line2d_19">
      <path clip-path="url(#p2df92f0b7c)" d="M 57.6 186.624 
L 414.72 186.624 
" style="fill:none;stroke:#b0b0b0;stroke-dasharray:2.96,1.28;stroke-dashoffset:0;stroke-width:0.8;"/>
     </g>
     <g id="line2d_20">
      <g>
       <use style="stroke:#000000;stroke-width:0.8;" x="57.6" xlink:href="#m458c177c3e" y="186.624"/>
      </g>
     </g>
     <g id="text_11">
      <!-- −600 -->
      <g transform="translate(23.132812 190.423219)scale(0.1 -0.1)">
       <use xlink:href="#DejaVuSans-2212"/>
       <use x="83.789062" xlink:href="#DejaVuSans-36"/>
       <use x="147.412109" xlink:href="#DejaVuSans-30"/>
       <use x="211.035156" xlink:href="#DejaVuSans-30"/>
      </g>
     </g>
    </g>
    <g id="ytick_4">
     <g id="line2d_21">
      <path clip-path="url(#p2df92f0b7c)" d="M 57.6 138.24 
L 414.72 138.24 
" style="fill:none;stroke:#b0b0b0;stroke-dasharray:2.96,1.28;stroke-dashoffset:0;stroke-width:0.8;"/>
     </g>
     <g id="line2d_22">
      <g>
       <use style="stroke:#000000;stroke-width:0.8;" x="57.6" xlink:href="#m458c177c3e" y="138.24"/>
      </g>
     </g>
     <g id="text_12">
      <!-- −400 -->
      <g transform="translate(23.132812 142.039219)scale(0.1 -0.1)">
       <use xlink:href="#DejaVuSans-2212"/>
       <use x="83.789062" xlink:href="#DejaVuSans-34"/>
       <use x="147.412109" xlink:href="#DejaVuSans-30"/>
       <use x="211.035156" xlink:href="#DejaVuSans-30"/>
      </g>
     </g>
    </g>
    <g id="ytick_5">
     <g id="line2d_23">
      <path clip-path="url(#p2df92f0b7c)" d="M 57.6 89.856 
L 414.72 89.856 
" style="fill:none;stroke:#b0b0b0;stroke-dasharray:2.96,1.28;stroke-dashoffset:0;stroke-width:0.8;"/>
     </g>
     <g id="line2d_24">
      <g>
       <use style="stroke:#000000;stroke-width:0.8;" x="57.6" xlink:href="#m458c177c3e" y="89.856"/>
      </g>
     </g>
     <g id="text_13">
      <!-- −200 -->
      <g transform="translate(23.132812 93.655219)scale(0.1 -0.1)">
       <use xlink:href="#DejaVuSans-2212"/>
       <use x="83.789062" xlink:href="#DejaVuSans-32"/>
       <use x="147.412109" xlink:href="#DejaVuSans-30"/>
       <use x="211.035156" xlink:href="#DejaVuSans-30"/>
      </g>
     </g>
    </g>
    <g id="ytick_6">
     <g id="line2d_25">
      <path clip-path="url(#p2df92f0b7c)" d="M 57.6 41.472 
L 414.72 41.472 
" style="fill:none;stroke:#b0b0b0;stroke-dasharray:2.96,1.28;stroke-dashoffset:0;stroke-width:0.8;"/>
     </g>
     <g id="line2d_26">
      <g>
       <use style="stroke:#000000;stroke-width:0.8;" x="57.6" xlink:href="#m458c177c3e" y="41.472"/>
      </g>
     </g>
     <g id="text_14">
      <!-- 0 -->
      <g transform="translate(44.2375 45.271219)scale(0.1 -0.1)">
       <use xlink:href="#DejaVuSans-30"/>
      </g>
     </g>
    </g>
    <g id="text_15">
     <!-- Rewards -->
     <defs>
      <path d="M 44.390625 34.1875 
Q 47.5625 33.109375 50.5625 29.59375 
Q 53.5625 26.078125 56.59375 19.921875 
L 66.609375 0 
L 56 0 
L 46.6875 18.703125 
Q 43.0625 26.03125 39.671875 28.421875 
Q 36.28125 30.8125 30.421875 30.8125 
L 19.671875 30.8125 
L 19.671875 0 
L 9.8125 0 
L 9.8125 72.90625 
L 32.078125 72.90625 
Q 44.578125 72.90625 50.734375 67.671875 
Q 56.890625 62.453125 56.890625 51.90625 
Q 56.890625 45.015625 53.6875 40.46875 
Q 50.484375 35.9375 44.390625 34.1875 
z
M 19.671875 64.796875 
L 19.671875 38.921875 
L 32.078125 38.921875 
Q 39.203125 38.921875 42.84375 42.21875 
Q 46.484375 45.515625 46.484375 51.90625 
Q 46.484375 58.296875 42.84375 61.546875 
Q 39.203125 64.796875 32.078125 64.796875 
z
" id="DejaVuSans-52"/>
      <path d="M 4.203125 54.6875 
L 13.1875 54.6875 
L 24.421875 12.015625 
L 35.59375 54.6875 
L 46.1875 54.6875 
L 57.421875 12.015625 
L 68.609375 54.6875 
L 77.59375 54.6875 
L 63.28125 0 
L 52.6875 0 
L 40.921875 44.828125 
L 29.109375 0 
L 18.5 0 
z
" id="DejaVuSans-77"/>
      <path d="M 45.40625 46.390625 
L 45.40625 75.984375 
L 54.390625 75.984375 
L 54.390625 0 
L 45.40625 0 
L 45.40625 8.203125 
Q 42.578125 3.328125 38.25 0.953125 
Q 33.9375 -1.421875 27.875 -1.421875 
Q 17.96875 -1.421875 11.734375 6.484375 
Q 5.515625 14.40625 5.515625 27.296875 
Q 5.515625 40.1875 11.734375 48.09375 
Q 17.96875 56 27.875 56 
Q 33.9375 56 38.25 53.625 
Q 42.578125 51.265625 45.40625 46.390625 
z
M 14.796875 27.296875 
Q 14.796875 17.390625 18.875 11.75 
Q 22.953125 6.109375 30.078125 6.109375 
Q 37.203125 6.109375 41.296875 11.75 
Q 45.40625 17.390625 45.40625 27.296875 
Q 45.40625 37.203125 41.296875 42.84375 
Q 37.203125 48.484375 30.078125 48.484375 
Q 22.953125 48.484375 18.875 42.84375 
Q 14.796875 37.203125 14.796875 27.296875 
z
" id="DejaVuSans-64"/>
      <path d="M 44.28125 53.078125 
L 44.28125 44.578125 
Q 40.484375 46.53125 36.375 47.5 
Q 32.28125 48.484375 27.875 48.484375 
Q 21.1875 48.484375 17.84375 46.4375 
Q 14.5 44.390625 14.5 40.28125 
Q 14.5 37.15625 16.890625 35.375 
Q 19.28125 33.59375 26.515625 31.984375 
L 29.59375 31.296875 
Q 39.15625 29.25 43.1875 25.515625 
Q 47.21875 21.78125 47.21875 15.09375 
Q 47.21875 7.46875 41.1875 3.015625 
Q 35.15625 -1.421875 24.609375 -1.421875 
Q 20.21875 -1.421875 15.453125 -0.5625 
Q 10.6875 0.296875 5.421875 2 
L 5.421875 11.28125 
Q 10.40625 8.6875 15.234375 7.390625 
Q 20.0625 6.109375 24.8125 6.109375 
Q 31.15625 6.109375 34.5625 8.28125 
Q 37.984375 10.453125 37.984375 14.40625 
Q 37.984375 18.0625 35.515625 20.015625 
Q 33.0625 21.96875 24.703125 23.78125 
L 21.578125 24.515625 
Q 13.234375 26.265625 9.515625 29.90625 
Q 5.8125 33.546875 5.8125 39.890625 
Q 5.8125 47.609375 11.28125 51.796875 
Q 16.75 56 26.8125 56 
Q 31.78125 56 36.171875 55.265625 
Q 40.578125 54.546875 44.28125 53.078125 
z
" id="DejaVuSans-73"/>
     </defs>
     <g transform="translate(10.690625 196.062375)rotate(-90)scale(0.1 -0.1)">
      <use xlink:href="#DejaVuSans-52"/>
      <use x="69.419922" xlink:href="#DejaVuSans-65"/>
      <use x="130.943359" xlink:href="#DejaVuSans-77"/>
      <use x="212.730469" xlink:href="#DejaVuSans-61"/>
      <use x="274.009766" xlink:href="#DejaVuSans-72"/>
      <use x="315.107422" xlink:href="#DejaVuSans-64"/>
      <use x="378.583984" xlink:href="#DejaVuSans-73"/>
     </g>
    </g>
   </g>
   <g id="line2d_27">
    <path clip-path="url(#p2df92f0b7c)" d="M 73.832727 62.963205 
L 79.243636 63.815489 
L 84.654545 64.333924 
L 90.065455 64.935821 
L 95.476364 65.754478 
L 100.887273 66.88618 
L 106.298182 67.605408 
L 111.709091 67.983045 
L 117.12 69.931711 
L 122.530909 70.610538 
L 127.941818 71.825702 
L 133.352727 73.247466 
L 138.763636 74.040722 
L 144.174545 75.84738 
L 149.585455 77.047546 
L 154.996364 77.87975 
L 160.407273 78.533176 
L 165.818182 78.69623 
L 171.229091 78.428909 
L 176.64 79.33369 
L 182.050909 80.023404 
L 187.461818 81.761115 
L 192.872727 82.400026 
L 198.283636 83.356335 
L 203.694545 83.646881 
L 209.105455 85.361368 
L 214.516364 87.224636 
L 219.927273 88.1928 
L 225.338182 88.949768 
L 230.749091 91.026409 
L 236.16 90.941253 
L 241.570909 95.799732 
L 246.981818 96.202287 
L 252.392727 97.836215 
L 257.803636 96.834666 
L 263.214545 102.177469 
L 268.625455 105.444115 
L 274.036364 103.590766 
L 279.447273 108.612058 
L 284.858182 113.3474 
L 290.269091 113.704232 
L 295.68 111.278258 
L 301.090909 113.522792 
L 306.501818 117.707282 
L 311.912727 118.362885 
L 317.323636 121.060777 
L 322.734545 119.021149 
L 328.145455 127.099826 
L 333.556364 129.344118 
L 338.967273 127.873244 
L 344.378182 131.791864 
L 349.789091 130.650728 
L 355.2 134.065187 
L 360.610909 135.670084 
L 366.021818 140.871606 
L 371.432727 142.328206 
L 376.843636 143.381768 
L 382.254545 147.852933 
L 387.665455 146.55721 
L 393.076364 146.464312 
L 398.487273 148.999634 
" style="fill:none;stroke:#ff6347;stroke-linecap:square;stroke-width:2;"/>
   </g>
   <g id="line2d_28">
    <path clip-path="url(#p2df92f0b7c)" d="M 73.832727 60.532393 
L 79.243636 61.031716 
L 84.654545 61.650063 
L 90.065455 62.390822 
L 95.476364 63.048603 
L 100.887273 63.718963 
L 106.298182 64.193852 
L 111.709091 65.098633 
L 117.12 66.769091 
L 122.530909 67.665162 
L 127.941818 69.052332 
L 133.352727 70.893585 
L 138.763636 72.142134 
L 144.174545 74.04556 
L 149.585455 74.829139 
L 154.996364 75.629652 
L 160.407273 76.297594 
L 165.818182 77.559206 
L 171.229091 77.77137 
L 176.64 78.411249 
L 182.050909 79.297402 
L 187.461818 80.597722 
L 192.872727 82.786372 
L 198.283636 84.30321 
L 203.694545 85.407575 
L 209.105455 86.606047 
L 214.516364 88.596564 
L 219.927273 93.9384 
L 225.338182 93.145386 
L 230.749091 96.817248 
L 236.16 102.204806 
L 241.570909 104.305156 
L 246.981818 105.975855 
L 252.392727 111.021581 
L 257.803636 112.880494 
L 263.214545 115.817161 
L 268.625455 118.101853 
L 274.036364 120.073743 
L 279.447273 123.592228 
L 284.858182 122.03136 
L 290.269091 130.742415 
L 295.68 137.227323 
L 301.090909 136.342863 
L 306.501818 138.089768 
L 311.912727 138.69239 
L 317.323636 142.126929 
L 322.734545 145.753551 
L 328.145455 153.314035 
L 333.556364 155.020781 
L 338.967273 153.946656 
L 344.378182 154.536457 
L 349.789091 158.184127 
L 355.2 158.784572 
L 360.610909 164.340749 
L 366.021818 168.004627 
L 371.432727 166.876312 
L 376.843636 171.664393 
L 382.254545 177.915606 
L 387.665455 173.736438 
L 393.076364 178.812887 
L 398.487273 175.614705 
" style="fill:none;stroke:#ffd700;stroke-dasharray:7.4,3.2;stroke-dashoffset:0;stroke-width:2;"/>
   </g>
   <g id="line2d_29">
    <path clip-path="url(#p2df92f0b7c)" d="M 73.832727 63.245284 
L 79.243636 63.044732 
L 84.654545 63.452609 
L 90.065455 63.606228 
L 95.476364 65.474335 
L 100.887273 65.867455 
L 106.298182 68.320765 
L 111.709091 68.746545 
L 117.12 70.851974 
L 122.530909 71.768609 
L 127.941818 73.533174 
L 133.352727 76.67015 
L 138.763636 75.980436 
L 144.174545 78.565352 
L 149.585455 79.226519 
L 154.996364 81.521372 
L 160.407273 81.731117 
L 165.818182 83.167396 
L 171.229091 86.112772 
L 176.64 88.7018 
L 182.050909 89.237652 
L 187.461818 88.359483 
L 192.872727 92.576148 
L 198.283636 95.507493 
L 203.694545 95.968351 
L 209.105455 100.634262 
L 214.516364 104.430712 
L 219.927273 104.141618 
L 225.338182 108.838737 
L 230.749091 112.975327 
L 236.16 117.716959 
L 241.570909 117.751311 
L 246.981818 119.600548 
L 252.392727 125.814505 
L 257.803636 125.202931 
L 263.214545 130.271155 
L 268.625455 129.815378 
L 274.036364 135.366474 
L 279.447273 141.021838 
L 284.858182 140.308416 
L 290.269091 142.515452 
L 295.68 144.77934 
L 301.090909 148.531519 
L 306.501818 151.306099 
L 311.912727 152.403448 
L 317.323636 156.561327 
L 322.734545 156.364404 
L 328.145455 161.873649 
L 333.556364 160.987012 
L 338.967273 166.897117 
L 344.378182 164.094474 
L 349.789091 168.36654 
L 355.2 171.025724 
L 360.610909 173.049385 
L 366.021818 173.144701 
L 371.432727 175.847674 
L 376.843636 180.649302 
L 382.254545 178.996746 
L 387.665455 183.866596 
L 393.076364 181.078468 
L 398.487273 183.771037 
" style="fill:none;stroke:#00ffff;stroke-dasharray:2,3.3;stroke-dashoffset:0;stroke-width:2;"/>
   </g>
   <g id="line2d_30">
    <path clip-path="url(#p2df92f0b7c)" d="M 73.832727 87.020456 
L 79.243636 86.947638 
L 84.654545 87.127384 
L 90.065455 89.144755 
L 95.476364 89.781247 
L 100.887273 90.934237 
L 106.298182 91.623951 
L 111.709091 92.391564 
L 117.12 94.401435 
L 122.530909 94.54441 
L 127.941818 95.926982 
L 133.352727 100.835297 
L 138.763636 100.995932 
L 144.174545 105.515482 
L 149.585455 105.354121 
L 154.996364 109.437489 
L 160.407273 113.663105 
L 165.818182 115.353642 
L 171.229091 118.642545 
L 176.64 123.879629 
L 182.050909 121.52865 
L 187.461818 128.245801 
L 192.872727 132.950903 
L 198.283636 140.258339 
L 203.694545 140.270435 
L 209.105455 140.175602 
L 214.516364 145.15746 
L 219.927273 144.446458 
L 225.338182 147.393527 
L 230.749091 149.885061 
L 236.16 152.007183 
L 241.570909 151.006844 
L 246.981818 156.525523 
L 252.392727 162.393777 
L 257.803636 159.870793 
L 263.214545 162.978981 
L 268.625455 164.594039 
L 274.036364 171.179343 
L 279.447273 173.599753 
L 284.858182 170.390684 
L 290.269091 176.8918 
L 295.68 180.29634 
L 301.090909 178.418799 
L 306.501818 183.434285 
L 311.912727 180.931864 
L 317.323636 192.149211 
L 322.734545 199.286577 
L 328.145455 207.130349 
L 333.556364 210.898011 
L 338.967273 210.801485 
L 344.378182 209.186185 
L 349.789091 210.340869 
L 355.2 209.564064 
L 360.610909 213.98612 
L 366.021818 213.584291 
L 371.432727 211.741586 
L 376.843636 219.787361 
L 382.254545 219.808408 
L 387.665455 230.930438 
L 393.076364 233.130943 
L 398.487273 232.702019 
" style="fill:none;stroke:#0000ff;stroke-dasharray:12.8,3.2,2,3.2;stroke-dashoffset:0;stroke-width:2;"/>
   </g>
   <g id="line2d_31">
    <path clip-path="url(#p2df92f0b7c)" d="M 73.832727 62.856035 
L 79.243636 62.870308 
L 84.654545 63.100616 
L 90.065455 63.054409 
L 95.476364 63.290281 
L 100.887273 63.429869 
L 106.298182 63.904516 
L 111.709091 64.122244 
L 117.12 64.537379 
L 122.530909 65.023154 
L 127.941818 65.578118 
L 133.352727 66.374761 
L 138.763636 67.299621 
L 144.174545 68.097715 
L 149.585455 69.111602 
L 154.996364 70.418212 
L 160.407273 71.091475 
L 165.818182 71.756029 
L 171.229091 72.604443 
L 176.64 73.524223 
L 182.050909 74.21684 
L 187.461818 75.467808 
L 192.872727 75.587558 
L 198.283636 76.679101 
L 203.694545 77.251968 
L 209.105455 77.527999 
L 214.516364 78.270693 
L 219.927273 79.370461 
L 225.338182 81.238084 
L 230.749091 81.524517 
L 236.16 82.035936 
L 241.570909 81.719505 
L 246.981818 81.066079 
L 252.392727 83.652687 
L 257.803636 83.085385 
L 263.214545 84.990021 
L 268.625455 83.948314 
L 274.036364 85.2646 
L 279.447273 86.092692 
L 284.858182 85.620465 
L 290.269091 88.748974 
L 295.68 88.301422 
L 301.090909 89.557471 
L 306.501818 90.974396 
L 311.912727 94.423933 
L 317.323636 94.24588 
L 322.734545 96.775396 
L 328.145455 97.312216 
L 333.556364 99.296202 
L 338.967273 99.451515 
L 344.378182 101.933372 
L 349.789091 99.982771 
L 355.2 103.246514 
L 360.610909 106.609928 
L 366.021818 105.656521 
L 371.432727 110.075432 
L 376.843636 108.174666 
L 382.254545 114.558451 
L 387.665455 111.430426 
L 393.076364 112.070788 
L 398.487273 114.931734 
" style="fill:none;stroke:#008000;stroke-dasharray:12.8,3.2,2,3.2;stroke-dashoffset:0;stroke-width:2;"/>
   </g>
   <g id="line2d_32">
    <path clip-path="url(#p2df92f0b7c)" d="M 73.832727 62.520975 
L 79.243636 62.628388 
L 84.654545 62.98522 
L 90.065455 62.990784 
L 95.476364 63.163515 
L 100.887273 63.210689 
L 106.298182 63.329956 
L 111.709091 63.531233 
L 117.12 64.273928 
L 122.530909 64.627131 
L 127.941818 65.183789 
L 133.352727 65.957449 
L 138.763636 65.971722 
L 144.174545 66.581119 
L 149.585455 67.620649 
L 154.996364 67.821443 
L 160.407273 68.201499 
L 165.818182 68.945161 
L 171.229091 69.981062 
L 176.64 71.001239 
L 182.050909 71.605797 
L 187.461818 72.301075 
L 192.872727 72.676293 
L 198.283636 73.097234 
L 203.694545 73.596799 
L 209.105455 74.039754 
L 214.516364 74.595444 
L 219.927273 74.784626 
L 225.338182 75.379507 
L 230.749091 76.288884 
L 236.16 76.47734 
L 241.570909 77.546385 
L 246.981818 78.513339 
L 252.392727 79.346753 
L 257.803636 80.482326 
L 263.214545 82.016099 
L 268.625455 82.460506 
L 274.036364 82.137542 
L 279.447273 83.606723 
L 284.858182 84.999456 
L 290.269091 84.305871 
L 295.68 85.674655 
L 301.090909 86.592741 
L 306.501818 86.704024 
L 311.912727 87.576388 
L 317.323636 87.390351 
L 322.734545 88.704219 
L 328.145455 91.768861 
L 333.556364 93.61084 
L 338.967273 93.596809 
L 344.378182 92.662272 
L 349.789091 96.28454 
L 355.2 97.308829 
L 360.610909 97.946047 
L 366.021818 102.954275 
L 371.432727 100.618053 
L 376.843636 105.903279 
L 382.254545 103.88736 
L 387.665455 106.678633 
L 393.076364 108.957519 
L 398.487273 109.770854 
" style="fill:none;stroke:#800080;stroke-dasharray:12.8,3.2,2,3.2;stroke-dashoffset:0;stroke-width:2;"/>
   </g>
   <g id="patch_3">
    <path d="M 57.6 307.584 
L 57.6 41.472 
" style="fill:none;stroke:#000000;stroke-linecap:square;stroke-linejoin:miter;stroke-width:0.8;"/>
   </g>
   <g id="patch_4">
    <path d="M 414.72 307.584 
L 414.72 41.472 
" style="fill:none;stroke:#000000;stroke-linecap:square;stroke-linejoin:miter;stroke-width:0.8;"/>
   </g>
   <g id="patch_5">
    <path d="M 57.6 307.584 
L 414.72 307.584 
" style="fill:none;stroke:#000000;stroke-linecap:square;stroke-linejoin:miter;stroke-width:0.8;"/>
   </g>
   <g id="patch_6">
    <path d="M 57.6 41.472 
L 414.72 41.472 
" style="fill:none;stroke:#000000;stroke-linecap:square;stroke-linejoin:miter;stroke-width:0.8;"/>
   </g>
   <g id="text_16">
    <!-- Mountain Car (100000 steps) -->
    <defs>
     <path d="M 9.8125 72.90625 
L 24.515625 72.90625 
L 43.109375 23.296875 
L 61.8125 72.90625 
L 76.515625 72.90625 
L 76.515625 0 
L 66.890625 0 
L 66.890625 64.015625 
L 48.09375 14.015625 
L 38.1875 14.015625 
L 19.390625 64.015625 
L 19.390625 0 
L 9.8125 0 
z
" id="DejaVuSans-4d"/>
     <path d="M 30.609375 48.390625 
Q 23.390625 48.390625 19.1875 42.75 
Q 14.984375 37.109375 14.984375 27.296875 
Q 14.984375 17.484375 19.15625 11.84375 
Q 23.34375 6.203125 30.609375 6.203125 
Q 37.796875 6.203125 41.984375 11.859375 
Q 46.1875 17.53125 46.1875 27.296875 
Q 46.1875 37.015625 41.984375 42.703125 
Q 37.796875 48.390625 30.609375 48.390625 
z
M 30.609375 56 
Q 42.328125 56 49.015625 48.375 
Q 55.71875 40.765625 55.71875 27.296875 
Q 55.71875 13.875 49.015625 6.21875 
Q 42.328125 -1.421875 30.609375 -1.421875 
Q 18.84375 -1.421875 12.171875 6.21875 
Q 5.515625 13.875 5.515625 27.296875 
Q 5.515625 40.765625 12.171875 48.375 
Q 18.84375 56 30.609375 56 
z
" id="DejaVuSans-6f"/>
     <path d="M 8.5 21.578125 
L 8.5 54.6875 
L 17.484375 54.6875 
L 17.484375 21.921875 
Q 17.484375 14.15625 20.5 10.265625 
Q 23.53125 6.390625 29.59375 6.390625 
Q 36.859375 6.390625 41.078125 11.03125 
Q 45.3125 15.671875 45.3125 23.6875 
L 45.3125 54.6875 
L 54.296875 54.6875 
L 54.296875 0 
L 45.3125 0 
L 45.3125 8.40625 
Q 42.046875 3.421875 37.71875 1 
Q 33.40625 -1.421875 27.6875 -1.421875 
Q 18.265625 -1.421875 13.375 4.4375 
Q 8.5 10.296875 8.5 21.578125 
z
M 31.109375 56 
z
" id="DejaVuSans-75"/>
     <path d="M 54.890625 33.015625 
L 54.890625 0 
L 45.90625 0 
L 45.90625 32.71875 
Q 45.90625 40.484375 42.875 44.328125 
Q 39.84375 48.1875 33.796875 48.1875 
Q 26.515625 48.1875 22.3125 43.546875 
Q 18.109375 38.921875 18.109375 30.90625 
L 18.109375 0 
L 9.078125 0 
L 9.078125 54.6875 
L 18.109375 54.6875 
L 18.109375 46.1875 
Q 21.34375 51.125 25.703125 53.5625 
Q 30.078125 56 35.796875 56 
Q 45.21875 56 50.046875 50.171875 
Q 54.890625 44.34375 54.890625 33.015625 
z
" id="DejaVuSans-6e"/>
     <path d="M 18.109375 8.203125 
L 18.109375 -20.796875 
L 9.078125 -20.796875 
L 9.078125 54.6875 
L 18.109375 54.6875 
L 18.109375 46.390625 
Q 20.953125 51.265625 25.265625 53.625 
Q 29.59375 56 35.59375 56 
Q 45.5625 56 51.78125 48.09375 
Q 58.015625 40.1875 58.015625 27.296875 
Q 58.015625 14.40625 51.78125 6.484375 
Q 45.5625 -1.421875 35.59375 -1.421875 
Q 29.59375 -1.421875 25.265625 0.953125 
Q 20.953125 3.328125 18.109375 8.203125 
z
M 48.6875 27.296875 
Q 48.6875 37.203125 44.609375 42.84375 
Q 40.53125 48.484375 33.40625 48.484375 
Q 26.265625 48.484375 22.1875 42.84375 
Q 18.109375 37.203125 18.109375 27.296875 
Q 18.109375 17.390625 22.1875 11.75 
Q 26.265625 6.109375 33.40625 6.109375 
Q 40.53125 6.109375 44.609375 11.75 
Q 48.6875 17.390625 48.6875 27.296875 
z
" id="DejaVuSans-70"/>
    </defs>
    <g transform="translate(148.463437 35.472)scale(0.12 -0.12)">
     <use xlink:href="#DejaVuSans-4d"/>
     <use x="86.279297" xlink:href="#DejaVuSans-6f"/>
     <use x="147.460938" xlink:href="#DejaVuSans-75"/>
     <use x="210.839844" xlink:href="#DejaVuSans-6e"/>
     <use x="274.21875" xlink:href="#DejaVuSans-74"/>
     <use x="313.427734" xlink:href="#DejaVuSans-61"/>
     <use x="374.707031" xlink:href="#DejaVuSans-69"/>
     <use x="402.490234" xlink:href="#DejaVuSans-6e"/>
     <use x="465.869141" xlink:href="#DejaVuSans-20"/>
     <use x="497.65625" xlink:href="#DejaVuSans-43"/>
     <use x="567.480469" xlink:href="#DejaVuSans-61"/>
     <use x="628.759766" xlink:href="#DejaVuSans-72"/>
     <use x="669.873047" xlink:href="#DejaVuSans-20"/>
     <use x="701.660156" xlink:href="#DejaVuSans-28"/>
     <use x="740.673828" xlink:href="#DejaVuSans-31"/>
     <use x="804.296875" xlink:href="#DejaVuSans-30"/>
     <use x="867.919922" xlink:href="#DejaVuSans-30"/>
     <use x="931.542969" xlink:href="#DejaVuSans-30"/>
     <use x="995.166016" xlink:href="#DejaVuSans-30"/>
     <use x="1058.789062" xlink:href="#DejaVuSans-30"/>
     <use x="1122.412109" xlink:href="#DejaVuSans-20"/>
     <use x="1154.199219" xlink:href="#DejaVuSans-73"/>
     <use x="1206.298828" xlink:href="#DejaVuSans-74"/>
     <use x="1245.507812" xlink:href="#DejaVuSans-65"/>
     <use x="1307.03125" xlink:href="#DejaVuSans-70"/>
     <use x="1370.507812" xlink:href="#DejaVuSans-73"/>
     <use x="1422.607422" xlink:href="#DejaVuSans-29"/>
    </g>
   </g>
   <g id="legend_1">
    <g id="patch_7">
     <path d="M 64.6 302.584 
L 186.764062 302.584 
Q 188.764062 302.584 188.764062 300.584 
L 188.764062 213.51525 
Q 188.764062 211.51525 186.764062 211.51525 
L 64.6 211.51525 
Q 62.6 211.51525 62.6 213.51525 
L 62.6 300.584 
Q 62.6 302.584 64.6 302.584 
z
" style="fill:#ffffff;opacity:0.8;stroke:#cccccc;stroke-linejoin:miter;"/>
    </g>
    <g id="line2d_33">
     <path d="M 66.6 219.613687 
L 86.6 219.613687 
" style="fill:none;stroke:#ff6347;stroke-linecap:square;stroke-width:2;"/>
    </g>
    <g id="line2d_34"/>
    <g id="text_17">
     <!-- Base -->
     <defs>
      <path d="M 19.671875 34.8125 
L 19.671875 8.109375 
L 35.5 8.109375 
Q 43.453125 8.109375 47.28125 11.40625 
Q 51.125 14.703125 51.125 21.484375 
Q 51.125 28.328125 47.28125 31.5625 
Q 43.453125 34.8125 35.5 34.8125 
z
M 19.671875 64.796875 
L 19.671875 42.828125 
L 34.28125 42.828125 
Q 41.5 42.828125 45.03125 45.53125 
Q 48.578125 48.25 48.578125 53.8125 
Q 48.578125 59.328125 45.03125 62.0625 
Q 41.5 64.796875 34.28125 64.796875 
z
M 9.8125 72.90625 
L 35.015625 72.90625 
Q 46.296875 72.90625 52.390625 68.21875 
Q 58.5 63.53125 58.5 54.890625 
Q 58.5 48.1875 55.375 44.234375 
Q 52.25 40.28125 46.1875 39.3125 
Q 53.46875 37.75 57.5 32.78125 
Q 61.53125 27.828125 61.53125 20.40625 
Q 61.53125 10.640625 54.890625 5.3125 
Q 48.25 0 35.984375 0 
L 9.8125 0 
z
" id="DejaVuSans-42"/>
     </defs>
     <g transform="translate(94.6 223.113687)scale(0.1 -0.1)">
      <use xlink:href="#DejaVuSans-42"/>
      <use x="68.603516" xlink:href="#DejaVuSans-61"/>
      <use x="129.882812" xlink:href="#DejaVuSans-73"/>
      <use x="181.982422" xlink:href="#DejaVuSans-65"/>
     </g>
    </g>
    <g id="line2d_35">
     <path d="M 66.6 234.291812 
L 86.6 234.291812 
" style="fill:none;stroke:#ffd700;stroke-dasharray:7.4,3.2;stroke-dashoffset:0;stroke-width:2;"/>
    </g>
    <g id="line2d_36"/>
    <g id="text_18">
     <!-- L1 -->
     <defs>
      <path d="M 9.8125 72.90625 
L 19.671875 72.90625 
L 19.671875 8.296875 
L 55.171875 8.296875 
L 55.171875 0 
L 9.8125 0 
z
" id="DejaVuSans-4c"/>
     </defs>
     <g transform="translate(94.6 237.791812)scale(0.1 -0.1)">
      <use xlink:href="#DejaVuSans-4c"/>
      <use x="55.712891" xlink:href="#DejaVuSans-31"/>
     </g>
    </g>
    <g id="line2d_37">
     <path d="M 66.6 248.969937 
L 86.6 248.969937 
" style="fill:none;stroke:#00ffff;stroke-dasharray:2,3.3;stroke-dashoffset:0;stroke-width:2;"/>
    </g>
    <g id="line2d_38"/>
    <g id="text_19">
     <!-- L2 -->
     <g transform="translate(94.6 252.469937)scale(0.1 -0.1)">
      <use xlink:href="#DejaVuSans-4c"/>
      <use x="55.712891" xlink:href="#DejaVuSans-32"/>
     </g>
    </g>
    <g id="line2d_39">
     <path d="M 66.6 263.648062 
L 86.6 263.648062 
" style="fill:none;stroke:#0000ff;stroke-dasharray:12.8,3.2,2,3.2;stroke-dashoffset:0;stroke-width:2;"/>
    </g>
    <g id="line2d_40"/>
    <g id="text_20">
     <!-- Dropout -->
     <defs>
      <path d="M 19.671875 64.796875 
L 19.671875 8.109375 
L 31.59375 8.109375 
Q 46.6875 8.109375 53.6875 14.9375 
Q 60.6875 21.78125 60.6875 36.53125 
Q 60.6875 51.171875 53.6875 57.984375 
Q 46.6875 64.796875 31.59375 64.796875 
z
M 9.8125 72.90625 
L 30.078125 72.90625 
Q 51.265625 72.90625 61.171875 64.09375 
Q 71.09375 55.28125 71.09375 36.53125 
Q 71.09375 17.671875 61.125 8.828125 
Q 51.171875 0 30.078125 0 
L 9.8125 0 
z
" id="DejaVuSans-44"/>
     </defs>
     <g transform="translate(94.6 267.148062)scale(0.1 -0.1)">
      <use xlink:href="#DejaVuSans-44"/>
      <use x="77.001953" xlink:href="#DejaVuSans-72"/>
      <use x="118.083984" xlink:href="#DejaVuSans-6f"/>
      <use x="179.265625" xlink:href="#DejaVuSans-70"/>
      <use x="242.742188" xlink:href="#DejaVuSans-6f"/>
      <use x="303.923828" xlink:href="#DejaVuSans-75"/>
      <use x="367.302734" xlink:href="#DejaVuSans-74"/>
     </g>
    </g>
    <g id="line2d_41">
     <path d="M 66.6 278.326188 
L 86.6 278.326188 
" style="fill:none;stroke:#008000;stroke-dasharray:12.8,3.2,2,3.2;stroke-dashoffset:0;stroke-width:2;"/>
    </g>
    <g id="line2d_42"/>
    <g id="text_21">
     <!-- Improved dropout -->
     <defs>
      <path d="M 9.8125 72.90625 
L 19.671875 72.90625 
L 19.671875 0 
L 9.8125 0 
z
" id="DejaVuSans-49"/>
      <path d="M 52 44.1875 
Q 55.375 50.25 60.0625 53.125 
Q 64.75 56 71.09375 56 
Q 79.640625 56 84.28125 50.015625 
Q 88.921875 44.046875 88.921875 33.015625 
L 88.921875 0 
L 79.890625 0 
L 79.890625 32.71875 
Q 79.890625 40.578125 77.09375 44.375 
Q 74.3125 48.1875 68.609375 48.1875 
Q 61.625 48.1875 57.5625 43.546875 
Q 53.515625 38.921875 53.515625 30.90625 
L 53.515625 0 
L 44.484375 0 
L 44.484375 32.71875 
Q 44.484375 40.625 41.703125 44.40625 
Q 38.921875 48.1875 33.109375 48.1875 
Q 26.21875 48.1875 22.15625 43.53125 
Q 18.109375 38.875 18.109375 30.90625 
L 18.109375 0 
L 9.078125 0 
L 9.078125 54.6875 
L 18.109375 54.6875 
L 18.109375 46.1875 
Q 21.1875 51.21875 25.484375 53.609375 
Q 29.78125 56 35.6875 56 
Q 41.65625 56 45.828125 52.96875 
Q 50 49.953125 52 44.1875 
z
" id="DejaVuSans-6d"/>
      <path d="M 2.984375 54.6875 
L 12.5 54.6875 
L 29.59375 8.796875 
L 46.6875 54.6875 
L 56.203125 54.6875 
L 35.6875 0 
L 23.484375 0 
z
" id="DejaVuSans-76"/>
     </defs>
     <g transform="translate(94.6 281.826188)scale(0.1 -0.1)">
      <use xlink:href="#DejaVuSans-49"/>
      <use x="29.492188" xlink:href="#DejaVuSans-6d"/>
      <use x="126.904297" xlink:href="#DejaVuSans-70"/>
      <use x="190.380859" xlink:href="#DejaVuSans-72"/>
      <use x="231.462891" xlink:href="#DejaVuSans-6f"/>
      <use x="292.644531" xlink:href="#DejaVuSans-76"/>
      <use x="351.824219" xlink:href="#DejaVuSans-65"/>
      <use x="413.347656" xlink:href="#DejaVuSans-64"/>
      <use x="476.824219" xlink:href="#DejaVuSans-20"/>
      <use x="508.611328" xlink:href="#DejaVuSans-64"/>
      <use x="572.087891" xlink:href="#DejaVuSans-72"/>
      <use x="613.169922" xlink:href="#DejaVuSans-6f"/>
      <use x="674.351562" xlink:href="#DejaVuSans-70"/>
      <use x="737.828125" xlink:href="#DejaVuSans-6f"/>
      <use x="799.009766" xlink:href="#DejaVuSans-75"/>
      <use x="862.388672" xlink:href="#DejaVuSans-74"/>
     </g>
    </g>
    <g id="line2d_43">
     <path d="M 66.6 293.004312 
L 86.6 293.004312 
" style="fill:none;stroke:#800080;stroke-dasharray:12.8,3.2,2,3.2;stroke-dashoffset:0;stroke-width:2;"/>
    </g>
    <g id="line2d_44"/>
    <g id="text_22">
     <!-- New dropout -->
     <defs>
      <path d="M 9.8125 72.90625 
L 23.09375 72.90625 
L 55.421875 11.921875 
L 55.421875 72.90625 
L 64.984375 72.90625 
L 64.984375 0 
L 51.703125 0 
L 19.390625 60.984375 
L 19.390625 0 
L 9.8125 0 
z
" id="DejaVuSans-4e"/>
     </defs>
     <g transform="translate(94.6 296.504312)scale(0.1 -0.1)">
      <use xlink:href="#DejaVuSans-4e"/>
      <use x="74.804688" xlink:href="#DejaVuSans-65"/>
      <use x="136.328125" xlink:href="#DejaVuSans-77"/>
      <use x="218.115234" xlink:href="#DejaVuSans-20"/>
      <use x="249.902344" xlink:href="#DejaVuSans-64"/>
      <use x="313.378906" xlink:href="#DejaVuSans-72"/>
      <use x="354.460938" xlink:href="#DejaVuSans-6f"/>
      <use x="415.642578" xlink:href="#DejaVuSans-70"/>
      <use x="479.119141" xlink:href="#DejaVuSans-6f"/>
      <use x="540.300781" xlink:href="#DejaVuSans-75"/>
      <use x="603.679688" xlink:href="#DejaVuSans-74"/>
     </g>
    </g>
   </g>
  </g>
 </g>
 <defs>
  <clipPath id="p2df92f0b7c">
   <rect height="266.112" width="357.12" x="57.6" y="41.472"/>
  </clipPath>
 </defs>
</svg>
