<?xml version="1.0" encoding="utf-8" standalone="no"?>
<!DOCTYPE svg PUBLIC "-//W3C//DTD SVG 1.1//EN"
  "http://www.w3.org/Graphics/SVG/1.1/DTD/svg11.dtd">
<!-- Created with matplotlib (http://matplotlib.org/) -->
<svg height="345.6pt" version="1.1" viewBox="0 0 460.8 345.6" width="460.8pt" xmlns="http://www.w3.org/2000/svg" xmlns:xlink="http://www.w3.org/1999/xlink">
 <defs>
  <style type="text/css">
*{stroke-linecap:butt;stroke-linejoin:round;}
  </style>
 </defs>
 <g id="figure_1">
  <g id="patch_1">
   <path d="M 0 345.6 
L 460.8 345.6 
L 460.8 0 
L 0 0 
z
" style="fill:#ffffff;"/>
  </g>
  <g id="axes_1">
   <g id="patch_2">
    <path d="M 57.6 307.584 
L 414.72 307.584 
L 414.72 41.472 
L 57.6 41.472 
z
" style="fill:#ffffff;"/>
   </g>
   <g id="PolyCollection_1">
    <path clip-path="url(#p30e668e469)" d="M 73.832727 63.338585 
L 73.832727 60.171044 
L 79.243636 60.406574 
L 84.654545 60.632669 
L 90.065455 61.0325 
L 95.476364 61.367046 
L 100.887273 61.918274 
L 106.298182 62.541399 
L 111.709091 63.497487 
L 117.12 64.669569 
L 122.530909 65.528479 
L 127.941818 66.070662 
L 133.352727 67.026131 
L 138.763636 68.23987 
L 144.174545 68.982946 
L 149.585455 70.28992 
L 154.996364 70.411795 
L 160.407273 71.376913 
L 165.818182 72.407658 
L 171.229091 72.746503 
L 176.64 73.10637 
L 182.050909 73.743084 
L 187.461818 74.415767 
L 192.872727 74.602634 
L 198.283636 74.982084 
L 203.694545 75.380532 
L 209.105455 75.795625 
L 214.516364 76.187736 
L 219.927273 76.240883 
L 225.338182 76.731942 
L 230.749091 77.256176 
L 236.16 77.562401 
L 241.570909 77.851141 
L 246.981818 78.476415 
L 252.392727 78.63341 
L 257.803636 79.380298 
L 263.214545 79.598795 
L 268.625455 79.682096 
L 274.036364 80.99693 
L 279.447273 81.550537 
L 284.858182 83.069042 
L 290.269091 84.028612 
L 295.68 85.087648 
L 301.090909 86.819116 
L 306.501818 86.322047 
L 311.912727 88.168002 
L 317.323636 89.703607 
L 322.734545 90.160841 
L 328.145455 90.767395 
L 333.556364 91.18044 
L 338.967273 93.099392 
L 344.378182 93.079569 
L 349.789091 94.713298 
L 355.2 96.500808 
L 360.610909 96.522207 
L 366.021818 95.628902 
L 371.432727 96.8716 
L 376.843636 97.568272 
L 382.254545 98.559577 
L 387.665455 98.582273 
L 393.076364 100.184449 
L 398.487273 101.045524 
L 398.487273 125.128664 
L 398.487273 125.128664 
L 393.076364 120.001251 
L 387.665455 118.276543 
L 382.254545 117.895716 
L 376.843636 115.394664 
L 371.432727 112.767355 
L 366.021818 113.537826 
L 360.610909 115.854799 
L 355.2 112.731238 
L 349.789091 111.493781 
L 344.378182 103.456515 
L 338.967273 106.921308 
L 333.556364 100.256455 
L 328.145455 98.991542 
L 322.734545 104.040232 
L 317.323636 97.850955 
L 311.912727 97.998907 
L 306.501818 92.972399 
L 301.090909 95.835115 
L 295.68 94.150189 
L 290.269091 91.845085 
L 284.858182 90.713499 
L 279.447273 88.159038 
L 274.036364 88.047365 
L 268.625455 86.446096 
L 263.214545 86.295218 
L 257.803636 85.870692 
L 252.392727 85.303955 
L 246.981818 84.836312 
L 241.570909 84.126672 
L 236.16 83.564337 
L 230.749091 83.303018 
L 225.338182 82.501046 
L 219.927273 81.184479 
L 214.516364 80.854425 
L 209.105455 80.733181 
L 203.694545 79.198883 
L 198.283636 78.521755 
L 192.872727 77.810146 
L 187.461818 77.533978 
L 182.050909 76.704337 
L 176.64 75.781152 
L 171.229091 75.42687 
L 165.818182 75.193333 
L 160.407273 74.370003 
L 154.996364 73.649906 
L 149.585455 73.182464 
L 144.174545 72.315061 
L 138.763636 71.583393 
L 133.352727 72.658269 
L 127.941818 74.944298 
L 122.530909 70.092633 
L 117.12 69.92677 
L 111.709091 66.992018 
L 106.298182 66.033552 
L 100.887273 65.299021 
L 95.476364 64.568558 
L 90.065455 64.142991 
L 84.654545 63.953504 
L 79.243636 63.215306 
L 73.832727 63.338585 
z
" style="fill:#ff6347;fill-opacity:0.2;"/>
   </g>
   <g id="PolyCollection_2">
    <path clip-path="url(#p30e668e469)" d="M 73.832727 63.767763 
L 73.832727 59.276896 
L 79.243636 59.385898 
L 84.654545 59.393971 
L 90.065455 60.625318 
L 95.476364 60.811518 
L 100.887273 61.847737 
L 106.298182 62.476999 
L 111.709091 63.40727 
L 117.12 64.11217 
L 122.530909 64.726651 
L 127.941818 65.847974 
L 133.352727 66.454876 
L 138.763636 67.752523 
L 144.174545 69.078234 
L 149.585455 70.048214 
L 154.996364 71.202141 
L 160.407273 72.176373 
L 165.818182 72.81874 
L 171.229091 73.349355 
L 176.64 73.556533 
L 182.050909 73.76257 
L 187.461818 74.885334 
L 192.872727 74.931239 
L 198.283636 75.641793 
L 203.694545 75.668551 
L 209.105455 76.244688 
L 214.516364 76.378155 
L 219.927273 77.192076 
L 225.338182 77.825877 
L 230.749091 78.238315 
L 236.16 78.79783 
L 241.570909 79.554386 
L 246.981818 80.503106 
L 252.392727 81.482356 
L 257.803636 82.739883 
L 263.214545 85.021627 
L 268.625455 84.85785 
L 274.036364 86.018787 
L 279.447273 88.688368 
L 284.858182 90.980482 
L 290.269091 90.464433 
L 295.68 92.029033 
L 301.090909 93.160733 
L 306.501818 92.242833 
L 311.912727 98.996684 
L 317.323636 96.872317 
L 322.734545 100.183717 
L 328.145455 98.626689 
L 333.556364 99.044649 
L 338.967273 101.179134 
L 344.378182 99.88266 
L 349.789091 103.206229 
L 355.2 104.682634 
L 360.610909 104.338605 
L 366.021818 106.657907 
L 371.432727 106.430184 
L 376.843636 106.668045 
L 382.254545 109.115292 
L 387.665455 111.801919 
L 393.076364 110.34688 
L 398.487273 112.569928 
L 398.487273 135.867674 
L 398.487273 135.867674 
L 393.076364 135.103009 
L 387.665455 136.719387 
L 382.254545 135.439977 
L 376.843636 126.431345 
L 371.432727 128.040891 
L 366.021818 127.841716 
L 360.610909 124.667498 
L 355.2 128.407562 
L 349.789091 123.696137 
L 344.378182 115.227558 
L 338.967273 121.394316 
L 333.556364 116.723592 
L 328.145455 115.132164 
L 322.734545 117.602136 
L 317.323636 109.895048 
L 311.912727 115.887097 
L 306.501818 105.09062 
L 301.090909 104.242393 
L 295.68 104.869931 
L 290.269091 100.406369 
L 284.858182 101.334099 
L 279.447273 99.130371 
L 274.036364 93.044867 
L 268.625455 89.807699 
L 263.214545 92.457935 
L 257.803636 89.602267 
L 252.392727 89.200221 
L 246.981818 86.215855 
L 241.570909 86.364787 
L 236.16 88.344007 
L 230.749091 87.802302 
L 225.338182 84.974463 
L 219.927273 83.379698 
L 214.516364 84.909702 
L 209.105455 81.256153 
L 203.694545 82.116304 
L 198.283636 79.331952 
L 192.872727 82.346068 
L 187.461818 80.004222 
L 182.050909 84.007286 
L 176.64 82.17297 
L 171.229091 79.44469 
L 165.818182 79.097136 
L 160.407273 77.553998 
L 154.996364 75.169413 
L 149.585455 76.171897 
L 144.174545 73.246965 
L 138.763636 74.060774 
L 133.352727 73.054374 
L 127.941818 70.86952 
L 122.530909 71.175573 
L 117.12 71.161545 
L 111.709091 70.386379 
L 106.298182 70.594276 
L 100.887273 69.563967 
L 95.476364 69.652827 
L 90.065455 67.009531 
L 84.654545 69.072599 
L 79.243636 67.866234 
L 73.832727 63.767763 
z
" style="fill:#ffd700;fill-opacity:0.2;"/>
   </g>
   <g id="PolyCollection_3">
    <path clip-path="url(#p30e668e469)" d="M 73.832727 63.189208 
L 73.832727 60.480089 
L 79.243636 60.626698 
L 84.654545 60.977977 
L 90.065455 61.625066 
L 95.476364 61.936941 
L 100.887273 62.4234 
L 106.298182 63.030638 
L 111.709091 63.192913 
L 117.12 64.298053 
L 122.530909 64.9151 
L 127.941818 65.577663 
L 133.352727 66.507389 
L 138.763636 67.416645 
L 144.174545 68.49441 
L 149.585455 69.092982 
L 154.996364 70.404447 
L 160.407273 71.366656 
L 165.818182 72.027276 
L 171.229091 72.728646 
L 176.64 73.692695 
L 182.050909 73.786003 
L 187.461818 74.215049 
L 192.872727 74.677299 
L 198.283636 74.951705 
L 203.694545 75.502035 
L 209.105455 75.947586 
L 214.516364 76.021921 
L 219.927273 76.733463 
L 225.338182 77.429509 
L 230.749091 78.536219 
L 236.16 78.434367 
L 241.570909 79.101782 
L 246.981818 79.248751 
L 252.392727 79.638745 
L 257.803636 79.852273 
L 263.214545 80.614066 
L 268.625455 81.146486 
L 274.036364 82.658489 
L 279.447273 82.618117 
L 284.858182 82.973464 
L 290.269091 83.769468 
L 295.68 84.514636 
L 301.090909 85.283763 
L 306.501818 85.518489 
L 311.912727 86.992956 
L 317.323636 87.348806 
L 322.734545 88.57873 
L 328.145455 88.703774 
L 333.556364 89.044356 
L 338.967273 90.47045 
L 344.378182 90.501742 
L 349.789091 92.673242 
L 355.2 92.426753 
L 360.610909 94.778766 
L 366.021818 93.591996 
L 371.432727 94.429742 
L 376.843636 96.440515 
L 382.254545 96.339248 
L 387.665455 97.284181 
L 393.076364 97.373526 
L 398.487273 98.355868 
L 398.487273 115.717965 
L 398.487273 115.717965 
L 393.076364 113.014414 
L 387.665455 111.786263 
L 382.254545 112.896185 
L 376.843636 113.693409 
L 371.432727 106.047219 
L 366.021818 103.793227 
L 360.610909 104.929857 
L 355.2 102.472501 
L 349.789091 103.046604 
L 344.378182 100.489536 
L 338.967273 99.420576 
L 333.556364 98.78793 
L 328.145455 97.293792 
L 322.734545 97.036602 
L 317.323636 95.000606 
L 311.912727 94.743431 
L 306.501818 93.002297 
L 301.090909 92.292083 
L 295.68 90.233166 
L 290.269091 90.408854 
L 284.858182 89.606734 
L 279.447273 88.523142 
L 274.036364 89.014025 
L 268.625455 87.454612 
L 263.214545 86.64486 
L 257.803636 85.860784 
L 252.392727 85.497575 
L 246.981818 85.596297 
L 241.570909 85.178141 
L 236.16 83.523608 
L 230.749091 84.68361 
L 225.338182 82.232161 
L 219.927273 80.927529 
L 214.516364 80.204002 
L 209.105455 80.17673 
L 203.694545 79.205114 
L 198.283636 78.793086 
L 192.872727 77.761608 
L 187.461818 77.679538 
L 182.050909 77.541523 
L 176.64 76.660378 
L 171.229091 75.728741 
L 165.818182 74.882791 
L 160.407273 73.662726 
L 154.996364 73.037939 
L 149.585455 71.966976 
L 144.174545 72.005261 
L 138.763636 71.404102 
L 133.352727 69.713201 
L 127.941818 69.060286 
L 122.530909 68.45277 
L 117.12 68.774674 
L 111.709091 67.697212 
L 106.298182 67.181143 
L 100.887273 67.323895 
L 95.476364 65.798547 
L 90.065455 65.967689 
L 84.654545 64.090585 
L 79.243636 63.192589 
L 73.832727 63.189208 
z
" style="fill:#00ffff;fill-opacity:0.2;"/>
   </g>
   <g id="PolyCollection_4">
    <path clip-path="url(#p30e668e469)" d="M 73.832727 133.428447 
L 73.832727 65.994711 
L 79.243636 66.006206 
L 84.654545 66.213964 
L 90.065455 66.586895 
L 95.476364 66.768181 
L 100.887273 67.003456 
L 106.298182 67.113575 
L 111.709091 68.950142 
L 117.12 70.458727 
L 122.530909 72.27324 
L 127.941818 73.720175 
L 133.352727 75.726369 
L 138.763636 76.730938 
L 144.174545 79.765832 
L 149.585455 78.036158 
L 154.996364 81.344186 
L 160.407273 81.804426 
L 165.818182 86.360239 
L 171.229091 90.027052 
L 176.64 93.069563 
L 182.050909 92.185097 
L 187.461818 99.018272 
L 192.872727 101.261813 
L 198.283636 102.302518 
L 203.694545 105.867192 
L 209.105455 112.100502 
L 214.516364 114.760429 
L 219.927273 123.812798 
L 225.338182 124.605734 
L 230.749091 126.359974 
L 236.16 131.508919 
L 241.570909 131.963875 
L 246.981818 138.346305 
L 252.392727 137.461323 
L 257.803636 141.909395 
L 263.214545 151.478713 
L 268.625455 158.075332 
L 274.036364 168.491187 
L 279.447273 172.03801 
L 284.858182 176.792835 
L 290.269091 183.55213 
L 295.68 184.610594 
L 301.090909 191.615356 
L 306.501818 197.178647 
L 311.912727 202.723917 
L 317.323636 205.503905 
L 322.734545 215.89581 
L 328.145455 222.648409 
L 333.556364 228.656221 
L 338.967273 228.575268 
L 344.378182 229.611205 
L 349.789091 227.220729 
L 355.2 229.791163 
L 360.610909 226.244475 
L 366.021818 228.267539 
L 371.432727 225.268255 
L 376.843636 231.339634 
L 382.254545 232.259608 
L 387.665455 238.643918 
L 393.076364 235.183154 
L 398.487273 237.612368 
L 398.487273 275.072998 
L 398.487273 275.072998 
L 393.076364 274.892863 
L 387.665455 273.396489 
L 382.254545 273.352985 
L 376.843636 272.398079 
L 371.432727 269.823721 
L 366.021818 272.37892 
L 360.610909 272.32873 
L 355.2 270.948193 
L 349.789091 270.185937 
L 344.378182 271.334751 
L 338.967273 270.767726 
L 333.556364 270.901114 
L 328.145455 264.335859 
L 322.734545 258.017521 
L 317.323636 250.880387 
L 311.912727 252.259174 
L 306.501818 246.398884 
L 301.090909 240.959653 
L 295.68 241.466444 
L 290.269091 237.499262 
L 284.858182 235.23736 
L 279.447273 233.192781 
L 274.036364 224.669732 
L 268.625455 214.814142 
L 263.214545 209.411046 
L 257.803636 196.206983 
L 252.392727 195.544736 
L 246.981818 197.931481 
L 241.570909 194.460993 
L 236.16 192.247087 
L 230.749091 184.602819 
L 225.338182 187.170878 
L 219.927273 183.75489 
L 214.516364 176.902954 
L 209.105455 175.375246 
L 203.694545 164.497554 
L 198.283636 166.365885 
L 192.872727 165.610093 
L 187.461818 162.355759 
L 182.050909 155.863497 
L 176.64 158.078026 
L 171.229091 153.849873 
L 165.818182 148.436461 
L 160.407273 149.245418 
L 154.996364 143.120111 
L 149.585455 145.005649 
L 144.174545 144.501058 
L 138.763636 139.423407 
L 133.352727 139.337884 
L 127.941818 142.789793 
L 122.530909 139.488322 
L 117.12 136.406857 
L 111.709091 134.943214 
L 106.298182 134.288489 
L 100.887273 132.904026 
L 95.476364 129.24826 
L 90.065455 135.703983 
L 84.654545 127.852601 
L 79.243636 134.709289 
L 73.832727 133.428447 
z
" style="fill:#0000ff;fill-opacity:0.2;"/>
   </g>
   <g id="PolyCollection_5">
    <path clip-path="url(#p30e668e469)" d="M 73.832727 64.404292 
L 73.832727 62.00741 
L 79.243636 62.03289 
L 84.654545 61.996969 
L 90.065455 62.140738 
L 95.476364 62.105613 
L 100.887273 62.184848 
L 106.298182 62.333214 
L 111.709091 62.430327 
L 117.12 62.605561 
L 122.530909 62.98498 
L 127.941818 63.24848 
L 133.352727 63.578667 
L 138.763636 63.994944 
L 144.174545 64.404605 
L 149.585455 65.229676 
L 154.996364 65.445769 
L 160.407273 65.866901 
L 165.818182 66.806399 
L 171.229091 66.854081 
L 176.64 67.919534 
L 182.050909 68.129087 
L 187.461818 69.347516 
L 192.872727 69.865592 
L 198.283636 70.713948 
L 203.694545 73.262908 
L 209.105455 73.784447 
L 214.516364 74.770854 
L 219.927273 76.55142 
L 225.338182 76.66434 
L 230.749091 77.077225 
L 236.16 77.214656 
L 241.570909 77.477777 
L 246.981818 77.858744 
L 252.392727 78.513772 
L 257.803636 79.169453 
L 263.214545 78.503725 
L 268.625455 79.771818 
L 274.036364 80.329273 
L 279.447273 81.025727 
L 284.858182 81.126397 
L 290.269091 82.183437 
L 295.68 82.199472 
L 301.090909 84.914006 
L 306.501818 82.5272 
L 311.912727 84.229675 
L 317.323636 86.078366 
L 322.734545 88.116572 
L 328.145455 87.794757 
L 333.556364 90.87308 
L 338.967273 88.599293 
L 344.378182 90.298063 
L 349.789091 92.5259 
L 355.2 91.857074 
L 360.610909 93.162508 
L 366.021818 93.849787 
L 371.432727 95.008156 
L 376.843636 96.101651 
L 382.254545 96.375381 
L 387.665455 98.027824 
L 393.076364 99.037111 
L 398.487273 100.820587 
L 398.487273 122.86376 
L 398.487273 122.86376 
L 393.076364 118.999372 
L 387.665455 116.700645 
L 382.254545 115.555041 
L 376.843636 115.275742 
L 371.432727 112.769467 
L 366.021818 112.738074 
L 360.610909 110.827131 
L 355.2 105.795713 
L 349.789091 111.447289 
L 344.378182 105.177928 
L 338.967273 100.863051 
L 333.556364 110.583658 
L 328.145455 101.310513 
L 322.734545 104.317033 
L 317.323636 98.222373 
L 311.912727 96.036805 
L 306.501818 97.054164 
L 301.090909 100.540691 
L 295.68 93.88276 
L 290.269091 95.59659 
L 284.858182 97.1186 
L 279.447273 96.007734 
L 274.036364 90.362014 
L 268.625455 94.881151 
L 263.214545 92.699465 
L 257.803636 92.110183 
L 252.392727 92.000429 
L 246.981818 95.109978 
L 241.570909 88.131255 
L 236.16 90.360217 
L 230.749091 87.393815 
L 225.338182 90.216223 
L 219.927273 86.69115 
L 214.516364 86.159445 
L 209.105455 83.5156 
L 203.694545 78.094616 
L 198.283636 77.285243 
L 192.872727 73.677917 
L 187.461818 72.155155 
L 182.050909 70.337488 
L 176.64 69.541138 
L 171.229091 68.656232 
L 165.818182 68.184754 
L 160.407273 67.246469 
L 154.996364 66.888135 
L 149.585455 66.856501 
L 144.174545 65.903944 
L 138.763636 65.658002 
L 133.352727 65.435127 
L 127.941818 65.10971 
L 122.530909 65.000653 
L 117.12 64.724469 
L 111.709091 64.718747 
L 106.298182 64.622324 
L 100.887273 64.541834 
L 95.476364 64.465756 
L 90.065455 64.516755 
L 84.654545 64.406991 
L 79.243636 64.427196 
L 73.832727 64.404292 
z
" style="fill:#008000;fill-opacity:0.2;"/>
   </g>
   <g id="PolyCollection_6">
    <path clip-path="url(#p30e668e469)" d="M 73.832727 64.272478 
L 73.832727 62.121321 
L 79.243636 62.265064 
L 84.654545 62.314076 
L 90.065455 62.293683 
L 95.476364 62.222208 
L 100.887273 62.288404 
L 106.298182 62.364512 
L 111.709091 62.506226 
L 117.12 62.670408 
L 122.530909 62.820395 
L 127.941818 63.307845 
L 133.352727 63.764569 
L 138.763636 64.102288 
L 144.174545 64.814069 
L 149.585455 65.04492 
L 154.996364 65.297546 
L 160.407273 65.797145 
L 165.818182 66.152286 
L 171.229091 66.59666 
L 176.64 67.266697 
L 182.050909 67.860263 
L 187.461818 68.883806 
L 192.872727 70.173061 
L 198.283636 71.327487 
L 203.694545 72.451431 
L 209.105455 73.987123 
L 214.516364 74.632716 
L 219.927273 75.447187 
L 225.338182 75.659462 
L 230.749091 75.850797 
L 236.16 76.249732 
L 241.570909 77.104472 
L 246.981818 77.367095 
L 252.392727 77.700427 
L 257.803636 77.768125 
L 263.214545 77.938777 
L 268.625455 77.911085 
L 274.036364 78.016057 
L 279.447273 78.370622 
L 284.858182 78.410723 
L 290.269091 78.986525 
L 295.68 79.233372 
L 301.090909 79.695205 
L 306.501818 80.417026 
L 311.912727 81.564742 
L 317.323636 82.153015 
L 322.734545 82.633339 
L 328.145455 83.208838 
L 333.556364 83.653842 
L 338.967273 84.388068 
L 344.378182 85.822683 
L 349.789091 85.760122 
L 355.2 86.297016 
L 360.610909 87.985744 
L 366.021818 87.929818 
L 371.432727 89.420049 
L 376.843636 90.69728 
L 382.254545 87.69137 
L 387.665455 87.095267 
L 393.076364 90.622867 
L 398.487273 113.950741 
L 398.487273 194.5914 
L 398.487273 194.5914 
L 393.076364 146.10242 
L 387.665455 137.749328 
L 382.254545 130.118676 
L 376.843636 96.322156 
L 371.432727 94.672154 
L 366.021818 92.696156 
L 360.610909 93.635005 
L 355.2 90.134549 
L 349.789091 89.438618 
L 344.378182 89.688135 
L 338.967273 87.783285 
L 333.556364 86.971159 
L 328.145455 86.84378 
L 322.734545 86.2779 
L 317.323636 85.424278 
L 311.912727 84.966489 
L 306.501818 83.595334 
L 301.090909 82.882086 
L 295.68 82.443492 
L 290.269091 82.148438 
L 284.858182 81.648664 
L 279.447273 81.789888 
L 274.036364 81.361116 
L 268.625455 80.950798 
L 263.214545 80.861174 
L 257.803636 80.640399 
L 252.392727 80.449244 
L 246.981818 79.972627 
L 241.570909 79.306277 
L 236.16 78.197594 
L 230.749091 77.012922 
L 225.338182 76.442693 
L 219.927273 76.354987 
L 214.516364 75.56698 
L 209.105455 75.421494 
L 203.694545 74.266552 
L 198.283636 73.268858 
L 192.872727 72.134236 
L 187.461818 71.43007 
L 182.050909 70.235691 
L 176.64 69.229198 
L 171.229091 68.393525 
L 165.818182 67.791837 
L 160.407273 67.371382 
L 154.996364 66.462523 
L 149.585455 65.758597 
L 144.174545 65.608666 
L 138.763636 64.935213 
L 133.352727 64.83167 
L 127.941818 64.891645 
L 122.530909 64.678495 
L 117.12 64.682847 
L 111.709091 64.38109 
L 106.298182 64.332172 
L 100.887273 64.382152 
L 95.476364 64.378192 
L 90.065455 64.652662 
L 84.654545 64.495342 
L 79.243636 64.517259 
L 73.832727 64.272478 
z
" style="fill:#800080;fill-opacity:0.2;"/>
   </g>
   <g id="matplotlib.axis_1">
    <g id="xtick_1">
     <g id="line2d_1">
      <path clip-path="url(#p30e668e469)" d="M 73.832727 307.584 
L 73.832727 41.472 
" style="fill:none;stroke:#b0b0b0;stroke-dasharray:2.96,1.28;stroke-dashoffset:0;stroke-width:0.8;"/>
     </g>
     <g id="line2d_2">
      <defs>
       <path d="M 0 0 
L 0 3.5 
" id="m5adcdfeff3" style="stroke:#000000;stroke-width:0.8;"/>
      </defs>
      <g>
       <use style="stroke:#000000;stroke-width:0.8;" x="73.832727" xlink:href="#m5adcdfeff3" y="307.584"/>
      </g>
     </g>
     <g id="text_1">
      <!-- 0.16 -->
      <defs>
       <path d="M 31.78125 66.40625 
Q 24.171875 66.40625 20.328125 58.90625 
Q 16.5 51.421875 16.5 36.375 
Q 16.5 21.390625 20.328125 13.890625 
Q 24.171875 6.390625 31.78125 6.390625 
Q 39.453125 6.390625 43.28125 13.890625 
Q 47.125 21.390625 47.125 36.375 
Q 47.125 51.421875 43.28125 58.90625 
Q 39.453125 66.40625 31.78125 66.40625 
z
M 31.78125 74.21875 
Q 44.046875 74.21875 50.515625 64.515625 
Q 56.984375 54.828125 56.984375 36.375 
Q 56.984375 17.96875 50.515625 8.265625 
Q 44.046875 -1.421875 31.78125 -1.421875 
Q 19.53125 -1.421875 13.0625 8.265625 
Q 6.59375 17.96875 6.59375 36.375 
Q 6.59375 54.828125 13.0625 64.515625 
Q 19.53125 74.21875 31.78125 74.21875 
z
" id="DejaVuSans-30"/>
       <path d="M 10.6875 12.40625 
L 21 12.40625 
L 21 0 
L 10.6875 0 
z
" id="DejaVuSans-2e"/>
       <path d="M 12.40625 8.296875 
L 28.515625 8.296875 
L 28.515625 63.921875 
L 10.984375 60.40625 
L 10.984375 69.390625 
L 28.421875 72.90625 
L 38.28125 72.90625 
L 38.28125 8.296875 
L 54.390625 8.296875 
L 54.390625 0 
L 12.40625 0 
z
" id="DejaVuSans-31"/>
       <path d="M 33.015625 40.375 
Q 26.375 40.375 22.484375 35.828125 
Q 18.609375 31.296875 18.609375 23.390625 
Q 18.609375 15.53125 22.484375 10.953125 
Q 26.375 6.390625 33.015625 6.390625 
Q 39.65625 6.390625 43.53125 10.953125 
Q 47.40625 15.53125 47.40625 23.390625 
Q 47.40625 31.296875 43.53125 35.828125 
Q 39.65625 40.375 33.015625 40.375 
z
M 52.59375 71.296875 
L 52.59375 62.3125 
Q 48.875 64.0625 45.09375 64.984375 
Q 41.3125 65.921875 37.59375 65.921875 
Q 27.828125 65.921875 22.671875 59.328125 
Q 17.53125 52.734375 16.796875 39.40625 
Q 19.671875 43.65625 24.015625 45.921875 
Q 28.375 48.1875 33.59375 48.1875 
Q 44.578125 48.1875 50.953125 41.515625 
Q 57.328125 34.859375 57.328125 23.390625 
Q 57.328125 12.15625 50.6875 5.359375 
Q 44.046875 -1.421875 33.015625 -1.421875 
Q 20.359375 -1.421875 13.671875 8.265625 
Q 6.984375 17.96875 6.984375 36.375 
Q 6.984375 53.65625 15.1875 63.9375 
Q 23.390625 74.21875 37.203125 74.21875 
Q 40.921875 74.21875 44.703125 73.484375 
Q 48.484375 72.75 52.59375 71.296875 
z
" id="DejaVuSans-36"/>
      </defs>
      <g transform="translate(62.699915 322.182437)scale(0.1 -0.1)">
       <use xlink:href="#DejaVuSans-30"/>
       <use x="63.623047" xlink:href="#DejaVuSans-2e"/>
       <use x="95.410156" xlink:href="#DejaVuSans-31"/>
       <use x="159.033203" xlink:href="#DejaVuSans-36"/>
      </g>
     </g>
    </g>
    <g id="xtick_2">
     <g id="line2d_3">
      <path clip-path="url(#p30e668e469)" d="M 127.941818 307.584 
L 127.941818 41.472 
" style="fill:none;stroke:#b0b0b0;stroke-dasharray:2.96,1.28;stroke-dashoffset:0;stroke-width:0.8;"/>
     </g>
     <g id="line2d_4">
      <g>
       <use style="stroke:#000000;stroke-width:0.8;" x="127.941818" xlink:href="#m5adcdfeff3" y="307.584"/>
      </g>
     </g>
     <g id="text_2">
      <!-- 0.18 -->
      <defs>
       <path d="M 31.78125 34.625 
Q 24.75 34.625 20.71875 30.859375 
Q 16.703125 27.09375 16.703125 20.515625 
Q 16.703125 13.921875 20.71875 10.15625 
Q 24.75 6.390625 31.78125 6.390625 
Q 38.8125 6.390625 42.859375 10.171875 
Q 46.921875 13.96875 46.921875 20.515625 
Q 46.921875 27.09375 42.890625 30.859375 
Q 38.875 34.625 31.78125 34.625 
z
M 21.921875 38.8125 
Q 15.578125 40.375 12.03125 44.71875 
Q 8.5 49.078125 8.5 55.328125 
Q 8.5 64.0625 14.71875 69.140625 
Q 20.953125 74.21875 31.78125 74.21875 
Q 42.671875 74.21875 48.875 69.140625 
Q 55.078125 64.0625 55.078125 55.328125 
Q 55.078125 49.078125 51.53125 44.71875 
Q 48 40.375 41.703125 38.8125 
Q 48.828125 37.15625 52.796875 32.3125 
Q 56.78125 27.484375 56.78125 20.515625 
Q 56.78125 9.90625 50.3125 4.234375 
Q 43.84375 -1.421875 31.78125 -1.421875 
Q 19.734375 -1.421875 13.25 4.234375 
Q 6.78125 9.90625 6.78125 20.515625 
Q 6.78125 27.484375 10.78125 32.3125 
Q 14.796875 37.15625 21.921875 38.8125 
z
M 18.3125 54.390625 
Q 18.3125 48.734375 21.84375 45.5625 
Q 25.390625 42.390625 31.78125 42.390625 
Q 38.140625 42.390625 41.71875 45.5625 
Q 45.3125 48.734375 45.3125 54.390625 
Q 45.3125 60.0625 41.71875 63.234375 
Q 38.140625 66.40625 31.78125 66.40625 
Q 25.390625 66.40625 21.84375 63.234375 
Q 18.3125 60.0625 18.3125 54.390625 
z
" id="DejaVuSans-38"/>
      </defs>
      <g transform="translate(116.809006 322.182437)scale(0.1 -0.1)">
       <use xlink:href="#DejaVuSans-30"/>
       <use x="63.623047" xlink:href="#DejaVuSans-2e"/>
       <use x="95.410156" xlink:href="#DejaVuSans-31"/>
       <use x="159.033203" xlink:href="#DejaVuSans-38"/>
      </g>
     </g>
    </g>
    <g id="xtick_3">
     <g id="line2d_5">
      <path clip-path="url(#p30e668e469)" d="M 182.050909 307.584 
L 182.050909 41.472 
" style="fill:none;stroke:#b0b0b0;stroke-dasharray:2.96,1.28;stroke-dashoffset:0;stroke-width:0.8;"/>
     </g>
     <g id="line2d_6">
      <g>
       <use style="stroke:#000000;stroke-width:0.8;" x="182.050909" xlink:href="#m5adcdfeff3" y="307.584"/>
      </g>
     </g>
     <g id="text_3">
      <!-- 0.20 -->
      <defs>
       <path d="M 19.1875 8.296875 
L 53.609375 8.296875 
L 53.609375 0 
L 7.328125 0 
L 7.328125 8.296875 
Q 12.9375 14.109375 22.625 23.890625 
Q 32.328125 33.6875 34.8125 36.53125 
Q 39.546875 41.84375 41.421875 45.53125 
Q 43.3125 49.21875 43.3125 52.78125 
Q 43.3125 58.59375 39.234375 62.25 
Q 35.15625 65.921875 28.609375 65.921875 
Q 23.96875 65.921875 18.8125 64.3125 
Q 13.671875 62.703125 7.8125 59.421875 
L 7.8125 69.390625 
Q 13.765625 71.78125 18.9375 73 
Q 24.125 74.21875 28.421875 74.21875 
Q 39.75 74.21875 46.484375 68.546875 
Q 53.21875 62.890625 53.21875 53.421875 
Q 53.21875 48.921875 51.53125 44.890625 
Q 49.859375 40.875 45.40625 35.40625 
Q 44.1875 33.984375 37.640625 27.21875 
Q 31.109375 20.453125 19.1875 8.296875 
z
" id="DejaVuSans-32"/>
      </defs>
      <g transform="translate(170.918097 322.182437)scale(0.1 -0.1)">
       <use xlink:href="#DejaVuSans-30"/>
       <use x="63.623047" xlink:href="#DejaVuSans-2e"/>
       <use x="95.410156" xlink:href="#DejaVuSans-32"/>
       <use x="159.033203" xlink:href="#DejaVuSans-30"/>
      </g>
     </g>
    </g>
    <g id="xtick_4">
     <g id="line2d_7">
      <path clip-path="url(#p30e668e469)" d="M 236.16 307.584 
L 236.16 41.472 
" style="fill:none;stroke:#b0b0b0;stroke-dasharray:2.96,1.28;stroke-dashoffset:0;stroke-width:0.8;"/>
     </g>
     <g id="line2d_8">
      <g>
       <use style="stroke:#000000;stroke-width:0.8;" x="236.16" xlink:href="#m5adcdfeff3" y="307.584"/>
      </g>
     </g>
     <g id="text_4">
      <!-- 0.22 -->
      <g transform="translate(225.027188 322.182437)scale(0.1 -0.1)">
       <use xlink:href="#DejaVuSans-30"/>
       <use x="63.623047" xlink:href="#DejaVuSans-2e"/>
       <use x="95.410156" xlink:href="#DejaVuSans-32"/>
       <use x="159.033203" xlink:href="#DejaVuSans-32"/>
      </g>
     </g>
    </g>
    <g id="xtick_5">
     <g id="line2d_9">
      <path clip-path="url(#p30e668e469)" d="M 290.269091 307.584 
L 290.269091 41.472 
" style="fill:none;stroke:#b0b0b0;stroke-dasharray:2.96,1.28;stroke-dashoffset:0;stroke-width:0.8;"/>
     </g>
     <g id="line2d_10">
      <g>
       <use style="stroke:#000000;stroke-width:0.8;" x="290.269091" xlink:href="#m5adcdfeff3" y="307.584"/>
      </g>
     </g>
     <g id="text_5">
      <!-- 0.24 -->
      <defs>
       <path d="M 37.796875 64.3125 
L 12.890625 25.390625 
L 37.796875 25.390625 
z
M 35.203125 72.90625 
L 47.609375 72.90625 
L 47.609375 25.390625 
L 58.015625 25.390625 
L 58.015625 17.1875 
L 47.609375 17.1875 
L 47.609375 0 
L 37.796875 0 
L 37.796875 17.1875 
L 4.890625 17.1875 
L 4.890625 26.703125 
z
" id="DejaVuSans-34"/>
      </defs>
      <g transform="translate(279.136278 322.182437)scale(0.1 -0.1)">
       <use xlink:href="#DejaVuSans-30"/>
       <use x="63.623047" xlink:href="#DejaVuSans-2e"/>
       <use x="95.410156" xlink:href="#DejaVuSans-32"/>
       <use x="159.033203" xlink:href="#DejaVuSans-34"/>
      </g>
     </g>
    </g>
    <g id="xtick_6">
     <g id="line2d_11">
      <path clip-path="url(#p30e668e469)" d="M 344.378182 307.584 
L 344.378182 41.472 
" style="fill:none;stroke:#b0b0b0;stroke-dasharray:2.96,1.28;stroke-dashoffset:0;stroke-width:0.8;"/>
     </g>
     <g id="line2d_12">
      <g>
       <use style="stroke:#000000;stroke-width:0.8;" x="344.378182" xlink:href="#m5adcdfeff3" y="307.584"/>
      </g>
     </g>
     <g id="text_6">
      <!-- 0.26 -->
      <g transform="translate(333.245369 322.182437)scale(0.1 -0.1)">
       <use xlink:href="#DejaVuSans-30"/>
       <use x="63.623047" xlink:href="#DejaVuSans-2e"/>
       <use x="95.410156" xlink:href="#DejaVuSans-32"/>
       <use x="159.033203" xlink:href="#DejaVuSans-36"/>
      </g>
     </g>
    </g>
    <g id="xtick_7">
     <g id="line2d_13">
      <path clip-path="url(#p30e668e469)" d="M 398.487273 307.584 
L 398.487273 41.472 
" style="fill:none;stroke:#b0b0b0;stroke-dasharray:2.96,1.28;stroke-dashoffset:0;stroke-width:0.8;"/>
     </g>
     <g id="line2d_14">
      <g>
       <use style="stroke:#000000;stroke-width:0.8;" x="398.487273" xlink:href="#m5adcdfeff3" y="307.584"/>
      </g>
     </g>
     <g id="text_7">
      <!-- 0.28 -->
      <g transform="translate(387.35446 322.182437)scale(0.1 -0.1)">
       <use xlink:href="#DejaVuSans-30"/>
       <use x="63.623047" xlink:href="#DejaVuSans-2e"/>
       <use x="95.410156" xlink:href="#DejaVuSans-32"/>
       <use x="159.033203" xlink:href="#DejaVuSans-38"/>
      </g>
     </g>
    </g>
    <g id="text_8">
     <!-- Car Weight(kg) -->
     <defs>
      <path d="M 64.40625 67.28125 
L 64.40625 56.890625 
Q 59.421875 61.53125 53.78125 63.8125 
Q 48.140625 66.109375 41.796875 66.109375 
Q 29.296875 66.109375 22.65625 58.46875 
Q 16.015625 50.828125 16.015625 36.375 
Q 16.015625 21.96875 22.65625 14.328125 
Q 29.296875 6.6875 41.796875 6.6875 
Q 48.140625 6.6875 53.78125 8.984375 
Q 59.421875 11.28125 64.40625 15.921875 
L 64.40625 5.609375 
Q 59.234375 2.09375 53.4375 0.328125 
Q 47.65625 -1.421875 41.21875 -1.421875 
Q 24.65625 -1.421875 15.125 8.703125 
Q 5.609375 18.84375 5.609375 36.375 
Q 5.609375 53.953125 15.125 64.078125 
Q 24.65625 74.21875 41.21875 74.21875 
Q 47.75 74.21875 53.53125 72.484375 
Q 59.328125 70.75 64.40625 67.28125 
z
" id="DejaVuSans-43"/>
      <path d="M 34.28125 27.484375 
Q 23.390625 27.484375 19.1875 25 
Q 14.984375 22.515625 14.984375 16.5 
Q 14.984375 11.71875 18.140625 8.90625 
Q 21.296875 6.109375 26.703125 6.109375 
Q 34.1875 6.109375 38.703125 11.40625 
Q 43.21875 16.703125 43.21875 25.484375 
L 43.21875 27.484375 
z
M 52.203125 31.203125 
L 52.203125 0 
L 43.21875 0 
L 43.21875 8.296875 
Q 40.140625 3.328125 35.546875 0.953125 
Q 30.953125 -1.421875 24.3125 -1.421875 
Q 15.921875 -1.421875 10.953125 3.296875 
Q 6 8.015625 6 15.921875 
Q 6 25.140625 12.171875 29.828125 
Q 18.359375 34.515625 30.609375 34.515625 
L 43.21875 34.515625 
L 43.21875 35.40625 
Q 43.21875 41.609375 39.140625 45 
Q 35.0625 48.390625 27.6875 48.390625 
Q 23 48.390625 18.546875 47.265625 
Q 14.109375 46.140625 10.015625 43.890625 
L 10.015625 52.203125 
Q 14.9375 54.109375 19.578125 55.046875 
Q 24.21875 56 28.609375 56 
Q 40.484375 56 46.34375 49.84375 
Q 52.203125 43.703125 52.203125 31.203125 
z
" id="DejaVuSans-61"/>
      <path d="M 41.109375 46.296875 
Q 39.59375 47.171875 37.8125 47.578125 
Q 36.03125 48 33.890625 48 
Q 26.265625 48 22.1875 43.046875 
Q 18.109375 38.09375 18.109375 28.8125 
L 18.109375 0 
L 9.078125 0 
L 9.078125 54.6875 
L 18.109375 54.6875 
L 18.109375 46.1875 
Q 20.953125 51.171875 25.484375 53.578125 
Q 30.03125 56 36.53125 56 
Q 37.453125 56 38.578125 55.875 
Q 39.703125 55.765625 41.0625 55.515625 
z
" id="DejaVuSans-72"/>
      <path id="DejaVuSans-20"/>
      <path d="M 3.328125 72.90625 
L 13.28125 72.90625 
L 28.609375 11.28125 
L 43.890625 72.90625 
L 54.984375 72.90625 
L 70.3125 11.28125 
L 85.59375 72.90625 
L 95.609375 72.90625 
L 77.296875 0 
L 64.890625 0 
L 49.515625 63.28125 
L 33.984375 0 
L 21.578125 0 
z
" id="DejaVuSans-57"/>
      <path d="M 56.203125 29.59375 
L 56.203125 25.203125 
L 14.890625 25.203125 
Q 15.484375 15.921875 20.484375 11.0625 
Q 25.484375 6.203125 34.421875 6.203125 
Q 39.59375 6.203125 44.453125 7.46875 
Q 49.3125 8.734375 54.109375 11.28125 
L 54.109375 2.78125 
Q 49.265625 0.734375 44.1875 -0.34375 
Q 39.109375 -1.421875 33.890625 -1.421875 
Q 20.796875 -1.421875 13.15625 6.1875 
Q 5.515625 13.8125 5.515625 26.8125 
Q 5.515625 40.234375 12.765625 48.109375 
Q 20.015625 56 32.328125 56 
Q 43.359375 56 49.78125 48.890625 
Q 56.203125 41.796875 56.203125 29.59375 
z
M 47.21875 32.234375 
Q 47.125 39.59375 43.09375 43.984375 
Q 39.0625 48.390625 32.421875 48.390625 
Q 24.90625 48.390625 20.390625 44.140625 
Q 15.875 39.890625 15.1875 32.171875 
z
" id="DejaVuSans-65"/>
      <path d="M 9.421875 54.6875 
L 18.40625 54.6875 
L 18.40625 0 
L 9.421875 0 
z
M 9.421875 75.984375 
L 18.40625 75.984375 
L 18.40625 64.59375 
L 9.421875 64.59375 
z
" id="DejaVuSans-69"/>
      <path d="M 45.40625 27.984375 
Q 45.40625 37.75 41.375 43.109375 
Q 37.359375 48.484375 30.078125 48.484375 
Q 22.859375 48.484375 18.828125 43.109375 
Q 14.796875 37.75 14.796875 27.984375 
Q 14.796875 18.265625 18.828125 12.890625 
Q 22.859375 7.515625 30.078125 7.515625 
Q 37.359375 7.515625 41.375 12.890625 
Q 45.40625 18.265625 45.40625 27.984375 
z
M 54.390625 6.78125 
Q 54.390625 -7.171875 48.1875 -13.984375 
Q 42 -20.796875 29.203125 -20.796875 
Q 24.46875 -20.796875 20.265625 -20.09375 
Q 16.0625 -19.390625 12.109375 -17.921875 
L 12.109375 -9.1875 
Q 16.0625 -11.328125 19.921875 -12.34375 
Q 23.78125 -13.375 27.78125 -13.375 
Q 36.625 -13.375 41.015625 -8.765625 
Q 45.40625 -4.15625 45.40625 5.171875 
L 45.40625 9.625 
Q 42.625 4.78125 38.28125 2.390625 
Q 33.9375 0 27.875 0 
Q 17.828125 0 11.671875 7.65625 
Q 5.515625 15.328125 5.515625 27.984375 
Q 5.515625 40.671875 11.671875 48.328125 
Q 17.828125 56 27.875 56 
Q 33.9375 56 38.28125 53.609375 
Q 42.625 51.21875 45.40625 46.390625 
L 45.40625 54.6875 
L 54.390625 54.6875 
z
" id="DejaVuSans-67"/>
      <path d="M 54.890625 33.015625 
L 54.890625 0 
L 45.90625 0 
L 45.90625 32.71875 
Q 45.90625 40.484375 42.875 44.328125 
Q 39.84375 48.1875 33.796875 48.1875 
Q 26.515625 48.1875 22.3125 43.546875 
Q 18.109375 38.921875 18.109375 30.90625 
L 18.109375 0 
L 9.078125 0 
L 9.078125 75.984375 
L 18.109375 75.984375 
L 18.109375 46.1875 
Q 21.34375 51.125 25.703125 53.5625 
Q 30.078125 56 35.796875 56 
Q 45.21875 56 50.046875 50.171875 
Q 54.890625 44.34375 54.890625 33.015625 
z
" id="DejaVuSans-68"/>
      <path d="M 18.3125 70.21875 
L 18.3125 54.6875 
L 36.8125 54.6875 
L 36.8125 47.703125 
L 18.3125 47.703125 
L 18.3125 18.015625 
Q 18.3125 11.328125 20.140625 9.421875 
Q 21.96875 7.515625 27.59375 7.515625 
L 36.8125 7.515625 
L 36.8125 0 
L 27.59375 0 
Q 17.1875 0 13.234375 3.875 
Q 9.28125 7.765625 9.28125 18.015625 
L 9.28125 47.703125 
L 2.6875 47.703125 
L 2.6875 54.6875 
L 9.28125 54.6875 
L 9.28125 70.21875 
z
" id="DejaVuSans-74"/>
      <path d="M 31 75.875 
Q 24.46875 64.65625 21.28125 53.65625 
Q 18.109375 42.671875 18.109375 31.390625 
Q 18.109375 20.125 21.3125 9.0625 
Q 24.515625 -2 31 -13.1875 
L 23.1875 -13.1875 
Q 15.875 -1.703125 12.234375 9.375 
Q 8.59375 20.453125 8.59375 31.390625 
Q 8.59375 42.28125 12.203125 53.3125 
Q 15.828125 64.359375 23.1875 75.875 
z
" id="DejaVuSans-28"/>
      <path d="M 9.078125 75.984375 
L 18.109375 75.984375 
L 18.109375 31.109375 
L 44.921875 54.6875 
L 56.390625 54.6875 
L 27.390625 29.109375 
L 57.625 0 
L 45.90625 0 
L 18.109375 26.703125 
L 18.109375 0 
L 9.078125 0 
z
" id="DejaVuSans-6b"/>
      <path d="M 8.015625 75.875 
L 15.828125 75.875 
Q 23.140625 64.359375 26.78125 53.3125 
Q 30.421875 42.28125 30.421875 31.390625 
Q 30.421875 20.453125 26.78125 9.375 
Q 23.140625 -1.703125 15.828125 -13.1875 
L 8.015625 -13.1875 
Q 14.5 -2 17.703125 9.0625 
Q 20.90625 20.125 20.90625 31.390625 
Q 20.90625 42.671875 17.703125 53.65625 
Q 14.5 64.65625 8.015625 75.875 
z
" id="DejaVuSans-29"/>
     </defs>
     <g transform="translate(198.280312 335.860562)scale(0.1 -0.1)">
      <use xlink:href="#DejaVuSans-43"/>
      <use x="69.824219" xlink:href="#DejaVuSans-61"/>
      <use x="131.103516" xlink:href="#DejaVuSans-72"/>
      <use x="172.216797" xlink:href="#DejaVuSans-20"/>
      <use x="204.003906" xlink:href="#DejaVuSans-57"/>
      <use x="302.802734" xlink:href="#DejaVuSans-65"/>
      <use x="364.326172" xlink:href="#DejaVuSans-69"/>
      <use x="392.109375" xlink:href="#DejaVuSans-67"/>
      <use x="455.585938" xlink:href="#DejaVuSans-68"/>
      <use x="518.964844" xlink:href="#DejaVuSans-74"/>
      <use x="558.173828" xlink:href="#DejaVuSans-28"/>
      <use x="597.1875" xlink:href="#DejaVuSans-6b"/>
      <use x="655.097656" xlink:href="#DejaVuSans-67"/>
      <use x="718.574219" xlink:href="#DejaVuSans-29"/>
     </g>
    </g>
   </g>
   <g id="matplotlib.axis_2">
    <g id="ytick_1">
     <g id="line2d_15">
      <path clip-path="url(#p30e668e469)" d="M 57.6 283.392 
L 414.72 283.392 
" style="fill:none;stroke:#b0b0b0;stroke-dasharray:2.96,1.28;stroke-dashoffset:0;stroke-width:0.8;"/>
     </g>
     <g id="line2d_16">
      <defs>
       <path d="M 0 0 
L -3.5 0 
" id="mddfa7c0153" style="stroke:#000000;stroke-width:0.8;"/>
      </defs>
      <g>
       <use style="stroke:#000000;stroke-width:0.8;" x="57.6" xlink:href="#mddfa7c0153" y="283.392"/>
      </g>
     </g>
     <g id="text_9">
      <!-- −1000 -->
      <defs>
       <path d="M 10.59375 35.5 
L 73.1875 35.5 
L 73.1875 27.203125 
L 10.59375 27.203125 
z
" id="DejaVuSans-2212"/>
      </defs>
      <g transform="translate(16.770313 287.191219)scale(0.1 -0.1)">
       <use xlink:href="#DejaVuSans-2212"/>
       <use x="83.789062" xlink:href="#DejaVuSans-31"/>
       <use x="147.412109" xlink:href="#DejaVuSans-30"/>
       <use x="211.035156" xlink:href="#DejaVuSans-30"/>
       <use x="274.658203" xlink:href="#DejaVuSans-30"/>
      </g>
     </g>
    </g>
    <g id="ytick_2">
     <g id="line2d_17">
      <path clip-path="url(#p30e668e469)" d="M 57.6 235.008 
L 414.72 235.008 
" style="fill:none;stroke:#b0b0b0;stroke-dasharray:2.96,1.28;stroke-dashoffset:0;stroke-width:0.8;"/>
     </g>
     <g id="line2d_18">
      <g>
       <use style="stroke:#000000;stroke-width:0.8;" x="57.6" xlink:href="#mddfa7c0153" y="235.008"/>
      </g>
     </g>
     <g id="text_10">
      <!-- −800 -->
      <g transform="translate(23.132812 238.807219)scale(0.1 -0.1)">
       <use xlink:href="#DejaVuSans-2212"/>
       <use x="83.789062" xlink:href="#DejaVuSans-38"/>
       <use x="147.412109" xlink:href="#DejaVuSans-30"/>
       <use x="211.035156" xlink:href="#DejaVuSans-30"/>
      </g>
     </g>
    </g>
    <g id="ytick_3">
     <g id="line2d_19">
      <path clip-path="url(#p30e668e469)" d="M 57.6 186.624 
L 414.72 186.624 
" style="fill:none;stroke:#b0b0b0;stroke-dasharray:2.96,1.28;stroke-dashoffset:0;stroke-width:0.8;"/>
     </g>
     <g id="line2d_20">
      <g>
       <use style="stroke:#000000;stroke-width:0.8;" x="57.6" xlink:href="#mddfa7c0153" y="186.624"/>
      </g>
     </g>
     <g id="text_11">
      <!-- −600 -->
      <g transform="translate(23.132812 190.423219)scale(0.1 -0.1)">
       <use xlink:href="#DejaVuSans-2212"/>
       <use x="83.789062" xlink:href="#DejaVuSans-36"/>
       <use x="147.412109" xlink:href="#DejaVuSans-30"/>
       <use x="211.035156" xlink:href="#DejaVuSans-30"/>
      </g>
     </g>
    </g>
    <g id="ytick_4">
     <g id="line2d_21">
      <path clip-path="url(#p30e668e469)" d="M 57.6 138.24 
L 414.72 138.24 
" style="fill:none;stroke:#b0b0b0;stroke-dasharray:2.96,1.28;stroke-dashoffset:0;stroke-width:0.8;"/>
     </g>
     <g id="line2d_22">
      <g>
       <use style="stroke:#000000;stroke-width:0.8;" x="57.6" xlink:href="#mddfa7c0153" y="138.24"/>
      </g>
     </g>
     <g id="text_12">
      <!-- −400 -->
      <g transform="translate(23.132812 142.039219)scale(0.1 -0.1)">
       <use xlink:href="#DejaVuSans-2212"/>
       <use x="83.789062" xlink:href="#DejaVuSans-34"/>
       <use x="147.412109" xlink:href="#DejaVuSans-30"/>
       <use x="211.035156" xlink:href="#DejaVuSans-30"/>
      </g>
     </g>
    </g>
    <g id="ytick_5">
     <g id="line2d_23">
      <path clip-path="url(#p30e668e469)" d="M 57.6 89.856 
L 414.72 89.856 
" style="fill:none;stroke:#b0b0b0;stroke-dasharray:2.96,1.28;stroke-dashoffset:0;stroke-width:0.8;"/>
     </g>
     <g id="line2d_24">
      <g>
       <use style="stroke:#000000;stroke-width:0.8;" x="57.6" xlink:href="#mddfa7c0153" y="89.856"/>
      </g>
     </g>
     <g id="text_13">
      <!-- −200 -->
      <g transform="translate(23.132812 93.655219)scale(0.1 -0.1)">
       <use xlink:href="#DejaVuSans-2212"/>
       <use x="83.789062" xlink:href="#DejaVuSans-32"/>
       <use x="147.412109" xlink:href="#DejaVuSans-30"/>
       <use x="211.035156" xlink:href="#DejaVuSans-30"/>
      </g>
     </g>
    </g>
    <g id="ytick_6">
     <g id="line2d_25">
      <path clip-path="url(#p30e668e469)" d="M 57.6 41.472 
L 414.72 41.472 
" style="fill:none;stroke:#b0b0b0;stroke-dasharray:2.96,1.28;stroke-dashoffset:0;stroke-width:0.8;"/>
     </g>
     <g id="line2d_26">
      <g>
       <use style="stroke:#000000;stroke-width:0.8;" x="57.6" xlink:href="#mddfa7c0153" y="41.472"/>
      </g>
     </g>
     <g id="text_14">
      <!-- 0 -->
      <g transform="translate(44.2375 45.271219)scale(0.1 -0.1)">
       <use xlink:href="#DejaVuSans-30"/>
      </g>
     </g>
    </g>
    <g id="text_15">
     <!-- Rewards -->
     <defs>
      <path d="M 44.390625 34.1875 
Q 47.5625 33.109375 50.5625 29.59375 
Q 53.5625 26.078125 56.59375 19.921875 
L 66.609375 0 
L 56 0 
L 46.6875 18.703125 
Q 43.0625 26.03125 39.671875 28.421875 
Q 36.28125 30.8125 30.421875 30.8125 
L 19.671875 30.8125 
L 19.671875 0 
L 9.8125 0 
L 9.8125 72.90625 
L 32.078125 72.90625 
Q 44.578125 72.90625 50.734375 67.671875 
Q 56.890625 62.453125 56.890625 51.90625 
Q 56.890625 45.015625 53.6875 40.46875 
Q 50.484375 35.9375 44.390625 34.1875 
z
M 19.671875 64.796875 
L 19.671875 38.921875 
L 32.078125 38.921875 
Q 39.203125 38.921875 42.84375 42.21875 
Q 46.484375 45.515625 46.484375 51.90625 
Q 46.484375 58.296875 42.84375 61.546875 
Q 39.203125 64.796875 32.078125 64.796875 
z
" id="DejaVuSans-52"/>
      <path d="M 4.203125 54.6875 
L 13.1875 54.6875 
L 24.421875 12.015625 
L 35.59375 54.6875 
L 46.1875 54.6875 
L 57.421875 12.015625 
L 68.609375 54.6875 
L 77.59375 54.6875 
L 63.28125 0 
L 52.6875 0 
L 40.921875 44.828125 
L 29.109375 0 
L 18.5 0 
z
" id="DejaVuSans-77"/>
      <path d="M 45.40625 46.390625 
L 45.40625 75.984375 
L 54.390625 75.984375 
L 54.390625 0 
L 45.40625 0 
L 45.40625 8.203125 
Q 42.578125 3.328125 38.25 0.953125 
Q 33.9375 -1.421875 27.875 -1.421875 
Q 17.96875 -1.421875 11.734375 6.484375 
Q 5.515625 14.40625 5.515625 27.296875 
Q 5.515625 40.1875 11.734375 48.09375 
Q 17.96875 56 27.875 56 
Q 33.9375 56 38.25 53.625 
Q 42.578125 51.265625 45.40625 46.390625 
z
M 14.796875 27.296875 
Q 14.796875 17.390625 18.875 11.75 
Q 22.953125 6.109375 30.078125 6.109375 
Q 37.203125 6.109375 41.296875 11.75 
Q 45.40625 17.390625 45.40625 27.296875 
Q 45.40625 37.203125 41.296875 42.84375 
Q 37.203125 48.484375 30.078125 48.484375 
Q 22.953125 48.484375 18.875 42.84375 
Q 14.796875 37.203125 14.796875 27.296875 
z
" id="DejaVuSans-64"/>
      <path d="M 44.28125 53.078125 
L 44.28125 44.578125 
Q 40.484375 46.53125 36.375 47.5 
Q 32.28125 48.484375 27.875 48.484375 
Q 21.1875 48.484375 17.84375 46.4375 
Q 14.5 44.390625 14.5 40.28125 
Q 14.5 37.15625 16.890625 35.375 
Q 19.28125 33.59375 26.515625 31.984375 
L 29.59375 31.296875 
Q 39.15625 29.25 43.1875 25.515625 
Q 47.21875 21.78125 47.21875 15.09375 
Q 47.21875 7.46875 41.1875 3.015625 
Q 35.15625 -1.421875 24.609375 -1.421875 
Q 20.21875 -1.421875 15.453125 -0.5625 
Q 10.6875 0.296875 5.421875 2 
L 5.421875 11.28125 
Q 10.40625 8.6875 15.234375 7.390625 
Q 20.0625 6.109375 24.8125 6.109375 
Q 31.15625 6.109375 34.5625 8.28125 
Q 37.984375 10.453125 37.984375 14.40625 
Q 37.984375 18.0625 35.515625 20.015625 
Q 33.0625 21.96875 24.703125 23.78125 
L 21.578125 24.515625 
Q 13.234375 26.265625 9.515625 29.90625 
Q 5.8125 33.546875 5.8125 39.890625 
Q 5.8125 47.609375 11.28125 51.796875 
Q 16.75 56 26.8125 56 
Q 31.78125 56 36.171875 55.265625 
Q 40.578125 54.546875 44.28125 53.078125 
z
" id="DejaVuSans-73"/>
     </defs>
     <g transform="translate(10.690625 196.062375)rotate(-90)scale(0.1 -0.1)">
      <use xlink:href="#DejaVuSans-52"/>
      <use x="69.419922" xlink:href="#DejaVuSans-65"/>
      <use x="130.943359" xlink:href="#DejaVuSans-77"/>
      <use x="212.730469" xlink:href="#DejaVuSans-61"/>
      <use x="274.009766" xlink:href="#DejaVuSans-72"/>
      <use x="315.107422" xlink:href="#DejaVuSans-64"/>
      <use x="378.583984" xlink:href="#DejaVuSans-73"/>
     </g>
    </g>
   </g>
   <g id="line2d_27">
    <path clip-path="url(#p30e668e469)" d="M 73.832727 61.754815 
L 79.243636 61.81094 
L 84.654545 62.293087 
L 90.065455 62.587745 
L 95.476364 62.967802 
L 100.887273 63.608648 
L 106.298182 64.287475 
L 111.709091 65.244753 
L 117.12 67.29817 
L 122.530909 67.810556 
L 127.941818 70.50748 
L 133.352727 69.8422 
L 138.763636 69.911631 
L 144.174545 70.649004 
L 149.585455 71.736192 
L 154.996364 72.030851 
L 160.407273 72.873458 
L 165.818182 73.800495 
L 171.229091 74.086687 
L 176.64 74.443761 
L 182.050909 75.223711 
L 187.461818 75.974872 
L 192.872727 76.20639 
L 198.283636 76.751919 
L 203.694545 77.289708 
L 209.105455 78.264403 
L 214.516364 78.52108 
L 219.927273 78.712681 
L 225.338182 79.616494 
L 230.749091 80.279597 
L 236.16 80.563369 
L 241.570909 80.988906 
L 246.981818 81.656364 
L 252.392727 81.968682 
L 257.803636 82.625495 
L 263.214545 82.947007 
L 268.625455 83.064096 
L 274.036364 84.522148 
L 279.447273 84.854788 
L 284.858182 86.89127 
L 290.269091 87.936849 
L 295.68 89.618918 
L 301.090909 91.327116 
L 306.501818 89.647223 
L 311.912727 93.083455 
L 317.323636 93.777281 
L 322.734545 97.100536 
L 328.145455 94.879469 
L 333.556364 95.718447 
L 338.967273 100.01035 
L 344.378182 98.268042 
L 349.789091 103.103539 
L 355.2 104.616023 
L 360.610909 106.188503 
L 366.021818 104.583364 
L 371.432727 104.819478 
L 376.843636 106.481468 
L 382.254545 108.227647 
L 387.665455 108.429408 
L 393.076364 110.09285 
L 398.487273 113.087094 
" style="fill:none;stroke:#ff6347;stroke-linecap:square;stroke-width:2;"/>
   </g>
   <g id="line2d_28">
    <path clip-path="url(#p30e668e469)" d="M 73.832727 61.52233 
L 79.243636 63.626066 
L 84.654545 64.233285 
L 90.065455 63.817425 
L 95.476364 65.232173 
L 100.887273 65.705852 
L 106.298182 66.535638 
L 111.709091 66.896824 
L 117.12 67.636858 
L 122.530909 67.951112 
L 127.941818 68.358747 
L 133.352727 69.754625 
L 138.763636 70.906648 
L 144.174545 71.1626 
L 149.585455 73.110056 
L 154.996364 73.185777 
L 160.407273 74.865185 
L 165.818182 75.957938 
L 171.229091 76.397023 
L 176.64 77.864751 
L 182.050909 78.884928 
L 187.461818 77.444778 
L 192.872727 78.638653 
L 198.283636 77.486872 
L 203.694545 78.892428 
L 209.105455 78.75042 
L 214.516364 80.643928 
L 219.927273 80.285887 
L 225.338182 81.40017 
L 230.749091 83.020308 
L 236.16 83.570918 
L 241.570909 82.959587 
L 246.981818 83.35948 
L 252.392727 85.341289 
L 257.803636 86.171075 
L 263.214545 88.739781 
L 268.625455 87.332774 
L 274.036364 89.531827 
L 279.447273 93.90937 
L 284.858182 96.15729 
L 290.269091 95.435401 
L 295.68 98.449482 
L 301.090909 98.701563 
L 306.501818 98.666726 
L 311.912727 107.441891 
L 317.323636 103.383683 
L 322.734545 108.892927 
L 328.145455 106.879427 
L 333.556364 107.88412 
L 338.967273 111.286725 
L 344.378182 107.555109 
L 349.789091 113.451183 
L 355.2 116.545098 
L 360.610909 114.503052 
L 366.021818 117.249811 
L 371.432727 117.235538 
L 376.843636 116.549695 
L 382.254545 122.277635 
L 387.665455 124.260653 
L 393.076364 122.724945 
L 398.487273 124.218801 
" style="fill:none;stroke:#ffd700;stroke-dasharray:7.4,3.2;stroke-dashoffset:0;stroke-width:2;"/>
   </g>
   <g id="line2d_29">
    <path clip-path="url(#p30e668e469)" d="M 73.832727 61.834648 
L 79.243636 61.909644 
L 84.654545 62.534281 
L 90.065455 63.796378 
L 95.476364 63.867744 
L 100.887273 64.873647 
L 106.298182 65.105891 
L 111.709091 65.445062 
L 117.12 66.536364 
L 122.530909 66.683935 
L 127.941818 67.318975 
L 133.352727 68.110295 
L 138.763636 69.410373 
L 144.174545 70.249836 
L 149.585455 70.529979 
L 154.996364 71.721193 
L 160.407273 72.514691 
L 165.818182 73.455034 
L 171.229091 74.228694 
L 176.64 75.176536 
L 182.050909 75.663763 
L 187.461818 75.947293 
L 192.872727 76.219453 
L 198.283636 76.872396 
L 203.694545 77.353574 
L 209.105455 78.062158 
L 214.516364 78.112961 
L 219.927273 78.830496 
L 225.338182 79.830835 
L 230.749091 81.609915 
L 236.16 80.978988 
L 241.570909 82.139962 
L 246.981818 82.422524 
L 252.392727 82.56816 
L 257.803636 82.856529 
L 263.214545 83.629463 
L 268.625455 84.300549 
L 274.036364 85.836257 
L 279.447273 85.570629 
L 284.858182 86.290099 
L 290.269091 87.089161 
L 295.68 87.373901 
L 301.090909 88.787923 
L 306.501818 89.260393 
L 311.912727 90.868193 
L 317.323636 91.174706 
L 322.734545 92.807666 
L 328.145455 92.998783 
L 333.556364 93.916143 
L 338.967273 94.945513 
L 344.378182 95.495639 
L 349.789091 97.859923 
L 355.2 97.449627 
L 360.610909 99.854312 
L 366.021818 98.692612 
L 371.432727 100.238481 
L 376.843636 105.066962 
L 382.254545 104.617716 
L 387.665455 104.535222 
L 393.076364 105.19397 
L 398.487273 107.036916 
" style="fill:none;stroke:#00ffff;stroke-dasharray:2,3.3;stroke-dashoffset:0;stroke-width:2;"/>
   </g>
   <g id="line2d_30">
    <path clip-path="url(#p30e668e469)" d="M 73.832727 99.711579 
L 79.243636 100.357747 
L 84.654545 97.033283 
L 90.065455 101.145439 
L 95.476364 98.00822 
L 100.887273 99.953741 
L 106.298182 100.701032 
L 111.709091 101.946678 
L 117.12 103.432792 
L 122.530909 105.880781 
L 127.941818 108.254984 
L 133.352727 107.532127 
L 138.763636 108.077172 
L 144.174545 112.133445 
L 149.585455 111.520904 
L 154.996364 112.232148 
L 160.407273 115.524922 
L 165.818182 117.39835 
L 171.229091 121.938463 
L 176.64 125.573795 
L 182.050909 124.024297 
L 187.461818 130.687016 
L 192.872727 133.435953 
L 198.283636 134.334202 
L 203.694545 135.182373 
L 209.105455 143.737874 
L 214.516364 145.831692 
L 219.927273 153.783844 
L 225.338182 155.888306 
L 230.749091 155.481396 
L 236.16 161.878003 
L 241.570909 163.212434 
L 246.981818 168.138893 
L 252.392727 166.50303 
L 257.803636 169.058189 
L 263.214545 180.444879 
L 268.625455 186.444737 
L 274.036364 196.58046 
L 279.447273 202.615396 
L 284.858182 206.015098 
L 290.269091 210.525696 
L 295.68 213.038519 
L 301.090909 216.287505 
L 306.501818 221.788765 
L 311.912727 227.491546 
L 317.323636 228.192146 
L 322.734545 236.956666 
L 328.145455 243.492134 
L 333.556364 249.778668 
L 338.967273 249.671497 
L 344.378182 250.472978 
L 349.789091 248.703333 
L 355.2 250.369678 
L 360.610909 249.286602 
L 366.021818 250.323229 
L 371.432727 247.545988 
L 376.843636 251.868856 
L 382.254545 252.806296 
L 387.665455 256.020204 
L 393.076364 255.038008 
L 398.487273 256.342683 
" style="fill:none;stroke:#0000ff;stroke-dasharray:12.8,3.2,2,3.2;stroke-dashoffset:0;stroke-width:2;"/>
   </g>
   <g id="line2d_31">
    <path clip-path="url(#p30e668e469)" d="M 73.832727 63.205851 
L 79.243636 63.230043 
L 84.654545 63.20198 
L 90.065455 63.328746 
L 95.476364 63.285684 
L 100.887273 63.363341 
L 106.298182 63.477769 
L 111.709091 63.574537 
L 117.12 63.665015 
L 122.530909 63.992817 
L 127.941818 64.179095 
L 133.352727 64.506897 
L 138.763636 64.826473 
L 144.174545 65.154275 
L 149.585455 66.043089 
L 154.996364 66.166952 
L 160.407273 66.556685 
L 165.818182 67.495576 
L 171.229091 67.755156 
L 176.64 68.730336 
L 182.050909 69.233288 
L 187.461818 70.751336 
L 192.872727 71.771754 
L 198.283636 73.999596 
L 203.694545 75.678762 
L 209.105455 78.650024 
L 214.516364 80.465149 
L 219.927273 81.621285 
L 225.338182 83.440282 
L 230.749091 82.23552 
L 236.16 83.787437 
L 241.570909 82.804516 
L 246.981818 86.484361 
L 252.392727 85.257101 
L 257.803636 85.639818 
L 263.214545 85.601595 
L 268.625455 87.326484 
L 274.036364 85.345644 
L 279.447273 88.516731 
L 284.858182 89.122499 
L 290.269091 88.890013 
L 295.68 88.041116 
L 301.090909 92.727348 
L 306.501818 89.790682 
L 311.912727 90.13324 
L 317.323636 92.150369 
L 322.734545 96.216803 
L 328.145455 94.552635 
L 333.556364 100.728369 
L 338.967273 94.731172 
L 344.378182 97.737996 
L 349.789091 101.986595 
L 355.2 98.826394 
L 360.610909 101.99482 
L 366.021818 103.29393 
L 371.432727 103.888812 
L 376.843636 105.688696 
L 382.254545 105.965211 
L 387.665455 107.364234 
L 393.076364 109.018241 
L 398.487273 111.842173 
" style="fill:none;stroke:#008000;stroke-dasharray:12.8,3.2,2,3.2;stroke-dashoffset:0;stroke-width:2;"/>
   </g>
   <g id="line2d_32">
    <path clip-path="url(#p30e668e469)" d="M 73.832727 63.1969 
L 79.243636 63.391162 
L 84.654545 63.404709 
L 90.065455 63.473172 
L 95.476364 63.3002 
L 100.887273 63.335278 
L 106.298182 63.348342 
L 111.709091 63.443658 
L 117.12 63.676627 
L 122.530909 63.749445 
L 127.941818 64.099745 
L 133.352727 64.29812 
L 138.763636 64.518751 
L 144.174545 65.211368 
L 149.585455 65.401759 
L 154.996364 65.880035 
L 160.407273 66.584264 
L 165.818182 66.972061 
L 171.229091 67.495092 
L 176.64 68.247948 
L 182.050909 69.047977 
L 187.461818 70.156938 
L 192.872727 71.153649 
L 198.283636 72.298172 
L 203.694545 73.358991 
L 209.105455 74.704308 
L 214.516364 75.099848 
L 219.927273 75.901087 
L 225.338182 76.051077 
L 230.749091 76.431859 
L 236.16 77.223663 
L 241.570909 78.205375 
L 246.981818 78.669861 
L 252.392727 79.074835 
L 257.803636 79.204262 
L 263.214545 79.399976 
L 268.625455 79.430941 
L 274.036364 79.688586 
L 279.447273 80.080255 
L 284.858182 80.029693 
L 290.269091 80.567482 
L 295.68 80.838432 
L 301.090909 81.288645 
L 306.501818 82.00618 
L 311.912727 83.265615 
L 317.323636 83.788646 
L 322.734545 84.45562 
L 328.145455 85.026309 
L 333.556364 85.3125 
L 338.967273 86.085677 
L 344.378182 87.755409 
L 349.789091 87.59937 
L 355.2 88.215782 
L 360.610909 90.810374 
L 366.021818 90.312987 
L 371.432727 92.046102 
L 376.843636 93.509718 
L 382.254545 108.905023 
L 387.665455 112.422298 
L 393.076364 118.362643 
L 398.487273 154.271071 
" style="fill:none;stroke:#800080;stroke-dasharray:12.8,3.2,2,3.2;stroke-dashoffset:0;stroke-width:2;"/>
   </g>
   <g id="patch_3">
    <path d="M 57.6 307.584 
L 57.6 41.472 
" style="fill:none;stroke:#000000;stroke-linecap:square;stroke-linejoin:miter;stroke-width:0.8;"/>
   </g>
   <g id="patch_4">
    <path d="M 414.72 307.584 
L 414.72 41.472 
" style="fill:none;stroke:#000000;stroke-linecap:square;stroke-linejoin:miter;stroke-width:0.8;"/>
   </g>
   <g id="patch_5">
    <path d="M 57.6 307.584 
L 414.72 307.584 
" style="fill:none;stroke:#000000;stroke-linecap:square;stroke-linejoin:miter;stroke-width:0.8;"/>
   </g>
   <g id="patch_6">
    <path d="M 57.6 41.472 
L 414.72 41.472 
" style="fill:none;stroke:#000000;stroke-linecap:square;stroke-linejoin:miter;stroke-width:0.8;"/>
   </g>
   <g id="text_16">
    <!-- Mountain Car (200000 steps) -->
    <defs>
     <path d="M 9.8125 72.90625 
L 24.515625 72.90625 
L 43.109375 23.296875 
L 61.8125 72.90625 
L 76.515625 72.90625 
L 76.515625 0 
L 66.890625 0 
L 66.890625 64.015625 
L 48.09375 14.015625 
L 38.1875 14.015625 
L 19.390625 64.015625 
L 19.390625 0 
L 9.8125 0 
z
" id="DejaVuSans-4d"/>
     <path d="M 30.609375 48.390625 
Q 23.390625 48.390625 19.1875 42.75 
Q 14.984375 37.109375 14.984375 27.296875 
Q 14.984375 17.484375 19.15625 11.84375 
Q 23.34375 6.203125 30.609375 6.203125 
Q 37.796875 6.203125 41.984375 11.859375 
Q 46.1875 17.53125 46.1875 27.296875 
Q 46.1875 37.015625 41.984375 42.703125 
Q 37.796875 48.390625 30.609375 48.390625 
z
M 30.609375 56 
Q 42.328125 56 49.015625 48.375 
Q 55.71875 40.765625 55.71875 27.296875 
Q 55.71875 13.875 49.015625 6.21875 
Q 42.328125 -1.421875 30.609375 -1.421875 
Q 18.84375 -1.421875 12.171875 6.21875 
Q 5.515625 13.875 5.515625 27.296875 
Q 5.515625 40.765625 12.171875 48.375 
Q 18.84375 56 30.609375 56 
z
" id="DejaVuSans-6f"/>
     <path d="M 8.5 21.578125 
L 8.5 54.6875 
L 17.484375 54.6875 
L 17.484375 21.921875 
Q 17.484375 14.15625 20.5 10.265625 
Q 23.53125 6.390625 29.59375 6.390625 
Q 36.859375 6.390625 41.078125 11.03125 
Q 45.3125 15.671875 45.3125 23.6875 
L 45.3125 54.6875 
L 54.296875 54.6875 
L 54.296875 0 
L 45.3125 0 
L 45.3125 8.40625 
Q 42.046875 3.421875 37.71875 1 
Q 33.40625 -1.421875 27.6875 -1.421875 
Q 18.265625 -1.421875 13.375 4.4375 
Q 8.5 10.296875 8.5 21.578125 
z
M 31.109375 56 
z
" id="DejaVuSans-75"/>
     <path d="M 54.890625 33.015625 
L 54.890625 0 
L 45.90625 0 
L 45.90625 32.71875 
Q 45.90625 40.484375 42.875 44.328125 
Q 39.84375 48.1875 33.796875 48.1875 
Q 26.515625 48.1875 22.3125 43.546875 
Q 18.109375 38.921875 18.109375 30.90625 
L 18.109375 0 
L 9.078125 0 
L 9.078125 54.6875 
L 18.109375 54.6875 
L 18.109375 46.1875 
Q 21.34375 51.125 25.703125 53.5625 
Q 30.078125 56 35.796875 56 
Q 45.21875 56 50.046875 50.171875 
Q 54.890625 44.34375 54.890625 33.015625 
z
" id="DejaVuSans-6e"/>
     <path d="M 18.109375 8.203125 
L 18.109375 -20.796875 
L 9.078125 -20.796875 
L 9.078125 54.6875 
L 18.109375 54.6875 
L 18.109375 46.390625 
Q 20.953125 51.265625 25.265625 53.625 
Q 29.59375 56 35.59375 56 
Q 45.5625 56 51.78125 48.09375 
Q 58.015625 40.1875 58.015625 27.296875 
Q 58.015625 14.40625 51.78125 6.484375 
Q 45.5625 -1.421875 35.59375 -1.421875 
Q 29.59375 -1.421875 25.265625 0.953125 
Q 20.953125 3.328125 18.109375 8.203125 
z
M 48.6875 27.296875 
Q 48.6875 37.203125 44.609375 42.84375 
Q 40.53125 48.484375 33.40625 48.484375 
Q 26.265625 48.484375 22.1875 42.84375 
Q 18.109375 37.203125 18.109375 27.296875 
Q 18.109375 17.390625 22.1875 11.75 
Q 26.265625 6.109375 33.40625 6.109375 
Q 40.53125 6.109375 44.609375 11.75 
Q 48.6875 17.390625 48.6875 27.296875 
z
" id="DejaVuSans-70"/>
    </defs>
    <g transform="translate(148.463437 35.472)scale(0.12 -0.12)">
     <use xlink:href="#DejaVuSans-4d"/>
     <use x="86.279297" xlink:href="#DejaVuSans-6f"/>
     <use x="147.460938" xlink:href="#DejaVuSans-75"/>
     <use x="210.839844" xlink:href="#DejaVuSans-6e"/>
     <use x="274.21875" xlink:href="#DejaVuSans-74"/>
     <use x="313.427734" xlink:href="#DejaVuSans-61"/>
     <use x="374.707031" xlink:href="#DejaVuSans-69"/>
     <use x="402.490234" xlink:href="#DejaVuSans-6e"/>
     <use x="465.869141" xlink:href="#DejaVuSans-20"/>
     <use x="497.65625" xlink:href="#DejaVuSans-43"/>
     <use x="567.480469" xlink:href="#DejaVuSans-61"/>
     <use x="628.759766" xlink:href="#DejaVuSans-72"/>
     <use x="669.873047" xlink:href="#DejaVuSans-20"/>
     <use x="701.660156" xlink:href="#DejaVuSans-28"/>
     <use x="740.673828" xlink:href="#DejaVuSans-32"/>
     <use x="804.296875" xlink:href="#DejaVuSans-30"/>
     <use x="867.919922" xlink:href="#DejaVuSans-30"/>
     <use x="931.542969" xlink:href="#DejaVuSans-30"/>
     <use x="995.166016" xlink:href="#DejaVuSans-30"/>
     <use x="1058.789062" xlink:href="#DejaVuSans-30"/>
     <use x="1122.412109" xlink:href="#DejaVuSans-20"/>
     <use x="1154.199219" xlink:href="#DejaVuSans-73"/>
     <use x="1206.298828" xlink:href="#DejaVuSans-74"/>
     <use x="1245.507812" xlink:href="#DejaVuSans-65"/>
     <use x="1307.03125" xlink:href="#DejaVuSans-70"/>
     <use x="1370.507812" xlink:href="#DejaVuSans-73"/>
     <use x="1422.607422" xlink:href="#DejaVuSans-29"/>
    </g>
   </g>
   <g id="legend_1">
    <g id="patch_7">
     <path d="M 64.6 302.584 
L 186.764062 302.584 
Q 188.764062 302.584 188.764062 300.584 
L 188.764062 213.51525 
Q 188.764062 211.51525 186.764062 211.51525 
L 64.6 211.51525 
Q 62.6 211.51525 62.6 213.51525 
L 62.6 300.584 
Q 62.6 302.584 64.6 302.584 
z
" style="fill:#ffffff;opacity:0.8;stroke:#cccccc;stroke-linejoin:miter;"/>
    </g>
    <g id="line2d_33">
     <path d="M 66.6 219.613687 
L 86.6 219.613687 
" style="fill:none;stroke:#ff6347;stroke-linecap:square;stroke-width:2;"/>
    </g>
    <g id="line2d_34"/>
    <g id="text_17">
     <!-- Base -->
     <defs>
      <path d="M 19.671875 34.8125 
L 19.671875 8.109375 
L 35.5 8.109375 
Q 43.453125 8.109375 47.28125 11.40625 
Q 51.125 14.703125 51.125 21.484375 
Q 51.125 28.328125 47.28125 31.5625 
Q 43.453125 34.8125 35.5 34.8125 
z
M 19.671875 64.796875 
L 19.671875 42.828125 
L 34.28125 42.828125 
Q 41.5 42.828125 45.03125 45.53125 
Q 48.578125 48.25 48.578125 53.8125 
Q 48.578125 59.328125 45.03125 62.0625 
Q 41.5 64.796875 34.28125 64.796875 
z
M 9.8125 72.90625 
L 35.015625 72.90625 
Q 46.296875 72.90625 52.390625 68.21875 
Q 58.5 63.53125 58.5 54.890625 
Q 58.5 48.1875 55.375 44.234375 
Q 52.25 40.28125 46.1875 39.3125 
Q 53.46875 37.75 57.5 32.78125 
Q 61.53125 27.828125 61.53125 20.40625 
Q 61.53125 10.640625 54.890625 5.3125 
Q 48.25 0 35.984375 0 
L 9.8125 0 
z
" id="DejaVuSans-42"/>
     </defs>
     <g transform="translate(94.6 223.113687)scale(0.1 -0.1)">
      <use xlink:href="#DejaVuSans-42"/>
      <use x="68.603516" xlink:href="#DejaVuSans-61"/>
      <use x="129.882812" xlink:href="#DejaVuSans-73"/>
      <use x="181.982422" xlink:href="#DejaVuSans-65"/>
     </g>
    </g>
    <g id="line2d_35">
     <path d="M 66.6 234.291812 
L 86.6 234.291812 
" style="fill:none;stroke:#ffd700;stroke-dasharray:7.4,3.2;stroke-dashoffset:0;stroke-width:2;"/>
    </g>
    <g id="line2d_36"/>
    <g id="text_18">
     <!-- L1 -->
     <defs>
      <path d="M 9.8125 72.90625 
L 19.671875 72.90625 
L 19.671875 8.296875 
L 55.171875 8.296875 
L 55.171875 0 
L 9.8125 0 
z
" id="DejaVuSans-4c"/>
     </defs>
     <g transform="translate(94.6 237.791812)scale(0.1 -0.1)">
      <use xlink:href="#DejaVuSans-4c"/>
      <use x="55.712891" xlink:href="#DejaVuSans-31"/>
     </g>
    </g>
    <g id="line2d_37">
     <path d="M 66.6 248.969937 
L 86.6 248.969937 
" style="fill:none;stroke:#00ffff;stroke-dasharray:2,3.3;stroke-dashoffset:0;stroke-width:2;"/>
    </g>
    <g id="line2d_38"/>
    <g id="text_19">
     <!-- L2 -->
     <g transform="translate(94.6 252.469937)scale(0.1 -0.1)">
      <use xlink:href="#DejaVuSans-4c"/>
      <use x="55.712891" xlink:href="#DejaVuSans-32"/>
     </g>
    </g>
    <g id="line2d_39">
     <path d="M 66.6 263.648062 
L 86.6 263.648062 
" style="fill:none;stroke:#0000ff;stroke-dasharray:12.8,3.2,2,3.2;stroke-dashoffset:0;stroke-width:2;"/>
    </g>
    <g id="line2d_40"/>
    <g id="text_20">
     <!-- Dropout -->
     <defs>
      <path d="M 19.671875 64.796875 
L 19.671875 8.109375 
L 31.59375 8.109375 
Q 46.6875 8.109375 53.6875 14.9375 
Q 60.6875 21.78125 60.6875 36.53125 
Q 60.6875 51.171875 53.6875 57.984375 
Q 46.6875 64.796875 31.59375 64.796875 
z
M 9.8125 72.90625 
L 30.078125 72.90625 
Q 51.265625 72.90625 61.171875 64.09375 
Q 71.09375 55.28125 71.09375 36.53125 
Q 71.09375 17.671875 61.125 8.828125 
Q 51.171875 0 30.078125 0 
L 9.8125 0 
z
" id="DejaVuSans-44"/>
     </defs>
     <g transform="translate(94.6 267.148062)scale(0.1 -0.1)">
      <use xlink:href="#DejaVuSans-44"/>
      <use x="77.001953" xlink:href="#DejaVuSans-72"/>
      <use x="118.083984" xlink:href="#DejaVuSans-6f"/>
      <use x="179.265625" xlink:href="#DejaVuSans-70"/>
      <use x="242.742188" xlink:href="#DejaVuSans-6f"/>
      <use x="303.923828" xlink:href="#DejaVuSans-75"/>
      <use x="367.302734" xlink:href="#DejaVuSans-74"/>
     </g>
    </g>
    <g id="line2d_41">
     <path d="M 66.6 278.326188 
L 86.6 278.326188 
" style="fill:none;stroke:#008000;stroke-dasharray:12.8,3.2,2,3.2;stroke-dashoffset:0;stroke-width:2;"/>
    </g>
    <g id="line2d_42"/>
    <g id="text_21">
     <!-- Improved dropout -->
     <defs>
      <path d="M 9.8125 72.90625 
L 19.671875 72.90625 
L 19.671875 0 
L 9.8125 0 
z
" id="DejaVuSans-49"/>
      <path d="M 52 44.1875 
Q 55.375 50.25 60.0625 53.125 
Q 64.75 56 71.09375 56 
Q 79.640625 56 84.28125 50.015625 
Q 88.921875 44.046875 88.921875 33.015625 
L 88.921875 0 
L 79.890625 0 
L 79.890625 32.71875 
Q 79.890625 40.578125 77.09375 44.375 
Q 74.3125 48.1875 68.609375 48.1875 
Q 61.625 48.1875 57.5625 43.546875 
Q 53.515625 38.921875 53.515625 30.90625 
L 53.515625 0 
L 44.484375 0 
L 44.484375 32.71875 
Q 44.484375 40.625 41.703125 44.40625 
Q 38.921875 48.1875 33.109375 48.1875 
Q 26.21875 48.1875 22.15625 43.53125 
Q 18.109375 38.875 18.109375 30.90625 
L 18.109375 0 
L 9.078125 0 
L 9.078125 54.6875 
L 18.109375 54.6875 
L 18.109375 46.1875 
Q 21.1875 51.21875 25.484375 53.609375 
Q 29.78125 56 35.6875 56 
Q 41.65625 56 45.828125 52.96875 
Q 50 49.953125 52 44.1875 
z
" id="DejaVuSans-6d"/>
      <path d="M 2.984375 54.6875 
L 12.5 54.6875 
L 29.59375 8.796875 
L 46.6875 54.6875 
L 56.203125 54.6875 
L 35.6875 0 
L 23.484375 0 
z
" id="DejaVuSans-76"/>
     </defs>
     <g transform="translate(94.6 281.826188)scale(0.1 -0.1)">
      <use xlink:href="#DejaVuSans-49"/>
      <use x="29.492188" xlink:href="#DejaVuSans-6d"/>
      <use x="126.904297" xlink:href="#DejaVuSans-70"/>
      <use x="190.380859" xlink:href="#DejaVuSans-72"/>
      <use x="231.462891" xlink:href="#DejaVuSans-6f"/>
      <use x="292.644531" xlink:href="#DejaVuSans-76"/>
      <use x="351.824219" xlink:href="#DejaVuSans-65"/>
      <use x="413.347656" xlink:href="#DejaVuSans-64"/>
      <use x="476.824219" xlink:href="#DejaVuSans-20"/>
      <use x="508.611328" xlink:href="#DejaVuSans-64"/>
      <use x="572.087891" xlink:href="#DejaVuSans-72"/>
      <use x="613.169922" xlink:href="#DejaVuSans-6f"/>
      <use x="674.351562" xlink:href="#DejaVuSans-70"/>
      <use x="737.828125" xlink:href="#DejaVuSans-6f"/>
      <use x="799.009766" xlink:href="#DejaVuSans-75"/>
      <use x="862.388672" xlink:href="#DejaVuSans-74"/>
     </g>
    </g>
    <g id="line2d_43">
     <path d="M 66.6 293.004312 
L 86.6 293.004312 
" style="fill:none;stroke:#800080;stroke-dasharray:12.8,3.2,2,3.2;stroke-dashoffset:0;stroke-width:2;"/>
    </g>
    <g id="line2d_44"/>
    <g id="text_22">
     <!-- New dropout -->
     <defs>
      <path d="M 9.8125 72.90625 
L 23.09375 72.90625 
L 55.421875 11.921875 
L 55.421875 72.90625 
L 64.984375 72.90625 
L 64.984375 0 
L 51.703125 0 
L 19.390625 60.984375 
L 19.390625 0 
L 9.8125 0 
z
" id="DejaVuSans-4e"/>
     </defs>
     <g transform="translate(94.6 296.504312)scale(0.1 -0.1)">
      <use xlink:href="#DejaVuSans-4e"/>
      <use x="74.804688" xlink:href="#DejaVuSans-65"/>
      <use x="136.328125" xlink:href="#DejaVuSans-77"/>
      <use x="218.115234" xlink:href="#DejaVuSans-20"/>
      <use x="249.902344" xlink:href="#DejaVuSans-64"/>
      <use x="313.378906" xlink:href="#DejaVuSans-72"/>
      <use x="354.460938" xlink:href="#DejaVuSans-6f"/>
      <use x="415.642578" xlink:href="#DejaVuSans-70"/>
      <use x="479.119141" xlink:href="#DejaVuSans-6f"/>
      <use x="540.300781" xlink:href="#DejaVuSans-75"/>
      <use x="603.679688" xlink:href="#DejaVuSans-74"/>
     </g>
    </g>
   </g>
  </g>
 </g>
 <defs>
  <clipPath id="p30e668e469">
   <rect height="266.112" width="357.12" x="57.6" y="41.472"/>
  </clipPath>
 </defs>
</svg>
