<?xml version="1.0" encoding="utf-8" standalone="no"?>
<!DOCTYPE svg PUBLIC "-//W3C//DTD SVG 1.1//EN"
  "http://www.w3.org/Graphics/SVG/1.1/DTD/svg11.dtd">
<!-- Created with matplotlib (http://matplotlib.org/) -->
<svg height="345.6pt" version="1.1" viewBox="0 0 460.8 345.6" width="460.8pt" xmlns="http://www.w3.org/2000/svg" xmlns:xlink="http://www.w3.org/1999/xlink">
 <defs>
  <style type="text/css">
*{stroke-linecap:butt;stroke-linejoin:round;}
  </style>
 </defs>
 <g id="figure_1">
  <g id="patch_1">
   <path d="M 0 345.6 
L 460.8 345.6 
L 460.8 0 
L 0 0 
z
" style="fill:#ffffff;"/>
  </g>
  <g id="axes_1">
   <g id="patch_2">
    <path d="M 57.6 307.584 
L 414.72 307.584 
L 414.72 41.472 
L 57.6 41.472 
z
" style="fill:#ffffff;"/>
   </g>
   <g id="PolyCollection_1">
    <path clip-path="url(#pe4fee579d1)" d="M 73.832727 219.119977 
L 73.832727 123.344186 
L 79.243636 122.860408 
L 84.654545 127.365522 
L 90.065455 125.524261 
L 95.476364 129.89974 
L 100.887273 138.835834 
L 106.298182 135.39671 
L 111.709091 134.525003 
L 117.12 138.590127 
L 122.530909 139.980327 
L 127.941818 138.668882 
L 133.352727 145.797117 
L 138.763636 153.18293 
L 144.174545 152.112046 
L 149.585455 155.010501 
L 154.996364 159.566628 
L 160.407273 160.900581 
L 165.818182 161.685122 
L 171.229091 165.360476 
L 176.64 163.285195 
L 182.050909 161.531677 
L 187.461818 164.027556 
L 192.872727 163.340715 
L 198.283636 164.813997 
L 203.694545 160.892878 
L 209.105455 161.833602 
L 214.516364 159.954095 
L 219.927273 159.896853 
L 225.338182 159.355853 
L 230.749091 160.790575 
L 236.16 161.233098 
L 241.570909 162.191756 
L 246.981818 164.155724 
L 252.392727 167.077197 
L 257.803636 168.980289 
L 263.214545 172.034152 
L 268.625455 170.63817 
L 274.036364 175.637799 
L 279.447273 174.679433 
L 284.858182 176.162835 
L 290.269091 178.328041 
L 295.68 179.284296 
L 301.090909 182.284018 
L 306.501818 180.970167 
L 311.912727 179.739163 
L 317.323636 182.360536 
L 322.734545 183.104268 
L 328.145455 183.945325 
L 333.556364 184.758123 
L 338.967273 183.019059 
L 344.378182 187.221402 
L 349.789091 187.985462 
L 355.2 191.778923 
L 360.610909 190.319082 
L 366.021818 193.190977 
L 371.432727 196.31233 
L 376.843636 196.736305 
L 382.254545 192.758408 
L 387.665455 199.083572 
L 393.076364 198.344836 
L 398.487273 201.255122 
L 398.487273 262.618529 
L 398.487273 262.618529 
L 393.076364 261.081358 
L 387.665455 261.587059 
L 382.254545 258.95586 
L 376.843636 261.714952 
L 371.432727 261.883943 
L 366.021818 260.034807 
L 360.610909 258.128782 
L 355.2 258.127719 
L 349.789091 257.12439 
L 344.378182 256.434511 
L 338.967273 254.38806 
L 333.556364 255.409787 
L 328.145455 255.500696 
L 322.734545 255.796949 
L 317.323636 254.442751 
L 311.912727 253.804494 
L 306.501818 253.831958 
L 301.090909 254.692968 
L 295.68 253.262167 
L 290.269091 252.556915 
L 284.858182 251.15235 
L 279.447273 251.359382 
L 274.036364 252.096875 
L 268.625455 248.980088 
L 263.214545 251.417571 
L 257.803636 248.809538 
L 252.392727 247.67363 
L 246.981818 246.206675 
L 241.570909 244.869887 
L 236.16 245.232937 
L 230.749091 244.836482 
L 225.338182 243.470254 
L 219.927273 244.045957 
L 214.516364 242.456393 
L 209.105455 243.018827 
L 203.694545 242.782368 
L 198.283636 244.041724 
L 192.872727 242.559711 
L 187.461818 243.358259 
L 182.050909 241.914713 
L 176.64 241.925276 
L 171.229091 243.895381 
L 165.818182 242.108181 
L 160.407273 240.640447 
L 154.996364 240.205481 
L 149.585455 237.386919 
L 144.174545 234.044321 
L 138.763636 235.807772 
L 133.352727 233.87144 
L 127.941818 227.346678 
L 122.530909 226.987914 
L 117.12 227.583649 
L 111.709091 223.936362 
L 106.298182 225.706422 
L 100.887273 227.758398 
L 95.476364 221.997852 
L 90.065455 219.926164 
L 84.654545 219.513682 
L 79.243636 217.548887 
L 73.832727 219.119977 
z
" style="fill:#ff6347;fill-opacity:0.2;"/>
   </g>
   <g id="PolyCollection_2">
    <path clip-path="url(#pe4fee579d1)" d="M 73.832727 196.365245 
L 73.832727 97.694597 
L 79.243636 97.5733 
L 84.654545 97.771457 
L 90.065455 98.559093 
L 95.476364 99.303078 
L 100.887273 98.689503 
L 106.298182 101.372675 
L 111.709091 102.274634 
L 117.12 104.039166 
L 122.530909 105.016657 
L 127.941818 105.814374 
L 133.352727 106.208522 
L 138.763636 106.215026 
L 144.174545 104.558271 
L 149.585455 102.863951 
L 154.996364 100.779068 
L 160.407273 99.033811 
L 165.818182 98.831799 
L 171.229091 100.150588 
L 176.64 99.663654 
L 182.050909 102.942438 
L 187.461818 100.717439 
L 192.872727 103.173017 
L 198.283636 104.19168 
L 203.694545 106.048756 
L 209.105455 106.563489 
L 214.516364 107.438822 
L 219.927273 108.966079 
L 225.338182 110.474605 
L 230.749091 109.173582 
L 236.16 111.504131 
L 241.570909 112.985354 
L 246.981818 111.213317 
L 252.392727 114.658957 
L 257.803636 114.493368 
L 263.214545 117.417553 
L 268.625455 118.825327 
L 274.036364 119.402319 
L 279.447273 117.990436 
L 284.858182 118.421529 
L 290.269091 120.25014 
L 295.68 120.479887 
L 301.090909 119.526772 
L 306.501818 122.116943 
L 311.912727 122.796458 
L 317.323636 124.012835 
L 322.734545 123.853197 
L 328.145455 125.712812 
L 333.556364 127.409614 
L 338.967273 128.418446 
L 344.378182 130.070918 
L 349.789091 130.356465 
L 355.2 130.697554 
L 360.610909 131.307457 
L 366.021818 135.277789 
L 371.432727 134.266165 
L 376.843636 139.728642 
L 382.254545 139.61382 
L 387.665455 139.81097 
L 393.076364 142.253495 
L 398.487273 140.298889 
L 398.487273 210.972614 
L 398.487273 210.972614 
L 393.076364 211.03804 
L 387.665455 208.498465 
L 382.254545 212.427473 
L 376.843636 211.306748 
L 371.432727 206.71261 
L 366.021818 206.211437 
L 360.610909 204.29392 
L 355.2 203.712125 
L 349.789091 203.006185 
L 344.378182 202.743541 
L 338.967273 202.055195 
L 333.556364 200.683535 
L 328.145455 201.162511 
L 322.734545 198.110182 
L 317.323636 198.262137 
L 311.912727 198.116989 
L 306.501818 197.700122 
L 301.090909 194.151331 
L 295.68 196.604933 
L 290.269091 197.532862 
L 284.858182 194.426305 
L 279.447273 194.183892 
L 274.036364 196.655793 
L 268.625455 195.648209 
L 263.214545 193.923603 
L 257.803636 191.343141 
L 252.392727 192.496983 
L 246.981818 186.361623 
L 241.570909 191.823962 
L 236.16 190.760671 
L 230.749091 189.035672 
L 225.338182 190.534631 
L 219.927273 189.997965 
L 214.516364 189.852587 
L 209.105455 189.353331 
L 203.694545 188.444123 
L 198.283636 186.204042 
L 192.872727 183.418271 
L 187.461818 181.57735 
L 182.050909 183.86561 
L 176.64 181.68426 
L 171.229091 180.280449 
L 165.818182 178.19107 
L 160.407273 179.237848 
L 154.996364 181.254931 
L 149.585455 186.042512 
L 144.174545 189.883322 
L 138.763636 195.691734 
L 133.352727 199.750881 
L 127.941818 200.449849 
L 122.530909 201.195794 
L 117.12 199.858112 
L 111.709091 198.244956 
L 106.298182 197.192201 
L 100.887273 193.651256 
L 95.476364 195.086744 
L 90.065455 194.242281 
L 84.654545 193.723066 
L 79.243636 194.871968 
L 73.832727 196.365245 
z
" style="fill:#ffd700;fill-opacity:0.2;"/>
   </g>
   <g id="PolyCollection_3">
    <path clip-path="url(#pe4fee579d1)" d="M 73.832727 256.185822 
L 73.832727 170.252645 
L 79.243636 170.50456 
L 84.654545 168.401234 
L 90.065455 170.263204 
L 95.476364 172.362963 
L 100.887273 171.398659 
L 106.298182 171.413579 
L 111.709091 171.823546 
L 117.12 172.389275 
L 122.530909 173.338656 
L 127.941818 175.70759 
L 133.352727 175.867543 
L 138.763636 177.865636 
L 144.174545 178.135367 
L 149.585455 178.831136 
L 154.996364 182.041105 
L 160.407273 183.088873 
L 165.818182 181.412074 
L 171.229091 182.486262 
L 176.64 183.242816 
L 182.050909 185.128427 
L 187.461818 185.299085 
L 192.872727 185.239924 
L 198.283636 187.905969 
L 203.694545 188.206566 
L 209.105455 188.704596 
L 214.516364 188.171835 
L 219.927273 189.803325 
L 225.338182 188.019758 
L 230.749091 190.647153 
L 236.16 190.722663 
L 241.570909 192.288903 
L 246.981818 192.086494 
L 252.392727 194.432925 
L 257.803636 195.064631 
L 263.214545 195.942283 
L 268.625455 201.176648 
L 274.036364 196.683623 
L 279.447273 201.514236 
L 284.858182 200.232545 
L 290.269091 200.401984 
L 295.68 201.205026 
L 301.090909 203.93036 
L 306.501818 205.279956 
L 311.912727 206.53093 
L 317.323636 207.571165 
L 322.734545 208.658222 
L 328.145455 207.908361 
L 333.556364 211.209708 
L 338.967273 211.008908 
L 344.378182 214.6206 
L 349.789091 214.192086 
L 355.2 215.492291 
L 360.610909 214.96614 
L 366.021818 218.969205 
L 371.432727 215.978021 
L 376.843636 217.105153 
L 382.254545 222.806409 
L 387.665455 219.616319 
L 393.076364 222.961735 
L 398.487273 224.396495 
L 398.487273 275.025365 
L 398.487273 275.025365 
L 393.076364 275.789523 
L 387.665455 274.497332 
L 382.254545 276.105484 
L 376.843636 273.499207 
L 371.432727 274.855195 
L 366.021818 276.230667 
L 360.610909 273.611414 
L 355.2 275.583813 
L 349.789091 274.067585 
L 344.378182 276.347123 
L 338.967273 272.528968 
L 333.556364 273.269237 
L 328.145455 273.625934 
L 322.734545 273.511838 
L 317.323636 273.146892 
L 311.912727 273.758928 
L 306.501818 271.613345 
L 301.090909 273.365981 
L 295.68 271.155662 
L 290.269091 271.352453 
L 284.858182 272.206526 
L 279.447273 272.563117 
L 274.036364 271.435725 
L 268.625455 271.313226 
L 263.214545 270.187998 
L 257.803636 268.820632 
L 252.392727 268.961724 
L 246.981818 266.126713 
L 241.570909 269.277316 
L 236.16 268.810944 
L 230.749091 268.876293 
L 225.338182 266.553037 
L 219.927273 269.093548 
L 214.516364 267.171717 
L 209.105455 267.828234 
L 203.694545 266.707336 
L 198.283636 266.306365 
L 192.872727 263.087465 
L 187.461818 262.962017 
L 182.050909 263.193639 
L 176.64 261.714626 
L 171.229091 260.480663 
L 165.818182 260.32251 
L 160.407273 261.448112 
L 154.996364 260.675191 
L 149.585455 257.368319 
L 144.174545 258.386809 
L 138.763636 259.110866 
L 133.352727 257.339845 
L 127.941818 258.770846 
L 122.530909 255.532074 
L 117.12 255.851496 
L 111.709091 256.149178 
L 106.298182 257.263616 
L 100.887273 256.580354 
L 95.476364 257.805426 
L 90.065455 254.870347 
L 84.654545 252.916754 
L 79.243636 256.361138 
L 73.832727 256.185822 
z
" style="fill:#00ffff;fill-opacity:0.2;"/>
   </g>
   <g id="PolyCollection_4">
    <path clip-path="url(#pe4fee579d1)" d="M 73.832727 207.461657 
L 73.832727 117.669907 
L 79.243636 122.579522 
L 84.654545 124.337201 
L 90.065455 127.452114 
L 95.476364 127.547624 
L 100.887273 127.836326 
L 106.298182 132.150692 
L 111.709091 134.018508 
L 117.12 137.241298 
L 122.530909 142.279133 
L 127.941818 144.553862 
L 133.352727 147.914931 
L 138.763636 155.524473 
L 144.174545 156.955025 
L 149.585455 160.207591 
L 154.996364 160.411932 
L 160.407273 168.998252 
L 165.818182 168.790527 
L 171.229091 174.928168 
L 176.64 177.950668 
L 182.050909 179.185965 
L 187.461818 182.692331 
L 192.872727 183.289962 
L 198.283636 189.777834 
L 203.694545 194.114869 
L 209.105455 196.728657 
L 214.516364 198.586484 
L 219.927273 200.072582 
L 225.338182 209.528244 
L 230.749091 206.309094 
L 236.16 212.862664 
L 241.570909 217.27307 
L 246.981818 216.691808 
L 252.392727 218.72888 
L 257.803636 221.775758 
L 263.214545 223.028751 
L 268.625455 229.304443 
L 274.036364 221.18903 
L 279.447273 227.922779 
L 284.858182 226.449662 
L 290.269091 233.888522 
L 295.68 233.894059 
L 301.090909 236.817471 
L 306.501818 229.393105 
L 311.912727 235.183961 
L 317.323636 238.314221 
L 322.734545 234.774433 
L 328.145455 239.119717 
L 333.556364 243.519547 
L 338.967273 237.681637 
L 344.378182 244.546092 
L 349.789091 244.387267 
L 355.2 247.574091 
L 360.610909 247.106337 
L 366.021818 250.13495 
L 371.432727 251.909533 
L 376.843636 251.441682 
L 382.254545 252.46067 
L 387.665455 249.707483 
L 393.076364 252.489998 
L 398.487273 256.822812 
L 398.487273 280.39179 
L 398.487273 280.39179 
L 393.076364 280.116512 
L 387.665455 279.733746 
L 382.254545 279.874406 
L 376.843636 279.279304 
L 371.432727 279.674139 
L 366.021818 279.020329 
L 360.610909 277.525522 
L 355.2 277.464194 
L 349.789091 277.187691 
L 344.378182 276.092152 
L 338.967273 273.666395 
L 333.556364 275.553475 
L 328.145455 275.267798 
L 322.734545 273.285422 
L 317.323636 271.972266 
L 311.912727 271.047463 
L 306.501818 270.066978 
L 301.090909 268.833345 
L 295.68 269.01919 
L 290.269091 268.21236 
L 284.858182 266.703566 
L 279.447273 265.650907 
L 274.036364 266.432456 
L 268.625455 265.822853 
L 263.214545 262.967033 
L 257.803636 264.210349 
L 252.392727 261.168101 
L 246.981818 258.56176 
L 241.570909 260.090524 
L 236.16 259.66495 
L 230.749091 253.773187 
L 225.338182 256.740415 
L 219.927273 251.230422 
L 214.516364 251.370961 
L 209.105455 251.641309 
L 203.694545 248.20371 
L 198.283636 249.072096 
L 192.872727 243.250594 
L 187.461818 245.294424 
L 182.050909 243.070672 
L 176.64 239.679975 
L 171.229091 237.371042 
L 165.818182 231.342527 
L 160.407273 233.176606 
L 154.996364 230.511227 
L 149.585455 231.059578 
L 144.174545 228.724276 
L 138.763636 230.952196 
L 133.352727 224.639727 
L 127.941818 224.292162 
L 122.530909 219.524599 
L 117.12 217.927052 
L 111.709091 216.126132 
L 106.298182 215.593134 
L 100.887273 211.462556 
L 95.476364 209.945084 
L 90.065455 209.236936 
L 84.654545 209.528158 
L 79.243636 209.707551 
L 73.832727 207.461657 
z
" style="fill:#0000ff;fill-opacity:0.2;"/>
   </g>
   <g id="PolyCollection_5">
    <path clip-path="url(#pe4fee579d1)" d="M 73.832727 110.117892 
L 73.832727 60.395826 
L 79.243636 60.065956 
L 84.654545 61.350057 
L 90.065455 62.505488 
L 95.476364 64.365426 
L 100.887273 64.514186 
L 106.298182 65.05722 
L 111.709091 67.162568 
L 117.12 67.77566 
L 122.530909 69.72983 
L 127.941818 70.031917 
L 133.352727 72.988643 
L 138.763636 74.319159 
L 144.174545 76.474245 
L 149.585455 78.343647 
L 154.996364 79.80722 
L 160.407273 82.23414 
L 165.818182 84.554161 
L 171.229091 85.412606 
L 176.64 85.300348 
L 182.050909 89.038164 
L 187.461818 90.611612 
L 192.872727 92.488859 
L 198.283636 91.041843 
L 203.694545 96.017877 
L 209.105455 97.092211 
L 214.516364 99.718813 
L 219.927273 103.90791 
L 225.338182 102.652324 
L 230.749091 106.113487 
L 236.16 107.378993 
L 241.570909 110.980185 
L 246.981818 109.884154 
L 252.392727 111.957791 
L 257.803636 115.781582 
L 263.214545 115.687375 
L 268.625455 117.543961 
L 274.036364 116.4161 
L 279.447273 121.73764 
L 284.858182 125.257942 
L 290.269091 123.196229 
L 295.68 124.15621 
L 301.090909 128.471805 
L 306.501818 131.816098 
L 311.912727 131.915562 
L 317.323636 131.579233 
L 322.734545 134.594833 
L 328.145455 133.49916 
L 333.556364 139.743936 
L 338.967273 145.395592 
L 344.378182 141.24557 
L 349.789091 143.589635 
L 355.2 146.432253 
L 360.610909 146.7505 
L 366.021818 148.568777 
L 371.432727 153.596947 
L 376.843636 152.576495 
L 382.254545 149.48567 
L 387.665455 153.108203 
L 393.076364 152.909977 
L 398.487273 158.086727 
L 398.487273 222.581927 
L 398.487273 222.581927 
L 393.076364 217.360472 
L 387.665455 219.653538 
L 382.254545 212.807225 
L 376.843636 215.4141 
L 371.432727 218.742885 
L 366.021818 212.294371 
L 360.610909 211.395885 
L 355.2 211.508017 
L 349.789091 207.733156 
L 344.378182 204.362586 
L 338.967273 209.647928 
L 333.556364 208.503567 
L 328.145455 198.615666 
L 322.734545 202.137762 
L 317.323636 198.564429 
L 311.912727 198.438087 
L 306.501818 197.832595 
L 301.090909 194.116696 
L 295.68 190.443608 
L 290.269091 189.52242 
L 284.858182 194.43139 
L 279.447273 189.823179 
L 274.036364 182.767124 
L 268.625455 184.755677 
L 263.214545 181.083907 
L 257.803636 182.601371 
L 252.392727 180.965027 
L 246.981818 177.000826 
L 241.570909 178.908473 
L 236.16 176.683264 
L 230.749091 173.459218 
L 225.338182 168.907991 
L 219.927273 172.374684 
L 214.516364 168.129966 
L 209.105455 165.381589 
L 203.694545 162.964534 
L 198.283636 161.303734 
L 192.872727 163.078125 
L 187.461818 158.819797 
L 182.050909 157.288444 
L 176.64 156.285595 
L 171.229091 156.002058 
L 165.818182 151.529553 
L 160.407273 151.485532 
L 154.996364 146.283263 
L 149.585455 144.684613 
L 144.174545 141.162586 
L 138.763636 139.746449 
L 133.352727 141.790629 
L 127.941818 136.024687 
L 122.530909 134.506085 
L 117.12 129.721814 
L 111.709091 130.315069 
L 106.298182 127.601854 
L 100.887273 119.668012 
L 95.476364 120.716714 
L 90.065455 112.020715 
L 84.654545 113.446128 
L 79.243636 114.799419 
L 73.832727 110.117892 
z
" style="fill:#008000;fill-opacity:0.2;"/>
   </g>
   <g id="PolyCollection_6">
    <path clip-path="url(#pe4fee579d1)" d="M 73.832727 65.98401 
L 73.832727 60.847665 
L 79.243636 61.207089 
L 84.654545 61.573594 
L 90.065455 61.910164 
L 95.476364 62.785011 
L 100.887273 62.97436 
L 106.298182 63.602229 
L 111.709091 64.292298 
L 117.12 64.586708 
L 122.530909 65.230158 
L 127.941818 66.513675 
L 133.352727 68.602497 
L 138.763636 72.008182 
L 144.174545 74.945377 
L 149.585455 78.010491 
L 154.996364 79.854325 
L 160.407273 85.358993 
L 165.818182 84.339894 
L 171.229091 88.832169 
L 176.64 94.256458 
L 182.050909 95.394187 
L 187.461818 97.825069 
L 192.872727 100.896599 
L 198.283636 103.817751 
L 203.694545 107.029404 
L 209.105455 109.43761 
L 214.516364 110.160207 
L 219.927273 112.067664 
L 225.338182 115.796792 
L 230.749091 117.846963 
L 236.16 122.635762 
L 241.570909 123.887236 
L 246.981818 131.264851 
L 252.392727 130.887008 
L 257.803636 130.118731 
L 263.214545 133.649613 
L 268.625455 136.468499 
L 274.036364 139.398467 
L 279.447273 144.140433 
L 284.858182 143.70139 
L 290.269091 147.332874 
L 295.68 146.46484 
L 301.090909 148.188133 
L 306.501818 155.525441 
L 311.912727 156.089509 
L 317.323636 158.498068 
L 322.734545 160.028614 
L 328.145455 164.702528 
L 333.556364 163.255211 
L 338.967273 165.272881 
L 344.378182 171.379173 
L 349.789091 168.958207 
L 355.2 175.870528 
L 360.610909 176.171939 
L 366.021818 175.313168 
L 371.432727 174.463132 
L 376.843636 182.634259 
L 382.254545 181.02908 
L 387.665455 183.961257 
L 393.076364 186.194834 
L 398.487273 187.415396 
L 398.487273 248.599715 
L 398.487273 248.599715 
L 393.076364 247.611548 
L 387.665455 243.499564 
L 382.254545 242.371839 
L 376.843636 246.160025 
L 371.432727 239.123093 
L 366.021818 236.705898 
L 360.610909 235.375868 
L 355.2 234.090767 
L 349.789091 231.574982 
L 344.378182 232.926517 
L 338.967273 227.406133 
L 333.556364 224.276714 
L 328.145455 224.389297 
L 322.734545 221.737874 
L 317.323636 218.817091 
L 311.912727 215.458278 
L 306.501818 215.428189 
L 301.090909 204.846967 
L 295.68 206.909432 
L 290.269091 205.146294 
L 284.858182 199.9656 
L 279.447273 199.358181 
L 274.036364 194.475118 
L 268.625455 191.340151 
L 263.214545 188.889536 
L 257.803636 182.477506 
L 252.392727 186.64343 
L 246.981818 182.499375 
L 241.570909 172.586968 
L 236.16 172.227738 
L 230.749091 168.186941 
L 225.338182 162.17779 
L 219.927273 155.276953 
L 214.516364 154.413942 
L 209.105455 156.771919 
L 203.694545 151.976231 
L 198.283636 142.459988 
L 192.872727 139.749726 
L 187.461818 131.369248 
L 182.050909 127.939375 
L 176.64 124.535782 
L 171.229091 117.736822 
L 165.818182 106.4443 
L 160.407273 107.135092 
L 154.996364 96.4916 
L 149.585455 93.72831 
L 144.174545 87.623688 
L 138.763636 80.548782 
L 133.352727 78.399016 
L 127.941818 74.137438 
L 122.530909 72.165195 
L 117.12 71.728714 
L 111.709091 70.684823 
L 106.298182 69.550331 
L 100.887273 68.097689 
L 95.476364 67.944963 
L 90.065455 66.896545 
L 84.654545 66.612349 
L 79.243636 66.353249 
L 73.832727 65.98401 
z
" style="fill:#800080;fill-opacity:0.2;"/>
   </g>
   <g id="matplotlib.axis_1">
    <g id="xtick_1">
     <g id="line2d_1">
      <path clip-path="url(#pe4fee579d1)" d="M 73.832727 307.584 
L 73.832727 41.472 
" style="fill:none;stroke:#b0b0b0;stroke-dasharray:2.96,1.28;stroke-dashoffset:0;stroke-width:0.8;"/>
     </g>
     <g id="line2d_2">
      <defs>
       <path d="M 0 0 
L 0 3.5 
" id="m95cddb1680" style="stroke:#000000;stroke-width:0.8;"/>
      </defs>
      <g>
       <use style="stroke:#000000;stroke-width:0.8;" x="73.832727" xlink:href="#m95cddb1680" y="307.584"/>
      </g>
     </g>
     <g id="text_1">
      <!-- 0.16 -->
      <defs>
       <path d="M 31.78125 66.40625 
Q 24.171875 66.40625 20.328125 58.90625 
Q 16.5 51.421875 16.5 36.375 
Q 16.5 21.390625 20.328125 13.890625 
Q 24.171875 6.390625 31.78125 6.390625 
Q 39.453125 6.390625 43.28125 13.890625 
Q 47.125 21.390625 47.125 36.375 
Q 47.125 51.421875 43.28125 58.90625 
Q 39.453125 66.40625 31.78125 66.40625 
z
M 31.78125 74.21875 
Q 44.046875 74.21875 50.515625 64.515625 
Q 56.984375 54.828125 56.984375 36.375 
Q 56.984375 17.96875 50.515625 8.265625 
Q 44.046875 -1.421875 31.78125 -1.421875 
Q 19.53125 -1.421875 13.0625 8.265625 
Q 6.59375 17.96875 6.59375 36.375 
Q 6.59375 54.828125 13.0625 64.515625 
Q 19.53125 74.21875 31.78125 74.21875 
z
" id="DejaVuSans-30"/>
       <path d="M 10.6875 12.40625 
L 21 12.40625 
L 21 0 
L 10.6875 0 
z
" id="DejaVuSans-2e"/>
       <path d="M 12.40625 8.296875 
L 28.515625 8.296875 
L 28.515625 63.921875 
L 10.984375 60.40625 
L 10.984375 69.390625 
L 28.421875 72.90625 
L 38.28125 72.90625 
L 38.28125 8.296875 
L 54.390625 8.296875 
L 54.390625 0 
L 12.40625 0 
z
" id="DejaVuSans-31"/>
       <path d="M 33.015625 40.375 
Q 26.375 40.375 22.484375 35.828125 
Q 18.609375 31.296875 18.609375 23.390625 
Q 18.609375 15.53125 22.484375 10.953125 
Q 26.375 6.390625 33.015625 6.390625 
Q 39.65625 6.390625 43.53125 10.953125 
Q 47.40625 15.53125 47.40625 23.390625 
Q 47.40625 31.296875 43.53125 35.828125 
Q 39.65625 40.375 33.015625 40.375 
z
M 52.59375 71.296875 
L 52.59375 62.3125 
Q 48.875 64.0625 45.09375 64.984375 
Q 41.3125 65.921875 37.59375 65.921875 
Q 27.828125 65.921875 22.671875 59.328125 
Q 17.53125 52.734375 16.796875 39.40625 
Q 19.671875 43.65625 24.015625 45.921875 
Q 28.375 48.1875 33.59375 48.1875 
Q 44.578125 48.1875 50.953125 41.515625 
Q 57.328125 34.859375 57.328125 23.390625 
Q 57.328125 12.15625 50.6875 5.359375 
Q 44.046875 -1.421875 33.015625 -1.421875 
Q 20.359375 -1.421875 13.671875 8.265625 
Q 6.984375 17.96875 6.984375 36.375 
Q 6.984375 53.65625 15.1875 63.9375 
Q 23.390625 74.21875 37.203125 74.21875 
Q 40.921875 74.21875 44.703125 73.484375 
Q 48.484375 72.75 52.59375 71.296875 
z
" id="DejaVuSans-36"/>
      </defs>
      <g transform="translate(62.699915 322.182437)scale(0.1 -0.1)">
       <use xlink:href="#DejaVuSans-30"/>
       <use x="63.623047" xlink:href="#DejaVuSans-2e"/>
       <use x="95.410156" xlink:href="#DejaVuSans-31"/>
       <use x="159.033203" xlink:href="#DejaVuSans-36"/>
      </g>
     </g>
    </g>
    <g id="xtick_2">
     <g id="line2d_3">
      <path clip-path="url(#pe4fee579d1)" d="M 127.941818 307.584 
L 127.941818 41.472 
" style="fill:none;stroke:#b0b0b0;stroke-dasharray:2.96,1.28;stroke-dashoffset:0;stroke-width:0.8;"/>
     </g>
     <g id="line2d_4">
      <g>
       <use style="stroke:#000000;stroke-width:0.8;" x="127.941818" xlink:href="#m95cddb1680" y="307.584"/>
      </g>
     </g>
     <g id="text_2">
      <!-- 0.18 -->
      <defs>
       <path d="M 31.78125 34.625 
Q 24.75 34.625 20.71875 30.859375 
Q 16.703125 27.09375 16.703125 20.515625 
Q 16.703125 13.921875 20.71875 10.15625 
Q 24.75 6.390625 31.78125 6.390625 
Q 38.8125 6.390625 42.859375 10.171875 
Q 46.921875 13.96875 46.921875 20.515625 
Q 46.921875 27.09375 42.890625 30.859375 
Q 38.875 34.625 31.78125 34.625 
z
M 21.921875 38.8125 
Q 15.578125 40.375 12.03125 44.71875 
Q 8.5 49.078125 8.5 55.328125 
Q 8.5 64.0625 14.71875 69.140625 
Q 20.953125 74.21875 31.78125 74.21875 
Q 42.671875 74.21875 48.875 69.140625 
Q 55.078125 64.0625 55.078125 55.328125 
Q 55.078125 49.078125 51.53125 44.71875 
Q 48 40.375 41.703125 38.8125 
Q 48.828125 37.15625 52.796875 32.3125 
Q 56.78125 27.484375 56.78125 20.515625 
Q 56.78125 9.90625 50.3125 4.234375 
Q 43.84375 -1.421875 31.78125 -1.421875 
Q 19.734375 -1.421875 13.25 4.234375 
Q 6.78125 9.90625 6.78125 20.515625 
Q 6.78125 27.484375 10.78125 32.3125 
Q 14.796875 37.15625 21.921875 38.8125 
z
M 18.3125 54.390625 
Q 18.3125 48.734375 21.84375 45.5625 
Q 25.390625 42.390625 31.78125 42.390625 
Q 38.140625 42.390625 41.71875 45.5625 
Q 45.3125 48.734375 45.3125 54.390625 
Q 45.3125 60.0625 41.71875 63.234375 
Q 38.140625 66.40625 31.78125 66.40625 
Q 25.390625 66.40625 21.84375 63.234375 
Q 18.3125 60.0625 18.3125 54.390625 
z
" id="DejaVuSans-38"/>
      </defs>
      <g transform="translate(116.809006 322.182437)scale(0.1 -0.1)">
       <use xlink:href="#DejaVuSans-30"/>
       <use x="63.623047" xlink:href="#DejaVuSans-2e"/>
       <use x="95.410156" xlink:href="#DejaVuSans-31"/>
       <use x="159.033203" xlink:href="#DejaVuSans-38"/>
      </g>
     </g>
    </g>
    <g id="xtick_3">
     <g id="line2d_5">
      <path clip-path="url(#pe4fee579d1)" d="M 182.050909 307.584 
L 182.050909 41.472 
" style="fill:none;stroke:#b0b0b0;stroke-dasharray:2.96,1.28;stroke-dashoffset:0;stroke-width:0.8;"/>
     </g>
     <g id="line2d_6">
      <g>
       <use style="stroke:#000000;stroke-width:0.8;" x="182.050909" xlink:href="#m95cddb1680" y="307.584"/>
      </g>
     </g>
     <g id="text_3">
      <!-- 0.20 -->
      <defs>
       <path d="M 19.1875 8.296875 
L 53.609375 8.296875 
L 53.609375 0 
L 7.328125 0 
L 7.328125 8.296875 
Q 12.9375 14.109375 22.625 23.890625 
Q 32.328125 33.6875 34.8125 36.53125 
Q 39.546875 41.84375 41.421875 45.53125 
Q 43.3125 49.21875 43.3125 52.78125 
Q 43.3125 58.59375 39.234375 62.25 
Q 35.15625 65.921875 28.609375 65.921875 
Q 23.96875 65.921875 18.8125 64.3125 
Q 13.671875 62.703125 7.8125 59.421875 
L 7.8125 69.390625 
Q 13.765625 71.78125 18.9375 73 
Q 24.125 74.21875 28.421875 74.21875 
Q 39.75 74.21875 46.484375 68.546875 
Q 53.21875 62.890625 53.21875 53.421875 
Q 53.21875 48.921875 51.53125 44.890625 
Q 49.859375 40.875 45.40625 35.40625 
Q 44.1875 33.984375 37.640625 27.21875 
Q 31.109375 20.453125 19.1875 8.296875 
z
" id="DejaVuSans-32"/>
      </defs>
      <g transform="translate(170.918097 322.182437)scale(0.1 -0.1)">
       <use xlink:href="#DejaVuSans-30"/>
       <use x="63.623047" xlink:href="#DejaVuSans-2e"/>
       <use x="95.410156" xlink:href="#DejaVuSans-32"/>
       <use x="159.033203" xlink:href="#DejaVuSans-30"/>
      </g>
     </g>
    </g>
    <g id="xtick_4">
     <g id="line2d_7">
      <path clip-path="url(#pe4fee579d1)" d="M 236.16 307.584 
L 236.16 41.472 
" style="fill:none;stroke:#b0b0b0;stroke-dasharray:2.96,1.28;stroke-dashoffset:0;stroke-width:0.8;"/>
     </g>
     <g id="line2d_8">
      <g>
       <use style="stroke:#000000;stroke-width:0.8;" x="236.16" xlink:href="#m95cddb1680" y="307.584"/>
      </g>
     </g>
     <g id="text_4">
      <!-- 0.22 -->
      <g transform="translate(225.027188 322.182437)scale(0.1 -0.1)">
       <use xlink:href="#DejaVuSans-30"/>
       <use x="63.623047" xlink:href="#DejaVuSans-2e"/>
       <use x="95.410156" xlink:href="#DejaVuSans-32"/>
       <use x="159.033203" xlink:href="#DejaVuSans-32"/>
      </g>
     </g>
    </g>
    <g id="xtick_5">
     <g id="line2d_9">
      <path clip-path="url(#pe4fee579d1)" d="M 290.269091 307.584 
L 290.269091 41.472 
" style="fill:none;stroke:#b0b0b0;stroke-dasharray:2.96,1.28;stroke-dashoffset:0;stroke-width:0.8;"/>
     </g>
     <g id="line2d_10">
      <g>
       <use style="stroke:#000000;stroke-width:0.8;" x="290.269091" xlink:href="#m95cddb1680" y="307.584"/>
      </g>
     </g>
     <g id="text_5">
      <!-- 0.24 -->
      <defs>
       <path d="M 37.796875 64.3125 
L 12.890625 25.390625 
L 37.796875 25.390625 
z
M 35.203125 72.90625 
L 47.609375 72.90625 
L 47.609375 25.390625 
L 58.015625 25.390625 
L 58.015625 17.1875 
L 47.609375 17.1875 
L 47.609375 0 
L 37.796875 0 
L 37.796875 17.1875 
L 4.890625 17.1875 
L 4.890625 26.703125 
z
" id="DejaVuSans-34"/>
      </defs>
      <g transform="translate(279.136278 322.182437)scale(0.1 -0.1)">
       <use xlink:href="#DejaVuSans-30"/>
       <use x="63.623047" xlink:href="#DejaVuSans-2e"/>
       <use x="95.410156" xlink:href="#DejaVuSans-32"/>
       <use x="159.033203" xlink:href="#DejaVuSans-34"/>
      </g>
     </g>
    </g>
    <g id="xtick_6">
     <g id="line2d_11">
      <path clip-path="url(#pe4fee579d1)" d="M 344.378182 307.584 
L 344.378182 41.472 
" style="fill:none;stroke:#b0b0b0;stroke-dasharray:2.96,1.28;stroke-dashoffset:0;stroke-width:0.8;"/>
     </g>
     <g id="line2d_12">
      <g>
       <use style="stroke:#000000;stroke-width:0.8;" x="344.378182" xlink:href="#m95cddb1680" y="307.584"/>
      </g>
     </g>
     <g id="text_6">
      <!-- 0.26 -->
      <g transform="translate(333.245369 322.182437)scale(0.1 -0.1)">
       <use xlink:href="#DejaVuSans-30"/>
       <use x="63.623047" xlink:href="#DejaVuSans-2e"/>
       <use x="95.410156" xlink:href="#DejaVuSans-32"/>
       <use x="159.033203" xlink:href="#DejaVuSans-36"/>
      </g>
     </g>
    </g>
    <g id="xtick_7">
     <g id="line2d_13">
      <path clip-path="url(#pe4fee579d1)" d="M 398.487273 307.584 
L 398.487273 41.472 
" style="fill:none;stroke:#b0b0b0;stroke-dasharray:2.96,1.28;stroke-dashoffset:0;stroke-width:0.8;"/>
     </g>
     <g id="line2d_14">
      <g>
       <use style="stroke:#000000;stroke-width:0.8;" x="398.487273" xlink:href="#m95cddb1680" y="307.584"/>
      </g>
     </g>
     <g id="text_7">
      <!-- 0.28 -->
      <g transform="translate(387.35446 322.182437)scale(0.1 -0.1)">
       <use xlink:href="#DejaVuSans-30"/>
       <use x="63.623047" xlink:href="#DejaVuSans-2e"/>
       <use x="95.410156" xlink:href="#DejaVuSans-32"/>
       <use x="159.033203" xlink:href="#DejaVuSans-38"/>
      </g>
     </g>
    </g>
    <g id="text_8">
     <!-- Car Weight(kg) -->
     <defs>
      <path d="M 64.40625 67.28125 
L 64.40625 56.890625 
Q 59.421875 61.53125 53.78125 63.8125 
Q 48.140625 66.109375 41.796875 66.109375 
Q 29.296875 66.109375 22.65625 58.46875 
Q 16.015625 50.828125 16.015625 36.375 
Q 16.015625 21.96875 22.65625 14.328125 
Q 29.296875 6.6875 41.796875 6.6875 
Q 48.140625 6.6875 53.78125 8.984375 
Q 59.421875 11.28125 64.40625 15.921875 
L 64.40625 5.609375 
Q 59.234375 2.09375 53.4375 0.328125 
Q 47.65625 -1.421875 41.21875 -1.421875 
Q 24.65625 -1.421875 15.125 8.703125 
Q 5.609375 18.84375 5.609375 36.375 
Q 5.609375 53.953125 15.125 64.078125 
Q 24.65625 74.21875 41.21875 74.21875 
Q 47.75 74.21875 53.53125 72.484375 
Q 59.328125 70.75 64.40625 67.28125 
z
" id="DejaVuSans-43"/>
      <path d="M 34.28125 27.484375 
Q 23.390625 27.484375 19.1875 25 
Q 14.984375 22.515625 14.984375 16.5 
Q 14.984375 11.71875 18.140625 8.90625 
Q 21.296875 6.109375 26.703125 6.109375 
Q 34.1875 6.109375 38.703125 11.40625 
Q 43.21875 16.703125 43.21875 25.484375 
L 43.21875 27.484375 
z
M 52.203125 31.203125 
L 52.203125 0 
L 43.21875 0 
L 43.21875 8.296875 
Q 40.140625 3.328125 35.546875 0.953125 
Q 30.953125 -1.421875 24.3125 -1.421875 
Q 15.921875 -1.421875 10.953125 3.296875 
Q 6 8.015625 6 15.921875 
Q 6 25.140625 12.171875 29.828125 
Q 18.359375 34.515625 30.609375 34.515625 
L 43.21875 34.515625 
L 43.21875 35.40625 
Q 43.21875 41.609375 39.140625 45 
Q 35.0625 48.390625 27.6875 48.390625 
Q 23 48.390625 18.546875 47.265625 
Q 14.109375 46.140625 10.015625 43.890625 
L 10.015625 52.203125 
Q 14.9375 54.109375 19.578125 55.046875 
Q 24.21875 56 28.609375 56 
Q 40.484375 56 46.34375 49.84375 
Q 52.203125 43.703125 52.203125 31.203125 
z
" id="DejaVuSans-61"/>
      <path d="M 41.109375 46.296875 
Q 39.59375 47.171875 37.8125 47.578125 
Q 36.03125 48 33.890625 48 
Q 26.265625 48 22.1875 43.046875 
Q 18.109375 38.09375 18.109375 28.8125 
L 18.109375 0 
L 9.078125 0 
L 9.078125 54.6875 
L 18.109375 54.6875 
L 18.109375 46.1875 
Q 20.953125 51.171875 25.484375 53.578125 
Q 30.03125 56 36.53125 56 
Q 37.453125 56 38.578125 55.875 
Q 39.703125 55.765625 41.0625 55.515625 
z
" id="DejaVuSans-72"/>
      <path id="DejaVuSans-20"/>
      <path d="M 3.328125 72.90625 
L 13.28125 72.90625 
L 28.609375 11.28125 
L 43.890625 72.90625 
L 54.984375 72.90625 
L 70.3125 11.28125 
L 85.59375 72.90625 
L 95.609375 72.90625 
L 77.296875 0 
L 64.890625 0 
L 49.515625 63.28125 
L 33.984375 0 
L 21.578125 0 
z
" id="DejaVuSans-57"/>
      <path d="M 56.203125 29.59375 
L 56.203125 25.203125 
L 14.890625 25.203125 
Q 15.484375 15.921875 20.484375 11.0625 
Q 25.484375 6.203125 34.421875 6.203125 
Q 39.59375 6.203125 44.453125 7.46875 
Q 49.3125 8.734375 54.109375 11.28125 
L 54.109375 2.78125 
Q 49.265625 0.734375 44.1875 -0.34375 
Q 39.109375 -1.421875 33.890625 -1.421875 
Q 20.796875 -1.421875 13.15625 6.1875 
Q 5.515625 13.8125 5.515625 26.8125 
Q 5.515625 40.234375 12.765625 48.109375 
Q 20.015625 56 32.328125 56 
Q 43.359375 56 49.78125 48.890625 
Q 56.203125 41.796875 56.203125 29.59375 
z
M 47.21875 32.234375 
Q 47.125 39.59375 43.09375 43.984375 
Q 39.0625 48.390625 32.421875 48.390625 
Q 24.90625 48.390625 20.390625 44.140625 
Q 15.875 39.890625 15.1875 32.171875 
z
" id="DejaVuSans-65"/>
      <path d="M 9.421875 54.6875 
L 18.40625 54.6875 
L 18.40625 0 
L 9.421875 0 
z
M 9.421875 75.984375 
L 18.40625 75.984375 
L 18.40625 64.59375 
L 9.421875 64.59375 
z
" id="DejaVuSans-69"/>
      <path d="M 45.40625 27.984375 
Q 45.40625 37.75 41.375 43.109375 
Q 37.359375 48.484375 30.078125 48.484375 
Q 22.859375 48.484375 18.828125 43.109375 
Q 14.796875 37.75 14.796875 27.984375 
Q 14.796875 18.265625 18.828125 12.890625 
Q 22.859375 7.515625 30.078125 7.515625 
Q 37.359375 7.515625 41.375 12.890625 
Q 45.40625 18.265625 45.40625 27.984375 
z
M 54.390625 6.78125 
Q 54.390625 -7.171875 48.1875 -13.984375 
Q 42 -20.796875 29.203125 -20.796875 
Q 24.46875 -20.796875 20.265625 -20.09375 
Q 16.0625 -19.390625 12.109375 -17.921875 
L 12.109375 -9.1875 
Q 16.0625 -11.328125 19.921875 -12.34375 
Q 23.78125 -13.375 27.78125 -13.375 
Q 36.625 -13.375 41.015625 -8.765625 
Q 45.40625 -4.15625 45.40625 5.171875 
L 45.40625 9.625 
Q 42.625 4.78125 38.28125 2.390625 
Q 33.9375 0 27.875 0 
Q 17.828125 0 11.671875 7.65625 
Q 5.515625 15.328125 5.515625 27.984375 
Q 5.515625 40.671875 11.671875 48.328125 
Q 17.828125 56 27.875 56 
Q 33.9375 56 38.28125 53.609375 
Q 42.625 51.21875 45.40625 46.390625 
L 45.40625 54.6875 
L 54.390625 54.6875 
z
" id="DejaVuSans-67"/>
      <path d="M 54.890625 33.015625 
L 54.890625 0 
L 45.90625 0 
L 45.90625 32.71875 
Q 45.90625 40.484375 42.875 44.328125 
Q 39.84375 48.1875 33.796875 48.1875 
Q 26.515625 48.1875 22.3125 43.546875 
Q 18.109375 38.921875 18.109375 30.90625 
L 18.109375 0 
L 9.078125 0 
L 9.078125 75.984375 
L 18.109375 75.984375 
L 18.109375 46.1875 
Q 21.34375 51.125 25.703125 53.5625 
Q 30.078125 56 35.796875 56 
Q 45.21875 56 50.046875 50.171875 
Q 54.890625 44.34375 54.890625 33.015625 
z
" id="DejaVuSans-68"/>
      <path d="M 18.3125 70.21875 
L 18.3125 54.6875 
L 36.8125 54.6875 
L 36.8125 47.703125 
L 18.3125 47.703125 
L 18.3125 18.015625 
Q 18.3125 11.328125 20.140625 9.421875 
Q 21.96875 7.515625 27.59375 7.515625 
L 36.8125 7.515625 
L 36.8125 0 
L 27.59375 0 
Q 17.1875 0 13.234375 3.875 
Q 9.28125 7.765625 9.28125 18.015625 
L 9.28125 47.703125 
L 2.6875 47.703125 
L 2.6875 54.6875 
L 9.28125 54.6875 
L 9.28125 70.21875 
z
" id="DejaVuSans-74"/>
      <path d="M 31 75.875 
Q 24.46875 64.65625 21.28125 53.65625 
Q 18.109375 42.671875 18.109375 31.390625 
Q 18.109375 20.125 21.3125 9.0625 
Q 24.515625 -2 31 -13.1875 
L 23.1875 -13.1875 
Q 15.875 -1.703125 12.234375 9.375 
Q 8.59375 20.453125 8.59375 31.390625 
Q 8.59375 42.28125 12.203125 53.3125 
Q 15.828125 64.359375 23.1875 75.875 
z
" id="DejaVuSans-28"/>
      <path d="M 9.078125 75.984375 
L 18.109375 75.984375 
L 18.109375 31.109375 
L 44.921875 54.6875 
L 56.390625 54.6875 
L 27.390625 29.109375 
L 57.625 0 
L 45.90625 0 
L 18.109375 26.703125 
L 18.109375 0 
L 9.078125 0 
z
" id="DejaVuSans-6b"/>
      <path d="M 8.015625 75.875 
L 15.828125 75.875 
Q 23.140625 64.359375 26.78125 53.3125 
Q 30.421875 42.28125 30.421875 31.390625 
Q 30.421875 20.453125 26.78125 9.375 
Q 23.140625 -1.703125 15.828125 -13.1875 
L 8.015625 -13.1875 
Q 14.5 -2 17.703125 9.0625 
Q 20.90625 20.125 20.90625 31.390625 
Q 20.90625 42.671875 17.703125 53.65625 
Q 14.5 64.65625 8.015625 75.875 
z
" id="DejaVuSans-29"/>
     </defs>
     <g transform="translate(198.280312 335.860562)scale(0.1 -0.1)">
      <use xlink:href="#DejaVuSans-43"/>
      <use x="69.824219" xlink:href="#DejaVuSans-61"/>
      <use x="131.103516" xlink:href="#DejaVuSans-72"/>
      <use x="172.216797" xlink:href="#DejaVuSans-20"/>
      <use x="204.003906" xlink:href="#DejaVuSans-57"/>
      <use x="302.802734" xlink:href="#DejaVuSans-65"/>
      <use x="364.326172" xlink:href="#DejaVuSans-69"/>
      <use x="392.109375" xlink:href="#DejaVuSans-67"/>
      <use x="455.585938" xlink:href="#DejaVuSans-68"/>
      <use x="518.964844" xlink:href="#DejaVuSans-74"/>
      <use x="558.173828" xlink:href="#DejaVuSans-28"/>
      <use x="597.1875" xlink:href="#DejaVuSans-6b"/>
      <use x="655.097656" xlink:href="#DejaVuSans-67"/>
      <use x="718.574219" xlink:href="#DejaVuSans-29"/>
     </g>
    </g>
   </g>
   <g id="matplotlib.axis_2">
    <g id="ytick_1">
     <g id="line2d_15">
      <path clip-path="url(#pe4fee579d1)" d="M 57.6 283.392 
L 414.72 283.392 
" style="fill:none;stroke:#b0b0b0;stroke-dasharray:2.96,1.28;stroke-dashoffset:0;stroke-width:0.8;"/>
     </g>
     <g id="line2d_16">
      <defs>
       <path d="M 0 0 
L -3.5 0 
" id="m6f6de621e8" style="stroke:#000000;stroke-width:0.8;"/>
      </defs>
      <g>
       <use style="stroke:#000000;stroke-width:0.8;" x="57.6" xlink:href="#m6f6de621e8" y="283.392"/>
      </g>
     </g>
     <g id="text_9">
      <!-- −1000 -->
      <defs>
       <path d="M 10.59375 35.5 
L 73.1875 35.5 
L 73.1875 27.203125 
L 10.59375 27.203125 
z
" id="DejaVuSans-2212"/>
      </defs>
      <g transform="translate(16.770313 287.191219)scale(0.1 -0.1)">
       <use xlink:href="#DejaVuSans-2212"/>
       <use x="83.789062" xlink:href="#DejaVuSans-31"/>
       <use x="147.412109" xlink:href="#DejaVuSans-30"/>
       <use x="211.035156" xlink:href="#DejaVuSans-30"/>
       <use x="274.658203" xlink:href="#DejaVuSans-30"/>
      </g>
     </g>
    </g>
    <g id="ytick_2">
     <g id="line2d_17">
      <path clip-path="url(#pe4fee579d1)" d="M 57.6 235.008 
L 414.72 235.008 
" style="fill:none;stroke:#b0b0b0;stroke-dasharray:2.96,1.28;stroke-dashoffset:0;stroke-width:0.8;"/>
     </g>
     <g id="line2d_18">
      <g>
       <use style="stroke:#000000;stroke-width:0.8;" x="57.6" xlink:href="#m6f6de621e8" y="235.008"/>
      </g>
     </g>
     <g id="text_10">
      <!-- −800 -->
      <g transform="translate(23.132812 238.807219)scale(0.1 -0.1)">
       <use xlink:href="#DejaVuSans-2212"/>
       <use x="83.789062" xlink:href="#DejaVuSans-38"/>
       <use x="147.412109" xlink:href="#DejaVuSans-30"/>
       <use x="211.035156" xlink:href="#DejaVuSans-30"/>
      </g>
     </g>
    </g>
    <g id="ytick_3">
     <g id="line2d_19">
      <path clip-path="url(#pe4fee579d1)" d="M 57.6 186.624 
L 414.72 186.624 
" style="fill:none;stroke:#b0b0b0;stroke-dasharray:2.96,1.28;stroke-dashoffset:0;stroke-width:0.8;"/>
     </g>
     <g id="line2d_20">
      <g>
       <use style="stroke:#000000;stroke-width:0.8;" x="57.6" xlink:href="#m6f6de621e8" y="186.624"/>
      </g>
     </g>
     <g id="text_11">
      <!-- −600 -->
      <g transform="translate(23.132812 190.423219)scale(0.1 -0.1)">
       <use xlink:href="#DejaVuSans-2212"/>
       <use x="83.789062" xlink:href="#DejaVuSans-36"/>
       <use x="147.412109" xlink:href="#DejaVuSans-30"/>
       <use x="211.035156" xlink:href="#DejaVuSans-30"/>
      </g>
     </g>
    </g>
    <g id="ytick_4">
     <g id="line2d_21">
      <path clip-path="url(#pe4fee579d1)" d="M 57.6 138.24 
L 414.72 138.24 
" style="fill:none;stroke:#b0b0b0;stroke-dasharray:2.96,1.28;stroke-dashoffset:0;stroke-width:0.8;"/>
     </g>
     <g id="line2d_22">
      <g>
       <use style="stroke:#000000;stroke-width:0.8;" x="57.6" xlink:href="#m6f6de621e8" y="138.24"/>
      </g>
     </g>
     <g id="text_12">
      <!-- −400 -->
      <g transform="translate(23.132812 142.039219)scale(0.1 -0.1)">
       <use xlink:href="#DejaVuSans-2212"/>
       <use x="83.789062" xlink:href="#DejaVuSans-34"/>
       <use x="147.412109" xlink:href="#DejaVuSans-30"/>
       <use x="211.035156" xlink:href="#DejaVuSans-30"/>
      </g>
     </g>
    </g>
    <g id="ytick_5">
     <g id="line2d_23">
      <path clip-path="url(#pe4fee579d1)" d="M 57.6 89.856 
L 414.72 89.856 
" style="fill:none;stroke:#b0b0b0;stroke-dasharray:2.96,1.28;stroke-dashoffset:0;stroke-width:0.8;"/>
     </g>
     <g id="line2d_24">
      <g>
       <use style="stroke:#000000;stroke-width:0.8;" x="57.6" xlink:href="#m6f6de621e8" y="89.856"/>
      </g>
     </g>
     <g id="text_13">
      <!-- −200 -->
      <g transform="translate(23.132812 93.655219)scale(0.1 -0.1)">
       <use xlink:href="#DejaVuSans-2212"/>
       <use x="83.789062" xlink:href="#DejaVuSans-32"/>
       <use x="147.412109" xlink:href="#DejaVuSans-30"/>
       <use x="211.035156" xlink:href="#DejaVuSans-30"/>
      </g>
     </g>
    </g>
    <g id="ytick_6">
     <g id="line2d_25">
      <path clip-path="url(#pe4fee579d1)" d="M 57.6 41.472 
L 414.72 41.472 
" style="fill:none;stroke:#b0b0b0;stroke-dasharray:2.96,1.28;stroke-dashoffset:0;stroke-width:0.8;"/>
     </g>
     <g id="line2d_26">
      <g>
       <use style="stroke:#000000;stroke-width:0.8;" x="57.6" xlink:href="#m6f6de621e8" y="41.472"/>
      </g>
     </g>
     <g id="text_14">
      <!-- 0 -->
      <g transform="translate(44.2375 45.271219)scale(0.1 -0.1)">
       <use xlink:href="#DejaVuSans-30"/>
      </g>
     </g>
    </g>
    <g id="text_15">
     <!-- Rewards -->
     <defs>
      <path d="M 44.390625 34.1875 
Q 47.5625 33.109375 50.5625 29.59375 
Q 53.5625 26.078125 56.59375 19.921875 
L 66.609375 0 
L 56 0 
L 46.6875 18.703125 
Q 43.0625 26.03125 39.671875 28.421875 
Q 36.28125 30.8125 30.421875 30.8125 
L 19.671875 30.8125 
L 19.671875 0 
L 9.8125 0 
L 9.8125 72.90625 
L 32.078125 72.90625 
Q 44.578125 72.90625 50.734375 67.671875 
Q 56.890625 62.453125 56.890625 51.90625 
Q 56.890625 45.015625 53.6875 40.46875 
Q 50.484375 35.9375 44.390625 34.1875 
z
M 19.671875 64.796875 
L 19.671875 38.921875 
L 32.078125 38.921875 
Q 39.203125 38.921875 42.84375 42.21875 
Q 46.484375 45.515625 46.484375 51.90625 
Q 46.484375 58.296875 42.84375 61.546875 
Q 39.203125 64.796875 32.078125 64.796875 
z
" id="DejaVuSans-52"/>
      <path d="M 4.203125 54.6875 
L 13.1875 54.6875 
L 24.421875 12.015625 
L 35.59375 54.6875 
L 46.1875 54.6875 
L 57.421875 12.015625 
L 68.609375 54.6875 
L 77.59375 54.6875 
L 63.28125 0 
L 52.6875 0 
L 40.921875 44.828125 
L 29.109375 0 
L 18.5 0 
z
" id="DejaVuSans-77"/>
      <path d="M 45.40625 46.390625 
L 45.40625 75.984375 
L 54.390625 75.984375 
L 54.390625 0 
L 45.40625 0 
L 45.40625 8.203125 
Q 42.578125 3.328125 38.25 0.953125 
Q 33.9375 -1.421875 27.875 -1.421875 
Q 17.96875 -1.421875 11.734375 6.484375 
Q 5.515625 14.40625 5.515625 27.296875 
Q 5.515625 40.1875 11.734375 48.09375 
Q 17.96875 56 27.875 56 
Q 33.9375 56 38.25 53.625 
Q 42.578125 51.265625 45.40625 46.390625 
z
M 14.796875 27.296875 
Q 14.796875 17.390625 18.875 11.75 
Q 22.953125 6.109375 30.078125 6.109375 
Q 37.203125 6.109375 41.296875 11.75 
Q 45.40625 17.390625 45.40625 27.296875 
Q 45.40625 37.203125 41.296875 42.84375 
Q 37.203125 48.484375 30.078125 48.484375 
Q 22.953125 48.484375 18.875 42.84375 
Q 14.796875 37.203125 14.796875 27.296875 
z
" id="DejaVuSans-64"/>
      <path d="M 44.28125 53.078125 
L 44.28125 44.578125 
Q 40.484375 46.53125 36.375 47.5 
Q 32.28125 48.484375 27.875 48.484375 
Q 21.1875 48.484375 17.84375 46.4375 
Q 14.5 44.390625 14.5 40.28125 
Q 14.5 37.15625 16.890625 35.375 
Q 19.28125 33.59375 26.515625 31.984375 
L 29.59375 31.296875 
Q 39.15625 29.25 43.1875 25.515625 
Q 47.21875 21.78125 47.21875 15.09375 
Q 47.21875 7.46875 41.1875 3.015625 
Q 35.15625 -1.421875 24.609375 -1.421875 
Q 20.21875 -1.421875 15.453125 -0.5625 
Q 10.6875 0.296875 5.421875 2 
L 5.421875 11.28125 
Q 10.40625 8.6875 15.234375 7.390625 
Q 20.0625 6.109375 24.8125 6.109375 
Q 31.15625 6.109375 34.5625 8.28125 
Q 37.984375 10.453125 37.984375 14.40625 
Q 37.984375 18.0625 35.515625 20.015625 
Q 33.0625 21.96875 24.703125 23.78125 
L 21.578125 24.515625 
Q 13.234375 26.265625 9.515625 29.90625 
Q 5.8125 33.546875 5.8125 39.890625 
Q 5.8125 47.609375 11.28125 51.796875 
Q 16.75 56 26.8125 56 
Q 31.78125 56 36.171875 55.265625 
Q 40.578125 54.546875 44.28125 53.078125 
z
" id="DejaVuSans-73"/>
     </defs>
     <g transform="translate(10.690625 196.062375)rotate(-90)scale(0.1 -0.1)">
      <use xlink:href="#DejaVuSans-52"/>
      <use x="69.419922" xlink:href="#DejaVuSans-65"/>
      <use x="130.943359" xlink:href="#DejaVuSans-77"/>
      <use x="212.730469" xlink:href="#DejaVuSans-61"/>
      <use x="274.009766" xlink:href="#DejaVuSans-72"/>
      <use x="315.107422" xlink:href="#DejaVuSans-64"/>
      <use x="378.583984" xlink:href="#DejaVuSans-73"/>
     </g>
    </g>
   </g>
   <g id="line2d_27">
    <path clip-path="url(#pe4fee579d1)" d="M 73.832727 171.232082 
L 79.243636 170.204648 
L 84.654545 173.439602 
L 90.065455 172.725212 
L 95.476364 175.948796 
L 100.887273 183.297116 
L 106.298182 180.551566 
L 111.709091 179.230683 
L 117.12 183.086888 
L 122.530909 183.48412 
L 127.941818 183.00778 
L 133.352727 189.834278 
L 138.763636 194.495351 
L 144.174545 193.078184 
L 149.585455 196.19871 
L 154.996364 199.886054 
L 160.407273 200.770514 
L 165.818182 201.896652 
L 171.229091 204.627928 
L 176.64 202.605235 
L 182.050909 201.723195 
L 187.461818 203.692908 
L 192.872727 202.950213 
L 198.283636 204.42786 
L 203.694545 201.837623 
L 209.105455 202.426214 
L 214.516364 201.205244 
L 219.927273 201.971405 
L 225.338182 201.413053 
L 230.749091 202.813528 
L 236.16 203.233018 
L 241.570909 203.530821 
L 246.981818 205.181199 
L 252.392727 207.375414 
L 257.803636 208.894913 
L 263.214545 211.725861 
L 268.625455 209.809129 
L 274.036364 213.867337 
L 279.447273 213.019407 
L 284.858182 213.657592 
L 290.269091 215.442478 
L 295.68 216.273231 
L 301.090909 218.488493 
L 306.501818 217.401062 
L 311.912727 216.771828 
L 317.323636 218.401644 
L 322.734545 219.450609 
L 328.145455 219.723011 
L 333.556364 220.083955 
L 338.967273 218.70356 
L 344.378182 221.827956 
L 349.789091 222.554926 
L 355.2 224.953321 
L 360.610909 224.223932 
L 366.021818 226.612892 
L 371.432727 229.098136 
L 376.843636 229.225628 
L 382.254545 225.857134 
L 387.665455 230.335315 
L 393.076364 229.713097 
L 398.487273 231.936826 
" style="fill:none;stroke:#ff6347;stroke-linecap:square;stroke-width:2;"/>
   </g>
   <g id="line2d_28">
    <path clip-path="url(#pe4fee579d1)" d="M 73.832727 147.029921 
L 79.243636 146.222634 
L 84.654545 145.747261 
L 90.065455 146.400687 
L 95.476364 147.194911 
L 100.887273 146.17038 
L 106.298182 149.282438 
L 111.709091 150.259795 
L 117.12 151.948639 
L 122.530909 153.106226 
L 127.941818 153.132111 
L 133.352727 152.979702 
L 138.763636 150.95338 
L 144.174545 147.220796 
L 149.585455 144.453231 
L 154.996364 141.017 
L 160.407273 139.13583 
L 165.818182 138.511434 
L 171.229091 140.215519 
L 176.64 140.673957 
L 182.050909 143.404024 
L 187.461818 141.147395 
L 192.872727 143.295644 
L 198.283636 145.197861 
L 203.694545 147.24644 
L 209.105455 147.95841 
L 214.516364 148.645705 
L 219.927273 149.482022 
L 225.338182 150.504618 
L 230.749091 149.104627 
L 236.16 151.132401 
L 241.570909 152.404658 
L 246.981818 148.78747 
L 252.392727 153.57797 
L 257.803636 152.918254 
L 263.214545 155.670578 
L 268.625455 157.236768 
L 274.036364 158.029056 
L 279.447273 156.087164 
L 284.858182 156.423917 
L 290.269091 158.891501 
L 295.68 158.54241 
L 301.090909 156.839052 
L 306.501818 159.908532 
L 311.912727 160.456723 
L 317.323636 161.137486 
L 322.734545 160.98169 
L 328.145455 163.437661 
L 333.556364 164.046574 
L 338.967273 165.23682 
L 344.378182 166.407229 
L 349.789091 166.681325 
L 355.2 167.20484 
L 360.610909 167.800689 
L 366.021818 170.744613 
L 371.432727 170.489388 
L 376.843636 175.517695 
L 382.254545 176.020646 
L 387.665455 174.154717 
L 393.076364 176.645768 
L 398.487273 175.635752 
" style="fill:none;stroke:#ffd700;stroke-dasharray:7.4,3.2;stroke-dashoffset:0;stroke-width:2;"/>
   </g>
   <g id="line2d_29">
    <path clip-path="url(#pe4fee579d1)" d="M 73.832727 213.219233 
L 79.243636 213.432849 
L 84.654545 210.658994 
L 90.065455 212.566775 
L 95.476364 215.084195 
L 100.887273 213.989507 
L 106.298182 214.338597 
L 111.709091 213.986362 
L 117.12 214.120385 
L 122.530909 214.435365 
L 127.941818 217.239218 
L 133.352727 216.603694 
L 138.763636 218.488251 
L 144.174545 218.261088 
L 149.585455 218.099727 
L 154.996364 221.358148 
L 160.407273 222.268493 
L 165.818182 220.867292 
L 171.229091 221.483462 
L 176.64 222.478721 
L 182.050909 224.161033 
L 187.461818 224.130551 
L 192.872727 224.163694 
L 198.283636 227.106167 
L 203.694545 227.456951 
L 209.105455 228.266415 
L 214.516364 227.671776 
L 219.927273 229.448436 
L 225.338182 227.286397 
L 230.749091 229.761723 
L 236.16 229.766803 
L 241.570909 230.783109 
L 246.981818 229.106604 
L 252.392727 231.697325 
L 257.803636 231.942632 
L 263.214545 233.06514 
L 268.625455 236.244937 
L 274.036364 234.059674 
L 279.447273 237.038676 
L 284.858182 236.219535 
L 290.269091 235.877219 
L 295.68 236.180344 
L 301.090909 238.64817 
L 306.501818 238.446651 
L 311.912727 240.144929 
L 317.323636 240.359028 
L 322.734545 241.08503 
L 328.145455 240.767148 
L 333.556364 242.239473 
L 338.967273 241.768938 
L 344.378182 245.483862 
L 349.789091 244.129836 
L 355.2 245.538052 
L 360.610909 244.288777 
L 366.021818 247.599936 
L 371.432727 245.416608 
L 376.843636 245.30218 
L 382.254545 249.455946 
L 387.665455 247.056826 
L 393.076364 249.375629 
L 398.487273 249.71093 
" style="fill:none;stroke:#00ffff;stroke-dasharray:2,3.3;stroke-dashoffset:0;stroke-width:2;"/>
   </g>
   <g id="line2d_30">
    <path clip-path="url(#pe4fee579d1)" d="M 73.832727 162.565782 
L 79.243636 166.143537 
L 84.654545 166.93268 
L 90.065455 168.344525 
L 95.476364 168.746354 
L 100.887273 169.649441 
L 106.298182 173.871913 
L 111.709091 175.07232 
L 117.12 177.584175 
L 122.530909 180.901866 
L 127.941818 184.423012 
L 133.352727 186.277329 
L 138.763636 193.238335 
L 144.174545 192.839651 
L 149.585455 195.633585 
L 154.996364 195.46158 
L 160.407273 201.087429 
L 165.818182 200.066527 
L 171.229091 206.149605 
L 176.64 208.815322 
L 182.050909 211.128319 
L 187.461818 213.993377 
L 192.872727 213.270278 
L 198.283636 219.424965 
L 203.694545 221.15929 
L 209.105455 224.184983 
L 214.516364 224.978723 
L 219.927273 225.651502 
L 225.338182 233.13433 
L 230.749091 230.04114 
L 236.16 236.263807 
L 241.570909 238.681797 
L 246.981818 237.626784 
L 252.392727 239.94849 
L 257.803636 242.993053 
L 263.214545 242.997892 
L 268.625455 247.563648 
L 274.036364 243.810743 
L 279.447273 246.786843 
L 284.858182 246.576614 
L 290.269091 251.050441 
L 295.68 251.456625 
L 301.090909 252.825408 
L 306.501818 249.730042 
L 311.912727 253.115712 
L 317.323636 255.143244 
L 322.734545 254.029928 
L 328.145455 257.193757 
L 333.556364 259.536511 
L 338.967273 255.674016 
L 344.378182 260.319122 
L 349.789091 260.787479 
L 355.2 262.519142 
L 360.610909 262.31593 
L 366.021818 264.57764 
L 371.432727 265.791836 
L 376.843636 265.360493 
L 382.254545 266.167538 
L 387.665455 264.720614 
L 393.076364 266.303255 
L 398.487273 268.607301 
" style="fill:none;stroke:#0000ff;stroke-dasharray:12.8,3.2,2,3.2;stroke-dashoffset:0;stroke-width:2;"/>
   </g>
   <g id="line2d_31">
    <path clip-path="url(#pe4fee579d1)" d="M 73.832727 85.256859 
L 79.243636 87.432687 
L 84.654545 87.398093 
L 90.065455 87.263101 
L 95.476364 92.54107 
L 100.887273 92.091099 
L 106.298182 96.329537 
L 111.709091 98.738819 
L 117.12 98.748737 
L 122.530909 102.117957 
L 127.941818 103.028302 
L 133.352727 107.389636 
L 138.763636 107.032804 
L 144.174545 108.818415 
L 149.585455 111.51413 
L 154.996364 113.045242 
L 160.407273 116.859836 
L 165.818182 118.041857 
L 171.229091 120.707332 
L 176.64 120.792972 
L 182.050909 123.163304 
L 187.461818 124.715704 
L 192.872727 127.783492 
L 198.283636 126.172788 
L 203.694545 129.491205 
L 209.105455 131.2369 
L 214.516364 133.924389 
L 219.927273 138.141297 
L 225.338182 135.780157 
L 230.749091 139.786353 
L 236.16 142.031128 
L 241.570909 144.944329 
L 246.981818 143.44249 
L 252.392727 146.461409 
L 257.803636 149.191476 
L 263.214545 148.385641 
L 268.625455 151.149819 
L 274.036364 149.591612 
L 279.447273 155.78041 
L 284.858182 159.844666 
L 290.269091 156.359324 
L 295.68 157.299909 
L 301.090909 161.29425 
L 306.501818 164.824347 
L 311.912727 165.176824 
L 317.323636 165.071831 
L 322.734545 168.366298 
L 328.145455 166.057413 
L 333.556364 174.123752 
L 338.967273 177.52176 
L 344.378182 172.804078 
L 349.789091 175.661395 
L 355.2 178.970135 
L 360.610909 179.073193 
L 366.021818 180.431574 
L 371.432727 186.169916 
L 376.843636 183.995297 
L 382.254545 181.146447 
L 387.665455 186.38087 
L 393.076364 185.135224 
L 398.487273 190.334327 
" style="fill:none;stroke:#008000;stroke-dasharray:12.8,3.2,2,3.2;stroke-dashoffset:0;stroke-width:2;"/>
   </g>
   <g id="line2d_32">
    <path clip-path="url(#pe4fee579d1)" d="M 73.832727 63.415837 
L 79.243636 63.780169 
L 84.654545 64.092972 
L 90.065455 64.403355 
L 95.476364 65.364987 
L 100.887273 65.536024 
L 106.298182 66.57628 
L 111.709091 67.488561 
L 117.12 68.157711 
L 122.530909 68.697677 
L 127.941818 70.325556 
L 133.352727 73.500756 
L 138.763636 76.278482 
L 144.174545 81.284532 
L 149.585455 85.8694 
L 154.996364 88.172963 
L 160.407273 96.247043 
L 165.818182 95.392097 
L 171.229091 103.284495 
L 176.64 109.39612 
L 182.050909 111.666781 
L 187.461818 114.597158 
L 192.872727 120.323163 
L 198.283636 123.13887 
L 203.694545 129.502817 
L 209.105455 133.104764 
L 214.516364 132.287075 
L 219.927273 133.672308 
L 225.338182 138.987291 
L 230.749091 143.016952 
L 236.16 147.43175 
L 241.570909 148.237102 
L 246.981818 156.882113 
L 252.392727 158.765219 
L 257.803636 156.298118 
L 263.214545 161.269574 
L 268.625455 163.904325 
L 274.036364 166.936792 
L 279.447273 171.749307 
L 284.858182 171.833495 
L 290.269091 176.239584 
L 295.68 176.687136 
L 301.090909 176.51755 
L 306.501818 185.476815 
L 311.912727 185.773893 
L 317.323636 188.65758 
L 322.734545 190.883244 
L 328.145455 194.545912 
L 333.556364 193.765962 
L 338.967273 196.339507 
L 344.378182 202.152845 
L 349.789091 200.266595 
L 355.2 204.980648 
L 360.610909 205.773903 
L 366.021818 206.009533 
L 371.432727 206.793112 
L 376.843636 214.397142 
L 382.254545 211.70046 
L 387.665455 213.73041 
L 393.076364 216.903191 
L 398.487273 218.007556 
" style="fill:none;stroke:#800080;stroke-dasharray:12.8,3.2,2,3.2;stroke-dashoffset:0;stroke-width:2;"/>
   </g>
   <g id="patch_3">
    <path d="M 57.6 307.584 
L 57.6 41.472 
" style="fill:none;stroke:#000000;stroke-linecap:square;stroke-linejoin:miter;stroke-width:0.8;"/>
   </g>
   <g id="patch_4">
    <path d="M 414.72 307.584 
L 414.72 41.472 
" style="fill:none;stroke:#000000;stroke-linecap:square;stroke-linejoin:miter;stroke-width:0.8;"/>
   </g>
   <g id="patch_5">
    <path d="M 57.6 307.584 
L 414.72 307.584 
" style="fill:none;stroke:#000000;stroke-linecap:square;stroke-linejoin:miter;stroke-width:0.8;"/>
   </g>
   <g id="patch_6">
    <path d="M 57.6 41.472 
L 414.72 41.472 
" style="fill:none;stroke:#000000;stroke-linecap:square;stroke-linejoin:miter;stroke-width:0.8;"/>
   </g>
   <g id="text_16">
    <!-- Mountain Car (50000 steps) -->
    <defs>
     <path d="M 9.8125 72.90625 
L 24.515625 72.90625 
L 43.109375 23.296875 
L 61.8125 72.90625 
L 76.515625 72.90625 
L 76.515625 0 
L 66.890625 0 
L 66.890625 64.015625 
L 48.09375 14.015625 
L 38.1875 14.015625 
L 19.390625 64.015625 
L 19.390625 0 
L 9.8125 0 
z
" id="DejaVuSans-4d"/>
     <path d="M 30.609375 48.390625 
Q 23.390625 48.390625 19.1875 42.75 
Q 14.984375 37.109375 14.984375 27.296875 
Q 14.984375 17.484375 19.15625 11.84375 
Q 23.34375 6.203125 30.609375 6.203125 
Q 37.796875 6.203125 41.984375 11.859375 
Q 46.1875 17.53125 46.1875 27.296875 
Q 46.1875 37.015625 41.984375 42.703125 
Q 37.796875 48.390625 30.609375 48.390625 
z
M 30.609375 56 
Q 42.328125 56 49.015625 48.375 
Q 55.71875 40.765625 55.71875 27.296875 
Q 55.71875 13.875 49.015625 6.21875 
Q 42.328125 -1.421875 30.609375 -1.421875 
Q 18.84375 -1.421875 12.171875 6.21875 
Q 5.515625 13.875 5.515625 27.296875 
Q 5.515625 40.765625 12.171875 48.375 
Q 18.84375 56 30.609375 56 
z
" id="DejaVuSans-6f"/>
     <path d="M 8.5 21.578125 
L 8.5 54.6875 
L 17.484375 54.6875 
L 17.484375 21.921875 
Q 17.484375 14.15625 20.5 10.265625 
Q 23.53125 6.390625 29.59375 6.390625 
Q 36.859375 6.390625 41.078125 11.03125 
Q 45.3125 15.671875 45.3125 23.6875 
L 45.3125 54.6875 
L 54.296875 54.6875 
L 54.296875 0 
L 45.3125 0 
L 45.3125 8.40625 
Q 42.046875 3.421875 37.71875 1 
Q 33.40625 -1.421875 27.6875 -1.421875 
Q 18.265625 -1.421875 13.375 4.4375 
Q 8.5 10.296875 8.5 21.578125 
z
M 31.109375 56 
z
" id="DejaVuSans-75"/>
     <path d="M 54.890625 33.015625 
L 54.890625 0 
L 45.90625 0 
L 45.90625 32.71875 
Q 45.90625 40.484375 42.875 44.328125 
Q 39.84375 48.1875 33.796875 48.1875 
Q 26.515625 48.1875 22.3125 43.546875 
Q 18.109375 38.921875 18.109375 30.90625 
L 18.109375 0 
L 9.078125 0 
L 9.078125 54.6875 
L 18.109375 54.6875 
L 18.109375 46.1875 
Q 21.34375 51.125 25.703125 53.5625 
Q 30.078125 56 35.796875 56 
Q 45.21875 56 50.046875 50.171875 
Q 54.890625 44.34375 54.890625 33.015625 
z
" id="DejaVuSans-6e"/>
     <path d="M 10.796875 72.90625 
L 49.515625 72.90625 
L 49.515625 64.59375 
L 19.828125 64.59375 
L 19.828125 46.734375 
Q 21.96875 47.46875 24.109375 47.828125 
Q 26.265625 48.1875 28.421875 48.1875 
Q 40.625 48.1875 47.75 41.5 
Q 54.890625 34.8125 54.890625 23.390625 
Q 54.890625 11.625 47.5625 5.09375 
Q 40.234375 -1.421875 26.90625 -1.421875 
Q 22.3125 -1.421875 17.546875 -0.640625 
Q 12.796875 0.140625 7.71875 1.703125 
L 7.71875 11.625 
Q 12.109375 9.234375 16.796875 8.0625 
Q 21.484375 6.890625 26.703125 6.890625 
Q 35.15625 6.890625 40.078125 11.328125 
Q 45.015625 15.765625 45.015625 23.390625 
Q 45.015625 31 40.078125 35.4375 
Q 35.15625 39.890625 26.703125 39.890625 
Q 22.75 39.890625 18.8125 39.015625 
Q 14.890625 38.140625 10.796875 36.28125 
z
" id="DejaVuSans-35"/>
     <path d="M 18.109375 8.203125 
L 18.109375 -20.796875 
L 9.078125 -20.796875 
L 9.078125 54.6875 
L 18.109375 54.6875 
L 18.109375 46.390625 
Q 20.953125 51.265625 25.265625 53.625 
Q 29.59375 56 35.59375 56 
Q 45.5625 56 51.78125 48.09375 
Q 58.015625 40.1875 58.015625 27.296875 
Q 58.015625 14.40625 51.78125 6.484375 
Q 45.5625 -1.421875 35.59375 -1.421875 
Q 29.59375 -1.421875 25.265625 0.953125 
Q 20.953125 3.328125 18.109375 8.203125 
z
M 48.6875 27.296875 
Q 48.6875 37.203125 44.609375 42.84375 
Q 40.53125 48.484375 33.40625 48.484375 
Q 26.265625 48.484375 22.1875 42.84375 
Q 18.109375 37.203125 18.109375 27.296875 
Q 18.109375 17.390625 22.1875 11.75 
Q 26.265625 6.109375 33.40625 6.109375 
Q 40.53125 6.109375 44.609375 11.75 
Q 48.6875 17.390625 48.6875 27.296875 
z
" id="DejaVuSans-70"/>
    </defs>
    <g transform="translate(152.280937 35.472)scale(0.12 -0.12)">
     <use xlink:href="#DejaVuSans-4d"/>
     <use x="86.279297" xlink:href="#DejaVuSans-6f"/>
     <use x="147.460938" xlink:href="#DejaVuSans-75"/>
     <use x="210.839844" xlink:href="#DejaVuSans-6e"/>
     <use x="274.21875" xlink:href="#DejaVuSans-74"/>
     <use x="313.427734" xlink:href="#DejaVuSans-61"/>
     <use x="374.707031" xlink:href="#DejaVuSans-69"/>
     <use x="402.490234" xlink:href="#DejaVuSans-6e"/>
     <use x="465.869141" xlink:href="#DejaVuSans-20"/>
     <use x="497.65625" xlink:href="#DejaVuSans-43"/>
     <use x="567.480469" xlink:href="#DejaVuSans-61"/>
     <use x="628.759766" xlink:href="#DejaVuSans-72"/>
     <use x="669.873047" xlink:href="#DejaVuSans-20"/>
     <use x="701.660156" xlink:href="#DejaVuSans-28"/>
     <use x="740.673828" xlink:href="#DejaVuSans-35"/>
     <use x="804.296875" xlink:href="#DejaVuSans-30"/>
     <use x="867.919922" xlink:href="#DejaVuSans-30"/>
     <use x="931.542969" xlink:href="#DejaVuSans-30"/>
     <use x="995.166016" xlink:href="#DejaVuSans-30"/>
     <use x="1058.789062" xlink:href="#DejaVuSans-20"/>
     <use x="1090.576172" xlink:href="#DejaVuSans-73"/>
     <use x="1142.675781" xlink:href="#DejaVuSans-74"/>
     <use x="1181.884766" xlink:href="#DejaVuSans-65"/>
     <use x="1243.408203" xlink:href="#DejaVuSans-70"/>
     <use x="1306.884766" xlink:href="#DejaVuSans-73"/>
     <use x="1358.984375" xlink:href="#DejaVuSans-29"/>
    </g>
   </g>
   <g id="legend_1">
    <g id="patch_7">
     <path d="M 285.555938 137.54075 
L 407.72 137.54075 
Q 409.72 137.54075 409.72 135.54075 
L 409.72 48.472 
Q 409.72 46.472 407.72 46.472 
L 285.555938 46.472 
Q 283.555938 46.472 283.555938 48.472 
L 283.555938 135.54075 
Q 283.555938 137.54075 285.555938 137.54075 
z
" style="fill:#ffffff;opacity:0.8;stroke:#cccccc;stroke-linejoin:miter;"/>
    </g>
    <g id="line2d_33">
     <path d="M 287.555938 54.570438 
L 307.555938 54.570438 
" style="fill:none;stroke:#ff6347;stroke-linecap:square;stroke-width:2;"/>
    </g>
    <g id="line2d_34"/>
    <g id="text_17">
     <!-- Base -->
     <defs>
      <path d="M 19.671875 34.8125 
L 19.671875 8.109375 
L 35.5 8.109375 
Q 43.453125 8.109375 47.28125 11.40625 
Q 51.125 14.703125 51.125 21.484375 
Q 51.125 28.328125 47.28125 31.5625 
Q 43.453125 34.8125 35.5 34.8125 
z
M 19.671875 64.796875 
L 19.671875 42.828125 
L 34.28125 42.828125 
Q 41.5 42.828125 45.03125 45.53125 
Q 48.578125 48.25 48.578125 53.8125 
Q 48.578125 59.328125 45.03125 62.0625 
Q 41.5 64.796875 34.28125 64.796875 
z
M 9.8125 72.90625 
L 35.015625 72.90625 
Q 46.296875 72.90625 52.390625 68.21875 
Q 58.5 63.53125 58.5 54.890625 
Q 58.5 48.1875 55.375 44.234375 
Q 52.25 40.28125 46.1875 39.3125 
Q 53.46875 37.75 57.5 32.78125 
Q 61.53125 27.828125 61.53125 20.40625 
Q 61.53125 10.640625 54.890625 5.3125 
Q 48.25 0 35.984375 0 
L 9.8125 0 
z
" id="DejaVuSans-42"/>
     </defs>
     <g transform="translate(315.555938 58.070438)scale(0.1 -0.1)">
      <use xlink:href="#DejaVuSans-42"/>
      <use x="68.603516" xlink:href="#DejaVuSans-61"/>
      <use x="129.882812" xlink:href="#DejaVuSans-73"/>
      <use x="181.982422" xlink:href="#DejaVuSans-65"/>
     </g>
    </g>
    <g id="line2d_35">
     <path d="M 287.555938 69.248563 
L 307.555938 69.248563 
" style="fill:none;stroke:#ffd700;stroke-dasharray:7.4,3.2;stroke-dashoffset:0;stroke-width:2;"/>
    </g>
    <g id="line2d_36"/>
    <g id="text_18">
     <!-- L1 -->
     <defs>
      <path d="M 9.8125 72.90625 
L 19.671875 72.90625 
L 19.671875 8.296875 
L 55.171875 8.296875 
L 55.171875 0 
L 9.8125 0 
z
" id="DejaVuSans-4c"/>
     </defs>
     <g transform="translate(315.555938 72.748563)scale(0.1 -0.1)">
      <use xlink:href="#DejaVuSans-4c"/>
      <use x="55.712891" xlink:href="#DejaVuSans-31"/>
     </g>
    </g>
    <g id="line2d_37">
     <path d="M 287.555938 83.926688 
L 307.555938 83.926688 
" style="fill:none;stroke:#00ffff;stroke-dasharray:2,3.3;stroke-dashoffset:0;stroke-width:2;"/>
    </g>
    <g id="line2d_38"/>
    <g id="text_19">
     <!-- L2 -->
     <g transform="translate(315.555938 87.426688)scale(0.1 -0.1)">
      <use xlink:href="#DejaVuSans-4c"/>
      <use x="55.712891" xlink:href="#DejaVuSans-32"/>
     </g>
    </g>
    <g id="line2d_39">
     <path d="M 287.555938 98.604813 
L 307.555938 98.604813 
" style="fill:none;stroke:#0000ff;stroke-dasharray:12.8,3.2,2,3.2;stroke-dashoffset:0;stroke-width:2;"/>
    </g>
    <g id="line2d_40"/>
    <g id="text_20">
     <!-- Dropout -->
     <defs>
      <path d="M 19.671875 64.796875 
L 19.671875 8.109375 
L 31.59375 8.109375 
Q 46.6875 8.109375 53.6875 14.9375 
Q 60.6875 21.78125 60.6875 36.53125 
Q 60.6875 51.171875 53.6875 57.984375 
Q 46.6875 64.796875 31.59375 64.796875 
z
M 9.8125 72.90625 
L 30.078125 72.90625 
Q 51.265625 72.90625 61.171875 64.09375 
Q 71.09375 55.28125 71.09375 36.53125 
Q 71.09375 17.671875 61.125 8.828125 
Q 51.171875 0 30.078125 0 
L 9.8125 0 
z
" id="DejaVuSans-44"/>
     </defs>
     <g transform="translate(315.555938 102.104813)scale(0.1 -0.1)">
      <use xlink:href="#DejaVuSans-44"/>
      <use x="77.001953" xlink:href="#DejaVuSans-72"/>
      <use x="118.083984" xlink:href="#DejaVuSans-6f"/>
      <use x="179.265625" xlink:href="#DejaVuSans-70"/>
      <use x="242.742188" xlink:href="#DejaVuSans-6f"/>
      <use x="303.923828" xlink:href="#DejaVuSans-75"/>
      <use x="367.302734" xlink:href="#DejaVuSans-74"/>
     </g>
    </g>
    <g id="line2d_41">
     <path d="M 287.555938 113.282938 
L 307.555938 113.282938 
" style="fill:none;stroke:#008000;stroke-dasharray:12.8,3.2,2,3.2;stroke-dashoffset:0;stroke-width:2;"/>
    </g>
    <g id="line2d_42"/>
    <g id="text_21">
     <!-- Improved dropout -->
     <defs>
      <path d="M 9.8125 72.90625 
L 19.671875 72.90625 
L 19.671875 0 
L 9.8125 0 
z
" id="DejaVuSans-49"/>
      <path d="M 52 44.1875 
Q 55.375 50.25 60.0625 53.125 
Q 64.75 56 71.09375 56 
Q 79.640625 56 84.28125 50.015625 
Q 88.921875 44.046875 88.921875 33.015625 
L 88.921875 0 
L 79.890625 0 
L 79.890625 32.71875 
Q 79.890625 40.578125 77.09375 44.375 
Q 74.3125 48.1875 68.609375 48.1875 
Q 61.625 48.1875 57.5625 43.546875 
Q 53.515625 38.921875 53.515625 30.90625 
L 53.515625 0 
L 44.484375 0 
L 44.484375 32.71875 
Q 44.484375 40.625 41.703125 44.40625 
Q 38.921875 48.1875 33.109375 48.1875 
Q 26.21875 48.1875 22.15625 43.53125 
Q 18.109375 38.875 18.109375 30.90625 
L 18.109375 0 
L 9.078125 0 
L 9.078125 54.6875 
L 18.109375 54.6875 
L 18.109375 46.1875 
Q 21.1875 51.21875 25.484375 53.609375 
Q 29.78125 56 35.6875 56 
Q 41.65625 56 45.828125 52.96875 
Q 50 49.953125 52 44.1875 
z
" id="DejaVuSans-6d"/>
      <path d="M 2.984375 54.6875 
L 12.5 54.6875 
L 29.59375 8.796875 
L 46.6875 54.6875 
L 56.203125 54.6875 
L 35.6875 0 
L 23.484375 0 
z
" id="DejaVuSans-76"/>
     </defs>
     <g transform="translate(315.555938 116.782938)scale(0.1 -0.1)">
      <use xlink:href="#DejaVuSans-49"/>
      <use x="29.492188" xlink:href="#DejaVuSans-6d"/>
      <use x="126.904297" xlink:href="#DejaVuSans-70"/>
      <use x="190.380859" xlink:href="#DejaVuSans-72"/>
      <use x="231.462891" xlink:href="#DejaVuSans-6f"/>
      <use x="292.644531" xlink:href="#DejaVuSans-76"/>
      <use x="351.824219" xlink:href="#DejaVuSans-65"/>
      <use x="413.347656" xlink:href="#DejaVuSans-64"/>
      <use x="476.824219" xlink:href="#DejaVuSans-20"/>
      <use x="508.611328" xlink:href="#DejaVuSans-64"/>
      <use x="572.087891" xlink:href="#DejaVuSans-72"/>
      <use x="613.169922" xlink:href="#DejaVuSans-6f"/>
      <use x="674.351562" xlink:href="#DejaVuSans-70"/>
      <use x="737.828125" xlink:href="#DejaVuSans-6f"/>
      <use x="799.009766" xlink:href="#DejaVuSans-75"/>
      <use x="862.388672" xlink:href="#DejaVuSans-74"/>
     </g>
    </g>
    <g id="line2d_43">
     <path d="M 287.555938 127.961063 
L 307.555938 127.961063 
" style="fill:none;stroke:#800080;stroke-dasharray:12.8,3.2,2,3.2;stroke-dashoffset:0;stroke-width:2;"/>
    </g>
    <g id="line2d_44"/>
    <g id="text_22">
     <!-- New dropout -->
     <defs>
      <path d="M 9.8125 72.90625 
L 23.09375 72.90625 
L 55.421875 11.921875 
L 55.421875 72.90625 
L 64.984375 72.90625 
L 64.984375 0 
L 51.703125 0 
L 19.390625 60.984375 
L 19.390625 0 
L 9.8125 0 
z
" id="DejaVuSans-4e"/>
     </defs>
     <g transform="translate(315.555938 131.461063)scale(0.1 -0.1)">
      <use xlink:href="#DejaVuSans-4e"/>
      <use x="74.804688" xlink:href="#DejaVuSans-65"/>
      <use x="136.328125" xlink:href="#DejaVuSans-77"/>
      <use x="218.115234" xlink:href="#DejaVuSans-20"/>
      <use x="249.902344" xlink:href="#DejaVuSans-64"/>
      <use x="313.378906" xlink:href="#DejaVuSans-72"/>
      <use x="354.460938" xlink:href="#DejaVuSans-6f"/>
      <use x="415.642578" xlink:href="#DejaVuSans-70"/>
      <use x="479.119141" xlink:href="#DejaVuSans-6f"/>
      <use x="540.300781" xlink:href="#DejaVuSans-75"/>
      <use x="603.679688" xlink:href="#DejaVuSans-74"/>
     </g>
    </g>
   </g>
  </g>
 </g>
 <defs>
  <clipPath id="pe4fee579d1">
   <rect height="266.112" width="357.12" x="57.6" y="41.472"/>
  </clipPath>
 </defs>
</svg>
