<?xml version="1.0" encoding="utf-8" standalone="no"?>
<!DOCTYPE svg PUBLIC "-//W3C//DTD SVG 1.1//EN"
  "http://www.w3.org/Graphics/SVG/1.1/DTD/svg11.dtd">
<!-- Created with matplotlib (http://matplotlib.org/) -->
<svg height="345.6pt" version="1.1" viewBox="0 0 460.8 345.6" width="460.8pt" xmlns="http://www.w3.org/2000/svg" xmlns:xlink="http://www.w3.org/1999/xlink">
 <defs>
  <style type="text/css">
*{stroke-linecap:butt;stroke-linejoin:round;}
  </style>
 </defs>
 <g id="figure_1">
  <g id="patch_1">
   <path d="M 0 345.6 
L 460.8 345.6 
L 460.8 0 
L 0 0 
z
" style="fill:#ffffff;"/>
  </g>
  <g id="axes_1">
   <g id="patch_2">
    <path d="M 57.6 307.584 
L 414.72 307.584 
L 414.72 41.472 
L 57.6 41.472 
z
" style="fill:#ffffff;"/>
   </g>
   <g id="PolyCollection_1">
    <path clip-path="url(#pe333163277)" d="M 73.832727 89.325421 
L 73.832727 60.079325 
L 79.243636 60.954772 
L 84.654545 60.969382 
L 90.065455 60.137427 
L 95.476364 61.655135 
L 100.887273 63.806054 
L 106.298182 63.568622 
L 111.709091 65.139693 
L 117.12 66.334803 
L 122.530909 68.283936 
L 127.941818 70.482699 
L 133.352727 71.911046 
L 138.763636 73.978845 
L 144.174545 77.063594 
L 149.585455 77.003475 
L 154.996364 77.005171 
L 160.407273 77.682367 
L 165.818182 80.221345 
L 171.229091 81.475134 
L 176.64 82.129572 
L 182.050909 84.798412 
L 187.461818 88.106912 
L 192.872727 88.057049 
L 198.283636 89.058106 
L 203.694545 95.144775 
L 209.105455 94.573553 
L 214.516364 99.791811 
L 219.927273 102.826268 
L 225.338182 102.656258 
L 230.749091 111.993494 
L 236.16 112.782846 
L 241.570909 117.192662 
L 246.981818 121.773136 
L 252.392727 124.664364 
L 257.803636 124.805112 
L 263.214545 132.251772 
L 268.625455 135.188321 
L 274.036364 135.220168 
L 279.447273 138.000465 
L 284.858182 140.480727 
L 290.269091 139.867833 
L 295.68 141.4011 
L 301.090909 144.955803 
L 306.501818 150.769473 
L 311.912727 151.377164 
L 317.323636 150.152277 
L 322.734545 154.386987 
L 328.145455 154.912354 
L 333.556364 150.742574 
L 338.967273 154.965622 
L 344.378182 158.384217 
L 349.789091 160.664002 
L 355.2 163.639261 
L 360.610909 163.667759 
L 366.021818 166.199354 
L 371.432727 165.584335 
L 376.843636 166.747229 
L 382.254545 169.702023 
L 387.665455 171.830753 
L 393.076364 172.230627 
L 398.487273 173.087985 
L 398.487273 224.985846 
L 398.487273 224.985846 
L 393.076364 221.351717 
L 387.665455 221.175821 
L 382.254545 218.579369 
L 376.843636 215.826303 
L 371.432727 214.738374 
L 366.021818 215.391015 
L 360.610909 210.82129 
L 355.2 211.645705 
L 349.789091 209.428394 
L 344.378182 207.011543 
L 338.967273 202.608865 
L 333.556364 194.069666 
L 328.145455 200.695323 
L 322.734545 203.165727 
L 317.323636 196.664028 
L 311.912727 194.131805 
L 306.501818 196.275688 
L 301.090909 188.024129 
L 295.68 181.67124 
L 290.269091 184.382658 
L 284.858182 184.446172 
L 279.447273 185.768121 
L 274.036364 177.009802 
L 268.625455 175.041938 
L 263.214545 172.993 
L 257.803636 168.438009 
L 252.392727 171.75565 
L 246.981818 162.891985 
L 241.570909 159.814239 
L 236.16 154.646927 
L 230.749091 153.155457 
L 225.338182 147.940238 
L 219.927273 145.44199 
L 214.516364 141.677527 
L 209.105455 137.375748 
L 203.694545 141.38504 
L 198.283636 135.372322 
L 192.872727 132.467339 
L 187.461818 132.577627 
L 182.050909 127.889704 
L 176.64 121.395098 
L 171.229091 120.924124 
L 165.818182 115.673652 
L 160.407273 117.74137 
L 154.996364 113.2318 
L 149.585455 113.6825 
L 144.174545 110.143571 
L 138.763636 110.54059 
L 133.352727 110.274828 
L 127.941818 102.612789 
L 122.530909 100.282326 
L 117.12 100.369159 
L 111.709091 96.505237 
L 106.298182 95.537116 
L 100.887273 90.169045 
L 95.476364 92.085785 
L 90.065455 96.259775 
L 84.654545 86.201958 
L 79.243636 84.164119 
L 73.832727 89.325421 
z
" style="fill:#ff6347;fill-opacity:0.2;"/>
   </g>
   <g id="PolyCollection_2">
    <path clip-path="url(#pe333163277)" d="M 73.832727 68.553297 
L 73.832727 62.97211 
L 79.243636 63.761158 
L 84.654545 63.862666 
L 90.065455 65.702449 
L 95.476364 66.802251 
L 100.887273 68.362527 
L 106.298182 68.99833 
L 111.709091 69.934947 
L 117.12 71.354379 
L 122.530909 72.554675 
L 127.941818 73.949964 
L 133.352727 76.129922 
L 138.763636 77.440985 
L 144.174545 78.949625 
L 149.585455 80.117412 
L 154.996364 80.468753 
L 160.407273 81.839539 
L 165.818182 83.692553 
L 171.229091 84.938528 
L 176.64 86.965638 
L 182.050909 87.799077 
L 187.461818 88.465805 
L 192.872727 90.391435 
L 198.283636 91.079547 
L 203.694545 91.517482 
L 209.105455 93.074139 
L 214.516364 94.266457 
L 219.927273 95.250137 
L 225.338182 97.631163 
L 230.749091 98.858722 
L 236.16 99.388519 
L 241.570909 101.167435 
L 246.981818 103.972092 
L 252.392727 106.21774 
L 257.803636 107.74603 
L 263.214545 107.302411 
L 268.625455 112.722414 
L 274.036364 113.975109 
L 279.447273 118.430167 
L 284.858182 120.235315 
L 290.269091 120.938451 
L 295.68 126.165448 
L 301.090909 125.858636 
L 306.501818 129.090704 
L 311.912727 132.519312 
L 317.323636 130.643682 
L 322.734545 133.739423 
L 328.145455 132.668775 
L 333.556364 136.836182 
L 338.967273 136.585091 
L 344.378182 142.816448 
L 349.789091 141.570172 
L 355.2 143.019551 
L 360.610909 146.002885 
L 366.021818 148.246428 
L 371.432727 149.55009 
L 376.843636 149.002346 
L 382.254545 154.45982 
L 387.665455 156.29624 
L 393.076364 154.882833 
L 398.487273 156.259753 
L 398.487273 193.032845 
L 398.487273 193.032845 
L 393.076364 194.191553 
L 387.665455 194.84753 
L 382.254545 193.181915 
L 376.843636 186.055679 
L 371.432727 188.32969 
L 366.021818 189.222572 
L 360.610909 184.358989 
L 355.2 178.104366 
L 349.789091 175.657381 
L 344.378182 177.276406 
L 338.967273 174.326899 
L 333.556364 173.169091 
L 328.145455 167.612282 
L 322.734545 166.745815 
L 317.323636 162.906193 
L 311.912727 163.94957 
L 306.501818 160.993425 
L 301.090909 158.642463 
L 295.68 159.291719 
L 290.269091 149.925134 
L 284.858182 147.73152 
L 279.447273 146.903127 
L 274.036364 139.24138 
L 268.625455 142.288638 
L 263.214545 129.795432 
L 257.803636 135.16757 
L 252.392727 131.553609 
L 246.981818 130.488339 
L 241.570909 126.247802 
L 236.16 126.078294 
L 230.749091 124.068899 
L 225.338182 121.208978 
L 219.927273 118.162771 
L 214.516364 120.341536 
L 209.105455 111.915598 
L 203.694545 108.964801 
L 198.283636 105.082529 
L 192.872727 106.026109 
L 187.461818 104.316648 
L 182.050909 106.792938 
L 176.64 99.778493 
L 171.229091 96.883015 
L 165.818182 93.318168 
L 160.407273 95.056996 
L 154.996364 91.381331 
L 149.585455 90.242929 
L 144.174545 88.33059 
L 138.763636 89.088794 
L 133.352727 86.782669 
L 127.941818 85.062394 
L 122.530909 86.860237 
L 117.12 83.305837 
L 111.709091 79.399643 
L 106.298182 79.538891 
L 100.887273 78.258204 
L 95.476364 75.766319 
L 90.065455 73.740999 
L 84.654545 69.860825 
L 79.243636 70.001041 
L 73.832727 68.553297 
z
" style="fill:#ffd700;fill-opacity:0.2;"/>
   </g>
   <g id="PolyCollection_3">
    <path clip-path="url(#pe333163277)" d="M 73.832727 167.041743 
L 73.832727 75.966206 
L 79.243636 76.537708 
L 84.654545 76.423622 
L 90.065455 76.032532 
L 95.476364 76.744702 
L 100.887273 77.47889 
L 106.298182 78.354145 
L 111.709091 81.002636 
L 117.12 81.787468 
L 122.530909 84.741904 
L 127.941818 85.998952 
L 133.352727 86.402396 
L 138.763636 87.333345 
L 144.174545 88.75451 
L 149.585455 88.277335 
L 154.996364 89.429312 
L 160.407273 88.244886 
L 165.818182 89.484138 
L 171.229091 90.813274 
L 176.64 90.150574 
L 182.050909 91.265069 
L 187.461818 92.482009 
L 192.872727 95.642749 
L 198.283636 95.779527 
L 203.694545 97.954274 
L 209.105455 98.350566 
L 214.516364 101.427826 
L 219.927273 103.464379 
L 225.338182 107.328738 
L 230.749091 109.58353 
L 236.16 111.446105 
L 241.570909 116.090275 
L 246.981818 118.508878 
L 252.392727 115.839274 
L 257.803636 117.521525 
L 263.214545 117.486137 
L 268.625455 118.227182 
L 274.036364 123.950888 
L 279.447273 126.511728 
L 284.858182 125.139655 
L 290.269091 129.517376 
L 295.68 129.800661 
L 301.090909 133.506691 
L 306.501818 133.640618 
L 311.912727 132.826386 
L 317.323636 134.260997 
L 322.734545 137.107833 
L 328.145455 132.928178 
L 333.556364 139.676355 
L 338.967273 139.314944 
L 344.378182 139.72446 
L 349.789091 143.332403 
L 355.2 148.40619 
L 360.610909 145.38745 
L 366.021818 146.868305 
L 371.432727 149.129781 
L 376.843636 149.123345 
L 382.254545 150.943619 
L 387.665455 152.923328 
L 393.076364 149.979837 
L 398.487273 154.786338 
L 398.487273 208.634871 
L 398.487273 208.634871 
L 393.076364 202.885435 
L 387.665455 207.062617 
L 382.254545 204.740021 
L 376.843636 201.989459 
L 371.432727 202.905222 
L 366.021818 198.068765 
L 360.610909 196.855599 
L 355.2 201.327186 
L 349.789091 194.850261 
L 344.378182 190.630156 
L 338.967273 189.331233 
L 333.556364 191.285481 
L 328.145455 182.65819 
L 322.734545 188.062438 
L 317.323636 184.712251 
L 311.912727 182.152763 
L 306.501818 185.820824 
L 301.090909 185.469944 
L 295.68 179.245158 
L 290.269091 180.769009 
L 284.858182 177.500606 
L 279.447273 175.991122 
L 274.036364 175.931969 
L 268.625455 169.490485 
L 263.214545 166.744012 
L 257.803636 166.681046 
L 252.392727 168.872296 
L 246.981818 175.370492 
L 241.570909 172.928923 
L 236.16 175.016966 
L 230.749091 170.653004 
L 225.338182 169.774448 
L 219.927273 169.854694 
L 214.516364 169.573654 
L 209.105455 166.546789 
L 203.694545 167.429339 
L 198.283636 164.900678 
L 192.872727 165.590969 
L 187.461818 162.620972 
L 182.050909 161.633537 
L 176.64 163.149619 
L 171.229091 169.608076 
L 165.818182 167.715322 
L 160.407273 168.335743 
L 154.996364 173.292698 
L 149.585455 170.997315 
L 144.174545 174.398117 
L 138.763636 171.338924 
L 133.352727 169.85164 
L 127.941818 172.52381 
L 122.530909 169.806597 
L 117.12 168.68081 
L 111.709091 169.702723 
L 106.298182 167.999557 
L 100.887273 167.311042 
L 95.476364 166.392915 
L 90.065455 166.289816 
L 84.654545 167.508461 
L 79.243636 169.770513 
L 73.832727 167.041743 
z
" style="fill:#00ffff;fill-opacity:0.2;"/>
   </g>
   <g id="PolyCollection_4">
    <path clip-path="url(#pe333163277)" d="M 73.832727 167.707484 
L 73.832727 85.166447 
L 79.243636 87.200205 
L 84.654545 90.94442 
L 90.065455 90.763998 
L 95.476364 87.833956 
L 100.887273 88.067922 
L 106.298182 88.295586 
L 111.709091 91.084744 
L 117.12 93.2566 
L 122.530909 94.81923 
L 127.941818 92.935371 
L 133.352727 96.718581 
L 138.763636 99.304458 
L 144.174545 102.714847 
L 149.585455 104.146027 
L 154.996364 105.837766 
L 160.407273 109.221555 
L 165.818182 114.803527 
L 171.229091 116.073926 
L 176.64 122.270712 
L 182.050909 126.315776 
L 187.461818 124.042975 
L 192.872727 131.169044 
L 198.283636 133.026243 
L 203.694545 130.707401 
L 209.105455 136.975586 
L 214.516364 142.101763 
L 219.927273 143.63246 
L 225.338182 148.485533 
L 230.749091 148.736905 
L 236.16 151.709443 
L 241.570909 160.554947 
L 246.981818 157.64691 
L 252.392727 161.731103 
L 257.803636 163.591256 
L 263.214545 173.695521 
L 268.625455 165.971673 
L 274.036364 171.219061 
L 279.447273 174.413892 
L 284.858182 175.484842 
L 290.269091 179.500192 
L 295.68 178.832197 
L 301.090909 182.185036 
L 306.501818 187.253808 
L 311.912727 191.559404 
L 317.323636 190.805265 
L 322.734545 193.862865 
L 328.145455 197.79547 
L 333.556364 195.670758 
L 338.967273 204.443286 
L 344.378182 200.589074 
L 349.789091 204.387741 
L 355.2 206.541711 
L 360.610909 209.278827 
L 366.021818 209.086411 
L 371.432727 210.732598 
L 376.843636 212.091696 
L 382.254545 215.290302 
L 387.665455 217.612343 
L 393.076364 216.662275 
L 398.487273 218.247448 
L 398.487273 266.397454 
L 398.487273 266.397454 
L 393.076364 264.592845 
L 387.665455 265.686516 
L 382.254545 265.54049 
L 376.843636 263.664098 
L 371.432727 261.997261 
L 366.021818 261.299726 
L 360.610909 259.668854 
L 355.2 261.325071 
L 349.789091 260.137643 
L 344.378182 256.727094 
L 338.967273 259.366015 
L 333.556364 253.328684 
L 328.145455 254.487794 
L 322.734545 252.754149 
L 317.323636 251.261233 
L 311.912727 251.176246 
L 306.501818 248.34762 
L 301.090909 245.256915 
L 295.68 242.318866 
L 290.269091 242.277928 
L 284.858182 240.777018 
L 279.447273 241.270263 
L 274.036364 236.546568 
L 268.625455 232.88501 
L 263.214545 240.838062 
L 257.803636 232.881064 
L 252.392727 231.284664 
L 246.981818 228.159641 
L 241.570909 230.379341 
L 236.16 224.831088 
L 230.749091 222.494933 
L 225.338182 220.681277 
L 219.927273 218.359487 
L 214.516364 218.964114 
L 209.105455 214.7725 
L 203.694545 209.585288 
L 198.283636 211.466178 
L 192.872727 210.385985 
L 187.461818 204.321124 
L 182.050909 206.197251 
L 176.64 201.724796 
L 171.229091 199.022796 
L 165.818182 197.221295 
L 160.407273 193.312745 
L 154.996364 189.387163 
L 149.585455 189.63851 
L 144.174545 187.525078 
L 138.763636 184.412336 
L 133.352727 183.554241 
L 127.941818 176.452503 
L 122.530909 180.077645 
L 117.12 175.72388 
L 111.709091 175.552498 
L 106.298182 172.541867 
L 100.887273 170.898038 
L 95.476364 173.243965 
L 90.065455 173.747735 
L 84.654545 175.45429 
L 79.243636 169.583152 
L 73.832727 167.707484 
z
" style="fill:#0000ff;fill-opacity:0.2;"/>
   </g>
   <g id="PolyCollection_5">
    <path clip-path="url(#pe333163277)" d="M 73.832727 69.969394 
L 73.832727 62.066464 
L 79.243636 62.255547 
L 84.654545 62.518305 
L 90.065455 63.023754 
L 95.476364 63.381475 
L 100.887273 63.760427 
L 106.298182 64.17844 
L 111.709091 64.457972 
L 117.12 65.00609 
L 122.530909 65.82798 
L 127.941818 66.845462 
L 133.352727 67.965846 
L 138.763636 68.64776 
L 144.174545 69.855575 
L 149.585455 71.301226 
L 154.996364 71.989942 
L 160.407273 73.361903 
L 165.818182 74.716188 
L 171.229091 77.775036 
L 176.64 81.03805 
L 182.050909 84.56738 
L 187.461818 87.566424 
L 192.872727 90.712611 
L 198.283636 97.008173 
L 203.694545 97.958294 
L 209.105455 101.217715 
L 214.516364 104.250596 
L 219.927273 109.19192 
L 225.338182 112.219525 
L 230.749091 115.208839 
L 236.16 114.73319 
L 241.570909 118.560231 
L 246.981818 122.636926 
L 252.392727 127.771001 
L 257.803636 128.328594 
L 263.214545 130.78353 
L 268.625455 131.864337 
L 274.036364 133.503976 
L 279.447273 141.175986 
L 284.858182 140.643988 
L 290.269091 142.377513 
L 295.68 148.921664 
L 301.090909 150.412767 
L 306.501818 150.678238 
L 311.912727 156.371465 
L 317.323636 153.897008 
L 322.734545 155.312252 
L 328.145455 155.954595 
L 333.556364 159.139699 
L 338.967273 165.258993 
L 344.378182 166.028672 
L 349.789091 163.235396 
L 355.2 165.628599 
L 360.610909 169.484421 
L 366.021818 173.46393 
L 371.432727 170.401289 
L 376.843636 172.613861 
L 382.254545 174.998362 
L 387.665455 179.604946 
L 393.076364 175.859893 
L 398.487273 180.798013 
L 398.487273 220.81172 
L 398.487273 220.81172 
L 393.076364 215.460499 
L 387.665455 221.442082 
L 382.254545 215.451601 
L 376.843636 215.248527 
L 371.432727 211.305202 
L 366.021818 214.148795 
L 360.610909 207.688489 
L 355.2 202.766002 
L 349.789091 198.034661 
L 344.378182 200.358961 
L 338.967273 198.727826 
L 333.556364 194.885338 
L 328.145455 188.50686 
L 322.734545 188.872931 
L 317.323636 187.051769 
L 311.912727 188.787687 
L 306.501818 182.443459 
L 301.090909 183.379533 
L 295.68 180.460918 
L 290.269091 172.190372 
L 284.858182 168.861479 
L 279.447273 169.1433 
L 274.036364 160.501192 
L 268.625455 156.669569 
L 263.214545 155.314241 
L 257.803636 151.14057 
L 252.392727 151.72429 
L 246.981818 145.272817 
L 241.570909 141.834024 
L 236.16 136.493749 
L 230.749091 133.948716 
L 225.338182 130.021054 
L 219.927273 128.171067 
L 214.516364 116.428137 
L 209.105455 115.904794 
L 203.694545 114.141472 
L 198.283636 110.101267 
L 192.872727 104.119873 
L 187.461818 101.923983 
L 182.050909 97.408024 
L 176.64 93.094307 
L 171.229091 89.665814 
L 165.818182 86.882778 
L 160.407273 85.287574 
L 154.996364 84.202111 
L 149.585455 82.757094 
L 144.174545 80.997788 
L 138.763636 79.77721 
L 133.352727 78.878903 
L 127.941818 77.591698 
L 122.530909 76.204012 
L 117.12 75.119089 
L 111.709091 73.656851 
L 106.298182 72.83468 
L 100.887273 72.164537 
L 95.476364 71.720477 
L 90.065455 71.20777 
L 84.654545 70.871337 
L 79.243636 70.288342 
L 73.832727 69.969394 
z
" style="fill:#008000;fill-opacity:0.2;"/>
   </g>
   <g id="PolyCollection_6">
    <path clip-path="url(#pe333163277)" d="M 73.832727 83.778293 
L 73.832727 57.705992 
L 79.243636 59.000355 
L 84.654545 57.117551 
L 90.065455 57.812682 
L 95.476364 58.571531 
L 100.887273 61.904105 
L 106.298182 62.035993 
L 111.709091 61.289369 
L 117.12 63.305403 
L 122.530909 63.925451 
L 127.941818 65.540175 
L 133.352727 68.060733 
L 138.763636 71.361841 
L 144.174545 72.013197 
L 149.585455 74.607399 
L 154.996364 75.892349 
L 160.407273 77.719702 
L 165.818182 78.493717 
L 171.229091 83.080659 
L 176.64 86.39314 
L 182.050909 88.453727 
L 187.461818 92.242647 
L 192.872727 96.324993 
L 198.283636 96.817147 
L 203.694545 101.20542 
L 209.105455 102.988683 
L 214.516364 107.138331 
L 219.927273 109.52099 
L 225.338182 109.92155 
L 230.749091 111.846226 
L 236.16 111.915228 
L 241.570909 121.507252 
L 246.981818 122.576956 
L 252.392727 126.534476 
L 257.803636 128.215461 
L 263.214545 130.903317 
L 268.625455 130.296626 
L 274.036364 130.453325 
L 279.447273 133.73235 
L 284.858182 137.184315 
L 290.269091 137.323325 
L 295.68 136.701096 
L 301.090909 142.562633 
L 306.501818 141.232978 
L 311.912727 144.279484 
L 317.323636 146.150492 
L 322.734545 146.597178 
L 328.145455 147.506125 
L 333.556364 151.77042 
L 338.967273 150.004223 
L 344.378182 151.477934 
L 349.789091 154.639147 
L 355.2 156.58611 
L 360.610909 156.664812 
L 366.021818 157.524585 
L 371.432727 157.379691 
L 376.843636 162.739983 
L 382.254545 163.681234 
L 387.665455 165.415269 
L 393.076364 169.259294 
L 398.487273 169.184251 
L 398.487273 205.067233 
L 398.487273 205.067233 
L 393.076364 207.523641 
L 387.665455 200.250475 
L 382.254545 197.568986 
L 376.843636 196.542943 
L 371.432727 193.741822 
L 366.021818 193.299366 
L 360.610909 196.956702 
L 355.2 194.448796 
L 349.789091 185.064226 
L 344.378182 185.149668 
L 338.967273 183.633731 
L 333.556364 186.373536 
L 328.145455 184.635796 
L 322.734545 179.734793 
L 317.323636 179.142191 
L 311.912727 175.273404 
L 306.501818 172.004346 
L 301.090909 179.459775 
L 295.68 165.206147 
L 290.269091 167.635497 
L 284.858182 165.225639 
L 279.447273 166.142766 
L 274.036364 157.993489 
L 268.625455 156.453362 
L 263.214545 158.657781 
L 257.803636 156.512559 
L 252.392727 155.395498 
L 246.981818 151.939138 
L 241.570909 149.909846 
L 236.16 139.395899 
L 230.749091 143.788012 
L 225.338182 138.76039 
L 219.927273 138.778717 
L 214.516364 140.050963 
L 209.105455 133.948041 
L 203.694545 132.339586 
L 198.283636 125.281173 
L 192.872727 124.559372 
L 187.461818 115.260638 
L 182.050909 113.227028 
L 176.64 110.393089 
L 171.229091 112.582095 
L 165.818182 107.028718 
L 160.407273 104.675674 
L 154.996364 105.715336 
L 149.585455 100.053311 
L 144.174545 94.456586 
L 138.763636 90.537106 
L 133.352727 89.702349 
L 127.941818 81.899213 
L 122.530909 82.879139 
L 117.12 75.501312 
L 111.709091 81.499833 
L 106.298182 75.93513 
L 100.887273 78.497346 
L 95.476364 97.161842 
L 90.065455 99.985721 
L 84.654545 99.059987 
L 79.243636 89.369458 
L 73.832727 83.778293 
z
" style="fill:#800080;fill-opacity:0.2;"/>
   </g>
   <g id="matplotlib.axis_1">
    <g id="xtick_1">
     <g id="line2d_1">
      <path clip-path="url(#pe333163277)" d="M 73.832727 307.584 
L 73.832727 41.472 
" style="fill:none;stroke:#b0b0b0;stroke-dasharray:2.96,1.28;stroke-dashoffset:0;stroke-width:0.8;"/>
     </g>
     <g id="line2d_2">
      <defs>
       <path d="M 0 0 
L 0 3.5 
" id="m8480968b86" style="stroke:#000000;stroke-width:0.8;"/>
      </defs>
      <g>
       <use style="stroke:#000000;stroke-width:0.8;" x="73.832727" xlink:href="#m8480968b86" y="307.584"/>
      </g>
     </g>
     <g id="text_1">
      <!-- 0.16 -->
      <defs>
       <path d="M 31.78125 66.40625 
Q 24.171875 66.40625 20.328125 58.90625 
Q 16.5 51.421875 16.5 36.375 
Q 16.5 21.390625 20.328125 13.890625 
Q 24.171875 6.390625 31.78125 6.390625 
Q 39.453125 6.390625 43.28125 13.890625 
Q 47.125 21.390625 47.125 36.375 
Q 47.125 51.421875 43.28125 58.90625 
Q 39.453125 66.40625 31.78125 66.40625 
z
M 31.78125 74.21875 
Q 44.046875 74.21875 50.515625 64.515625 
Q 56.984375 54.828125 56.984375 36.375 
Q 56.984375 17.96875 50.515625 8.265625 
Q 44.046875 -1.421875 31.78125 -1.421875 
Q 19.53125 -1.421875 13.0625 8.265625 
Q 6.59375 17.96875 6.59375 36.375 
Q 6.59375 54.828125 13.0625 64.515625 
Q 19.53125 74.21875 31.78125 74.21875 
z
" id="DejaVuSans-30"/>
       <path d="M 10.6875 12.40625 
L 21 12.40625 
L 21 0 
L 10.6875 0 
z
" id="DejaVuSans-2e"/>
       <path d="M 12.40625 8.296875 
L 28.515625 8.296875 
L 28.515625 63.921875 
L 10.984375 60.40625 
L 10.984375 69.390625 
L 28.421875 72.90625 
L 38.28125 72.90625 
L 38.28125 8.296875 
L 54.390625 8.296875 
L 54.390625 0 
L 12.40625 0 
z
" id="DejaVuSans-31"/>
       <path d="M 33.015625 40.375 
Q 26.375 40.375 22.484375 35.828125 
Q 18.609375 31.296875 18.609375 23.390625 
Q 18.609375 15.53125 22.484375 10.953125 
Q 26.375 6.390625 33.015625 6.390625 
Q 39.65625 6.390625 43.53125 10.953125 
Q 47.40625 15.53125 47.40625 23.390625 
Q 47.40625 31.296875 43.53125 35.828125 
Q 39.65625 40.375 33.015625 40.375 
z
M 52.59375 71.296875 
L 52.59375 62.3125 
Q 48.875 64.0625 45.09375 64.984375 
Q 41.3125 65.921875 37.59375 65.921875 
Q 27.828125 65.921875 22.671875 59.328125 
Q 17.53125 52.734375 16.796875 39.40625 
Q 19.671875 43.65625 24.015625 45.921875 
Q 28.375 48.1875 33.59375 48.1875 
Q 44.578125 48.1875 50.953125 41.515625 
Q 57.328125 34.859375 57.328125 23.390625 
Q 57.328125 12.15625 50.6875 5.359375 
Q 44.046875 -1.421875 33.015625 -1.421875 
Q 20.359375 -1.421875 13.671875 8.265625 
Q 6.984375 17.96875 6.984375 36.375 
Q 6.984375 53.65625 15.1875 63.9375 
Q 23.390625 74.21875 37.203125 74.21875 
Q 40.921875 74.21875 44.703125 73.484375 
Q 48.484375 72.75 52.59375 71.296875 
z
" id="DejaVuSans-36"/>
      </defs>
      <g transform="translate(62.699915 322.182437)scale(0.1 -0.1)">
       <use xlink:href="#DejaVuSans-30"/>
       <use x="63.623047" xlink:href="#DejaVuSans-2e"/>
       <use x="95.410156" xlink:href="#DejaVuSans-31"/>
       <use x="159.033203" xlink:href="#DejaVuSans-36"/>
      </g>
     </g>
    </g>
    <g id="xtick_2">
     <g id="line2d_3">
      <path clip-path="url(#pe333163277)" d="M 127.941818 307.584 
L 127.941818 41.472 
" style="fill:none;stroke:#b0b0b0;stroke-dasharray:2.96,1.28;stroke-dashoffset:0;stroke-width:0.8;"/>
     </g>
     <g id="line2d_4">
      <g>
       <use style="stroke:#000000;stroke-width:0.8;" x="127.941818" xlink:href="#m8480968b86" y="307.584"/>
      </g>
     </g>
     <g id="text_2">
      <!-- 0.18 -->
      <defs>
       <path d="M 31.78125 34.625 
Q 24.75 34.625 20.71875 30.859375 
Q 16.703125 27.09375 16.703125 20.515625 
Q 16.703125 13.921875 20.71875 10.15625 
Q 24.75 6.390625 31.78125 6.390625 
Q 38.8125 6.390625 42.859375 10.171875 
Q 46.921875 13.96875 46.921875 20.515625 
Q 46.921875 27.09375 42.890625 30.859375 
Q 38.875 34.625 31.78125 34.625 
z
M 21.921875 38.8125 
Q 15.578125 40.375 12.03125 44.71875 
Q 8.5 49.078125 8.5 55.328125 
Q 8.5 64.0625 14.71875 69.140625 
Q 20.953125 74.21875 31.78125 74.21875 
Q 42.671875 74.21875 48.875 69.140625 
Q 55.078125 64.0625 55.078125 55.328125 
Q 55.078125 49.078125 51.53125 44.71875 
Q 48 40.375 41.703125 38.8125 
Q 48.828125 37.15625 52.796875 32.3125 
Q 56.78125 27.484375 56.78125 20.515625 
Q 56.78125 9.90625 50.3125 4.234375 
Q 43.84375 -1.421875 31.78125 -1.421875 
Q 19.734375 -1.421875 13.25 4.234375 
Q 6.78125 9.90625 6.78125 20.515625 
Q 6.78125 27.484375 10.78125 32.3125 
Q 14.796875 37.15625 21.921875 38.8125 
z
M 18.3125 54.390625 
Q 18.3125 48.734375 21.84375 45.5625 
Q 25.390625 42.390625 31.78125 42.390625 
Q 38.140625 42.390625 41.71875 45.5625 
Q 45.3125 48.734375 45.3125 54.390625 
Q 45.3125 60.0625 41.71875 63.234375 
Q 38.140625 66.40625 31.78125 66.40625 
Q 25.390625 66.40625 21.84375 63.234375 
Q 18.3125 60.0625 18.3125 54.390625 
z
" id="DejaVuSans-38"/>
      </defs>
      <g transform="translate(116.809006 322.182437)scale(0.1 -0.1)">
       <use xlink:href="#DejaVuSans-30"/>
       <use x="63.623047" xlink:href="#DejaVuSans-2e"/>
       <use x="95.410156" xlink:href="#DejaVuSans-31"/>
       <use x="159.033203" xlink:href="#DejaVuSans-38"/>
      </g>
     </g>
    </g>
    <g id="xtick_3">
     <g id="line2d_5">
      <path clip-path="url(#pe333163277)" d="M 182.050909 307.584 
L 182.050909 41.472 
" style="fill:none;stroke:#b0b0b0;stroke-dasharray:2.96,1.28;stroke-dashoffset:0;stroke-width:0.8;"/>
     </g>
     <g id="line2d_6">
      <g>
       <use style="stroke:#000000;stroke-width:0.8;" x="182.050909" xlink:href="#m8480968b86" y="307.584"/>
      </g>
     </g>
     <g id="text_3">
      <!-- 0.20 -->
      <defs>
       <path d="M 19.1875 8.296875 
L 53.609375 8.296875 
L 53.609375 0 
L 7.328125 0 
L 7.328125 8.296875 
Q 12.9375 14.109375 22.625 23.890625 
Q 32.328125 33.6875 34.8125 36.53125 
Q 39.546875 41.84375 41.421875 45.53125 
Q 43.3125 49.21875 43.3125 52.78125 
Q 43.3125 58.59375 39.234375 62.25 
Q 35.15625 65.921875 28.609375 65.921875 
Q 23.96875 65.921875 18.8125 64.3125 
Q 13.671875 62.703125 7.8125 59.421875 
L 7.8125 69.390625 
Q 13.765625 71.78125 18.9375 73 
Q 24.125 74.21875 28.421875 74.21875 
Q 39.75 74.21875 46.484375 68.546875 
Q 53.21875 62.890625 53.21875 53.421875 
Q 53.21875 48.921875 51.53125 44.890625 
Q 49.859375 40.875 45.40625 35.40625 
Q 44.1875 33.984375 37.640625 27.21875 
Q 31.109375 20.453125 19.1875 8.296875 
z
" id="DejaVuSans-32"/>
      </defs>
      <g transform="translate(170.918097 322.182437)scale(0.1 -0.1)">
       <use xlink:href="#DejaVuSans-30"/>
       <use x="63.623047" xlink:href="#DejaVuSans-2e"/>
       <use x="95.410156" xlink:href="#DejaVuSans-32"/>
       <use x="159.033203" xlink:href="#DejaVuSans-30"/>
      </g>
     </g>
    </g>
    <g id="xtick_4">
     <g id="line2d_7">
      <path clip-path="url(#pe333163277)" d="M 236.16 307.584 
L 236.16 41.472 
" style="fill:none;stroke:#b0b0b0;stroke-dasharray:2.96,1.28;stroke-dashoffset:0;stroke-width:0.8;"/>
     </g>
     <g id="line2d_8">
      <g>
       <use style="stroke:#000000;stroke-width:0.8;" x="236.16" xlink:href="#m8480968b86" y="307.584"/>
      </g>
     </g>
     <g id="text_4">
      <!-- 0.22 -->
      <g transform="translate(225.027188 322.182437)scale(0.1 -0.1)">
       <use xlink:href="#DejaVuSans-30"/>
       <use x="63.623047" xlink:href="#DejaVuSans-2e"/>
       <use x="95.410156" xlink:href="#DejaVuSans-32"/>
       <use x="159.033203" xlink:href="#DejaVuSans-32"/>
      </g>
     </g>
    </g>
    <g id="xtick_5">
     <g id="line2d_9">
      <path clip-path="url(#pe333163277)" d="M 290.269091 307.584 
L 290.269091 41.472 
" style="fill:none;stroke:#b0b0b0;stroke-dasharray:2.96,1.28;stroke-dashoffset:0;stroke-width:0.8;"/>
     </g>
     <g id="line2d_10">
      <g>
       <use style="stroke:#000000;stroke-width:0.8;" x="290.269091" xlink:href="#m8480968b86" y="307.584"/>
      </g>
     </g>
     <g id="text_5">
      <!-- 0.24 -->
      <defs>
       <path d="M 37.796875 64.3125 
L 12.890625 25.390625 
L 37.796875 25.390625 
z
M 35.203125 72.90625 
L 47.609375 72.90625 
L 47.609375 25.390625 
L 58.015625 25.390625 
L 58.015625 17.1875 
L 47.609375 17.1875 
L 47.609375 0 
L 37.796875 0 
L 37.796875 17.1875 
L 4.890625 17.1875 
L 4.890625 26.703125 
z
" id="DejaVuSans-34"/>
      </defs>
      <g transform="translate(279.136278 322.182437)scale(0.1 -0.1)">
       <use xlink:href="#DejaVuSans-30"/>
       <use x="63.623047" xlink:href="#DejaVuSans-2e"/>
       <use x="95.410156" xlink:href="#DejaVuSans-32"/>
       <use x="159.033203" xlink:href="#DejaVuSans-34"/>
      </g>
     </g>
    </g>
    <g id="xtick_6">
     <g id="line2d_11">
      <path clip-path="url(#pe333163277)" d="M 344.378182 307.584 
L 344.378182 41.472 
" style="fill:none;stroke:#b0b0b0;stroke-dasharray:2.96,1.28;stroke-dashoffset:0;stroke-width:0.8;"/>
     </g>
     <g id="line2d_12">
      <g>
       <use style="stroke:#000000;stroke-width:0.8;" x="344.378182" xlink:href="#m8480968b86" y="307.584"/>
      </g>
     </g>
     <g id="text_6">
      <!-- 0.26 -->
      <g transform="translate(333.245369 322.182437)scale(0.1 -0.1)">
       <use xlink:href="#DejaVuSans-30"/>
       <use x="63.623047" xlink:href="#DejaVuSans-2e"/>
       <use x="95.410156" xlink:href="#DejaVuSans-32"/>
       <use x="159.033203" xlink:href="#DejaVuSans-36"/>
      </g>
     </g>
    </g>
    <g id="xtick_7">
     <g id="line2d_13">
      <path clip-path="url(#pe333163277)" d="M 398.487273 307.584 
L 398.487273 41.472 
" style="fill:none;stroke:#b0b0b0;stroke-dasharray:2.96,1.28;stroke-dashoffset:0;stroke-width:0.8;"/>
     </g>
     <g id="line2d_14">
      <g>
       <use style="stroke:#000000;stroke-width:0.8;" x="398.487273" xlink:href="#m8480968b86" y="307.584"/>
      </g>
     </g>
     <g id="text_7">
      <!-- 0.28 -->
      <g transform="translate(387.35446 322.182437)scale(0.1 -0.1)">
       <use xlink:href="#DejaVuSans-30"/>
       <use x="63.623047" xlink:href="#DejaVuSans-2e"/>
       <use x="95.410156" xlink:href="#DejaVuSans-32"/>
       <use x="159.033203" xlink:href="#DejaVuSans-38"/>
      </g>
     </g>
    </g>
    <g id="text_8">
     <!-- Car Weight(kg) -->
     <defs>
      <path d="M 64.40625 67.28125 
L 64.40625 56.890625 
Q 59.421875 61.53125 53.78125 63.8125 
Q 48.140625 66.109375 41.796875 66.109375 
Q 29.296875 66.109375 22.65625 58.46875 
Q 16.015625 50.828125 16.015625 36.375 
Q 16.015625 21.96875 22.65625 14.328125 
Q 29.296875 6.6875 41.796875 6.6875 
Q 48.140625 6.6875 53.78125 8.984375 
Q 59.421875 11.28125 64.40625 15.921875 
L 64.40625 5.609375 
Q 59.234375 2.09375 53.4375 0.328125 
Q 47.65625 -1.421875 41.21875 -1.421875 
Q 24.65625 -1.421875 15.125 8.703125 
Q 5.609375 18.84375 5.609375 36.375 
Q 5.609375 53.953125 15.125 64.078125 
Q 24.65625 74.21875 41.21875 74.21875 
Q 47.75 74.21875 53.53125 72.484375 
Q 59.328125 70.75 64.40625 67.28125 
z
" id="DejaVuSans-43"/>
      <path d="M 34.28125 27.484375 
Q 23.390625 27.484375 19.1875 25 
Q 14.984375 22.515625 14.984375 16.5 
Q 14.984375 11.71875 18.140625 8.90625 
Q 21.296875 6.109375 26.703125 6.109375 
Q 34.1875 6.109375 38.703125 11.40625 
Q 43.21875 16.703125 43.21875 25.484375 
L 43.21875 27.484375 
z
M 52.203125 31.203125 
L 52.203125 0 
L 43.21875 0 
L 43.21875 8.296875 
Q 40.140625 3.328125 35.546875 0.953125 
Q 30.953125 -1.421875 24.3125 -1.421875 
Q 15.921875 -1.421875 10.953125 3.296875 
Q 6 8.015625 6 15.921875 
Q 6 25.140625 12.171875 29.828125 
Q 18.359375 34.515625 30.609375 34.515625 
L 43.21875 34.515625 
L 43.21875 35.40625 
Q 43.21875 41.609375 39.140625 45 
Q 35.0625 48.390625 27.6875 48.390625 
Q 23 48.390625 18.546875 47.265625 
Q 14.109375 46.140625 10.015625 43.890625 
L 10.015625 52.203125 
Q 14.9375 54.109375 19.578125 55.046875 
Q 24.21875 56 28.609375 56 
Q 40.484375 56 46.34375 49.84375 
Q 52.203125 43.703125 52.203125 31.203125 
z
" id="DejaVuSans-61"/>
      <path d="M 41.109375 46.296875 
Q 39.59375 47.171875 37.8125 47.578125 
Q 36.03125 48 33.890625 48 
Q 26.265625 48 22.1875 43.046875 
Q 18.109375 38.09375 18.109375 28.8125 
L 18.109375 0 
L 9.078125 0 
L 9.078125 54.6875 
L 18.109375 54.6875 
L 18.109375 46.1875 
Q 20.953125 51.171875 25.484375 53.578125 
Q 30.03125 56 36.53125 56 
Q 37.453125 56 38.578125 55.875 
Q 39.703125 55.765625 41.0625 55.515625 
z
" id="DejaVuSans-72"/>
      <path id="DejaVuSans-20"/>
      <path d="M 3.328125 72.90625 
L 13.28125 72.90625 
L 28.609375 11.28125 
L 43.890625 72.90625 
L 54.984375 72.90625 
L 70.3125 11.28125 
L 85.59375 72.90625 
L 95.609375 72.90625 
L 77.296875 0 
L 64.890625 0 
L 49.515625 63.28125 
L 33.984375 0 
L 21.578125 0 
z
" id="DejaVuSans-57"/>
      <path d="M 56.203125 29.59375 
L 56.203125 25.203125 
L 14.890625 25.203125 
Q 15.484375 15.921875 20.484375 11.0625 
Q 25.484375 6.203125 34.421875 6.203125 
Q 39.59375 6.203125 44.453125 7.46875 
Q 49.3125 8.734375 54.109375 11.28125 
L 54.109375 2.78125 
Q 49.265625 0.734375 44.1875 -0.34375 
Q 39.109375 -1.421875 33.890625 -1.421875 
Q 20.796875 -1.421875 13.15625 6.1875 
Q 5.515625 13.8125 5.515625 26.8125 
Q 5.515625 40.234375 12.765625 48.109375 
Q 20.015625 56 32.328125 56 
Q 43.359375 56 49.78125 48.890625 
Q 56.203125 41.796875 56.203125 29.59375 
z
M 47.21875 32.234375 
Q 47.125 39.59375 43.09375 43.984375 
Q 39.0625 48.390625 32.421875 48.390625 
Q 24.90625 48.390625 20.390625 44.140625 
Q 15.875 39.890625 15.1875 32.171875 
z
" id="DejaVuSans-65"/>
      <path d="M 9.421875 54.6875 
L 18.40625 54.6875 
L 18.40625 0 
L 9.421875 0 
z
M 9.421875 75.984375 
L 18.40625 75.984375 
L 18.40625 64.59375 
L 9.421875 64.59375 
z
" id="DejaVuSans-69"/>
      <path d="M 45.40625 27.984375 
Q 45.40625 37.75 41.375 43.109375 
Q 37.359375 48.484375 30.078125 48.484375 
Q 22.859375 48.484375 18.828125 43.109375 
Q 14.796875 37.75 14.796875 27.984375 
Q 14.796875 18.265625 18.828125 12.890625 
Q 22.859375 7.515625 30.078125 7.515625 
Q 37.359375 7.515625 41.375 12.890625 
Q 45.40625 18.265625 45.40625 27.984375 
z
M 54.390625 6.78125 
Q 54.390625 -7.171875 48.1875 -13.984375 
Q 42 -20.796875 29.203125 -20.796875 
Q 24.46875 -20.796875 20.265625 -20.09375 
Q 16.0625 -19.390625 12.109375 -17.921875 
L 12.109375 -9.1875 
Q 16.0625 -11.328125 19.921875 -12.34375 
Q 23.78125 -13.375 27.78125 -13.375 
Q 36.625 -13.375 41.015625 -8.765625 
Q 45.40625 -4.15625 45.40625 5.171875 
L 45.40625 9.625 
Q 42.625 4.78125 38.28125 2.390625 
Q 33.9375 0 27.875 0 
Q 17.828125 0 11.671875 7.65625 
Q 5.515625 15.328125 5.515625 27.984375 
Q 5.515625 40.671875 11.671875 48.328125 
Q 17.828125 56 27.875 56 
Q 33.9375 56 38.28125 53.609375 
Q 42.625 51.21875 45.40625 46.390625 
L 45.40625 54.6875 
L 54.390625 54.6875 
z
" id="DejaVuSans-67"/>
      <path d="M 54.890625 33.015625 
L 54.890625 0 
L 45.90625 0 
L 45.90625 32.71875 
Q 45.90625 40.484375 42.875 44.328125 
Q 39.84375 48.1875 33.796875 48.1875 
Q 26.515625 48.1875 22.3125 43.546875 
Q 18.109375 38.921875 18.109375 30.90625 
L 18.109375 0 
L 9.078125 0 
L 9.078125 75.984375 
L 18.109375 75.984375 
L 18.109375 46.1875 
Q 21.34375 51.125 25.703125 53.5625 
Q 30.078125 56 35.796875 56 
Q 45.21875 56 50.046875 50.171875 
Q 54.890625 44.34375 54.890625 33.015625 
z
" id="DejaVuSans-68"/>
      <path d="M 18.3125 70.21875 
L 18.3125 54.6875 
L 36.8125 54.6875 
L 36.8125 47.703125 
L 18.3125 47.703125 
L 18.3125 18.015625 
Q 18.3125 11.328125 20.140625 9.421875 
Q 21.96875 7.515625 27.59375 7.515625 
L 36.8125 7.515625 
L 36.8125 0 
L 27.59375 0 
Q 17.1875 0 13.234375 3.875 
Q 9.28125 7.765625 9.28125 18.015625 
L 9.28125 47.703125 
L 2.6875 47.703125 
L 2.6875 54.6875 
L 9.28125 54.6875 
L 9.28125 70.21875 
z
" id="DejaVuSans-74"/>
      <path d="M 31 75.875 
Q 24.46875 64.65625 21.28125 53.65625 
Q 18.109375 42.671875 18.109375 31.390625 
Q 18.109375 20.125 21.3125 9.0625 
Q 24.515625 -2 31 -13.1875 
L 23.1875 -13.1875 
Q 15.875 -1.703125 12.234375 9.375 
Q 8.59375 20.453125 8.59375 31.390625 
Q 8.59375 42.28125 12.203125 53.3125 
Q 15.828125 64.359375 23.1875 75.875 
z
" id="DejaVuSans-28"/>
      <path d="M 9.078125 75.984375 
L 18.109375 75.984375 
L 18.109375 31.109375 
L 44.921875 54.6875 
L 56.390625 54.6875 
L 27.390625 29.109375 
L 57.625 0 
L 45.90625 0 
L 18.109375 26.703125 
L 18.109375 0 
L 9.078125 0 
z
" id="DejaVuSans-6b"/>
      <path d="M 8.015625 75.875 
L 15.828125 75.875 
Q 23.140625 64.359375 26.78125 53.3125 
Q 30.421875 42.28125 30.421875 31.390625 
Q 30.421875 20.453125 26.78125 9.375 
Q 23.140625 -1.703125 15.828125 -13.1875 
L 8.015625 -13.1875 
Q 14.5 -2 17.703125 9.0625 
Q 20.90625 20.125 20.90625 31.390625 
Q 20.90625 42.671875 17.703125 53.65625 
Q 14.5 64.65625 8.015625 75.875 
z
" id="DejaVuSans-29"/>
     </defs>
     <g transform="translate(198.280312 335.860562)scale(0.1 -0.1)">
      <use xlink:href="#DejaVuSans-43"/>
      <use x="69.824219" xlink:href="#DejaVuSans-61"/>
      <use x="131.103516" xlink:href="#DejaVuSans-72"/>
      <use x="172.216797" xlink:href="#DejaVuSans-20"/>
      <use x="204.003906" xlink:href="#DejaVuSans-57"/>
      <use x="302.802734" xlink:href="#DejaVuSans-65"/>
      <use x="364.326172" xlink:href="#DejaVuSans-69"/>
      <use x="392.109375" xlink:href="#DejaVuSans-67"/>
      <use x="455.585938" xlink:href="#DejaVuSans-68"/>
      <use x="518.964844" xlink:href="#DejaVuSans-74"/>
      <use x="558.173828" xlink:href="#DejaVuSans-28"/>
      <use x="597.1875" xlink:href="#DejaVuSans-6b"/>
      <use x="655.097656" xlink:href="#DejaVuSans-67"/>
      <use x="718.574219" xlink:href="#DejaVuSans-29"/>
     </g>
    </g>
   </g>
   <g id="matplotlib.axis_2">
    <g id="ytick_1">
     <g id="line2d_15">
      <path clip-path="url(#pe333163277)" d="M 57.6 283.392 
L 414.72 283.392 
" style="fill:none;stroke:#b0b0b0;stroke-dasharray:2.96,1.28;stroke-dashoffset:0;stroke-width:0.8;"/>
     </g>
     <g id="line2d_16">
      <defs>
       <path d="M 0 0 
L -3.5 0 
" id="m9179c60fd7" style="stroke:#000000;stroke-width:0.8;"/>
      </defs>
      <g>
       <use style="stroke:#000000;stroke-width:0.8;" x="57.6" xlink:href="#m9179c60fd7" y="283.392"/>
      </g>
     </g>
     <g id="text_9">
      <!-- −1000 -->
      <defs>
       <path d="M 10.59375 35.5 
L 73.1875 35.5 
L 73.1875 27.203125 
L 10.59375 27.203125 
z
" id="DejaVuSans-2212"/>
      </defs>
      <g transform="translate(16.770313 287.191219)scale(0.1 -0.1)">
       <use xlink:href="#DejaVuSans-2212"/>
       <use x="83.789062" xlink:href="#DejaVuSans-31"/>
       <use x="147.412109" xlink:href="#DejaVuSans-30"/>
       <use x="211.035156" xlink:href="#DejaVuSans-30"/>
       <use x="274.658203" xlink:href="#DejaVuSans-30"/>
      </g>
     </g>
    </g>
    <g id="ytick_2">
     <g id="line2d_17">
      <path clip-path="url(#pe333163277)" d="M 57.6 235.008 
L 414.72 235.008 
" style="fill:none;stroke:#b0b0b0;stroke-dasharray:2.96,1.28;stroke-dashoffset:0;stroke-width:0.8;"/>
     </g>
     <g id="line2d_18">
      <g>
       <use style="stroke:#000000;stroke-width:0.8;" x="57.6" xlink:href="#m9179c60fd7" y="235.008"/>
      </g>
     </g>
     <g id="text_10">
      <!-- −800 -->
      <g transform="translate(23.132812 238.807219)scale(0.1 -0.1)">
       <use xlink:href="#DejaVuSans-2212"/>
       <use x="83.789062" xlink:href="#DejaVuSans-38"/>
       <use x="147.412109" xlink:href="#DejaVuSans-30"/>
       <use x="211.035156" xlink:href="#DejaVuSans-30"/>
      </g>
     </g>
    </g>
    <g id="ytick_3">
     <g id="line2d_19">
      <path clip-path="url(#pe333163277)" d="M 57.6 186.624 
L 414.72 186.624 
" style="fill:none;stroke:#b0b0b0;stroke-dasharray:2.96,1.28;stroke-dashoffset:0;stroke-width:0.8;"/>
     </g>
     <g id="line2d_20">
      <g>
       <use style="stroke:#000000;stroke-width:0.8;" x="57.6" xlink:href="#m9179c60fd7" y="186.624"/>
      </g>
     </g>
     <g id="text_11">
      <!-- −600 -->
      <g transform="translate(23.132812 190.423219)scale(0.1 -0.1)">
       <use xlink:href="#DejaVuSans-2212"/>
       <use x="83.789062" xlink:href="#DejaVuSans-36"/>
       <use x="147.412109" xlink:href="#DejaVuSans-30"/>
       <use x="211.035156" xlink:href="#DejaVuSans-30"/>
      </g>
     </g>
    </g>
    <g id="ytick_4">
     <g id="line2d_21">
      <path clip-path="url(#pe333163277)" d="M 57.6 138.24 
L 414.72 138.24 
" style="fill:none;stroke:#b0b0b0;stroke-dasharray:2.96,1.28;stroke-dashoffset:0;stroke-width:0.8;"/>
     </g>
     <g id="line2d_22">
      <g>
       <use style="stroke:#000000;stroke-width:0.8;" x="57.6" xlink:href="#m9179c60fd7" y="138.24"/>
      </g>
     </g>
     <g id="text_12">
      <!-- −400 -->
      <g transform="translate(23.132812 142.039219)scale(0.1 -0.1)">
       <use xlink:href="#DejaVuSans-2212"/>
       <use x="83.789062" xlink:href="#DejaVuSans-34"/>
       <use x="147.412109" xlink:href="#DejaVuSans-30"/>
       <use x="211.035156" xlink:href="#DejaVuSans-30"/>
      </g>
     </g>
    </g>
    <g id="ytick_5">
     <g id="line2d_23">
      <path clip-path="url(#pe333163277)" d="M 57.6 89.856 
L 414.72 89.856 
" style="fill:none;stroke:#b0b0b0;stroke-dasharray:2.96,1.28;stroke-dashoffset:0;stroke-width:0.8;"/>
     </g>
     <g id="line2d_24">
      <g>
       <use style="stroke:#000000;stroke-width:0.8;" x="57.6" xlink:href="#m9179c60fd7" y="89.856"/>
      </g>
     </g>
     <g id="text_13">
      <!-- −200 -->
      <g transform="translate(23.132812 93.655219)scale(0.1 -0.1)">
       <use xlink:href="#DejaVuSans-2212"/>
       <use x="83.789062" xlink:href="#DejaVuSans-32"/>
       <use x="147.412109" xlink:href="#DejaVuSans-30"/>
       <use x="211.035156" xlink:href="#DejaVuSans-30"/>
      </g>
     </g>
    </g>
    <g id="ytick_6">
     <g id="line2d_25">
      <path clip-path="url(#pe333163277)" d="M 57.6 41.472 
L 414.72 41.472 
" style="fill:none;stroke:#b0b0b0;stroke-dasharray:2.96,1.28;stroke-dashoffset:0;stroke-width:0.8;"/>
     </g>
     <g id="line2d_26">
      <g>
       <use style="stroke:#000000;stroke-width:0.8;" x="57.6" xlink:href="#m9179c60fd7" y="41.472"/>
      </g>
     </g>
     <g id="text_14">
      <!-- 0 -->
      <g transform="translate(44.2375 45.271219)scale(0.1 -0.1)">
       <use xlink:href="#DejaVuSans-30"/>
      </g>
     </g>
    </g>
    <g id="text_15">
     <!-- Rewards -->
     <defs>
      <path d="M 44.390625 34.1875 
Q 47.5625 33.109375 50.5625 29.59375 
Q 53.5625 26.078125 56.59375 19.921875 
L 66.609375 0 
L 56 0 
L 46.6875 18.703125 
Q 43.0625 26.03125 39.671875 28.421875 
Q 36.28125 30.8125 30.421875 30.8125 
L 19.671875 30.8125 
L 19.671875 0 
L 9.8125 0 
L 9.8125 72.90625 
L 32.078125 72.90625 
Q 44.578125 72.90625 50.734375 67.671875 
Q 56.890625 62.453125 56.890625 51.90625 
Q 56.890625 45.015625 53.6875 40.46875 
Q 50.484375 35.9375 44.390625 34.1875 
z
M 19.671875 64.796875 
L 19.671875 38.921875 
L 32.078125 38.921875 
Q 39.203125 38.921875 42.84375 42.21875 
Q 46.484375 45.515625 46.484375 51.90625 
Q 46.484375 58.296875 42.84375 61.546875 
Q 39.203125 64.796875 32.078125 64.796875 
z
" id="DejaVuSans-52"/>
      <path d="M 4.203125 54.6875 
L 13.1875 54.6875 
L 24.421875 12.015625 
L 35.59375 54.6875 
L 46.1875 54.6875 
L 57.421875 12.015625 
L 68.609375 54.6875 
L 77.59375 54.6875 
L 63.28125 0 
L 52.6875 0 
L 40.921875 44.828125 
L 29.109375 0 
L 18.5 0 
z
" id="DejaVuSans-77"/>
      <path d="M 45.40625 46.390625 
L 45.40625 75.984375 
L 54.390625 75.984375 
L 54.390625 0 
L 45.40625 0 
L 45.40625 8.203125 
Q 42.578125 3.328125 38.25 0.953125 
Q 33.9375 -1.421875 27.875 -1.421875 
Q 17.96875 -1.421875 11.734375 6.484375 
Q 5.515625 14.40625 5.515625 27.296875 
Q 5.515625 40.1875 11.734375 48.09375 
Q 17.96875 56 27.875 56 
Q 33.9375 56 38.25 53.625 
Q 42.578125 51.265625 45.40625 46.390625 
z
M 14.796875 27.296875 
Q 14.796875 17.390625 18.875 11.75 
Q 22.953125 6.109375 30.078125 6.109375 
Q 37.203125 6.109375 41.296875 11.75 
Q 45.40625 17.390625 45.40625 27.296875 
Q 45.40625 37.203125 41.296875 42.84375 
Q 37.203125 48.484375 30.078125 48.484375 
Q 22.953125 48.484375 18.875 42.84375 
Q 14.796875 37.203125 14.796875 27.296875 
z
" id="DejaVuSans-64"/>
      <path d="M 44.28125 53.078125 
L 44.28125 44.578125 
Q 40.484375 46.53125 36.375 47.5 
Q 32.28125 48.484375 27.875 48.484375 
Q 21.1875 48.484375 17.84375 46.4375 
Q 14.5 44.390625 14.5 40.28125 
Q 14.5 37.15625 16.890625 35.375 
Q 19.28125 33.59375 26.515625 31.984375 
L 29.59375 31.296875 
Q 39.15625 29.25 43.1875 25.515625 
Q 47.21875 21.78125 47.21875 15.09375 
Q 47.21875 7.46875 41.1875 3.015625 
Q 35.15625 -1.421875 24.609375 -1.421875 
Q 20.21875 -1.421875 15.453125 -0.5625 
Q 10.6875 0.296875 5.421875 2 
L 5.421875 11.28125 
Q 10.40625 8.6875 15.234375 7.390625 
Q 20.0625 6.109375 24.8125 6.109375 
Q 31.15625 6.109375 34.5625 8.28125 
Q 37.984375 10.453125 37.984375 14.40625 
Q 37.984375 18.0625 35.515625 20.015625 
Q 33.0625 21.96875 24.703125 23.78125 
L 21.578125 24.515625 
Q 13.234375 26.265625 9.515625 29.90625 
Q 5.8125 33.546875 5.8125 39.890625 
Q 5.8125 47.609375 11.28125 51.796875 
Q 16.75 56 26.8125 56 
Q 31.78125 56 36.171875 55.265625 
Q 40.578125 54.546875 44.28125 53.078125 
z
" id="DejaVuSans-73"/>
     </defs>
     <g transform="translate(10.690625 196.062375)rotate(-90)scale(0.1 -0.1)">
      <use xlink:href="#DejaVuSans-52"/>
      <use x="69.419922" xlink:href="#DejaVuSans-65"/>
      <use x="130.943359" xlink:href="#DejaVuSans-77"/>
      <use x="212.730469" xlink:href="#DejaVuSans-61"/>
      <use x="274.009766" xlink:href="#DejaVuSans-72"/>
      <use x="315.107422" xlink:href="#DejaVuSans-64"/>
      <use x="378.583984" xlink:href="#DejaVuSans-73"/>
     </g>
    </g>
   </g>
   <g id="line2d_27">
    <path clip-path="url(#pe333163277)" d="M 73.832727 74.702373 
L 79.243636 72.559446 
L 84.654545 73.58567 
L 90.065455 78.198601 
L 95.476364 76.87046 
L 100.887273 76.987549 
L 106.298182 79.552869 
L 111.709091 80.822465 
L 117.12 83.351981 
L 122.530909 84.283131 
L 127.941818 86.547744 
L 133.352727 91.092937 
L 138.763636 92.259717 
L 144.174545 93.603583 
L 149.585455 95.342988 
L 154.996364 95.118486 
L 160.407273 97.711868 
L 165.818182 97.947498 
L 171.229091 101.199629 
L 176.64 101.762335 
L 182.050909 106.344058 
L 187.461818 110.342269 
L 192.872727 110.262194 
L 198.283636 112.215214 
L 203.694545 118.264908 
L 209.105455 115.974651 
L 214.516364 120.734669 
L 219.927273 124.134129 
L 225.338182 125.298248 
L 230.749091 132.574476 
L 236.16 133.714886 
L 241.570909 138.503451 
L 246.981818 142.332561 
L 252.392727 148.210007 
L 257.803636 146.62156 
L 263.214545 152.622386 
L 268.625455 155.11513 
L 274.036364 156.114985 
L 279.447273 161.884293 
L 284.858182 162.46345 
L 290.269091 162.125245 
L 295.68 161.53617 
L 301.090909 166.489966 
L 306.501818 173.52258 
L 311.912727 172.754484 
L 317.323636 173.408152 
L 322.734545 178.776357 
L 328.145455 177.803839 
L 333.556364 172.40612 
L 338.967273 178.787244 
L 344.378182 182.69788 
L 349.789091 185.046198 
L 355.2 187.642483 
L 360.610909 187.244525 
L 366.021818 190.795185 
L 371.432727 190.161354 
L 376.843636 191.286766 
L 382.254545 194.140696 
L 387.665455 196.503287 
L 393.076364 196.791172 
L 398.487273 199.036915 
" style="fill:none;stroke:#ff6347;stroke-linecap:square;stroke-width:2;"/>
   </g>
   <g id="line2d_28">
    <path clip-path="url(#pe333163277)" d="M 73.832727 65.762703 
L 79.243636 66.8811 
L 84.654545 66.861746 
L 90.065455 69.721724 
L 95.476364 71.284285 
L 100.887273 73.310365 
L 106.298182 74.268611 
L 111.709091 74.667295 
L 117.12 77.330108 
L 122.530909 79.707456 
L 127.941818 79.506179 
L 133.352727 81.456296 
L 138.763636 83.26489 
L 144.174545 83.640108 
L 149.585455 85.18017 
L 154.996364 85.925042 
L 160.407273 88.448268 
L 165.818182 88.505361 
L 171.229091 90.910771 
L 176.64 93.372065 
L 182.050909 97.296008 
L 187.461818 96.391227 
L 192.872727 98.208772 
L 198.283636 98.081038 
L 203.694545 100.241142 
L 209.105455 102.494868 
L 214.516364 107.303996 
L 219.927273 106.706454 
L 225.338182 109.42007 
L 230.749091 111.463811 
L 236.16 112.733407 
L 241.570909 113.707619 
L 246.981818 117.230216 
L 252.392727 118.885674 
L 257.803636 121.4568 
L 263.214545 118.548922 
L 268.625455 127.505526 
L 274.036364 126.608244 
L 279.447273 132.666647 
L 284.858182 133.983418 
L 290.269091 135.431793 
L 295.68 142.728584 
L 301.090909 142.25055 
L 306.501818 145.042065 
L 311.912727 148.234441 
L 317.323636 146.774938 
L 322.734545 150.242619 
L 328.145455 150.140529 
L 333.556364 155.002637 
L 338.967273 155.455995 
L 344.378182 160.046427 
L 349.789091 158.613777 
L 355.2 160.561958 
L 360.610909 165.180937 
L 366.021818 168.7345 
L 371.432727 168.93989 
L 376.843636 167.529012 
L 382.254545 173.820868 
L 387.665455 175.571885 
L 393.076364 174.537193 
L 398.487273 174.646299 
" style="fill:none;stroke:#ffd700;stroke-dasharray:7.4,3.2;stroke-dashoffset:0;stroke-width:2;"/>
   </g>
   <g id="line2d_29">
    <path clip-path="url(#pe333163277)" d="M 73.832727 121.503974 
L 79.243636 123.154111 
L 84.654545 121.966042 
L 90.065455 121.161174 
L 95.476364 121.568809 
L 100.887273 122.394966 
L 106.298182 123.176851 
L 111.709091 125.35268 
L 117.12 125.234139 
L 122.530909 127.27425 
L 127.941818 129.261381 
L 133.352727 128.127018 
L 138.763636 129.336134 
L 144.174545 131.576314 
L 149.585455 129.637325 
L 154.996364 131.361005 
L 160.407273 128.290314 
L 165.818182 128.59973 
L 171.229091 130.210675 
L 176.64 126.650097 
L 182.050909 126.449303 
L 187.461818 127.551491 
L 192.872727 130.616859 
L 198.283636 130.340102 
L 203.694545 132.691807 
L 209.105455 132.448677 
L 214.516364 135.50074 
L 219.927273 136.659537 
L 225.338182 138.551593 
L 230.749091 140.118267 
L 236.16 143.231535 
L 241.570909 144.509599 
L 246.981818 146.939685 
L 252.392727 142.355785 
L 257.803636 142.101285 
L 263.214545 142.115075 
L 268.625455 143.858834 
L 274.036364 149.941428 
L 279.447273 151.251425 
L 284.858182 151.320131 
L 290.269091 155.143192 
L 295.68 154.522909 
L 301.090909 159.488317 
L 306.501818 159.730721 
L 311.912727 157.489574 
L 317.323636 159.486624 
L 322.734545 162.585135 
L 328.145455 157.793184 
L 333.556364 165.480918 
L 338.967273 164.323089 
L 344.378182 165.177308 
L 349.789091 169.091332 
L 355.2 174.866688 
L 360.610909 171.121524 
L 366.021818 172.468535 
L 371.432727 176.017501 
L 376.843636 175.556402 
L 382.254545 177.84182 
L 387.665455 179.992973 
L 393.076364 176.432636 
L 398.487273 181.710605 
" style="fill:none;stroke:#00ffff;stroke-dasharray:2,3.3;stroke-dashoffset:0;stroke-width:2;"/>
   </g>
   <g id="line2d_30">
    <path clip-path="url(#pe333163277)" d="M 73.832727 126.436965 
L 79.243636 128.391679 
L 84.654545 133.199355 
L 90.065455 132.255867 
L 95.476364 130.538961 
L 100.887273 129.48298 
L 106.298182 130.418726 
L 111.709091 133.318621 
L 117.12 134.49024 
L 122.530909 137.448438 
L 127.941818 134.693937 
L 133.352727 140.136411 
L 138.763636 141.858397 
L 144.174545 145.119963 
L 149.585455 146.892269 
L 154.996364 147.612465 
L 160.407273 151.26715 
L 165.818182 156.012411 
L 171.229091 157.548361 
L 176.64 161.997754 
L 182.050909 166.256513 
L 187.461818 164.182049 
L 192.872727 170.777514 
L 198.283636 172.246211 
L 203.694545 170.146345 
L 209.105455 175.874043 
L 214.516364 180.532938 
L 219.927273 180.995973 
L 225.338182 184.583405 
L 230.749091 185.615919 
L 236.16 188.270266 
L 241.570909 195.467144 
L 246.981818 192.903276 
L 252.392727 196.507884 
L 257.803636 198.23616 
L 263.214545 207.266792 
L 268.625455 199.428342 
L 274.036364 203.882815 
L 279.447273 207.842077 
L 284.858182 208.13093 
L 290.269091 210.88906 
L 295.68 210.575532 
L 301.090909 213.720975 
L 306.501818 217.800714 
L 311.912727 221.367825 
L 317.323636 221.033249 
L 322.734545 223.308507 
L 328.145455 226.141632 
L 333.556364 224.499721 
L 338.967273 231.90465 
L 344.378182 228.658084 
L 349.789091 232.262692 
L 355.2 233.933391 
L 360.610909 234.473841 
L 366.021818 235.193069 
L 371.432727 236.364929 
L 376.843636 237.877897 
L 382.254545 240.415396 
L 387.665455 241.64943 
L 393.076364 240.62756 
L 398.487273 242.322451 
" style="fill:none;stroke:#0000ff;stroke-dasharray:12.8,3.2,2,3.2;stroke-dashoffset:0;stroke-width:2;"/>
   </g>
   <g id="line2d_31">
    <path clip-path="url(#pe333163277)" d="M 73.832727 66.017929 
L 79.243636 66.271945 
L 84.654545 66.694821 
L 90.065455 67.115762 
L 95.476364 67.550976 
L 100.887273 67.962482 
L 106.298182 68.50656 
L 111.709091 69.057412 
L 117.12 70.062589 
L 122.530909 71.015996 
L 127.941818 72.21858 
L 133.352727 73.422374 
L 138.763636 74.212485 
L 144.174545 75.426682 
L 149.585455 77.02916 
L 154.996364 78.096027 
L 160.407273 79.324739 
L 165.818182 80.799483 
L 171.229091 83.720425 
L 176.64 87.066179 
L 182.050909 90.987702 
L 187.461818 94.745203 
L 192.872727 97.416242 
L 198.283636 103.55472 
L 203.694545 106.049883 
L 209.105455 108.561254 
L 214.516364 110.339366 
L 219.927273 118.681494 
L 225.338182 121.120289 
L 230.749091 124.578778 
L 236.16 125.613469 
L 241.570909 130.197128 
L 246.981818 133.954871 
L 252.392727 139.747645 
L 257.803636 139.734582 
L 263.214545 143.048886 
L 268.625455 144.266953 
L 274.036364 147.002584 
L 279.447273 155.159643 
L 284.858182 154.752733 
L 290.269091 157.283942 
L 295.68 164.691291 
L 301.090909 166.89615 
L 306.501818 166.560849 
L 311.912727 172.579576 
L 317.323636 170.474388 
L 322.734545 172.092591 
L 328.145455 172.230728 
L 333.556364 177.012518 
L 338.967273 181.993409 
L 344.378182 183.193816 
L 349.789091 180.635028 
L 355.2 184.1973 
L 360.610909 188.586455 
L 366.021818 193.806363 
L 371.432727 190.853245 
L 376.843636 193.931194 
L 382.254545 195.224982 
L 387.665455 200.523514 
L 393.076364 195.660196 
L 398.487273 200.804867 
" style="fill:none;stroke:#008000;stroke-dasharray:12.8,3.2,2,3.2;stroke-dashoffset:0;stroke-width:2;"/>
   </g>
   <g id="line2d_32">
    <path clip-path="url(#pe333163277)" d="M 73.832727 70.742143 
L 79.243636 74.184906 
L 84.654545 78.088769 
L 90.065455 78.899201 
L 95.476364 77.866687 
L 100.887273 70.200726 
L 106.298182 68.985562 
L 111.709091 71.394601 
L 117.12 69.403357 
L 122.530909 73.402295 
L 127.941818 73.719694 
L 133.352727 78.881541 
L 138.763636 80.949473 
L 144.174545 83.234892 
L 149.585455 87.330355 
L 154.996364 90.803843 
L 160.407273 91.197688 
L 165.818182 92.761217 
L 171.229091 97.831377 
L 176.64 98.393115 
L 182.050909 100.840378 
L 187.461818 103.751643 
L 192.872727 110.442182 
L 198.283636 111.04916 
L 203.694545 116.772503 
L 209.105455 118.468362 
L 214.516364 123.594647 
L 219.927273 124.149853 
L 225.338182 124.34097 
L 230.749091 127.817119 
L 236.16 125.655564 
L 241.570909 135.708549 
L 246.981818 137.258047 
L 252.392727 140.964987 
L 257.803636 142.36401 
L 263.214545 144.780549 
L 268.625455 143.374994 
L 274.036364 144.223407 
L 279.447273 149.937558 
L 284.858182 151.204977 
L 290.269091 152.479411 
L 295.68 150.953622 
L 301.090909 161.011204 
L 306.501818 156.618662 
L 311.912727 159.776444 
L 317.323636 162.646341 
L 322.734545 163.165985 
L 328.145455 166.070961 
L 333.556364 169.071978 
L 338.967273 166.818977 
L 344.378182 168.313801 
L 349.789091 169.851686 
L 355.2 175.517453 
L 360.610909 176.810757 
L 366.021818 175.411976 
L 371.432727 175.560756 
L 376.843636 179.641463 
L 382.254545 180.62511 
L 387.665455 182.832872 
L 393.076364 188.391468 
L 398.487273 187.125742 
" style="fill:none;stroke:#800080;stroke-dasharray:12.8,3.2,2,3.2;stroke-dashoffset:0;stroke-width:2;"/>
   </g>
   <g id="patch_3">
    <path d="M 57.6 307.584 
L 57.6 41.472 
" style="fill:none;stroke:#000000;stroke-linecap:square;stroke-linejoin:miter;stroke-width:0.8;"/>
   </g>
   <g id="patch_4">
    <path d="M 414.72 307.584 
L 414.72 41.472 
" style="fill:none;stroke:#000000;stroke-linecap:square;stroke-linejoin:miter;stroke-width:0.8;"/>
   </g>
   <g id="patch_5">
    <path d="M 57.6 307.584 
L 414.72 307.584 
" style="fill:none;stroke:#000000;stroke-linecap:square;stroke-linejoin:miter;stroke-width:0.8;"/>
   </g>
   <g id="patch_6">
    <path d="M 57.6 41.472 
L 414.72 41.472 
" style="fill:none;stroke:#000000;stroke-linecap:square;stroke-linejoin:miter;stroke-width:0.8;"/>
   </g>
   <g id="text_16">
    <!-- Mountain Car (75000 steps) -->
    <defs>
     <path d="M 9.8125 72.90625 
L 24.515625 72.90625 
L 43.109375 23.296875 
L 61.8125 72.90625 
L 76.515625 72.90625 
L 76.515625 0 
L 66.890625 0 
L 66.890625 64.015625 
L 48.09375 14.015625 
L 38.1875 14.015625 
L 19.390625 64.015625 
L 19.390625 0 
L 9.8125 0 
z
" id="DejaVuSans-4d"/>
     <path d="M 30.609375 48.390625 
Q 23.390625 48.390625 19.1875 42.75 
Q 14.984375 37.109375 14.984375 27.296875 
Q 14.984375 17.484375 19.15625 11.84375 
Q 23.34375 6.203125 30.609375 6.203125 
Q 37.796875 6.203125 41.984375 11.859375 
Q 46.1875 17.53125 46.1875 27.296875 
Q 46.1875 37.015625 41.984375 42.703125 
Q 37.796875 48.390625 30.609375 48.390625 
z
M 30.609375 56 
Q 42.328125 56 49.015625 48.375 
Q 55.71875 40.765625 55.71875 27.296875 
Q 55.71875 13.875 49.015625 6.21875 
Q 42.328125 -1.421875 30.609375 -1.421875 
Q 18.84375 -1.421875 12.171875 6.21875 
Q 5.515625 13.875 5.515625 27.296875 
Q 5.515625 40.765625 12.171875 48.375 
Q 18.84375 56 30.609375 56 
z
" id="DejaVuSans-6f"/>
     <path d="M 8.5 21.578125 
L 8.5 54.6875 
L 17.484375 54.6875 
L 17.484375 21.921875 
Q 17.484375 14.15625 20.5 10.265625 
Q 23.53125 6.390625 29.59375 6.390625 
Q 36.859375 6.390625 41.078125 11.03125 
Q 45.3125 15.671875 45.3125 23.6875 
L 45.3125 54.6875 
L 54.296875 54.6875 
L 54.296875 0 
L 45.3125 0 
L 45.3125 8.40625 
Q 42.046875 3.421875 37.71875 1 
Q 33.40625 -1.421875 27.6875 -1.421875 
Q 18.265625 -1.421875 13.375 4.4375 
Q 8.5 10.296875 8.5 21.578125 
z
M 31.109375 56 
z
" id="DejaVuSans-75"/>
     <path d="M 54.890625 33.015625 
L 54.890625 0 
L 45.90625 0 
L 45.90625 32.71875 
Q 45.90625 40.484375 42.875 44.328125 
Q 39.84375 48.1875 33.796875 48.1875 
Q 26.515625 48.1875 22.3125 43.546875 
Q 18.109375 38.921875 18.109375 30.90625 
L 18.109375 0 
L 9.078125 0 
L 9.078125 54.6875 
L 18.109375 54.6875 
L 18.109375 46.1875 
Q 21.34375 51.125 25.703125 53.5625 
Q 30.078125 56 35.796875 56 
Q 45.21875 56 50.046875 50.171875 
Q 54.890625 44.34375 54.890625 33.015625 
z
" id="DejaVuSans-6e"/>
     <path d="M 8.203125 72.90625 
L 55.078125 72.90625 
L 55.078125 68.703125 
L 28.609375 0 
L 18.3125 0 
L 43.21875 64.59375 
L 8.203125 64.59375 
z
" id="DejaVuSans-37"/>
     <path d="M 10.796875 72.90625 
L 49.515625 72.90625 
L 49.515625 64.59375 
L 19.828125 64.59375 
L 19.828125 46.734375 
Q 21.96875 47.46875 24.109375 47.828125 
Q 26.265625 48.1875 28.421875 48.1875 
Q 40.625 48.1875 47.75 41.5 
Q 54.890625 34.8125 54.890625 23.390625 
Q 54.890625 11.625 47.5625 5.09375 
Q 40.234375 -1.421875 26.90625 -1.421875 
Q 22.3125 -1.421875 17.546875 -0.640625 
Q 12.796875 0.140625 7.71875 1.703125 
L 7.71875 11.625 
Q 12.109375 9.234375 16.796875 8.0625 
Q 21.484375 6.890625 26.703125 6.890625 
Q 35.15625 6.890625 40.078125 11.328125 
Q 45.015625 15.765625 45.015625 23.390625 
Q 45.015625 31 40.078125 35.4375 
Q 35.15625 39.890625 26.703125 39.890625 
Q 22.75 39.890625 18.8125 39.015625 
Q 14.890625 38.140625 10.796875 36.28125 
z
" id="DejaVuSans-35"/>
     <path d="M 18.109375 8.203125 
L 18.109375 -20.796875 
L 9.078125 -20.796875 
L 9.078125 54.6875 
L 18.109375 54.6875 
L 18.109375 46.390625 
Q 20.953125 51.265625 25.265625 53.625 
Q 29.59375 56 35.59375 56 
Q 45.5625 56 51.78125 48.09375 
Q 58.015625 40.1875 58.015625 27.296875 
Q 58.015625 14.40625 51.78125 6.484375 
Q 45.5625 -1.421875 35.59375 -1.421875 
Q 29.59375 -1.421875 25.265625 0.953125 
Q 20.953125 3.328125 18.109375 8.203125 
z
M 48.6875 27.296875 
Q 48.6875 37.203125 44.609375 42.84375 
Q 40.53125 48.484375 33.40625 48.484375 
Q 26.265625 48.484375 22.1875 42.84375 
Q 18.109375 37.203125 18.109375 27.296875 
Q 18.109375 17.390625 22.1875 11.75 
Q 26.265625 6.109375 33.40625 6.109375 
Q 40.53125 6.109375 44.609375 11.75 
Q 48.6875 17.390625 48.6875 27.296875 
z
" id="DejaVuSans-70"/>
    </defs>
    <g transform="translate(152.280937 35.472)scale(0.12 -0.12)">
     <use xlink:href="#DejaVuSans-4d"/>
     <use x="86.279297" xlink:href="#DejaVuSans-6f"/>
     <use x="147.460938" xlink:href="#DejaVuSans-75"/>
     <use x="210.839844" xlink:href="#DejaVuSans-6e"/>
     <use x="274.21875" xlink:href="#DejaVuSans-74"/>
     <use x="313.427734" xlink:href="#DejaVuSans-61"/>
     <use x="374.707031" xlink:href="#DejaVuSans-69"/>
     <use x="402.490234" xlink:href="#DejaVuSans-6e"/>
     <use x="465.869141" xlink:href="#DejaVuSans-20"/>
     <use x="497.65625" xlink:href="#DejaVuSans-43"/>
     <use x="567.480469" xlink:href="#DejaVuSans-61"/>
     <use x="628.759766" xlink:href="#DejaVuSans-72"/>
     <use x="669.873047" xlink:href="#DejaVuSans-20"/>
     <use x="701.660156" xlink:href="#DejaVuSans-28"/>
     <use x="740.673828" xlink:href="#DejaVuSans-37"/>
     <use x="804.296875" xlink:href="#DejaVuSans-35"/>
     <use x="867.919922" xlink:href="#DejaVuSans-30"/>
     <use x="931.542969" xlink:href="#DejaVuSans-30"/>
     <use x="995.166016" xlink:href="#DejaVuSans-30"/>
     <use x="1058.789062" xlink:href="#DejaVuSans-20"/>
     <use x="1090.576172" xlink:href="#DejaVuSans-73"/>
     <use x="1142.675781" xlink:href="#DejaVuSans-74"/>
     <use x="1181.884766" xlink:href="#DejaVuSans-65"/>
     <use x="1243.408203" xlink:href="#DejaVuSans-70"/>
     <use x="1306.884766" xlink:href="#DejaVuSans-73"/>
     <use x="1358.984375" xlink:href="#DejaVuSans-29"/>
    </g>
   </g>
   <g id="legend_1">
    <g id="patch_7">
     <path d="M 64.6 302.584 
L 186.764062 302.584 
Q 188.764062 302.584 188.764062 300.584 
L 188.764062 213.51525 
Q 188.764062 211.51525 186.764062 211.51525 
L 64.6 211.51525 
Q 62.6 211.51525 62.6 213.51525 
L 62.6 300.584 
Q 62.6 302.584 64.6 302.584 
z
" style="fill:#ffffff;opacity:0.8;stroke:#cccccc;stroke-linejoin:miter;"/>
    </g>
    <g id="line2d_33">
     <path d="M 66.6 219.613687 
L 86.6 219.613687 
" style="fill:none;stroke:#ff6347;stroke-linecap:square;stroke-width:2;"/>
    </g>
    <g id="line2d_34"/>
    <g id="text_17">
     <!-- Base -->
     <defs>
      <path d="M 19.671875 34.8125 
L 19.671875 8.109375 
L 35.5 8.109375 
Q 43.453125 8.109375 47.28125 11.40625 
Q 51.125 14.703125 51.125 21.484375 
Q 51.125 28.328125 47.28125 31.5625 
Q 43.453125 34.8125 35.5 34.8125 
z
M 19.671875 64.796875 
L 19.671875 42.828125 
L 34.28125 42.828125 
Q 41.5 42.828125 45.03125 45.53125 
Q 48.578125 48.25 48.578125 53.8125 
Q 48.578125 59.328125 45.03125 62.0625 
Q 41.5 64.796875 34.28125 64.796875 
z
M 9.8125 72.90625 
L 35.015625 72.90625 
Q 46.296875 72.90625 52.390625 68.21875 
Q 58.5 63.53125 58.5 54.890625 
Q 58.5 48.1875 55.375 44.234375 
Q 52.25 40.28125 46.1875 39.3125 
Q 53.46875 37.75 57.5 32.78125 
Q 61.53125 27.828125 61.53125 20.40625 
Q 61.53125 10.640625 54.890625 5.3125 
Q 48.25 0 35.984375 0 
L 9.8125 0 
z
" id="DejaVuSans-42"/>
     </defs>
     <g transform="translate(94.6 223.113687)scale(0.1 -0.1)">
      <use xlink:href="#DejaVuSans-42"/>
      <use x="68.603516" xlink:href="#DejaVuSans-61"/>
      <use x="129.882812" xlink:href="#DejaVuSans-73"/>
      <use x="181.982422" xlink:href="#DejaVuSans-65"/>
     </g>
    </g>
    <g id="line2d_35">
     <path d="M 66.6 234.291812 
L 86.6 234.291812 
" style="fill:none;stroke:#ffd700;stroke-dasharray:7.4,3.2;stroke-dashoffset:0;stroke-width:2;"/>
    </g>
    <g id="line2d_36"/>
    <g id="text_18">
     <!-- L1 -->
     <defs>
      <path d="M 9.8125 72.90625 
L 19.671875 72.90625 
L 19.671875 8.296875 
L 55.171875 8.296875 
L 55.171875 0 
L 9.8125 0 
z
" id="DejaVuSans-4c"/>
     </defs>
     <g transform="translate(94.6 237.791812)scale(0.1 -0.1)">
      <use xlink:href="#DejaVuSans-4c"/>
      <use x="55.712891" xlink:href="#DejaVuSans-31"/>
     </g>
    </g>
    <g id="line2d_37">
     <path d="M 66.6 248.969937 
L 86.6 248.969937 
" style="fill:none;stroke:#00ffff;stroke-dasharray:2,3.3;stroke-dashoffset:0;stroke-width:2;"/>
    </g>
    <g id="line2d_38"/>
    <g id="text_19">
     <!-- L2 -->
     <g transform="translate(94.6 252.469937)scale(0.1 -0.1)">
      <use xlink:href="#DejaVuSans-4c"/>
      <use x="55.712891" xlink:href="#DejaVuSans-32"/>
     </g>
    </g>
    <g id="line2d_39">
     <path d="M 66.6 263.648062 
L 86.6 263.648062 
" style="fill:none;stroke:#0000ff;stroke-dasharray:12.8,3.2,2,3.2;stroke-dashoffset:0;stroke-width:2;"/>
    </g>
    <g id="line2d_40"/>
    <g id="text_20">
     <!-- Dropout -->
     <defs>
      <path d="M 19.671875 64.796875 
L 19.671875 8.109375 
L 31.59375 8.109375 
Q 46.6875 8.109375 53.6875 14.9375 
Q 60.6875 21.78125 60.6875 36.53125 
Q 60.6875 51.171875 53.6875 57.984375 
Q 46.6875 64.796875 31.59375 64.796875 
z
M 9.8125 72.90625 
L 30.078125 72.90625 
Q 51.265625 72.90625 61.171875 64.09375 
Q 71.09375 55.28125 71.09375 36.53125 
Q 71.09375 17.671875 61.125 8.828125 
Q 51.171875 0 30.078125 0 
L 9.8125 0 
z
" id="DejaVuSans-44"/>
     </defs>
     <g transform="translate(94.6 267.148062)scale(0.1 -0.1)">
      <use xlink:href="#DejaVuSans-44"/>
      <use x="77.001953" xlink:href="#DejaVuSans-72"/>
      <use x="118.083984" xlink:href="#DejaVuSans-6f"/>
      <use x="179.265625" xlink:href="#DejaVuSans-70"/>
      <use x="242.742188" xlink:href="#DejaVuSans-6f"/>
      <use x="303.923828" xlink:href="#DejaVuSans-75"/>
      <use x="367.302734" xlink:href="#DejaVuSans-74"/>
     </g>
    </g>
    <g id="line2d_41">
     <path d="M 66.6 278.326188 
L 86.6 278.326188 
" style="fill:none;stroke:#008000;stroke-dasharray:12.8,3.2,2,3.2;stroke-dashoffset:0;stroke-width:2;"/>
    </g>
    <g id="line2d_42"/>
    <g id="text_21">
     <!-- Improved dropout -->
     <defs>
      <path d="M 9.8125 72.90625 
L 19.671875 72.90625 
L 19.671875 0 
L 9.8125 0 
z
" id="DejaVuSans-49"/>
      <path d="M 52 44.1875 
Q 55.375 50.25 60.0625 53.125 
Q 64.75 56 71.09375 56 
Q 79.640625 56 84.28125 50.015625 
Q 88.921875 44.046875 88.921875 33.015625 
L 88.921875 0 
L 79.890625 0 
L 79.890625 32.71875 
Q 79.890625 40.578125 77.09375 44.375 
Q 74.3125 48.1875 68.609375 48.1875 
Q 61.625 48.1875 57.5625 43.546875 
Q 53.515625 38.921875 53.515625 30.90625 
L 53.515625 0 
L 44.484375 0 
L 44.484375 32.71875 
Q 44.484375 40.625 41.703125 44.40625 
Q 38.921875 48.1875 33.109375 48.1875 
Q 26.21875 48.1875 22.15625 43.53125 
Q 18.109375 38.875 18.109375 30.90625 
L 18.109375 0 
L 9.078125 0 
L 9.078125 54.6875 
L 18.109375 54.6875 
L 18.109375 46.1875 
Q 21.1875 51.21875 25.484375 53.609375 
Q 29.78125 56 35.6875 56 
Q 41.65625 56 45.828125 52.96875 
Q 50 49.953125 52 44.1875 
z
" id="DejaVuSans-6d"/>
      <path d="M 2.984375 54.6875 
L 12.5 54.6875 
L 29.59375 8.796875 
L 46.6875 54.6875 
L 56.203125 54.6875 
L 35.6875 0 
L 23.484375 0 
z
" id="DejaVuSans-76"/>
     </defs>
     <g transform="translate(94.6 281.826188)scale(0.1 -0.1)">
      <use xlink:href="#DejaVuSans-49"/>
      <use x="29.492188" xlink:href="#DejaVuSans-6d"/>
      <use x="126.904297" xlink:href="#DejaVuSans-70"/>
      <use x="190.380859" xlink:href="#DejaVuSans-72"/>
      <use x="231.462891" xlink:href="#DejaVuSans-6f"/>
      <use x="292.644531" xlink:href="#DejaVuSans-76"/>
      <use x="351.824219" xlink:href="#DejaVuSans-65"/>
      <use x="413.347656" xlink:href="#DejaVuSans-64"/>
      <use x="476.824219" xlink:href="#DejaVuSans-20"/>
      <use x="508.611328" xlink:href="#DejaVuSans-64"/>
      <use x="572.087891" xlink:href="#DejaVuSans-72"/>
      <use x="613.169922" xlink:href="#DejaVuSans-6f"/>
      <use x="674.351562" xlink:href="#DejaVuSans-70"/>
      <use x="737.828125" xlink:href="#DejaVuSans-6f"/>
      <use x="799.009766" xlink:href="#DejaVuSans-75"/>
      <use x="862.388672" xlink:href="#DejaVuSans-74"/>
     </g>
    </g>
    <g id="line2d_43">
     <path d="M 66.6 293.004312 
L 86.6 293.004312 
" style="fill:none;stroke:#800080;stroke-dasharray:12.8,3.2,2,3.2;stroke-dashoffset:0;stroke-width:2;"/>
    </g>
    <g id="line2d_44"/>
    <g id="text_22">
     <!-- New dropout -->
     <defs>
      <path d="M 9.8125 72.90625 
L 23.09375 72.90625 
L 55.421875 11.921875 
L 55.421875 72.90625 
L 64.984375 72.90625 
L 64.984375 0 
L 51.703125 0 
L 19.390625 60.984375 
L 19.390625 0 
L 9.8125 0 
z
" id="DejaVuSans-4e"/>
     </defs>
     <g transform="translate(94.6 296.504312)scale(0.1 -0.1)">
      <use xlink:href="#DejaVuSans-4e"/>
      <use x="74.804688" xlink:href="#DejaVuSans-65"/>
      <use x="136.328125" xlink:href="#DejaVuSans-77"/>
      <use x="218.115234" xlink:href="#DejaVuSans-20"/>
      <use x="249.902344" xlink:href="#DejaVuSans-64"/>
      <use x="313.378906" xlink:href="#DejaVuSans-72"/>
      <use x="354.460938" xlink:href="#DejaVuSans-6f"/>
      <use x="415.642578" xlink:href="#DejaVuSans-70"/>
      <use x="479.119141" xlink:href="#DejaVuSans-6f"/>
      <use x="540.300781" xlink:href="#DejaVuSans-75"/>
      <use x="603.679688" xlink:href="#DejaVuSans-74"/>
     </g>
    </g>
   </g>
  </g>
 </g>
 <defs>
  <clipPath id="pe333163277">
   <rect height="266.112" width="357.12" x="57.6" y="41.472"/>
  </clipPath>
 </defs>
</svg>
